<svg xmlns="http://www.w3.org/2000/svg" xmlns:xlink="http://www.w3.org/1999/xlink" viewBox="0 0 641.52 389.12"><defs><style>.cls-1{fill:none}.cls-2{fill:url(#_10_dpi_20_)}.cls-3{fill:url(#linear-gradient)}.cls-4{clip-path:url(#clippath)}.cls-5{fill:#f4b298}.cls-6{fill:#f9f8f7}.cls-7{fill:#f9fbfc}.cls-8{fill:#0071fb}.cls-9{fill:#69a6a5}.cls-10{fill:#e9e5d9}.cls-11{fill:#fcdacd}.cls-12{fill:#ef6060}.cls-13{fill:#fff}.cls-14{fill:#ffc8af}.cls-15{fill:#e2e1e0}.cls-16{fill:#ec827d}.cls-17{fill:#fbd15b}.cls-18{fill:#b6ffe7}.cls-19{fill:#7352ba}.cls-20{fill:#a5b7c6}.cls-21{fill:#ddedea}.cls-22{fill:#dce8ef}.cls-23{fill:#c3d3dd}.cls-24{fill:#ccd9e2}.cls-25{fill:#231f20}.cls-26{fill:#1c3f47}.cls-27{fill:#878cf0}.cls-28{fill:#2c005b}.cls-29,.cls-30{fill:#56548c}.cls-31{fill:#27debf}.cls-32{fill:#46267d}.cls-33{fill:#74bab6}.cls-34{fill:#606bf1}.cls-35{fill:#5d9b98}.cls-36{fill:url(#New_Gradient_Swatch_8)}.cls-30,.cls-36,.cls-37,.cls-38,.cls-39,.cls-40,.cls-41{mix-blend-mode:screen}.cls-37{fill:url(#New_Gradient_Swatch_8-3)}.cls-38{fill:url(#New_Gradient_Swatch_8-2)}.cls-39{fill:url(#New_Gradient_Swatch_8-4)}.cls-42{clip-path:url(#clippath-1)}.cls-40{fill:url(#Diagonal_Lines_2);opacity:.6}.cls-43{fill:url(#New_Gradient_Swatch_2)}.cls-44{fill:url(#New_Gradient_Swatch_3)}.cls-45{fill:url(#New_Gradient_Swatch_7)}.cls-46{fill:url(#New_Gradient_Swatch_6)}.cls-47{fill:url(#linear-gradient-8)}.cls-48{fill:url(#linear-gradient-9)}.cls-49{fill:url(#linear-gradient-3)}.cls-50{fill:url(#linear-gradient-4)}.cls-51{fill:url(#linear-gradient-2)}.cls-52{fill:url(#linear-gradient-6)}.cls-53{fill:url(#linear-gradient-7)}.cls-54{fill:url(#linear-gradient-5)}.cls-55,.cls-56{opacity:.4}.cls-57{fill:url(#linear-gradient-14)}.cls-58{fill:url(#linear-gradient-13)}.cls-59{fill:url(#linear-gradient-12)}.cls-60{fill:url(#linear-gradient-10)}.cls-61{fill:url(#linear-gradient-11)}.cls-62{isolation:isolate}.cls-63{fill:url(#New_Gradient_Swatch_2-6)}.cls-64{fill:url(#New_Gradient_Swatch_2-5)}.cls-65{fill:url(#New_Gradient_Swatch_2-2)}.cls-66{fill:url(#New_Gradient_Swatch_2-4)}.cls-67{fill:url(#New_Gradient_Swatch_2-3)}.cls-68{fill:url(#New_Gradient_Swatch_2-7)}.cls-69{fill:url(#New_Gradient_Swatch_7-2)}.cls-70{fill:url(#New_Gradient_Swatch_7-3)}.cls-71{fill:url(#New_Gradient_Swatch_3-2)}.cls-72{fill:url(#New_Gradient_Swatch_3-3)}.cls-73{fill:url(#New_Gradient_Swatch_6-3)}.cls-74{fill:url(#New_Gradient_Swatch_6-2)}.cls-75{fill:url(#New_Gradient_Swatch_8-5)}.cls-56{fill:#010507}</style><linearGradient id="linear-gradient" x1="320.88" x2="320.88" y1="60.69" y2="362.38" gradientUnits="userSpaceOnUse"><stop offset="0" stop-color="#c6dff2"/><stop offset="0" stop-color="#c9f4eb"/><stop offset="1" stop-color="#27debf"/></linearGradient><linearGradient id="linear-gradient-2" x1="61.21" x2="248.21" y1="38.9" y2="376.68" gradientUnits="userSpaceOnUse"><stop offset="0" stop-color="#c5efe8"/><stop offset="1" stop-color="#27debf"/></linearGradient><linearGradient id="New_Gradient_Swatch_6" x1="330.03" x2="382.79" y1="77.37" y2="168.77" data-name="New Gradient Swatch 6" gradientUnits="userSpaceOnUse"><stop offset="0" stop-color="#df697b"/><stop offset="1" stop-color="#be2773"/></linearGradient><clipPath id="clippath"><path d="m612.21,281.61c.57-2.4.88-4.9.88-7.47v-54.83c0-17.84-14.47-32.31-32.31-32.31h-11.75v-42.1c0-17.84-14.47-32.31-32.31-32.31h-12.73v-19.59c0-17.84-14.47-32.31-32.31-32.31H234.19c-17.84,0-32.31,14.47-32.31,32.31v19.59h-87.14c-17.84,0-32.31,14.47-32.31,32.31v11.75h-6.85c-17.84,0-32.31,14.47-32.31,32.31v85.18c0,.25.01.5.02.75-14.52,3.17-25.39,16.09-25.39,31.56v23.62c0,17.84,14.47,32.31,32.31,32.31h541.34c17.84,0,32.31-14.47,32.31-32.31v-23.62c0-9.99-4.53-18.91-11.65-24.84Z" class="cls-1"/></clipPath><linearGradient id="New_Gradient_Swatch_2" x1="72.53" x2="159.39" y1="63.26" y2="213.71" data-name="New Gradient Swatch 2" gradientUnits="userSpaceOnUse"><stop offset="0" stop-color="#86bcb2"/><stop offset=".18" stop-color="#81bcb1"/><stop offset=".4" stop-color="#72bfb1"/><stop offset=".63" stop-color="#5bc3b0"/><stop offset=".87" stop-color="#3acaae"/><stop offset="1" stop-color="#25ceae"/></linearGradient><linearGradient id="New_Gradient_Swatch_2-2" x1="92.59" x2="139.33" y1="102.43" y2="183.38" data-name="New Gradient Swatch 2" xlink:href="#New_Gradient_Swatch_2"/><clipPath id="clippath-1"><rect width="615.83" height="362.38" x="8.03" class="cls-1"/></clipPath><linearGradient id="New_Gradient_Swatch_3" x1="475.82" x2="475.82" y1="19.49" y2="107.93" data-name="New Gradient Swatch 3" gradientUnits="userSpaceOnUse"><stop offset="0" stop-color="#5b2a8d"/><stop offset=".17" stop-color="#4a2785"/><stop offset=".43" stop-color="#38247d"/><stop offset=".7" stop-color="#2d2278"/><stop offset="1" stop-color="#2a2277"/></linearGradient><linearGradient id="New_Gradient_Swatch_7" x1="142.41" x2="203.06" y1="207.1" y2="312.15" data-name="New Gradient Swatch 7" gradientUnits="userSpaceOnUse"><stop offset="0" stop-color="#6c8e87"/><stop offset=".21" stop-color="#678f87"/><stop offset=".46" stop-color="#589387"/><stop offset=".73" stop-color="#419988"/><stop offset="1" stop-color="#21a38a"/></linearGradient><linearGradient id="New_Gradient_Swatch_2-3" x1="132.6" x2="217.26" y1="255.24" y2="255.24" data-name="New Gradient Swatch 2" xlink:href="#New_Gradient_Swatch_2"/><linearGradient id="New_Gradient_Swatch_2-4" x1="130.39" x2="139.18" y1="378.17" y2="378.17" data-name="New Gradient Swatch 2" xlink:href="#New_Gradient_Swatch_2"/><linearGradient id="New_Gradient_Swatch_7-2" x1="25.59" x2="103.29" y1="218.09" y2="352.67" data-name="New Gradient Swatch 7" xlink:href="#New_Gradient_Swatch_7"/><linearGradient id="New_Gradient_Swatch_2-5" x1="14.44" x2="96.62" y1="294.09" y2="294.09" data-name="New Gradient Swatch 2" xlink:href="#New_Gradient_Swatch_2"/><linearGradient id="New_Gradient_Swatch_7-3" x1="192.98" x2="228.19" y1="283.14" y2="344.14" data-name="New Gradient Swatch 7" xlink:href="#New_Gradient_Swatch_7"/><linearGradient id="New_Gradient_Swatch_2-6" x1="172.32" x2="250.46" y1="313.43" y2="313.43" data-name="New Gradient Swatch 2" xlink:href="#New_Gradient_Swatch_2"/><linearGradient id="New_Gradient_Swatch_2-7" x1="158.7" x2="176.45" y1="389.44" y2="389.44" data-name="New Gradient Swatch 2" xlink:href="#New_Gradient_Swatch_2"/><linearGradient id="New_Gradient_Swatch_3-2" x1="250.3" x2="259.01" y1="170.1" y2="185.18" data-name="New Gradient Swatch 3" xlink:href="#New_Gradient_Swatch_3"/><linearGradient id="New_Gradient_Swatch_3-3" x1="198.88" x2="247.71" y1="162.07" y2="246.65" data-name="New Gradient Swatch 3" xlink:href="#New_Gradient_Swatch_3"/><pattern id="Diagonal_Lines_2" width="72" height="72" x="0" y="0" data-name="Diagonal Lines 2" patternTransform="translate(1833.15 2496.64) scale(1.36)" patternUnits="userSpaceOnUse" viewBox="0 0 72 72"><g><rect width="72" height="72" y="0" class="cls-1"/><g><line x1="66" x2="84" y1="84" y2="66" class="cls-1"/><line x1="66" x2="90" y1="90" y2="66" class="cls-1"/><line x1="66" x2="96" y1="96" y2="66" class="cls-1"/><line x1="66" x2="102" y1="102" y2="66" class="cls-1"/><line x1="66" x2="108" y1="108" y2="66" class="cls-1"/><line x1="66" x2="114" y1="114" y2="66" class="cls-1"/><line x1="66" x2="120" y1="120" y2="66" class="cls-1"/><line x1="66" x2="126" y1="126" y2="66" class="cls-1"/><line x1="66" x2="132" y1="132" y2="66" class="cls-1"/><line x1="66" x2="138" y1="138" y2="66" class="cls-1"/><line x1="66" x2="144" y1="144" y2="66" class="cls-1"/><line x1="66" x2="150" y1="150" y2="66" class="cls-1"/></g><g><line x1="-6" x2="12" y1="84" y2="66" class="cls-1"/><line x1="-6" x2="18" y1="90" y2="66" class="cls-1"/><line x1="-6" x2="24" y1="96" y2="66" class="cls-1"/><line x1="-6" x2="30" y1="102" y2="66" class="cls-1"/><line x1="-6" x2="36" y1="108" y2="66" class="cls-1"/><line x1="-6" x2="42" y1="114" y2="66" class="cls-1"/><line x1="-6" x2="48" y1="120" y2="66" class="cls-1"/><line x1="-6" x2="54" y1="126" y2="66" class="cls-1"/><line x1="-6" x2="60" y1="132" y2="66" class="cls-1"/><line x1="-6" x2="66" y1="138" y2="66" class="cls-1"/><line x1="-6" x2="72" y1="144" y2="66" class="cls-1"/><line x1="-6" x2="78" y1="150" y2="66" class="cls-1"/></g><line x1="-78" x2="6" y1="150" y2="66" class="cls-1"/><g><line x1="66" x2="84" y1="12" y2="-6" class="cls-1"/><line x1="66" x2="90" y1="18" y2="-6" class="cls-1"/><line x1="66" x2="96" y1="24" y2="-6" class="cls-1"/><line x1="66" x2="102" y1="30" y2="-6" class="cls-1"/><line x1="66" x2="108" y1="36" y2="-6" class="cls-1"/><line x1="66" x2="114" y1="42" y2="-6" class="cls-1"/><line x1="66" x2="120" y1="48" y2="-6" class="cls-1"/><line x1="66" x2="126" y1="54" y2="-6" class="cls-1"/><line x1="66" x2="132" y1="60" y2="-6" class="cls-1"/><line x1="66" x2="138" y1="66" y2="-6" class="cls-1"/><line x1="66" x2="144" y1="72" y2="-6" class="cls-1"/><line x1="66" x2="150" y1="78" y2="-6" class="cls-1"/></g><g><line x1="-6" x2="12" y1="12" y2="-6" class="cls-1"/><line x1="-6" x2="18" y1="18" y2="-6" class="cls-1"/><line x1="-6" x2="24" y1="24" y2="-6" class="cls-1"/><line x1="-6" x2="30" y1="30" y2="-6" class="cls-1"/><line x1="-6" x2="36" y1="36" y2="-6" class="cls-1"/><line x1="-6" x2="42" y1="42" y2="-6" class="cls-1"/><line x1="-6" x2="48" y1="48" y2="-6" class="cls-1"/><line x1="-6" x2="54" y1="54" y2="-6" class="cls-1"/><line x1="-6" x2="60" y1="60" y2="-6" class="cls-1"/><line x1="-6" x2="66" y1="66" y2="-6" class="cls-1"/><line x1="-6" x2="72" y1="72" y2="-6" class="cls-1"/><line x1="-6" x2="78" y1="78" y2="-6" class="cls-1"/><line x2="78" y1="78" y2="0" class="cls-1"/><line x1="6" x2="78" y1="78" y2="6" class="cls-1"/><line x1="12" x2="78" y1="78" y2="12" class="cls-1"/><line x1="18" x2="78" y1="78" y2="18" class="cls-1"/><line x1="24" x2="78" y1="78" y2="24" class="cls-1"/><line x1="30" x2="78" y1="78" y2="30" class="cls-1"/><line x1="36" x2="78" y1="78" y2="36" class="cls-1"/><line x1="42" x2="78" y1="78" y2="42" class="cls-1"/><line x1="48" x2="78" y1="78" y2="48" class="cls-1"/><line x1="54" x2="78" y1="78" y2="54" class="cls-1"/><line x1="60" x2="78" y1="78" y2="60" class="cls-1"/><line x1="66" x2="78" y1="78" y2="66" class="cls-1"/><polygon points="18 0 36 0 0 36 0 18 18 0" class="cls-26"/><polygon points="54 0 0 54 0 60 60 0 54 0" class="cls-26"/><polygon points="72 18 18 72 36 72 72 36 72 18" class="cls-26"/><polygon points="72 54 54 72 60 72 72 60 72 54" class="cls-26"/></g><g><line x1="-78" x2="6" y1="78" y2="-6" class="cls-1"/><line x1="-72" x2="6" y1="78" y2="0" class="cls-1"/><line x1="-66" x2="6" y1="78" y2="6" class="cls-1"/><line x1="-60" x2="6" y1="78" y2="12" class="cls-1"/><line x1="-54" x2="6" y1="78" y2="18" class="cls-1"/><line x1="-48" x2="6" y1="78" y2="24" class="cls-1"/><line x1="-42" x2="6" y1="78" y2="30" class="cls-1"/><line x1="-36" x2="6" y1="78" y2="36" class="cls-1"/><line x1="-30" x2="6" y1="78" y2="42" class="cls-1"/><line x1="-24" x2="6" y1="78" y2="48" class="cls-1"/><line x1="-18" x2="6" y1="78" y2="54" class="cls-1"/><line x1="-12" x2="6" y1="78" y2="60" class="cls-1"/><line x1="-6" x2="6" y1="78" y2="66" class="cls-1"/></g><line x1="66" x2="150" y1="6" y2="-78" class="cls-1"/><g><line x1="-6" x2="78" y1="6" y2="-78" class="cls-1"/><line x2="78" y1="6" y2="-72" class="cls-1"/><line x1="6" x2="78" y1="6" y2="-66" class="cls-1"/><line x1="12" x2="78" y1="6" y2="-60" class="cls-1"/><line x1="18" x2="78" y1="6" y2="-54" class="cls-1"/><line x1="24" x2="78" y1="6" y2="-48" class="cls-1"/><line x1="30" x2="78" y1="6" y2="-42" class="cls-1"/><line x1="36" x2="78" y1="6" y2="-36" class="cls-1"/><line x1="42" x2="78" y1="6" y2="-30" class="cls-1"/><line x1="48" x2="78" y1="6" y2="-24" class="cls-1"/><line x1="54" x2="78" y1="6" y2="-18" class="cls-1"/><line x1="60" x2="78" y1="6" y2="-12" class="cls-1"/><line x1="66" x2="78" y1="6" y2="-6" class="cls-1"/></g><g><line x1="-78" x2="6" y1="6" y2="-78" class="cls-1"/><line x1="-72" x2="6" y1="6" y2="-72" class="cls-1"/><line x1="-66" x2="6" y1="6" y2="-66" class="cls-1"/><line x1="-60" x2="6" y1="6" y2="-60" class="cls-1"/><line x1="-54" x2="6" y1="6" y2="-54" class="cls-1"/><line x1="-48" x2="6" y1="6" y2="-48" class="cls-1"/><line x1="-42" x2="6" y1="6" y2="-42" class="cls-1"/><line x1="-36" x2="6" y1="6" y2="-36" class="cls-1"/><line x1="-30" x2="6" y1="6" y2="-30" class="cls-1"/><line x1="-24" x2="6" y1="6" y2="-24" class="cls-1"/><line x1="-18" x2="6" y1="6" y2="-18" class="cls-1"/><line x1="-12" x2="6" y1="6" y2="-12" class="cls-1"/><line x1="-6" x2="6" y1="6" y2="-6" class="cls-1"/></g></g></pattern><linearGradient id="New_Gradient_Swatch_8" x1="255.79" x2="259.07" y1="198.54" y2="204.22" data-name="New Gradient Swatch 8" gradientUnits="userSpaceOnUse"><stop offset="0" stop-color="#4d5dec"/><stop offset=".33" stop-color="#4136eb"/><stop offset="1" stop-color="#420087"/></linearGradient><linearGradient id="New_Gradient_Swatch_8-2" x1="261.06" x2="266.85" y1="202.95" y2="212.98" data-name="New Gradient Swatch 8" xlink:href="#New_Gradient_Swatch_8"/><linearGradient id="New_Gradient_Swatch_8-3" x1="248.3" x2="253.4" y1="203.3" y2="212.13" data-name="New Gradient Swatch 8" xlink:href="#New_Gradient_Swatch_8"/><linearGradient id="New_Gradient_Swatch_8-4" x1="255.22" x2="259.2" y1="211.01" y2="217.91" data-name="New Gradient Swatch 8" xlink:href="#New_Gradient_Swatch_8"/><linearGradient id="New_Gradient_Swatch_8-5" x1="254.81" x2="260.28" y1="208.2" y2="208.2" data-name="New Gradient Swatch 8" xlink:href="#New_Gradient_Swatch_8"/><linearGradient id="linear-gradient-3" x1="244.9" x2="246.99" y1="221.28" y2="224.91" gradientUnits="userSpaceOnUse"><stop offset="0" stop-color="#5b2a8d"/><stop offset=".02" stop-color="#59298c"/><stop offset=".66" stop-color="#37247c"/><stop offset="1" stop-color="#2a2277"/></linearGradient><linearGradient id="New_Gradient_Swatch_6-2" x1="243.85" x2="248.04" y1="185.4" y2="185.4" data-name="New Gradient Swatch 6" xlink:href="#New_Gradient_Swatch_6"/><linearGradient id="linear-gradient-4" x1="268.29" x2="271.32" y1="184.53" y2="189.77" xlink:href="#linear-gradient-3"/><linearGradient id="linear-gradient-5" x1="256.17" x2="259.2" y1="190.87" y2="196.11" xlink:href="#linear-gradient-3"/><pattern id="_10_dpi_20_" width="28.8" height="28.8" x="0" y="0" data-name="10 dpi 20%" patternTransform="translate(-749.35 -202.74)" patternUnits="userSpaceOnUse" viewBox="0 0 28.8 28.8"><g><rect width="28.8" height="28.8" x="0" y="0" class="cls-1"/><g><path d="m28.8,30.24c.8,0,1.44-.64,1.44-1.44s-.64-1.44-1.44-1.44-1.44.64-1.44,1.44.64,1.44,1.44,1.44Z" class="cls-25"/><path d="m14.4,30.24c.8,0,1.44-.64,1.44-1.44s-.65-1.44-1.44-1.44-1.44.64-1.44,1.44.64,1.44,1.44,1.44Z" class="cls-25"/><path d="m28.8,15.84c.8,0,1.44-.65,1.44-1.44s-.64-1.44-1.44-1.44-1.44.64-1.44,1.44.64,1.44,1.44,1.44Z" class="cls-25"/><path d="m14.4,15.84c.8,0,1.44-.65,1.44-1.44s-.65-1.44-1.44-1.44-1.44.64-1.44,1.44.64,1.44,1.44,1.44Z" class="cls-25"/><path d="m7.2,23.04c.79,0,1.44-.64,1.44-1.44s-.65-1.44-1.44-1.44-1.44.64-1.44,1.44.64,1.44,1.44,1.44Z" class="cls-25"/><path d="m21.6,23.04c.8,0,1.44-.64,1.44-1.44s-.65-1.44-1.44-1.44-1.44.64-1.44,1.44.64,1.44,1.44,1.44Z" class="cls-25"/><path d="m7.2,8.64c.79,0,1.44-.64,1.44-1.44s-.65-1.44-1.44-1.44-1.44.64-1.44,1.44.64,1.44,1.44,1.44Z" class="cls-25"/><path d="m21.6,8.64c.8,0,1.44-.64,1.44-1.44s-.65-1.44-1.44-1.44-1.44.64-1.44,1.44.64,1.44,1.44,1.44Z" class="cls-25"/></g><g><path d="m0,30.24c.79,0,1.44-.64,1.44-1.44s-.64-1.44-1.44-1.44-1.44.64-1.44,1.44.64,1.44,1.44,1.44Z" class="cls-25"/><path d="m0,15.84c.79,0,1.44-.65,1.44-1.44s-.64-1.44-1.44-1.44-1.44.64-1.44,1.44.64,1.44,1.44,1.44Z" class="cls-25"/></g><g><path d="m28.8,1.44c.8,0,1.44-.64,1.44-1.44s-.64-1.44-1.44-1.44-1.44.64-1.44,1.44.64,1.44,1.44,1.44Z" class="cls-25"/><path d="m14.4,1.44c.8,0,1.44-.64,1.44-1.44s-.65-1.44-1.44-1.44-1.44.64-1.44,1.44.64,1.44,1.44,1.44Z" class="cls-25"/></g><path d="m0,1.44c.79,0,1.44-.64,1.44-1.44S.79-1.44,0-1.44-1.44-.8-1.44,0-.8,1.44,0,1.44Z" class="cls-25"/></g></pattern><linearGradient id="New_Gradient_Swatch_6-3" x1="104.28" x2="129.13" y1="197.31" y2="240.35" data-name="New Gradient Swatch 6" xlink:href="#New_Gradient_Swatch_6"/><linearGradient id="linear-gradient-6" x1="417.85" x2="400.23" y1="176.13" y2="170.11" gradientTransform="translate(96.32 129.99) rotate(-24.63)" gradientUnits="userSpaceOnUse"><stop offset="0" stop-color="#efcf64"/><stop offset="1" stop-color="#f9945d"/></linearGradient><linearGradient id="linear-gradient-7" x1="536.73" x2="542.05" y1="113.12" y2="113.12" gradientTransform="matrix(1,0,0,1,0,0)" xlink:href="#linear-gradient-6"/><linearGradient id="linear-gradient-8" x1="410.63" x2="384.27" y1="211.32" y2="197.43" xlink:href="#linear-gradient-6"/><linearGradient id="linear-gradient-9" x1="376.83" x2="416.57" y1="189.98" y2="189.98" xlink:href="#linear-gradient-6"/><linearGradient id="linear-gradient-10" x1="534.06" x2="544.72" y1="155.1" y2="155.1" gradientTransform="matrix(1,0,0,1,0,0)" xlink:href="#linear-gradient-6"/><linearGradient id="linear-gradient-11" x1="279.75" x2="308.32" y1="240.21" y2="289.7" gradientUnits="userSpaceOnUse"><stop offset="0" stop-color="#9776f0"/><stop offset=".33" stop-color="#8a69f2"/><stop offset=".93" stop-color="#694af9"/><stop offset="1" stop-color="#6546fa"/></linearGradient><linearGradient id="linear-gradient-12" x1="149.13" x2="192.77" y1="52.24" y2="127.82" gradientTransform="matrix(1,0,0,1,0,0)" xlink:href="#linear-gradient-6"/><linearGradient id="linear-gradient-13" x1="156.22" x2="181.94" y1="89.54" y2="134.07" gradientTransform="matrix(1,0,0,1,0,0)" xlink:href="#linear-gradient-6"/><linearGradient id="linear-gradient-14" x1="159.96" x2="185.76" y1="45.98" y2="90.68" gradientTransform="matrix(1,0,0,1,0,0)" xlink:href="#linear-gradient-6"/></defs><g class="cls-62"><g id="Layer_2" data-name="Layer 2"><g id="OBJECTS"><g><path d="m540.59,105.16h-127.57c-7.67-10.44-20.03-17.22-33.98-17.22h-.44v-5.65c0-23.28-18.87-42.15-42.15-42.15h-149c-23.28,0-42.15,18.87-42.15,42.15v5.65h-14.49c-23.28,0-42.15,18.87-42.15,42.15v8.92c-15.94,6.01-27.29,21.4-27.29,39.45v58.86c0,23.28,18.87,42.15,42.15,42.15h122.71c23.28,0,42.15-18.87,42.15-42.15v-10.36h60.41c1.63,21.79,19.81,38.96,42.01,38.96h169.78c23.28,0,42.15-18.87,42.15-42.15v-76.46c0-23.28-18.87-42.15-42.15-42.15Z" class="cls-21"/><path d="m612.21,281.61c.57-2.4.88-4.9.88-7.47v-54.83c0-17.84-14.47-32.31-32.31-32.31h-11.75v-42.1c0-17.84-14.47-32.31-32.31-32.31h-12.73v-19.59c0-17.84-14.47-32.31-32.31-32.31H234.19c-17.84,0-32.31,14.47-32.31,32.31v19.59h-87.14c-17.84,0-32.31,14.47-32.31,32.31v11.75h-6.85c-17.84,0-32.31,14.47-32.31,32.31v85.18c0,.25.01.5.02.75-14.52,3.17-25.39,16.09-25.39,31.56v23.62c0,17.84,14.47,32.31,32.31,32.31h541.34c17.84,0,32.31-14.47,32.31-32.31v-23.62c0-9.99-4.53-18.91-11.65-24.84Z" class="cls-3"/><path d="m282.41,60.69h-48.22c-17.84,0-32.31,14.47-32.31,32.31v19.59h-87.14c-17.84,0-32.31,14.47-32.31,32.31v11.75h-6.85c-17.84,0-32.31,14.47-32.31,32.31v85.18c0,.25.01.5.02.75-14.52,3.17-25.39,16.09-25.39,31.56v23.62c0,17.84,14.47,32.31,32.31,32.31h232.2V60.69Z" class="cls-51"/><g><path d="m409.8,136.1c0,13.57-4.64,24.56-18.2,24.56h-69.79c-13.57,0-19.65-11-19.65-24.56v-25.97c0-13.57,5.51-24.56,19.07-24.56h70.94c13.57,0,17.63,10.99,17.63,24.56v25.97Z" class="cls-46"/><polygon points="339.83 102.84 379.88 123.74 339.83 144.63 339.83 102.84" class="cls-13"/></g><g class="cls-4"><g><rect width="109.14" height="137.58" x="61.39" y="69.7" class="cls-43"/><rect width="88.98" height="112.16" x="71.47" y="82.41" class="cls-18"/><rect width="58.73" height="74.03" x="86.59" y="105.89" class="cls-65"/></g></g><g class="cls-42"><g><path d="m527.96,331.01c-5.18-56.92,17.44-181.43-12.99-188.93-19.73-4.87-35.84-6.09-49.84-6.09s-30.11,1.23-49.84,6.09c-30.43,7.5-7.81,132.01-12.99,188.93-4.58,50.3,10.92,44.85,62.84,44.85s67.42,5.45,62.84-44.85Z" class="cls-5"/><path d="m483.55,115.79l-18.43,2.49-18.42-2.49v21.51c12.42,4.24,18.37,4.67,18.42,4.68h0s0,0,0,0h0s0,0,0,0c.05,0,6-.44,18.42-4.68v-21.51Z" class="cls-5"/><path d="m429.43,146.01c-27.39-35.08-101.49,70.76-111.58,102.59-10.09,31.83,19.49,9.08,59.42-28.61,39.93-37.69,62.94-60.18,52.16-73.98Z" class="cls-14"/><path d="m493.63,147.43c28.14-34.47,99.93,72.94,109.33,104.99,9.4,32.04-19.68,8.66-58.78-29.89-39.1-38.55-61.62-61.53-50.55-75.09Z" class="cls-14"/><g><path d="m590.95,242.88c36.69,1.06-9.38,109.2-28.26,133.06-18.88,23.86-14.61-9.08-3.79-57.21,10.82-48.13,17.62-76.27,32.05-75.85Z" class="cls-14"/><path d="m550.89,375.15c12.46-5.67,19.82,16.94,22.04,24.74,3.62,12.71-1.77,30.31-6.79,31.84-5.02,1.52-11.54-27.9-12.97-28.52-1.44-.61.36,14.01-4.5,14.95-4.86.95-9.73-18.1-8.7-26.41,1.03-8.31,3.11-13.05,10.92-16.61Z" class="cls-14"/></g><path d="m328.51,260.02c-26.45,25.45-71.4-83.16-75.21-113.35-3.81-30.19,16.71-4.07,43.5,37.36,26.78,41.43,42.12,65.98,31.71,75.99Z" class="cls-14"/><path d="m267.84,139.82l-.11-1.06-.48-16.19c-.06-2.11-.65-4.18-1.7-6.01l-6.31-11.01s-4.35,3.53-3,7.33c.93,2.61.31,7.36-.18,10.13l-3.61-4.6-12.19-13.93c-2.46-2.82-6.9-2.63-9.12.37l-2.92,3.95c-2.51,3.4-3.03,7.87-1.37,11.75l6.5,15.18,23.98,24.12,14.02-12.2-3.51-7.85Z" class="cls-14"/><path d="m446.7,135.65c3.79,5.68,9.47,8.84,19.29,8.84s16.3-5.82,17.56-8.51c0,0,31.18,2.15,42,5.99s63.05,74.17,63.05,74.17c0,0-9.3,18.18-32.46,27.05l-23.24-22.07v145.48s-26.65,7.64-68.5,7.64-72.15-6.34-72.15-6.34l3.89-152.1-30.29,25.66s-16.93-8.83-30.76-29.94c0,0,33.7-43.57,51.21-61.8,15.74-16.39,60.4-14.06,60.4-14.06Z" class="cls-31"/><g class="cls-41"><g><path d="m503.53,215.63h-.07l-18.4-.18c-1.94-.02-3.51-.8-4.55-2.26-.9-1.27-1.37-3.02-1.35-5.05l.07-6.85c.02-2.05.49-3.78,1.36-5.01,1.02-1.45,2.65-2.21,4.52-2.19l18.7.18c1.96.02,3.41.8,4.31,2.31.72,1.2,1.07,2.88,1.05,5l-.07,6.85c-.02,2.1-.43,3.78-1.23,4.99-.95,1.45-2.46,2.22-4.35,2.22Zm-18.48-19.98c-1.39,0-2.46.51-3.17,1.53-.69.97-1.06,2.4-1.07,4.12l-.07,6.85c-.02,1.7.35,3.13,1.06,4.13.74,1.05,1.85,1.59,3.28,1.6l18.4.18c1.42.04,2.42-.48,3.09-1.51.63-.96.96-2.35.97-4.15l.07-6.85c.02-1.82-.26-3.23-.83-4.18-.61-1.03-1.59-1.54-2.98-1.55l-18.7-.18h-.05Z" class="cls-12"/><polygon points="489.97 199.47 500.47 205.08 489.86 210.49 489.97 199.47" class="cls-12"/></g></g><path d="m526.48,368.15c4.18-.91,6.42-1.55,6.42-1.55v-145.48l23.24,22.07c1.48-.57,2.9-1.17,4.27-1.81l-31.86-36.4-2.06,163.18Z" class="cls-31"/><path d="m526.48,368.15c4.18-.91,6.42-1.55,6.42-1.55v-145.48l23.24,22.07c1.48-.57,2.9-1.17,4.27-1.81l-31.86-36.4-2.06,163.18Z" class="cls-56"/><g><path d="m397.85,204.85l-37.13,33.38c3.15,2.2,5.13,3.23,5.13,3.23l30.29-25.66,1.7-10.95Z" class="cls-31"/><path d="m397.85,204.85l-37.13,33.38c3.15,2.2,5.13,3.23,5.13,3.23l30.29-25.66,1.7-10.95Z" class="cls-31"/></g><g class="cls-55"><path d="m397.85,204.85l-37.13,33.38c3.15,2.2,5.13,3.23,5.13,3.23l30.29-25.66,1.7-10.95Z" class="cls-31"/><path d="m397.85,204.85l-37.13,33.38c3.15,2.2,5.13,3.23,5.13,3.23l30.29-25.66,1.7-10.95Z"/></g><g><g><path d="m479.82,31.95c-30.63-4.72-40.67,23.21-43.87,45.32-.31,2.04-.49,3.88-.68,5.73,0,0-.02.24-.04.59-2.97,21.93,7.11,46.5,28.96,49.87,22.35,3.45,41.34-17.96,43.83-40.18.05-.44.08-.84.12-1.26.26-1.12.51-2.27.76-3.5,4.32-21.94,3.78-51.51-29.09-56.57Z" class="cls-14"/><g><g><path d="m509.18,88.57c2.03-.31,6.91-1.75,4.67,7.25-3.88,15.55-10.58,13.51-10.58,13.51.75-2.18,1.85-5.24,2.92-8.82-1.63-1.79,1.05-3.37,1.43-5.2.15-.29.21-.7.27-1.1.49-1.8.87-3.62,1.29-5.64Z" class="cls-14"/><path d="m507.9,94.21s2.57-2.47,4.02-1.1c1.45,1.37-.48,6.24-2.23,9.05-1.74,2.81-3.2,2.85-3.32,1.98-.12-.87,3-2.2,2.21-3.77-.79-1.57-1.79-1.98-1.56-2.8.22-.81.88-3.36.88-3.36Z" class="cls-5"/></g><g><path d="m435.98,77.28c-1.84-.91-6.07-3.75-6.64,5.51-.99,16,6.02,16.07,6.02,16.07-.06-2.3-.19-5.55-.13-9.29,2.09-1.22.01-3.53.21-5.39-.05-.32,0-.73.07-1.14.08-1.86.26-3.71.47-5.76Z" class="cls-14"/><path d="m435.5,83.04s-1.71-3.13-3.5-2.26c-1.79.87-1.42,6.1-.6,9.3.82,3.2,2.2,3.68,2.57,2.89.38-.79-2.2-3-.97-4.27,1.23-1.26,2.3-1.35,2.33-2.2s.17-3.47.17-3.47Z" class="cls-5"/></g></g><g><path d="m492.99,87.57c-.34,2.19-2.38,3.69-4.57,3.35-2.19-.34-3.69-2.38-3.35-4.57.34-2.19,2.38-3.68,4.57-3.35,2.19.34,3.69,2.38,3.35,4.57Z" class="cls-32"/><path d="m459.43,82.39c-.34,2.19-2.38,3.69-4.57,3.35-2.19-.34-3.69-2.38-3.35-4.57.34-2.19,2.38-3.69,4.57-3.35,2.19.34,3.68,2.38,3.35,4.57Z" class="cls-32"/></g><g><path d="m483.18,77.21s10.13,1.44,15.4,3.47c0,0-.18-2.03-2.33-3.03-2.15-1-11.64-3.92-12.56-3.82-.92.1-.52,3.38-.52,3.38Z" class="cls-32"/><path d="m464,74.25s-10.09-1.68-15.73-1.33c0,0,.78-1.88,3.13-2.19,2.35-.31,12.28-.23,13.12.14.85.37-.52,3.38-.52,3.38Z" class="cls-32"/></g><path d="m474.85,102.24c-.1.66-2.52.84-5.41.4-2.88-.44-5.14-1.34-5.04-2.01.1-.66,2.52-.84,5.41-.4,2.88.44,5.14,1.34,5.04,2.01Z" class="cls-5"/><path d="m471.61,119.17c-.09.59-2.23.74-4.77.35-2.55-.39-4.53-1.19-4.44-1.77.09-.59,2.23-.74,4.77-.35,2.55.39,4.53,1.19,4.44,1.77Z" class="cls-5"/><g><path d="m482.67,108.19c-1.72-1.9-9.32-.64-13.91-1.12-4.53-.92-11.39-4.41-13.6-3.12-.45.26-.7.75-.71,1.38-.06,2.56,3.68,7.5,13.19,9.05,9.53,1.39,14.59-2.2,15.3-4.66.18-.61.09-1.15-.26-1.53Z" class="cls-16"/><path d="m482.67,108.19c-1.72-1.9-9.32-.64-13.91-1.12-4.53-.92-11.39-4.41-13.6-3.12-.45.26-.7.75-.71,1.38,2.94,1.34,8.39,3.61,13.87,4.6,5.52.71,11.4.18,14.61-.2.18-.61.09-1.15-.26-1.53Z" class="cls-6"/></g></g><path d="m511.81,37.54c-1.1-1.86-4.36-2.16-6.29-2.31-1.55-9.34-14.44-14.21-23.42-15.43-.99-.13-1.92-.22-2.8-.27-8.4-.45-17.79,2.45-25.17,6.35-8.45,4.46-11.82,10.85-14.82,19.46-1.66,4.78-2.72,9.76-3.37,14.77-.85,6.55-1.1,13.26-.58,19.84.02.23.04.45.06.68l.05-.17-.17,16.91,1.18-1.11s.22-16.62,1.5-23.57l4.67-14.51c3.51-.45,7.02-.9,10.54-1.36-1.4,1.72-3.23,3.09-5.27,3.97,5.51-.29,11.02-.61,16.52-1.07,3.81-.32,7.62-.72,11.41-1.23l-2.08,3.97c20.45-1.14,30.78-9.31,30.78-9.31,4.37,8.22,5.27,18.35,4.34,29.47l-.12-.36c-.31,6.04-5.8,24.27-5.8,24.27l.79,1.41,6.46-21.18-.13-.4c4.06-10,11.29-32.62,1.72-48.81Zm-68.6,18.94l.84-2.61c.48,0,.96,0,1.44.06-.76.85-1.52,1.71-2.28,2.56Z" class="cls-44"/><path d="m467.79,94.47c-.56,1.64-1.49,2.81-2.09,2.61s-.62-1.7-.07-3.34c.56-1.64,1.49-2.81,2.09-2.61s.62,1.7.07,3.34Z" class="cls-11"/><circle cx="487.59" cy="85.21" r="1.08" class="cls-19"/><circle cx="454.44" cy="80.02" r="1.08" class="cls-19"/></g><path d="m254.03,141.93c-3.51-5.11-1.02-11.97,1.18-18.02l.39-1.07.94.34-.39,1.07c-2.12,5.82-4.52,12.42-1.29,17.11l-.82.57Z" class="cls-5"/><path d="m245.32,119.15c-.07-.11-7.37-11.01-12.65-15.03l.61-.8c5.41,4.11,12.58,14.81,12.88,15.27l-.83.55Z" class="cls-5"/><path d="m240.23,121.86c-.06-.1-6.52-9.75-11.12-14.37l.71-.71c4.68,4.69,11.18,14.42,11.25,14.52l-.83.55Z" class="cls-5"/><rect width="1" height="17.28" x="231.75" y="110.64" class="cls-5" transform="translate(-26.65 153.05) rotate(-34.62)"/></g><g><g><path d="m223.97,172.31c-.43,4.48-1.49,8.88-2.84,13.14-1.42,4.26-3.13,8.31-5.19,12.36-1.28,2.49-3.98,5.61-3.98,8.6-2.77.35-5.9.21-8.81.35,3.2,1.85,4.83,2.13,3.2,5.75-3.2,6.89-7.46,13.21-10.8,20.03-1.56,3.13-3.48,6.39-4.33,9.8-.64,2.7-.21,6.61-2.13,8.88-2.34,2.77-12.22-1.35-15.27-1.42,2.27,2.63,6.75,6.75,10.37,7.1-1.92,1.07-4.97,1.28-7.32,1.35,2.56,1.14,5.4,1.85,7.74,2.91-.64,2.34-.5,5.04-.99,7.53-.64,3.2-.99,6.25-1.56,9.45-.85,4.4-.85,14.63-4.62,17.48-3.69,2.84-15.77,3.77-19.61,1.56,3.76,3.91,13.64,6.61,18.83,5.12-.36,8.45-4.12,18.76-8.17,26.14-4.48,8.1-12.72,11.94-20.25,10.16-3.84-.92-7.46-3.27-10.23-7.32.07-1.7.28-3.34.43-5.04.78-8.31,2.06-16.55,3.98-24.72,3.91-16.2,9.73-31.76,17.05-46.68,14.56-29.98,38.15-52.93,57.76-79.36.14-.21-.14-.43-.28-.21-11.15,14.28-23.8,27.21-35.45,41.13-10.23,12.29-19.04,25.65-26.07,40.07-7.32,14.99-12.72,30.98-16.62,47.17-2.42,10.02-5.4,20.96-6.18,31.61-5.83,3.98-14.64,3.62-20.67.43-8.17-4.26-10.94-12.93-10.59-21.67.14-3.98.85-8.24,1.28-12.08.43-3.41,2.77-7.18,2.13-10.66,3.2-.43,6.47.21,9.66.07-1.92-2.34-5.26-3.98-7.89-5.47,1.28-2.56,2.34-8.67,4.33-10.51,1.99-1.85,7.81-.43,10.37-.07-1.7-2.13-4.05-4.05-6.39-5.4-.07-7.46,5.04-16.41,8.38-22.81,2.56-4.83,6.04-9.38,8.38-14.28,3.48,1.85,7.32,3.27,10.87,5.33,4.33,2.49,8.74,5.47,13.71,6.61-2.56-2.49-5.26-4.9-8.03-7.1-4.26-3.41-7.03-8.17-11.23-11.51,1.63-1.85,2.34-4.12,3.69-6.04,1.35-1.99,13.36-18.33,14.92-16.98,3.48,2.91,7.96,5.04,11.51,8.17-1.28-2.7-2.7-6.32-4.05-8.88,1.99,1.63,5.68,3.13,7.46,4.33-.99-2.42-3.62-9.17-6.25-9.52,4.05-1.35,7.32-4.26,10.51-6.96,2.98-2.56,6.39-4.4,9.95-6.18,2.49-1.21,5.33-1.99,7.53-3.34,1.14,1.99,5.61,2.7,7.53,3.91-.07-2.2-1.21-5.12-2.13-7.25,9.31-5.26,19.25-7.82,25.86-17.12-.85,1.21.71,9.95.5,12.01Z" class="cls-45"/><g><path d="m217.22,175.51c-19.61,26.43-43.2,49.38-57.76,79.36-7.32,14.92-13.14,30.48-17.05,46.68-1.92,8.17-3.2,16.41-3.98,24.72-.14,1.71-.36,3.34-.43,5.04-.28-.36-.57-.71-.78-1.14-1.14,2.2-2.7,3.91-4.62,5.12.78-10.66,3.76-21.6,6.18-31.61,3.91-16.2,9.31-32.18,16.62-47.17,7.03-14.42,15.84-27.78,26.07-40.07,11.65-13.92,24.3-26.86,35.45-41.13.14-.21.43,0,.28.21Z" class="cls-67"/><path d="m139.16,423.73c.5,2.84-7.8,3.4-8.44.63-1.28-5.4,1.53-83.39,1.89-89.07,1.92-1.21,3.48-2.91,4.62-5.12.21.43.5.78.78,1.14-.71,6.68.09,85.82,1.16,92.42Z" class="cls-66"/></g></g><g><path d="m9.04,237.33c.84,3.32,2.15,6.51,3.66,9.57,1.56,3.04,3.31,5.9,5.33,8.71,1.25,1.72,3.64,3.77,3.99,6.01,2.13-.05,4.46-.52,6.67-.75-2.19,1.76-3.39,2.16-1.74,4.7,3.2,4.82,7.14,9.09,10.44,13.83,1.54,2.17,3.36,4.41,4.39,6.88.79,1.96.92,4.95,2.63,6.44,2.08,1.82,9.04-2.43,11.33-2.83-1.41,2.24-4.3,5.86-6.99,6.54,1.57.58,3.89.39,5.66.17-1.79,1.15-3.85,2.01-5.49,3.09.75,1.69.96,3.74,1.62,5.55.85,2.33,1.47,4.59,2.27,6.93,1.15,3.22,2.33,10.92,5.49,12.62,3.11,1.71,12.31,1.01,14.94-1.09-2.38,3.38-9.5,6.55-13.58,6.02,1.24,6.32,5.27,13.64,9.17,18.74,4.3,5.58,10.95,7.52,16.41,5.31,2.78-1.14,5.24-3.32,6.86-6.69-.25-1.28-.6-2.48-.9-3.75-1.55-6.17-3.46-12.22-5.85-18.15-4.81-11.74-10.99-22.78-18.22-33.17-14.42-20.89-34.82-35.44-52.63-53.07-.13-.14.06-.34.19-.19,10.04,9.46,21.05,17.73,31.43,26.87,9.12,8.07,17.29,17.11,24.25,27.15,7.24,10.44,13.15,21.85,17.96,33.59,2.97,7.26,6.48,15.15,8.3,23.08,4.84,2.32,11.43,1.04,15.61-2.06,5.66-4.15,6.74-11,5.47-17.53-.57-2.98-1.59-6.1-2.36-8.94-.71-2.52-2.91-5.08-2.83-7.78-2.46.05-4.84.91-7.26,1.17,1.17-1.99,3.5-3.6,5.3-5.03-1.26-1.78-2.76-6.25-4.48-7.41-1.71-1.16-5.93.58-7.82,1.14,1.04-1.8,2.58-3.52,4.19-4.8-.81-5.62-5.69-11.77-8.94-16.2-2.48-3.34-5.63-6.36-7.96-9.78-2.41,1.79-5.13,3.3-7.57,5.26-2.98,2.37-5.95,5.13-9.56,6.56,1.64-2.17,3.39-4.3,5.22-6.27,2.82-3.06,4.35-6.96,7.12-9.96-1.44-1.2-2.24-2.83-3.48-4.12-1.25-1.34-12.17-12.26-13.19-11.06-2.28,2.59-5.41,4.72-7.72,7.48.65-2.18,1.3-5.07,2.02-7.15-1.31,1.46-3.92,3.01-5.11,4.12.47-1.93,1.67-7.32,3.61-7.89-3.2-.55-6-2.36-8.72-4.03-2.54-1.58-5.32-2.58-8.2-3.5-2.01-.62-4.24-.88-6.05-1.64-.63,1.63-3.91,2.68-5.22,3.81-.2-1.67.32-3.99.77-5.7-7.61-2.88-15.39-3.66-21.44-9.9.78.81.61,7.57,1.01,9.09Z" class="cls-69"/><g><path d="m14.49,238.96c17.81,17.63,38.21,32.18,52.63,53.07,7.23,10.39,13.41,21.42,18.22,33.17,2.39,5.93,4.3,11.98,5.85,18.15.3,1.27.65,2.47.9,3.75.17-.3.35-.6.46-.95,1.11,1.53,2.48,2.63,4.07,3.32-1.82-7.93-5.33-15.82-8.3-23.08-4.81-11.74-10.72-23.15-17.96-33.59-6.96-10.04-15.13-19.08-24.25-27.15-10.38-9.14-21.39-17.41-31.43-26.87-.13-.14-.32.05-.19.19Z" class="cls-64"/><path d="m101.44,416.29c-.05,2.2,6.87,1.61,7.03-.54.34-4.21-10.94-62.05-11.86-66.29-1.58-.69-2.96-1.79-4.07-3.32-.11.35-.28.65-.46.95,1.31,4.94,9.39,64.11,9.35,69.2Z" class="cls-8"/></g></g><g><path d="m255.33,265.19c-.9,2.91-2.21,5.68-3.69,8.33-1.53,2.63-3.22,5.08-5.14,7.48-1.19,1.47-3.41,3.17-3.82,5.15-1.89-.15-3.94-.67-5.89-.98,1.87,1.66,2.91,2.08,1.33,4.26-3.07,4.13-6.76,7.74-9.92,11.8-1.47,1.86-3.19,3.76-4.22,5.91-.8,1.7-1.05,4.35-2.63,5.6-1.94,1.51-7.92-2.58-9.93-3.04,1.15,2.06,3.55,5.4,5.9,6.14-1.42.44-3.47.16-5.04-.11,1.54,1.11,3.33,1.97,4.73,3-.75,1.47-1.02,3.28-1.7,4.86-.86,2.03-1.52,4.01-2.34,6.05-1.17,2.8-2.58,9.59-5.47,10.95-2.84,1.38-10.98.33-13.22-1.66,1.96,3.11,8.14,6.26,11.78,5.98-1.4,5.56-5.31,11.87-9.01,16.21-4.08,4.76-10.08,6.17-14.82,3.95-2.42-1.14-4.5-3.19-5.78-6.26.28-1.12.65-2.18.98-3.29,1.66-5.4,3.64-10.69,6.04-15.85,4.82-10.2,10.82-19.72,17.73-28.61,13.78-17.88,32.58-29.85,49.22-44.68.12-.12-.04-.3-.16-.18-9.36,7.94-19.53,14.77-29.17,22.4-8.47,6.74-16.15,14.39-22.8,22.99-6.91,8.93-12.69,18.79-17.51,29-2.98,6.31-6.46,13.16-8.45,20.12-4.41,1.84-10.2.39-13.77-2.56-4.83-3.95-5.48-10.08-4.04-15.83.64-2.62,1.7-5.35,2.51-7.83.75-2.2,2.82-4.38,2.88-6.77,2.18.16,4.26,1.03,6.4,1.38-.95-1.82-2.94-3.36-4.48-4.71,1.2-1.52,2.75-5.43,4.32-6.38,1.57-.95,5.24.79,6.89,1.38-.84-1.65-2.13-3.24-3.5-4.46.98-4.96,5.6-10.19,8.7-13.97,2.36-2.85,5.29-5.39,7.52-8.32,2.05,1.7,4.4,3.17,6.48,5.03,2.53,2.24,5.04,4.83,8.18,6.27-1.35-2-2.81-3.97-4.35-5.82-2.36-2.85-3.54-6.39-5.86-9.18,1.34-1,2.12-2.41,3.28-3.5,1.17-1.13,11.38-10.32,12.23-9.21,1.91,2.41,4.58,4.44,6.51,7-.48-1.97-.92-4.56-1.46-6.45,1.09,1.36,3.34,2.85,4.35,3.9-.33-1.74-1.14-6.58-2.84-7.17,2.87-.34,5.44-1.82,7.93-3.17,2.33-1.29,4.85-2.04,7.45-2.73,1.82-.46,3.81-.59,5.45-1.18.48,1.48,3.35,2.56,4.46,3.63.26-1.47-.1-3.56-.42-5.1,6.89-2.21,13.84-2.53,19.5-7.8-.73.68-.9,6.69-1.32,8.03Z" class="cls-70"/><g><path d="m250.41,266.38c-16.64,14.83-35.44,26.8-49.22,44.68-6.9,8.89-12.91,18.4-17.73,28.61-2.4,5.15-4.38,10.44-6.04,15.85-.33,1.11-.69,2.17-.98,3.29-.14-.27-.28-.55-.36-.86-1.06,1.3-2.33,2.22-3.77,2.76,1.98-6.96,5.47-13.8,8.45-20.12,4.82-10.2,10.6-20.06,17.51-29,6.65-8.6,14.33-16.24,22.8-22.99,9.64-7.63,19.81-14.47,29.17-22.4.12-.12.28.06.16.18Z" class="cls-63"/><path d="m164.92,419.83c-.06,1.95-6.18,1.11-6.22-.81-.11-3.76,12.6-54.6,13.62-58.32,1.44-.54,2.71-1.45,3.77-2.76.08.31.22.59.36.86-1.39,4.33-11.33,56.5-11.53,61.03Z" class="cls-68"/></g></g></g></g><rect width="641.52" height="32.64" y="346.06" class="cls-23"/><rect width="119.72" height="17.46" x="164.69" y="354.1" class="cls-20" rx="7.53" ry="7.53"/><rect width="66.9" height="9.79" x="305.76" y="354.24" class="cls-20" rx="4.3" ry="4.3"/><path d="m142.94,366.3H42.46c-2.7,0-4.9-2.19-4.9-4.9h0c0-2.7,2.19-4.9,4.9-4.9h100.48c2.7,0,4.9,2.19,4.9,4.9h0c0,2.7-2.19,4.9-4.9,4.9Z" class="cls-20"/><path d="m564.23,348.03h58.31c2.37,0,4.3,1.93,4.3,4.3v1.2c0,2.37-1.93,4.3-4.3,4.3h-58.31c-2.37,0-4.3-1.93-4.3-4.3v-1.2c0-2.37,1.93-4.3,4.3-4.3Z" class="cls-20"/><path d="m537.52,362.72h-107.16c-2.1,0-3.8-1.7-3.8-3.8h0c0-2.1,1.7-3.8,3.8-3.8h107.16c2.1,0,3.8,1.7,3.8,3.8h0c0,2.1-1.7,3.8-3.8,3.8Z" class="cls-20"/><path d="m630.2,389.12H11.31c-6.25,0-11.31-5.07-11.31-11.31h641.52c0,6.25-5.07,11.31-11.31,11.31Z" class="cls-20"/><g><path d="m221.59,369.07c-1.1,0-2-.9-2-2v-131.31c0-1.1.9-2,2-2s2,.9,2,2v131.31c0,1.1-.9,2-2,2Z" class="cls-28"/><path d="m221.59,243.81h0c-3.05,0-5.53-2.47-5.53-5.53v-5.87c0-3.05,2.47-5.53,5.53-5.53h0c3.05,0,5.53,2.47,5.53,5.53v5.87c0,3.05-2.47,5.53-5.53,5.53Z" class="cls-28"/><rect width="18.2" height="39.1" x="212.49" y="281.44" class="cls-28"/><rect width="11.05" height="39.1" x="216.06" y="261.89" class="cls-28"/><path d="m259.57,361.82c-.57,0-1.13-.24-1.53-.71l-36.25-43.04-36.24,43.04c-.71.84-1.97.95-2.82.24-.84-.71-.95-1.97-.24-2.82l37.18-44.16c.03-.15.08-.3.15-.45.33-.7,1.04-1.16,1.81-1.16h.32c.78,0,1.49.45,1.81,1.16.07.15.12.3.15.45l37.18,44.16c.71.84.6,2.11-.24,2.82-.37.32-.83.47-1.29.47Z" class="cls-28"/><g><path d="m247.81,172.21h14.26c2.37,0,4.3,1.93,4.3,4.3v4.41h-22.87v-4.41c0-2.37,1.93-4.3,4.3-4.3Z" class="cls-71"/><path d="m274.1,176.51h-43.11c-2.67,0-5.09-1.53-6.24-3.94l-2.86-6.02h-30.45l-2.86,6.02c-1.14,2.41-3.57,3.94-6.24,3.94h-9.27c-1.17,0-2.12.95-2.12,2.12v52.47c0,1.17.95,2.12,2.12,2.12h101.03c1.17,0,2.12-.95,2.12-2.12v-52.47c0-1.17-.95-2.12-2.12-2.12Z" class="cls-72"/><g><rect width="60.79" height="46.19" x="176.55" y="181.77" class="cls-30"/><rect width="60.79" height="46.19" x="176.55" y="181.77" class="cls-40"/></g><g><path d="m257.55,198.29c-5.48,0-9.91,4.43-9.91,9.91s4.43,9.91,9.91,9.91,9.91-4.43,9.91-9.91-4.45-9.91-9.91-9.91Zm0,15.79c-3.24,0-5.88-2.63-5.88-5.88s2.63-5.88,5.88-5.88,5.88,2.63,5.88,5.88-2.63,5.88-5.88,5.88Z" class="cls-28"/><g class="cls-41"><g><path d="m253.31,203.33c1.14-.99,2.62-1.59,4.24-1.59,1.4,0,2.69.45,3.74,1.2l1.98-1.98c-1.58-1.25-3.56-2-5.73-2-2.38,0-4.56.91-6.2,2.4l1.97,1.97Z" class="cls-36"/><path d="m264.01,208.2c0,1.62-.6,3.1-1.59,4.24l1.97,1.97c1.49-1.64,2.4-3.82,2.4-6.2,0-2.7-1.16-5.13-3.01-6.82l-1.97,1.97c1.35,1.19,2.2,2.92,2.2,4.85Z" class="cls-38"/><path d="m251.08,208.2c0-1.71.67-3.26,1.76-4.42l-1.96-1.96c-1.59,1.66-2.57,3.91-2.57,6.38,0,2.16.75,4.15,2,5.73l1.98-1.98c-.76-1.06-1.2-2.35-1.2-3.74Z" class="cls-37"/><path d="m261.96,212.91c-1.16,1.09-2.71,1.76-4.42,1.76-1.93,0-3.66-.86-4.85-2.2l-1.97,1.97c1.69,1.85,4.12,3.01,6.82,3.01,2.47,0,4.72-.98,6.38-2.57l-1.96-1.96Z" class="cls-39"/></g><circle cx="257.54" cy="208.2" r="2.73" class="cls-75"/></g></g><g><path d="m248.04,223.09c0,1.16-.94,2.09-2.09,2.09s-2.09-.94-2.09-2.09.94-2.09,2.09-2.09,2.09.94,2.09,2.09Z" class="cls-49"/><path d="m245.94,225.69c-1.43,0-2.59-1.16-2.59-2.59s1.16-2.59,2.59-2.59,2.59,1.16,2.59,2.59-1.16,2.59-2.59,2.59Zm0-4.19c-.88,0-1.59.71-1.59,1.59s.72,1.59,1.59,1.59,1.59-.72,1.59-1.59-.71-1.59-1.59-1.59Z" class="cls-28"/></g><g><path d="m248.04,185.4c0,1.16-.94,2.09-2.09,2.09s-2.09-.94-2.09-2.09.94-2.09,2.09-2.09,2.09.94,2.09,2.09Z" class="cls-74"/><path d="m245.94,187.99c-1.43,0-2.59-1.16-2.59-2.59s1.16-2.59,2.59-2.59,2.59,1.16,2.59,2.59-1.16,2.59-2.59,2.59Zm0-4.19c-.88,0-1.59.72-1.59,1.59s.72,1.59,1.59,1.59,1.59-.72,1.59-1.59-.71-1.59-1.59-1.59Z" class="cls-28"/></g><g><path d="m272.83,187.15c0,1.67-1.36,3.03-3.03,3.03s-3.03-1.36-3.03-3.03,1.36-3.03,3.03-3.03,3.03,1.36,3.03,3.03Z" class="cls-50"/><path d="m269.8,190.68c-1.95,0-3.53-1.58-3.53-3.53s1.58-3.53,3.53-3.53,3.53,1.58,3.53,3.53-1.58,3.53-3.53,3.53Zm0-6.06c-1.39,0-2.53,1.13-2.53,2.53s1.13,2.53,2.53,2.53,2.53-1.13,2.53-2.53-1.13-2.53-2.53-2.53Z" class="cls-28"/></g><g><path d="m260.72,193.49c0,1.67-1.36,3.03-3.03,3.03s-3.03-1.36-3.03-3.03,1.36-3.03,3.03-3.03,3.03,1.36,3.03,3.03Z" class="cls-54"/><path d="m257.69,197.02c-1.95,0-3.53-1.58-3.53-3.53s1.58-3.53,3.53-3.53,3.53,1.58,3.53,3.53-1.58,3.53-3.53,3.53Zm0-6.06c-1.39,0-2.53,1.13-2.53,2.53s1.13,2.53,2.53,2.53,2.53-1.13,2.53-2.53-1.13-2.53-2.53-2.53Z" class="cls-28"/></g><path d="m216.66,175.83h-19.66c-.6,0-1.04-.58-.87-1.16l.84-2.94c.11-.39.47-.66.87-.66h17.99c.41,0,.76.27.87.66l.84,2.94c.17.58-.27,1.16-.87,1.16Z" class="cls-28"/></g></g><g><path d="m317.07,340.79c-3.45,0-6.27-2.82-6.28-6.28l.02-12.97h6.1v-3.83h-7.04c-1.6,0-2.9,1.3-2.9,2.9v13.89c0,5.57,4.53,10.1,10.1,10.1h.77v-3.83h-.77Z" class="cls-6"/><path d="m362.28,314.46h-46.14v33.38c0,2.17.87,4.26,2.41,5.8,1.37,1.37,2.58,2.58,4.01,4.01v1.48h33.31v-1.48c1.43-1.43,2.64-2.64,4.01-4.01,1.54-1.54,2.41-3.63,2.41-5.8v-33.38Z" class="cls-6"/></g><g><path d="m604.88,287.87h0c-10.84,12.24-16.85,35.12-13.41,51.1h0c10.84-12.24,16.85-35.12,13.41-51.1Z" class="cls-35"/><path d="m591.43,279.46h0c-10.7,18.63-9.79,48.27,2.02,66.21h0c10.7-18.63,9.79-48.27-2.02-66.21Z" class="cls-9"/><path d="m618.46,294.14h0c-13.99,8.47-26.5,28.54-27.96,44.83h0c13.99-8.47,26.5-28.54,27.96-44.83Z" class="cls-33"/><path d="m575.29,290.15h0c-1.23,16.3,7.84,38.15,20.25,48.8h0c1.23-16.3-7.84-38.15-20.25-48.8Z" class="cls-33"/><path d="m565.16,292.22h0s0,0,0,0c14.03,8.39,26.67,28.38,28.22,44.66h0c-14.03-8.39-26.67-28.38-28.22-44.66Z" class="cls-35"/><g><path d="m567.54,316.56s0,20.21,9.15,36.37h30.31c9.15-16.16,9.15-36.37,9.15-36.37h-48.6Z" class="cls-2"/><path d="m567.54,316.56s0,20.21,9.15,36.37h30.31c9.15-16.16,9.15-36.37,9.15-36.37h-48.6Z" class="cls-6"/></g><path d="m615.56,324.64c.16-1.34.27-2.56.36-3.62h-48.16c.08,1.06.2,2.27.36,3.62h47.44Z" class="cls-15"/></g><g><path d="m134.39,201.33h-35.38c-3.51,0-6.36,2.85-6.36,6.36v22.27c0,3.51,2.85,6.36,6.36,6.36h9.65l8.04,8.53,8.04-8.53h9.65c3.51,0,6.36-2.85,6.36-6.36v-22.27c0-3.51-2.85-6.36-6.36-6.36Z" class="cls-73"/><path d="m107.14,221.96c-2.45-2.45-2.45-6.44,0-8.89,1.19-1.19,2.76-1.84,4.44-1.84s3.26.65,4.44,1.84l.8.8.8-.8c1.19-1.19,2.76-1.84,4.44-1.84s3.26.65,4.44,1.84c2.45,2.45,2.45,6.44,0,8.89l-9.68,9.68-9.68-9.68Z" class="cls-7"/></g><g><polygon points="548.25 118.87 548.25 115.04 539.39 115.04 530.53 115.04 530.53 118.88 539.39 118.88 548.25 118.87" class="cls-52"/><path d="m542.05,115.04v-1.17c0-1.47-1.19-2.66-2.66-2.66-1.47,0-2.66,1.19-2.66,2.66v1.17h2.66s2.66,0,2.66,0Z" class="cls-53"/><polygon points="539.39 147.41 539.39 147.41 518.5 147.41 518.5 152.44 539.39 152.44 539.39 152.44 560.28 152.44 560.28 147.41 539.39 147.41" class="cls-47"/><path d="m559.91,147.43h-41.03c.83-2.12,2.71-4.38,4.07-6.36.22-.34.45-.67.64-.98.32-.54.58-1.04.74-1.51.06-.17.1-.37.15-.6.06-.28.09-.61.13-.98.39-4.08.12-12.76,5.93-18.11h17.71c5.8,5.35,5.55,14.03,5.94,18.11.04.37.08.7.13.98.04.23.09.44.15.6.16.47.41.97.74,1.51.19.31.41.65.64.98,1.36,1.98,3.24,4.24,4.07,6.36Z" class="cls-48"/><path d="m534.06,152.44c0,2.94,2.38,5.33,5.33,5.33h0s0,0,0,0h0c2.94,0,5.32-2.39,5.32-5.33h-5.33s-5.33,0-5.33,0Z" class="cls-60"/></g><g><rect width="55.32" height="40.2" x="266.38" y="244.85" class="cls-61" rx="7.28" ry="7.28"/><path d="m294.04,258.26c-4.23,0-7.67,3.44-7.67,7.67s3.44,7.67,7.67,7.67,7.67-3.44,7.67-7.67-3.44-7.67-7.67-7.67Zm0,12.58c-2.71,0-4.91-2.2-4.91-4.91s2.2-4.91,4.91-4.91,4.91,2.2,4.91,4.91-2.2,4.91-4.91,4.91Zm-8.77-11.2c0-.76-.62-1.38-1.38-1.38h-2.23c-.76,0-1.38.62-1.38,1.38s.62,1.38,1.38,1.38h2.23c.76,0,1.38-.62,1.38-1.38Zm23.53-5.29h-7.96l-.29-1.33c-.14-.64-.7-1.09-1.35-1.09h-10.22c-.65,0-1.21.45-1.35,1.09l-.29,1.33h-8.06c-1.87,0-3.4,1.52-3.4,3.4v16.36c0,1.87,1.52,3.4,3.4,3.4h29.52c1.87,0,3.4-1.52,3.4-3.4v-16.36c0-1.87-1.52-3.4-3.4-3.4Zm.63,19.76c0,.35-.28.63-.63.63h-29.52c-.35,0-.63-.28-.63-.63v-16.36c0-.35.28-.63.63-.63h9.18c.65,0,1.21-.45,1.35-1.09l.29-1.33h7.99l.29,1.33c.14.64.7,1.09,1.35,1.09h9.08c.35,0,.63.28.63.63v16.36Z" class="cls-13"/></g><g><rect width="87.91" height="50.02" x="126.99" y="65.02" class="cls-59"/><polygon points="126.99 115.04 170.95 81.04 214.9 115.04 126.99 115.04" class="cls-58"/><polygon points="214.9 65.02 170.95 99.23 126.99 65.02 214.9 65.02" class="cls-57"/></g><g><g><path d="m134.12,343.69c4.89,0,8.86,3.98,8.86,8.86s-3.98,8.86-8.86,8.86H62.7v-17.72h71.41Z" class="cls-7"/><g><rect width="76.15" height="1.37" x="62.7" y="356.17" class="cls-24"/><rect width="77.66" height="1.37" x="62.7" y="353.3" class="cls-24"/><rect width="77.66" height="1.37" x="62.7" y="350.43" class="cls-24"/><rect width="76.16" height="1.37" x="62.7" y="347.56" class="cls-24"/></g><path d="m61.02,341.86h73.1c5.89,0,10.69,4.79,10.69,10.69s-4.79,10.69-10.69,10.69H61.02v-3.65h73.1c3.88,0,7.04-3.16,7.04-7.04s-3.16-7.04-7.04-7.04H61.02v-3.65Z" class="cls-29"/></g><g><path d="m59.18,340.03c-4.89,0-8.86-3.98-8.86-8.86s3.98-8.86,8.86-8.86h71.41v17.72H59.18Z" class="cls-7"/><g><rect width="76.15" height="1.37" x="54.44" y="326.18" class="cls-24"/><rect width="77.66" height="1.37" x="52.94" y="329.06" class="cls-24"/><rect width="77.66" height="1.37" x="52.94" y="331.92" class="cls-24"/><rect width="76.16" height="1.37" x="54.43" y="334.79" class="cls-24"/></g><path d="m132.28,341.86H59.18c-5.89,0-10.69-4.79-10.69-10.69s4.79-10.69,10.69-10.69h73.1v3.65H59.18c-3.88,0-7.04,3.16-7.04,7.04s3.16,7.04,7.04,7.04h73.1v3.65Z" class="cls-34"/></g><g><path d="m51.18,318.66c-4.89,0-8.86-3.98-8.86-8.86s3.98-8.86,8.86-8.86h71.41v17.72H51.18Z" class="cls-7"/><g><rect width="76.15" height="1.37" x="46.45" y="304.81" class="cls-24"/><rect width="77.66" height="1.37" x="44.94" y="307.68" class="cls-24"/><rect width="77.66" height="1.37" x="44.94" y="310.55" class="cls-24"/><rect width="76.16" height="1.37" x="46.44" y="313.42" class="cls-24"/></g><path d="m124.28,320.49H51.19c-5.89,0-10.69-4.79-10.69-10.69s4.79-10.69,10.69-10.69h73.1v3.65H51.19c-3.88,0-7.04,3.16-7.04,7.04s3.16,7.04,7.04,7.04h73.1v3.65Z" class="cls-17"/></g></g><rect width="49.25" height="21.1" x="375.85" y="34.24" class="cls-22" rx="10.55" ry="10.55"/><path d="m63.11,135.05h0c-5.5,0-10.01-4.5-10.01-10.01h0c0-5.5,4.5-10.01,10.01-10.01h0c5.5,0,10.01,4.5,10.01,10.01h0c0,5.5-4.5,10.01-10.01,10.01Z" class="cls-22"/><g><rect width="96.01" height="16.92" x="442.78" y="342.36" class="cls-16"/><rect width="11.34" height="89.47" x="488.38" y="306.08" class="cls-6" transform="translate(844.87 -143.23) rotate(90)"/><g><rect width="89.47" height=".46" x="449.31" y="346.43" class="cls-10"/><rect width="89.47" height=".46" x="449.31" y="348.51" class="cls-10"/><rect width="89.47" height=".46" x="449.31" y="350.59" class="cls-10"/><rect width="89.47" height=".46" x="449.31" y="352.66" class="cls-10"/><rect width="89.47" height=".46" x="449.31" y="354.74" class="cls-10"/></g></g><g><rect width="96.01" height="16.92" x="432.33" y="325.44" class="cls-27"/><rect width="11.34" height="89.47" x="477.93" y="289.16" class="cls-6" transform="translate(817.5 -149.7) rotate(90)"/><g><rect width="89.47" height=".46" x="438.87" y="329.52" class="cls-10"/><rect width="89.47" height=".46" x="438.87" y="331.59" class="cls-10"/><rect width="89.47" height=".46" x="438.87" y="333.67" class="cls-10"/><rect width="89.47" height=".46" x="438.87" y="335.74" class="cls-10"/><rect width="89.47" height=".46" x="438.87" y="337.82" class="cls-10"/></g></g></g></g></g></g></svg>