<svg xmlns="http://www.w3.org/2000/svg" viewBox="0 0 500 500"><defs><style>.cls-1,.cls-11,.cls-7{fill:#92e3a9;}.cls-2{opacity:0.7;}.cls-12,.cls-3{fill:#fff;}.cls-4,.cls-6{opacity:0.3;}.cls-15,.cls-16,.cls-21,.cls-5,.cls-6,.cls-8{fill:none;}.cls-5,.cls-6{stroke:#000;}.cls-10,.cls-11,.cls-12,.cls-13,.cls-14,.cls-15,.cls-16,.cls-17,.cls-18,.cls-19,.cls-20,.cls-21,.cls-5,.cls-6,.cls-8{stroke-linecap:round;}.cls-10,.cls-11,.cls-12,.cls-13,.cls-14,.cls-15,.cls-16,.cls-17,.cls-18,.cls-19,.cls-20,.cls-21,.cls-5,.cls-6{stroke-linejoin:round;}.cls-10,.cls-11,.cls-12,.cls-13,.cls-14,.cls-15,.cls-16,.cls-17,.cls-18,.cls-19,.cls-20,.cls-7,.cls-8{stroke:#263238;}.cls-7,.cls-8{stroke-miterlimit:10;}.cls-13,.cls-9{fill:#263238;}.cls-10{fill:#d9d9d9;}.cls-14{fill:#7d7d7d;}.cls-16{stroke-width:2px;}.cls-17{fill:#4a4a4a;}.cls-18{fill:gray;}.cls-19{fill:#575757;}.cls-20{fill:#525252;}.cls-21{stroke:#fff;}</style></defs><g id="Background_Simple" data-name="Background Simple"><path class="cls-1" d="M7.49,324.05c.51,3.27,1.1,6.51,1.79,9.72,9.13,42.7,37.21,80.35,69.17,104.81a211.22,211.22,0,0,0,45.21,26.25c104.59,44.9,178.72-31.34,222-41.69s111.2-30.34,137.14-117.29c19.72-66.11,8.34-141-44.85-193.53a190.39,190.39,0,0,0-19.12-16.54,218.56,218.56,0,0,0-44-25.56c-47.48-20.87-91.43-23.84-141.61-8-11.67,3.67-23.64,8.28-35.56,4.69-8.67-2.6-15.44-8.83-3.37-13.92,14.19-6,9.81-30.21-21.7-26.69C120,32.15,83,74.31,55.28,121,21.23,178.25-3.07,256.42,7.49,324.05Z"/><g class="cls-2"><path class="cls-3" d="M7.49,324.05c.51,3.27,1.1,6.51,1.79,9.72,9.13,42.7,37.21,80.35,69.17,104.81a211.22,211.22,0,0,0,45.21,26.25c104.59,44.9,178.72-31.34,222-41.69s111.2-30.34,137.14-117.29c19.72-66.11,8.34-141-44.85-193.53a190.39,190.39,0,0,0-19.12-16.54,218.56,218.56,0,0,0-44-25.56c-47.48-20.87-91.43-23.84-141.61-8-11.67,3.67-23.64,8.28-35.56,4.69-8.67-2.6-15.44-8.83-3.37-13.92,14.19-6,9.81-30.21-21.7-26.69C120,32.15,83,74.31,55.28,121,21.23,178.25-3.07,256.42,7.49,324.05Z"/></g></g><g id="Movie_Film" data-name="Movie Film"><g class="cls-4"><rect class="cls-5" x="9.26" y="56.02" width="107.9" height="43.12" transform="translate(-14.37 140.79) rotate(-90)"/><path class="cls-5" d="M28,131.56H41.67V23.6H28Zm11.68-16.32v13.25H29.74V115.24Zm0-17.57v13.25H29.74V97.67Zm0-17.56V93.35H29.74V80.11Zm0-17.57V75.79H29.74V62.54Zm0-17.56V58.22H29.74V45Zm0-17.57V40.66H29.74V27.41Z"/><path class="cls-5" d="M84.8,131.56H98.48V23.6H84.8Zm11.68-16.32v13.25H86.54V115.24Zm0-17.57v13.25H86.54V97.67Zm0-17.56V93.35H86.54V80.11Zm0-17.57V75.79H86.54V62.54Zm0-17.56V58.22H86.54V45Zm0-17.57V40.66H86.54V27.41Z"/><rect class="cls-5" x="9.26" y="163.33" width="107.9" height="43.12" transform="translate(-121.68 248.1) rotate(-90)"/><path class="cls-5" d="M28,238.87H41.67v-108H28Zm11.68-16.32V235.8H29.74V222.55Zm0-17.56v13.24H29.74V205Zm0-17.57v13.25H29.74V187.42Zm0-17.57V183.1H29.74V169.85Zm0-17.56v13.24H29.74V152.29Zm0-17.57V148H29.74V134.72Z"/><path class="cls-5" d="M84.8,238.87H98.48v-108H84.8Zm11.68-16.32V235.8H86.54V222.55Zm0-17.56v13.24H86.54V205Zm0-17.57v13.25H86.54V187.42Zm0-17.57V183.1H86.54V169.85Zm0-17.56v13.24H86.54V152.29Zm0-17.57V148H86.54V134.72Z"/><rect class="cls-5" x="9.26" y="270.64" width="107.9" height="43.12" transform="translate(-228.99 355.41) rotate(-90)"/><path class="cls-5" d="M28,346.18H41.67v-108H28Zm11.68-16.32v13.25H29.74V329.86Zm0-17.56v13.24H29.74V312.3Zm0-17.57V308H29.74V294.73Zm0-17.57v13.25H29.74V277.16Zm0-17.56v13.25H29.74V259.6Zm0-17.57v13.25H29.74V242Z"/><path class="cls-5" d="M84.8,346.18H98.48v-108H84.8Zm11.68-16.32v13.25H86.54V329.86Zm0-17.56v13.24H86.54V312.3Zm0-17.57V308H86.54V294.73Zm0-17.57v13.25H86.54V277.16Zm0-17.56v13.25H86.54V259.6Zm0-17.57v13.25H86.54V242Z"/><rect class="cls-5" x="9.26" y="377.96" width="107.9" height="43.12" transform="translate(-336.3 462.72) rotate(-90)"/><path class="cls-5" d="M28,453.49H41.67V345.54H28Zm11.68-16.32v13.25H29.74V437.17Zm0-17.56v13.25H29.74V419.61Zm0-17.57v13.25H29.74V402Zm0-17.56v13.24H29.74V384.48Zm0-17.57v13.25H29.74V366.91Zm0-17.57v13.25H29.74V349.34Z"/><path class="cls-5" d="M84.8,453.49H98.48V345.54H84.8Zm11.68-16.32v13.25H86.54V437.17Zm0-17.56v13.25H86.54V419.61Zm0-17.57v13.25H86.54V402Zm0-17.56v13.24H86.54V384.48Zm0-17.57v13.25H86.54V366.91Zm0-17.57v13.25H86.54V349.34Z"/></g></g><g id="Reel"><path class="cls-6" d="M210.78,369.2a166.09,166.09,0,0,0,245.48-215M185,132.78a166.07,166.07,0,0,0,19.9,231.57m1.26-253a166.68,166.68,0,0,0-15.46,14.84M451.51,146.6a166.1,166.1,0,0,0-238.8-40.47M426.33,222.3a44.43,44.43,0,0,1-7.23,5.22,43.53,43.53,0,1,1,12.37-10.67M313.12,97.63a43.56,43.56,0,1,1-43.55,43.56A43.55,43.55,0,0,1,313.12,97.63Zm36,127.54a6.51,6.51,0,1,1,2.38-8.89A6.52,6.52,0,0,1,349.08,225.17Zm2.38,35.38a6.51,6.51,0,1,1-2.38-8.9A6.51,6.51,0,0,1,351.46,260.55Zm-38.34-2.16a20,20,0,1,1,20-20A20,20,0,0,1,313.12,258.39Zm6.51,17.78a6.51,6.51,0,1,1-6.51-6.51A6.5,6.5,0,0,1,319.63,276.17Zm-13-75.52a6.51,6.51,0,1,1,6.51,6.51A6.52,6.52,0,0,1,306.61,200.65Zm-20.55,22.14a6.51,6.51,0,1,1-2.39-8.9A6.51,6.51,0,0,1,286.06,222.79Zm-2.39,40.14a6.51,6.51,0,1,1,2.39-8.89A6.51,6.51,0,0,1,283.67,262.93ZM233.46,146.47a43.62,43.62,0,1,1-8.15-.08M250.7,324.74a43.55,43.55,0,1,1,15.94-59.49A43.56,43.56,0,0,1,250.7,324.74Zm62.42,54.45a43.56,43.56,0,1,1,43.55-43.55A43.55,43.55,0,0,1,313.12,379.19ZM435,308.8a43.55,43.55,0,1,1-15.94-59.5A43.56,43.56,0,0,1,435,308.8Z"/></g><g id="Plant"><path class="cls-7" d="M123,319.45c0,17.34-5.35,31.39-12,31.39s-12-14-12-31.39,5.36-31.39,12-31.39S123,302.11,123,319.45Z"/><path class="cls-7" d="M148.17,300.09c-3.74,11.78-10.93,20-16,18.37s-6.25-12.49-2.51-24.27,10.93-20,16.06-18.37S151.91,288.32,148.17,300.09Z"/><path class="cls-7" d="M60.36,371.09c-12.19-2.06-21.33-8-20.43-13.33s11.5-7.93,23.68-5.87,21.33,8,20.43,13.34S72.54,373.16,60.36,371.09Z"/><path class="cls-7" d="M159.44,342.07c-10.18,10.09-22.2,14.47-26.85,9.78s-.18-16.68,10-26.77,22.2-14.47,26.85-9.78S169.61,332,159.44,342.07Z"/><path class="cls-7" d="M89.33,314.4c9.84,14.27,12.77,29.32,6.55,33.61s-19.25-3.81-29.09-18.08S54,300.6,60.25,296.31,79.49,300.12,89.33,314.4Z"/><line class="cls-8" x1="111.83" y1="349.27" x2="112.75" y2="444.77"/><line class="cls-8" x1="110.71" y1="307.78" x2="111.83" y2="349.27"/><line class="cls-8" x1="110.79" y1="301.01" x2="110.71" y2="304.19"/><path class="cls-8" d="M95.83,346a120.42,120.42,0,0,1,11.82,45.29v59.06"/><path class="cls-8" d="M75.27,314.52A141.75,141.75,0,0,1,95.83,346"/><path class="cls-8" d="M68.8,307.68s1.25,1.13,3.28,3.3"/><path class="cls-8" d="M133.33,350.4a141.83,141.83,0,0,0-19.4,38.5"/><path class="cls-8" d="M147.1,334.58a112.94,112.94,0,0,0-13.77,15.82"/><path class="cls-8" d="M161.8,323.37a62.74,62.74,0,0,0-10.48,7.43"/><path class="cls-8" d="M132.83,315.55c-6.63,20.86-15.53,51.69-19.69,78.45"/><path class="cls-8" d="M136.87,303.17c-1.18,3.52-2.56,7.7-4,12.38"/><path class="cls-8" d="M141,291.2s-1.16,3.19-3,8.67"/><path class="cls-8" d="M83.43,362.34c8.28,3.14,19.61,11.9,23.54,23.38"/><path class="cls-8" d="M68.12,359.23a52.22,52.22,0,0,1,15.31,3.11"/><path class="cls-8" d="M58.21,359.47s1.47-.21,3.91-.3"/><path class="cls-7" d="M84.25,417c-11.19,5.22-22.11,5.51-24.39.64s5-13.06,16.15-18.29,22.12-5.51,24.39-.64S95.45,411.77,84.25,417Z"/><path class="cls-8" d="M83.9,402.82a52.14,52.14,0,0,1,14.35-6.14,7.19,7.19,0,0,1,7.71.14c1.51,1,1,8.58,1,8.58v39.37"/><path class="cls-8" d="M75.88,408.66s1.09-1,3-2.48"/><path class="cls-7" d="M164.6,371.09c12.19-2.06,21.33-8,20.43-13.33s-11.5-7.93-23.68-5.87-21.33,8-20.43,13.34S152.42,373.16,164.6,371.09Z"/><path class="cls-8" d="M141.8,362.24a39.48,39.48,0,0,0-4.34,1.91,30.36,30.36,0,0,0-16.23,27.07v52"/><path class="cls-8" d="M158.12,359.17a53.19,53.19,0,0,0-16.32,3.07"/><path class="cls-8" d="M166.75,359.47s-1-.14-2.64-.24"/><ellipse class="cls-7" cx="157.24" cy="398.3" rx="9.74" ry="22.37" transform="translate(-266.37 335.63) rotate(-60.04)"/><path class="cls-8" d="M155,393.41a53.22,53.22,0,0,0-14.54-8s-13.27-2.19-16.3,6.39"/><path class="cls-8" d="M161.43,399.15s-.66-.73-1.88-1.87"/><ellipse class="cls-9" cx="113.36" cy="441.9" rx="31.95" ry="5.78"/><path class="cls-7" d="M126.15,392.28s-15.65-3-15.65,7.57,11.1,19.18,15.65,31.29,13.12,12.62,17.66.51S141.79,397.33,126.15,392.28Z"/><path class="cls-7" d="M115.55,392.78s13.62,5.56,17.66,23.22"/><line class="cls-8" x1="116.56" y1="416" x2="116.56" y2="444.77"/><path class="cls-9" d="M147.14,458.21A108.82,108.82,0,0,0,145,441.45H81.27a108.82,108.82,0,0,0-2.12,16.76Z"/></g><g id="Character"><polygon class="cls-10" points="331.84 298.38 324.27 291.45 315.96 272.48 296.72 287.48 306.13 309.59 330.25 338.54 331.84 298.38"/><path class="cls-10" d="M320,269.5s2.32-3.76,4.34-3.18,3.76,4.05,3.18,7.23-2.89,9.83-2.89,10.7-4.29-6.22-4.29-6.22Z"/><path class="cls-11" d="M326.23,458.21H462.09c-.41-14.72-3.95-140.51-3.63-155.92.33-16.37-3.68-32.74-10.36-45.1S391,215.43,391,215.43l-51.45,34.41s-13,17.37-14.36,22.39,3,116.92,3,116.92Z"/><polygon class="cls-11" points="345.06 260.32 327.66 249.27 338.15 236.57 345.06 260.32"/><polygon class="cls-11" points="327.66 249.27 332.08 260.59 336.77 255.07 327.66 249.27"/><path class="cls-12" d="M330.15,225.53l14.91,34.79,35.34-51.08-3-20.16s-6.9,20.16-14.63,27.61S330.15,225.53,330.15,225.53Z"/><polygon class="cls-13" points="350.79 226.96 336.5 240.52 328.86 222.28 350.79 226.96"/><path class="cls-13" d="M384,166.41S410.3,179,410.06,182.17s-4.14,6.4-14,6.4c-28.33,0-18.23-23.89-18.23-23.89Z"/><path class="cls-12" d="M410.06,182.17s-6.41.74-11.33-1S382,166.9,382,166.9l2-.49s16.13,8.28,21.92,11.37S410.06,182.17,410.06,182.17Z"/><polygon class="cls-13" points="381.26 160.07 384.8 169.8 382.14 183.07 372.41 182.63 370.2 173.78 360.91 167.15 360.03 154.76 381.26 160.07"/><path class="cls-12" d="M308.09,151.14s-.74,34,1,44.57,14.53,25.37,19,29.81,14.53,11.33,21.92,7.38,19-12.31,23.15-20.68S379,190.79,379,190.79s4.19,2.71,5.91,0,6.41-18.23,3.45-22.17-7.14.49-7.14.49-.74,8.13-2.22,9.12-2.71,1.48-3.2-1.23,1-4.44-1.23-6.16-6.9-2.71-7.88-6.16-.25-15.27-2-18.22-9.61-4.93-21.92-2.47-28.57,1.23-31.77.74S308.09,151.14,308.09,151.14Z"/><path class="cls-11" d="M307.26,163.28s20-5.74,41.47-3.52S384,166.41,384,166.41s2.72-18.06,1.73-28.9-10.24-15.45-26.49-21.85-31.74-1.5-42.82,5.88-8.37,14.54-8.13,18S307.26,163.28,307.26,163.28Z"/><path class="cls-13" d="M327.28,150.22s10.56-1.13,17.73,0c0,0,.75-7.54-4.9-9.8S325.78,141.17,327.28,150.22Z"/><path class="cls-14" d="M353.2,160.55a4.84,4.84,0,0,1-1.12-.14c-10.84-2.78-24.52-.7-24.66-.68a4.5,4.5,0,1,1-1.39-8.89c.64-.1,15.67-2.39,28.29.85a4.5,4.5,0,0,1-1.12,8.86Z"/><path class="cls-14" d="M348.11,155.44a1,1,0,0,0-2.05,0,1,1,0,1,0,2.05,0Z"/><path class="cls-14" d="M353.7,156a1,1,0,1,0-1,1A1,1,0,0,0,353.7,156Z"/><path class="cls-15" d="M372.44,154.84c-.31,3-.58,5-.58,5"/><path class="cls-15" d="M366.49,121s6,4,6.71,14.08a105.52,105.52,0,0,1-.23,13.73"/><path class="cls-15" d="M334.1,201.9s3.93,4.91,9.49,3.6,6.55-4.58,6.55-5.57"/><path class="cls-15" d="M329.52,212.7a34.59,34.59,0,0,0,29.78-4.58"/><path class="cls-16" d="M348.17,182.59s6.55-3.6,11.46-.66"/><path class="cls-13" d="M345.88,177.35s6.87-6.87,18.33-2a46.45,46.45,0,0,1-7.2.65C353.41,176,350.79,181,345.88,177.35Z"/><polygon class="cls-11" points="345.61 248.72 345.06 260.32 351.96 255.62 345.61 248.72"/><polygon class="cls-11" points="383.44 202.06 345.61 248.72 357.48 262.8 395.03 213.93 383.44 202.06"/><line class="cls-15" x1="343.22" y1="263.87" x2="341.31" y2="288.09"/><path class="cls-15" d="M333.92,418.45c-.89,12-1.35,23.31-.26,28"/><path class="cls-15" d="M334.62,343.86s3.18,31.87,1.59,48.76c-.45,4.75-1,10.43-1.51,16.33"/><path class="cls-15" d="M369.2,419.34a88,88,0,0,0,7.48,10.25"/><path class="cls-15" d="M338.76,349.59c0-.79,12.13,38.78,27.95,65.68"/><path class="cls-15" d="M363.78,376.63c2,1.61,4.16,3.24,6.53,4.83"/><path class="cls-15" d="M347.68,359.15a64.8,64.8,0,0,0,8.92,11"/><path class="cls-11" d="M402,245.83s-16.37,13.37-16.7,23.72-.67,15-.67,15l-10,34.07,60.8,25.39,18.7-51.45s1-15-5.67-24.72"/><path class="cls-15" d="M379.8,316.57a34.54,34.54,0,0,1,14.91-11.05"/><path class="cls-15" d="M404.41,256.54s-12.11,10.19-16.57,20.71"/><rect class="cls-13" x="245.38" y="332.85" width="46.07" height="32.94" rx="11.49"/><path class="cls-17" d="M245.52,297.38a1.91,1.91,0,0,0-.67-.1c-3.39.06-6.14,8.38-6.14,18.58s2.75,18.42,6.14,18.36l6.69,1V298.31Z"/><ellipse class="cls-13" cx="251.54" cy="316.78" rx="18.47" ry="6.14" transform="matrix(0, -1, 1, 0, -65.8, 567.62)"/><path class="cls-13" d="M255.35,299a1.84,1.84,0,0,0-.65-.1c-3.29.06-6,8.12-6,18s2.67,17.87,6,17.81l31.33,1,1.44-35.82Z"/><path class="cls-17" d="M287.14,299.13a2.29,2.29,0,0,0-.69,0c-3.48.41-6.62,9.16-7,19.55s2.12,18.48,5.6,18.07l6.82.37,1.42-37.62Z"/><path class="cls-13" d="M298.87,317.53c-.39,10.39-3.53,19.14-7,19.55s-6-7.68-5.59-18.07,3.52-19.14,7-19.55S299.26,307.14,298.87,317.53Z"/><polygon class="cls-17" points="299.31 290.49 293.29 286.76 273.53 290.2 284.99 293.93 299.31 290.49"/><path class="cls-13" d="M243.75,287.91l-4.59,2.86v5.73s12.6,3.73,24.06,4.3a105.93,105.93,0,0,0,22-1.43l-.28-5.45-7.45-3.15Z"/><polygon class="cls-13" points="285.27 299.37 299.59 295.64 299.31 290.49 284.99 293.93 285.27 299.37"/><path class="cls-13" d="M234.29,171.45a20.63,20.63,0,1,0,20.62,20.62A20.63,20.63,0,0,0,234.29,171.45Zm0,35.87a15.25,15.25,0,1,1,15.25-15.25A15.25,15.25,0,0,1,234.29,207.32Z"/><path class="cls-13" d="M318.78,195.4l-2.57,58.71h0A28.19,28.19,0,0,1,320.36,278l-.87,3.07-13.31-4.65-26.35,3.15-34.08-2.29-1.15-5.44-8.87-1.43V204l8.3-12.31h75.33Z"/><polygon class="cls-18" points="316.17 230.42 310.88 230.04 311.84 210.63 298.59 209.67 296.34 255.39 309.59 256.35 309.63 255.49 314.92 255.87 316.17 230.42"/><rect class="cls-15" x="301.08" y="234.14" width="1.81" height="7.56" transform="translate(12.99 -15.63) rotate(3.03)"/><rect class="cls-15" x="310.24" y="246.62" width="1.86" height="3.11" transform="translate(13.54 -16.08) rotate(3.03)"/><rect class="cls-15" x="310.5" y="240.1" width="1.86" height="3.11" transform="translate(13.19 -16.11) rotate(3.03)"/><path class="cls-13" d="M257,161.19s10-5.35,28.44-1.1L283.2,162l-18.77,2.76Z"/><polygon class="cls-13" points="256.14 179.14 256.97 161.19 269.95 160.91 268.85 178.31 256.14 179.14"/><path class="cls-19" d="M270,160.91s10.77-3,15.46-.82,4.15,15.73,4.15,15.73l-20.71,2.49Z"/><path class="cls-18" d="M308.57,176.37s-22.25-3.6-32.07-2.29a222.36,222.36,0,0,1-26.84,2.29c-7.2,0-10.14,0-11.45,5.56s0,16,0,17,2.62,4.26,5.89,4.26,38,2.29,41.24,1.63,4.25-2.61,4.25-2.61l9.16,1,1.64-3,16.69,1,.33-24.87Z"/><path class="cls-18" d="M332.14,168.84s9.16,2.29,10.8,10.15-4.26,15.71-4.26,15.71Z"/><circle class="cls-13" cx="323.3" cy="184.55" r="18"/><circle class="cls-18" cx="318.06" cy="185.53" r="13.28" transform="translate(-38.03 279.25) rotate(-45)"/><path class="cls-13" d="M278.14,183.9c-4.59-.66-37.64-1.31-37.64-1.31s-2.29.7-2.84,4.19c-.06,1.54,0,3.13,0,4.65.07,1.15.14,2.41.21,3.69.15,2,.31,3.49.31,3.83,0,1,2.62,4.26,5.89,4.26s38,2.29,41.24,1.63a95.48,95.48,0,0,1-2-12.76C283.05,186.52,282.72,184.55,278.14,183.9Z"/><path class="cls-13" d="M238.21,181.93s-8.51-5.89-13.09-5.56-6.87,4.91-6.87,9.49,4.25,7.2,5.89,8.51,13.76.75,13.76.75Z"/><path class="cls-13" d="M211.21,177s12-3.88,16.33-3c2,.43,7,3.62,7,9.05s-4.07,10.41-8.37,10.64-15,1.28-15,1.28Z"/><circle class="cls-13" cx="211.21" cy="186.03" r="9"/><path class="cls-13" d="M242.06,194.32s.83,5.25,3,5.53,24.57,1.93,26.78,1.1,5-3,4.7-4.42-.28-2.21-2.21-1.65-.28-.28-1.93.55-26.24-.83-26.24-.83S243.72,192.39,242.06,194.32Z"/><path class="cls-13" d="M289.59,202.23S286,194.32,286,186.87h9.11s.45,10.59,3.67,16.34Z"/><path class="cls-15" d="M295.08,183.83a19.2,19.2,0,0,1,1.65-7.45"/><path class="cls-15" d="M287.26,183.33a19.16,19.16,0,0,1,1.66-7.46"/><polygon class="cls-13" points="245.75 277.31 239.16 280.18 239.45 287.62 277.54 290.77 302.46 285.9 303.03 277.03 279.83 279.6 245.75 277.31"/><path class="cls-18" d="M213.09,458.21l28.67-82.89a6,6,0,1,0-11.34-3.93l-30,86.82Z"/><path class="cls-18" d="M316.73,458.21h12.7l-30-86.82a6,6,0,1,0-11.34,3.93Z"/><polygon class="cls-13" points="283.04 400.62 273.76 403.71 257.18 403.71 249.87 400.62 249.87 392.47 283.04 392.47 283.04 400.62"/><path class="cls-13" d="M308.38,389.84H224.23l4.66-16.57a11.61,11.61,0,0,1,11.18-8.48h51.59a11.6,11.6,0,0,1,11,7.94Z"/><path class="cls-13" d="M302.67,372.73a11.6,11.6,0,0,0-11-7.94h-30.9c-3.63,0-6.82,3.47-7.8,8.48l-3.24,16.57h58.66Z"/><path class="cls-18" d="M264.84,458.21h12l-7-85.35a6,6,0,0,0-12,1Z"/><path class="cls-18" d="M221.24,458.21l28.68-82.89a6,6,0,1,0-11.34-3.93l-30,86.82Z"/><path class="cls-20" d="M269.91,372.86a6,6,0,0,0-12,1L259.59,394h12Z"/><path class="cls-20" d="M246.21,367.68a6,6,0,0,0-7.63,3.71L230.77,394h12.7l6.45-18.64A6,6,0,0,0,246.21,367.68Z"/><path class="cls-13" d="M276,132.32a3.73,3.73,0,1,0-4.77,3.57v22.56h2.07V135.89A3.72,3.72,0,0,0,276,132.32Z"/><path class="cls-12" d="M261,260s9.1,5.22,10.45,6.58,6.59,8.13,11.81,9.87l5.23,1.75S274,248.73,274.72,247.5s-.4,4.39-2.34,5.75-5.42,1.16-5.42,1.16Z"/><polygon class="cls-13" points="435.41 344.05 411.02 345.72 418.04 332.36 435.41 344.05"/><path class="cls-12" d="M374.61,318.66l-70.49-56.12s-9.69-21.72-13-25.39-18.55-17.35-22-19.53-2.41,18.19-2.41,18.19l8,11.69s4.68,21.72,9.69,27.4,13.36,10.35,13.36,10.35,44.1,58.13,51.11,65.81,26.73,23.39,29.4,25.06,8,6,15.7,2c9.21-4.8,14.66-14,18.71-23.1.57-1.29,7.83-17.06,8-17Z"/><path class="cls-13" d="M406.36,332.19l.43.3a23,23,0,0,1,9.09,12.9h0l5.83-10.13Z"/><path class="cls-15" d="M281.27,243.34s1.2,2.4.48,3.83"/><line class="cls-15" x1="266.92" y1="230.42" x2="279.84" y2="240.95"/><path class="cls-15" d="M268.59,224.2l16.51,12.92a4,4,0,0,1,1.91,3.59"/><polygon class="cls-18" points="269.12 258.56 261.67 266.41 203.41 264.73 195.4 256.43 195.4 215.49 202.85 205.9 261.39 207.59 269.12 217.62 269.12 258.56"/><polygon class="cls-13" points="267.47 258.56 260.01 266.41 201.75 264.73 193.74 256.43 193.74 215.49 201.2 205.9 259.73 207.59 267.47 217.62 267.47 258.56"/><circle class="cls-18" cx="238.34" cy="236.71" r="24.99"/><circle class="cls-13" cx="243.86" cy="235.6" r="16.43" transform="translate(-71.08 109.96) rotate(-22.26)"/><circle class="cls-18" cx="242.06" cy="236.29" r="8.28" transform="matrix(0.74, -0.67, 0.67, 0.74, -95.91, 221.9)"/></g><g id="Clapperboard"><rect class="cls-11" x="-3.55" y="78.99" width="139.5" height="17.48" transform="matrix(0.66, -0.75, 0.75, 0.66, -43.35, 78.9)"/><polygon class="cls-13" points="18.66 128.04 19.32 139.38 26.38 145.66 33.24 137.94 31.8 113.26 18.66 128.04"/><polygon class="cls-13" points="57.21 84.68 44.07 99.46 45.52 124.14 58.66 109.36 57.21 84.68"/><polygon class="cls-13" points="108.29 31.82 106.01 29.8 94.89 42.3 96.34 66.98 109.48 52.21 108.29 31.82"/><polygon class="cls-13" points="82.62 56.1 69.48 70.88 70.93 95.56 84.07 80.79 82.62 56.1"/><rect class="cls-13" x="43.5" y="138.85" width="135.26" height="85.64" transform="translate(-51.3 43.94) rotate(-18.25)"/><polygon class="cls-3" points="125.76 179.14 97.16 173.19 106.31 200.94 125.76 179.14"/><rect class="cls-11" x="25.27" y="124.17" width="139.5" height="17.48" transform="translate(-36.84 36.44) rotate(-18.25)"/><polygon class="cls-13" points="33.67 143.93 28.56 154.08 31.52 163.05 41.32 159.82 52.45 137.74 33.67 143.93"/><polygon class="cls-13" points="88.77 125.76 69.99 131.95 58.86 154.03 77.64 147.84 88.77 125.76"/><polygon class="cls-13" points="159.47 105.66 158.52 102.76 142.63 108 131.5 130.08 150.28 123.89 159.47 105.66"/><polygon class="cls-13" points="125.09 113.79 106.31 119.98 95.18 142.06 113.96 135.86 125.09 113.79"/><line class="cls-21" x1="55.45" y1="177.57" x2="154.53" y2="144.9"/><line class="cls-21" x1="70.57" y1="223.43" x2="169.65" y2="190.75"/><line class="cls-21" x1="87.29" y1="168.33" x2="101.76" y2="212.21"/><line class="cls-21" x1="123.19" y1="156.5" x2="137.65" y2="200.37"/></g><g id="Line"><line class="cls-15" x1="489.78" y1="458.21" x2="11" y2="458.21"/></g></svg>