<svg xmlns="http://www.w3.org/2000/svg" viewBox="0 0 806.81 805.02"><defs><style>.cls-1{fill:#3ce2a5}</style></defs><g id="Layer_11" data-name="Layer 11"><path d="M509.18,98.37,471.7,60.9,409,48.15a19,19,0,0,0-7.36,0L272.68,73.21A19,19,0,0,0,265.87,76L232.06,98.37Z" class="cls-1"/><path d="M706.76,274.74l.72.72-.72.71V508.61l39.92-39.92,12.25-60.23a18.61,18.61,0,0,0,0-7.36L733.88,272.16a18.81,18.81,0,0,0-2.79-6.81L706.76,228.6Z" class="cls-1"/><path d="M260.31,113.37h-50.9l-53.06,35.14a19,19,0,0,0-5.23,5.18L77.68,262.6a18.84,18.84,0,0,0-2.84,6.79l-7.52,37Z" class="cls-1"/><path d="M691.76,259.74V206l-33.18-50.12a18.86,18.86,0,0,0-5.19-5.23L544.49,77.17a18.93,18.93,0,0,0-6.79-2.85l-39.37-8Z" class="cls-1"/><path d="M113.94,544.83v52.92l35.09,53a18.83,18.83,0,0,0,5.18,5.23L263.12,729.4a18.89,18.89,0,0,0,6.78,2.85l39.49,8Z" class="cls-1"/><path d="M98.94,529.83l-.72-.72.72-.71V296l-37,37L48.67,398.11a19,19,0,0,0,0,7.36L73.72,534.41a19,19,0,0,0,2.79,6.81l22.43,33.87Z" class="cls-1"/><path d="M545.39,691.2h55.82l50-33.14a18.93,18.93,0,0,0,5.22-5.18L729.92,544a18.91,18.91,0,0,0,2.84-6.79l8.51-41.86Z" class="cls-1"/><path d="M296.52,706.2,336,745.69l62.62,12.72a18.8,18.8,0,0,0,7.36,0l128.93-25.09a18.74,18.74,0,0,0,6.81-2.79l36.82-24.37Z" class="cls-1"/></g><g id="Layer_12" data-name="Layer 12"><path id="S" d="M223.6,309.49s-1.32-20.12,11.32-55.07c.69-1.9,2.19-5.82,4.63-6,1.74-.15,3.73,1.42,5.81,5.31,15,28.12,41,42.91,68.77,55.16,32.19,14.19,64.56,28,96.84,42,26.58,11.52,53.64,22.08,79.6,34.88,38,18.73,74.21,39.81,88.22,84.11,0,0,14.07,42-7.76,82-.61,1.1-2.39,4.35-4.58,4.27s-3.6-3.33-3.88-3.89c-3.16-6.44-32.07-39.19-82.61-61-32.31-13.92-64.66-27.77-96.84-42-26.91-11.88-53.95-23.55-80.3-36.58-22.8-11.28-43.54-25.39-59.15-46.54a104.21,104.21,0,0,1-8.95-14.56A109.91,109.91,0,0,1,223.6,309.49Z" class="cls-1"/><path d="M582.66,339.29,466.35,272.77l116.31-66.71Z" class="cls-1"/><path id="triangle2" d="M224.08,599V466L340.23,532.6C301.33,554.83,263.34,576.54,224.08,599Z" class="cls-1"/></g></svg>