<svg xmlns="http://www.w3.org/2000/svg" id="Layer_2" data-name="Layer 2" viewBox="0 0 498.45 472.55"><defs><style>.cls-1,.cls-2,.cls-3,.cls-4,.cls-5{stroke-linecap:round;stroke-linejoin:round}.cls-1,.cls-2,.cls-3,.cls-5,.cls-6{stroke:#263238}.cls-1,.cls-7{fill:#263238}.cls-2,.cls-6,.cls-8{fill:#fff}.cls-10,.cls-3,.cls-9{fill:#92e3a9}.cls-4{stroke:#6e6e6e}.cls-4,.cls-5{fill:none}.cls-11{opacity:.08}.cls-10{stroke:#92e3a9;stroke-width:.5px}.cls-10,.cls-6{stroke-miterlimit:10}.cls-8{opacity:.7}</style></defs><g id="Background_Simple" data-name="Background Simple"><g><path d="m486.37,213.94c6.47-57.24-12.77-114.72-53.16-155.57-19.86-20.08-47.03-39-83.11-48.15-101.21-25.64-166.81-2.15-199.6,60.23C117.71,132.84,23.61,122.08,8.64,229.63c-14.97,107.55,57.74,225.86,181.06,232.32,123.32,6.45,107.45-55.3,174.91-81.78,51.59-20.26,112.1-80.81,121.76-166.23Z" class="cls-9"/><path d="m486.37,213.94c6.47-57.24-12.77-114.72-53.16-155.57-19.86-20.08-47.03-39-83.11-48.15-101.21-25.64-166.81-2.15-199.6,60.23C117.71,132.84,23.61,122.08,8.64,229.63c-14.97,107.55,57.74,225.86,181.06,232.32,123.32,6.45,107.45-55.3,174.91-81.78,51.59-20.26,112.1-80.81,121.76-166.23Z" class="cls-8"/></g></g><g id="Wall"><g class="cls-11"><g><polygon points="34.18 42.27 14.26 96.83 54.1 96.83 34.18 42.27"/><polygon points="74.5 42.27 54.59 96.83 94.42 96.83 74.5 42.27"/><polygon points="114.83 42.27 94.91 96.83 134.74 96.83 114.83 42.27"/><polygon points="155.15 42.27 135.23 96.83 175.07 96.83 155.15 42.27"/><polygon points="195.47 42.27 175.55 96.83 215.39 96.83 195.47 42.27"/><polygon points="235.79 42.27 215.87 96.83 255.71 96.83 235.79 42.27"/><polygon points="276.11 42.27 256.19 96.83 296.03 96.83 276.11 42.27"/><polygon points="316.43 42.27 296.52 96.83 336.35 96.83 316.43 42.27"/><polygon points="356.76 42.27 336.84 96.83 376.67 96.83 356.76 42.27"/><polygon points="397.08 42.27 377.16 96.83 417 96.83 397.08 42.27"/><polygon points="437.4 42.27 417.48 96.83 457.32 96.83 437.4 42.27"/></g><g><polygon points="54.67 97.26 34.76 151.81 74.59 151.81 54.67 97.26"/><polygon points="95 97.26 75.08 151.81 114.91 151.81 95 97.26"/><polygon points="135.32 97.26 115.4 151.81 155.24 151.81 135.32 97.26"/><polygon points="175.64 97.26 155.72 151.81 195.56 151.81 175.64 97.26"/><polygon points="215.96 97.26 196.04 151.81 235.88 151.81 215.96 97.26"/><polygon points="256.28 97.26 236.36 151.81 276.2 151.81 256.28 97.26"/><polygon points="296.6 97.26 276.69 151.81 316.52 151.81 296.6 97.26"/><polygon points="336.93 97.26 317.01 151.81 356.84 151.81 336.93 97.26"/><polygon points="377.25 97.26 357.33 151.81 397.17 151.81 377.25 97.26"/><polygon points="417.57 97.26 397.65 151.81 437.49 151.81 417.57 97.26"/><polygon points="457.89 97.26 437.97 151.81 477.81 151.81 457.89 97.26"/></g><g><polygon points="34.18 152.25 14.26 206.8 54.1 206.8 34.18 152.25"/><polygon points="74.5 152.25 54.59 206.8 94.42 206.8 74.5 152.25"/><polygon points="114.83 152.25 94.91 206.8 134.74 206.8 114.83 152.25"/><polygon points="155.15 152.25 135.23 206.8 175.07 206.8 155.15 152.25"/><polygon points="195.47 152.25 175.55 206.8 215.39 206.8 195.47 152.25"/><polygon points="235.79 152.25 215.87 206.8 255.71 206.8 235.79 152.25"/><polygon points="276.11 152.25 256.19 206.8 296.03 206.8 276.11 152.25"/><polygon points="316.43 152.25 296.52 206.8 336.35 206.8 316.43 152.25"/><polygon points="356.76 152.25 336.84 206.8 376.67 206.8 356.76 152.25"/><polygon points="397.08 152.25 377.16 206.8 417 206.8 397.08 152.25"/><polygon points="437.4 152.25 417.48 206.8 457.32 206.8 437.4 152.25"/></g><g><polygon points="54.67 207.24 34.76 261.79 74.59 261.79 54.67 207.24"/><polygon points="95 207.24 75.08 261.79 114.91 261.79 95 207.24"/><polygon points="135.32 207.24 115.4 261.79 155.24 261.79 135.32 207.24"/><polygon points="175.64 207.24 155.72 261.79 195.56 261.79 175.64 207.24"/><polygon points="215.96 207.24 196.04 261.79 235.88 261.79 215.96 207.24"/><polygon points="256.28 207.24 236.36 261.79 276.2 261.79 256.28 207.24"/><polygon points="296.6 207.24 276.69 261.79 316.52 261.79 296.6 207.24"/><polygon points="336.93 207.24 317.01 261.79 356.84 261.79 336.93 207.24"/><polygon points="377.25 207.24 357.33 261.79 397.17 261.79 377.25 207.24"/><polygon points="417.57 207.24 397.65 261.79 437.49 261.79 417.57 207.24"/><polygon points="457.89 207.24 437.97 261.79 477.81 261.79 457.89 207.24"/></g><g><polygon points="34.18 262.22 14.26 316.78 54.1 316.78 34.18 262.22"/><polygon points="74.5 262.22 54.59 316.78 94.42 316.78 74.5 262.22"/><polygon points="114.83 262.22 94.91 316.78 134.74 316.78 114.83 262.22"/><polygon points="155.15 262.22 135.23 316.78 175.07 316.78 155.15 262.22"/><polygon points="195.47 262.22 175.55 316.78 215.39 316.78 195.47 262.22"/><polygon points="235.79 262.22 215.87 316.78 255.71 316.78 235.79 262.22"/><polygon points="276.11 262.22 256.19 316.78 296.03 316.78 276.11 262.22"/><polygon points="316.43 262.22 296.52 316.78 336.35 316.78 316.43 262.22"/><polygon points="356.76 262.22 336.84 316.78 376.67 316.78 356.76 262.22"/><polygon points="397.08 262.22 377.16 316.78 417 316.78 397.08 262.22"/><polygon points="437.4 262.22 417.48 316.78 457.32 316.78 437.4 262.22"/></g><g><polygon points="54.67 317.21 34.76 371.76 74.59 371.76 54.67 317.21"/><polygon points="95 317.21 75.08 371.76 114.91 371.76 95 317.21"/><polygon points="135.32 317.21 115.4 371.76 155.24 371.76 135.32 317.21"/><polygon points="175.64 317.21 155.72 371.76 195.56 371.76 175.64 317.21"/><polygon points="215.96 317.21 196.04 371.76 235.88 371.76 215.96 317.21"/><polygon points="256.28 317.21 236.36 371.76 276.2 371.76 256.28 317.21"/><polygon points="296.6 317.21 276.69 371.76 316.52 371.76 296.6 317.21"/><polygon points="336.93 317.21 317.01 371.76 356.84 371.76 336.93 317.21"/><polygon points="377.25 317.21 357.33 371.76 397.17 371.76 377.25 317.21"/><polygon points="417.57 317.21 397.65 371.76 437.49 371.76 417.57 317.21"/><polygon points="457.89 317.21 437.97 371.76 477.81 371.76 457.89 317.21"/></g></g></g><g id="Floor"><line x1="440.39" x2="23.47" y1="372.75" y2="372.75" class="cls-5"/></g><g id="Trees"><g><polygon points="427.99 350.24 377.6 350.24 382.64 389.03 422.95 389.03 427.99 350.24" class="cls-7"/><polygon points="399.85 184.97 399.85 354.84 405 349.69 405 241.35 420.95 203.65 404.01 235.27 403.38 189.63 399.85 184.97" class="cls-7"/><path d="m363.03,286.03l-27.75-6.28,33-3.26-33.1-.96,42.55-8.09-35.48-15.02,51.05,7.18-10.38-8.85,10.93,3.02-15.94-15.99-3.24,10.98,3.98-44.03-19.7,30.42,16.66-44.18-31.67,40.71,20.02-41.82-20.38,9.32,14.15-16.05-22.48,4.69,27.79-15.85-27.75-1.69,33-7.85-19.8-14.05,29.25,5-35.48-15.02,51.05,7.18-10.38-8.85,2.87.79-7.23-5.32,12.4,4.65-14.62-14.67,22.45,12.6-19.68-31.07,21.37,19.73-7.67-31.78,10.96,22.47v-38.36l4.93,31.78,7.12-37.26-1.1,30.14,11.51-27.94-4.93,30.14,27.4-40-23.01,47.67,25.21-25.21-14.79,23.01,29.04-16.44-27.94,24.11,25.21-12.05-26.85,21.37h18.63l-22.47,9.86h12.6l-18.43,6.91-1.11,2.95h6.38l-7.42,2.76-1.6,4.25,6.58-5.48-4.38,9.32,32.88-20.82-19.73,21.37,31.78-7.67-22.47,10.96h38.36l-31.78,4.93,37.26,7.12-30.14-1.1,27.94,11.51-30.14-4.93,40,27.4-47.67-23.01,25.21,25.21-23.01-14.79,11.21,19.8,3.08.38-2.66.37,4.81,8.49-7.06-8.18-7.13.98,2.13,4.46-3.41-4.28-15.5,2.14,29.42,14.26-24.31-5.8,29.63,24.36-27.68-16.37,24.26,29.17-22.58-19.99,14.28,26.64-20.15-22.95,11.94,41.18,14.01,1.74-12.99,1.79.54,1.85-.84-1.81-15.52,2.14,29.42,14.26-24.31-5.8,29.63,24.36-27.68-16.37,24.26,29.17-22.58-19.99,14.28,26.64-20.15-22.95,13.5,46.57-22.21-48.05,3.46,35.48-8.38-26.04-5.75,32.87-.88-36.9-6.7,27.13.54-34.31-5.8,7.06.07,6.13-1.81-4.01-4.29,5.21,2.55-9.05-2.8-6.18-1.11,1.35.74-2.16-3.46-7.65-11.13,44.07.79-37-13.84,46.89,3.98-44.03-19.7,30.42,16.66-44.18-31.67,36.12,20.02-37.23-20.38,4.73,14.15-11.47-22.48.1,27.79-11.26Zm59.08-142.83l-4.1,1.54h2.97l1.13-1.54Zm-5.99,30.47v13.15l-1.75-4.7,1.18,17.86-6.88-15.21.25,22.11,1.59-4.61,14.92-3.78-9.31-24.82Zm-2.97,104.14l.31-.08-.36-.8.06.88Zm1.37-20.18l.25-15.67-8.89,10.82,8.64,4.85Zm11.46-59.27l4.34-1.1-4.34-9.88v10.98Zm2.52,8.79l6.52.81-1.42-3.23-5.1,2.42Zm4.24-4.38l-.7-1.59-2.8,1.62,3.5-.02Zm3.11-11.55v4.65l3.08-.78-3.08-3.87Zm25.12,19.96l-15.81-18.32.27.57h.02s-.02,0-.02,0l8.04,16.81,7.49.93Zm-10.24-1.27l-10.65-13.38-4.23,2.44v3.77h1.95s-1.95.91-1.95.91v4.4l14.88,1.85Zm-18.26,33.84l2.78,28.48,9.29-2.36-12.07-26.12Zm19.66,42.54l-7.48-16.19-9.1,5.26.35,3.6h1.9s-9.3,4.4-9.3,4.4l23.62,2.93Zm-17.31-10.51l-5.57,3.22,6.59-.04-1.02-3.18Zm-1.03-3.19l-6.25-19.41-3.84,21.97,10.09-2.56Zm-12.24,3.1l-.63-26.54-2.85,11.55.39,5.67.68,9.93,2.41-.61Zm-12.73,35.99l.77-2.74-.79.96.02,1.78Zm-4.61-59.84l5.38-19.11-8,9.73,9.08-26.58-8.35,10.16,4.62-13.41-8.07-17.85-11.13,44.07.79-37-10.42,35.32,26.11,14.66Z" class="cls-10"/></g><g><polygon points="115.46 350.24 65.07 350.24 70.11 389.03 110.42 389.03 115.46 350.24" class="cls-7"/><polygon points="87.32 184.97 87.32 354.84 92.47 349.69 92.47 241.35 108.42 203.65 91.48 235.27 90.84 189.63 87.32 184.97" class="cls-7"/><path d="m154.36,274.26l26.89-5.09-32.73-5.53,36.84-1.07-47.36-9.01,39.49-16.72-56.83,7.99,11.55-9.85-12.16,3.37,17.74-17.8,3.61,12.22-4.43-49.01,21.93,33.86-18.54-49.18,35.28,38.8-22.31-40.03,22.72,3.85-15.78-11.36,25.05-1.3-30.96-11.13,30.92-8.4-36.76-2.22,36.84-1.07-47.36-9.01,39.49-16.72-56.83,7.99,11.55-9.85-3.19.88,8.05-5.93-13.8,5.18,16.27-16.33-24.99,14.03,21.91-34.59-23.79,21.96,8.54-35.38-12.2,25.01v-42.7l-5.49,35.38-7.93-41.48,1.22,33.55-12.81-31.11,5.49,33.55-30.5-44.53,25.62,53.06-28.06-28.06,16.47,25.62-32.33-18.3,31.11,26.84-28.06-13.42,29.89,23.79h-20.74l25.01,10.98h-14.03l20.51,7.69,1.23,3.29h-7.11l8.26,3.07,1.78,4.74-7.32-6.1,4.88,10.37-36.6-23.18,21.96,23.79-35.38-8.54,25.01,12.2H18.42l35.38,5.49-41.48,7.93,33.55-1.22-31.11,12.81,33.55-5.49L3.78,183.34l53.06-25.62-28.06,28.06,25.62-16.47-12.47,22.04-3.43.43,2.96.41-5.35,9.46,7.86-9.11,7.93,1.1-2.37,4.96,3.79-4.77,17.25,2.38-32.75,15.87,27.06-6.46-32.98,27.11,30.81-18.23-27,32.47,25.14-22.25-15.89,29.65,22.43-25.54-13.29,45.84-15.6,1.94,14.46,2-.6,2.06.93-2.02,17.28,2.39-32.75,15.87,27.06-6.46-32.98,27.11,30.81-18.23-27,32.46,25.14-22.25-15.89,29.65,22.43-25.54-15.03,51.83,24.72-53.49-3.85,39.49,9.33-28.99,6.4,36.59.98-41.07,7.45,30.19-.61-38.19,6.46,7.86-.08,6.82,2.02-4.46,4.77,5.8-2.84-10.08,3.11-6.88,1.23,1.5-.82-2.41,3.85-8.51,12.39,49.06-.88-41.19,15.41,52.2-4.43-49.01,21.93,33.86-18.54-49.18,31.26,42.11-18.29-43.34,18.69,7.16-11.75-14.66,21.02,2.01-26.93-14.44ZM88.6,115.27l4.57,1.71h-3.31l-1.26-1.71Zm6.67,33.92v14.64l1.95-5.23-1.32,19.88,7.66-16.93-.27,24.61-1.77-5.13-16.61-4.21,10.36-27.63Zm3.3,115.92l-.34-.09.4-.89-.06.98Zm-1.52-22.47l-.28-17.44,9.9,12.04-9.62,5.4Zm-12.76-65.98l-4.83-1.22,4.83-11v12.22Zm-2.8,9.78l-7.26.9,1.58-3.59,5.68,2.69Zm-4.72-4.87l.78-1.77,3.12,1.8-3.89-.03Zm-3.46-12.86v5.17l-3.42-.87,3.42-4.3Zm-27.96,22.22l17.59-20.39-.3.64h-.02s.02,0,.02,0l-8.95,18.72-8.34,1.04Zm11.4-1.42l11.85-14.89,4.71,2.72v4.2h-2.18s2.18,1.02,2.18,1.02v4.89l-16.56,2.06Zm20.33,37.66l-3.09,31.7-10.34-2.62,13.44-29.08Zm-21.89,47.36l8.33-18.02,10.13,5.85-.39,4h-2.12s10.35,4.9,10.35,4.9l-26.3,3.27Zm19.27-11.7l6.2,3.58-7.34-.05,1.14-3.54Zm1.14-3.55l6.95-21.61,4.27,24.45-11.23-2.85Zm13.62,3.45l.7-29.54,3.17,12.85-.43,6.32-.76,11.05-2.68-.68Zm14.18,40.06l-.86-3.05.88,1.07-.02,1.98Zm5.13-66.61l-5.99-21.27,8.91,10.84-10.11-29.59,9.3,11.31-5.14-14.93,8.99-19.87,12.39,49.06-.88-41.19,11.6,39.32-29.07,16.32Z" class="cls-10"/></g></g><g id="Flash_Lights" data-name="Flash Lights"><g><path d="m201.45,56.56c-23.3-1.41-24.44-2.56-25.85-25.85-1.41,23.3-2.56,24.44-25.85,25.85,23.3,1.41,24.44,2.56,25.85,25.85,1.41-23.3,2.56-24.44,25.85-25.85Z" class="cls-6"/><path d="m371.22,269.11c-23.3-1.41-24.44-2.56-25.85-25.85-1.41,23.3-2.56,24.44-25.85,25.85,23.3,1.41,24.44,2.56,25.85,25.85,1.41-23.3,2.56-24.44,25.85-25.85Z" class="cls-6"/><path d="m388.6,201.79c-15.58-.94-16.35-1.71-17.29-17.29-.94,15.58-1.71,16.35-17.29,17.29,15.58.94,16.35,1.71,17.29,17.29.94-15.58,1.71-16.35,17.29-17.29Z" class="cls-6"/><path d="m117.08,86.74c-15.58-.94-16.35-1.71-17.29-17.29-.94,15.58-1.71,16.35-17.29,17.29,15.58.94,16.35,1.71,17.29,17.29.94-15.58,1.71-16.35,17.29-17.29Z" class="cls-6"/><path d="m337.33,50.46c-15.58-.94-16.35-1.71-17.29-17.29-.94,15.58-1.71,16.35-17.29,17.29,15.58.94,16.35,1.71,17.29,17.29.94-15.58,1.71-16.35,17.29-17.29Z" class="cls-6"/><path d="m186.31,211c-15.58-.94-16.35-1.71-17.29-17.29-.94,15.58-1.71,16.35-17.29,17.29,15.58.94,16.35,1.71,17.29,17.29.94-15.58,1.71-16.35,17.29-17.29Z" class="cls-6"/><path d="m202.69,294.44c-15.58-.94-16.35-1.71-17.29-17.29-.94,15.58-1.71,16.35-17.29,17.29,15.58.94,16.35,1.71,17.29,17.29.94-15.58,1.71-16.35,17.29-17.29Z" class="cls-6"/><path d="m359.57,189.44c-15.58-.94-16.35-1.71-17.29-17.29-.94,15.58-1.71,16.35-17.29,17.29,15.58.94,16.35,1.71,17.29,17.29.94-15.58,1.71-16.35,17.29-17.29Z" class="cls-6"/></g></g><g id="Character_3" data-name="Character 3"><g><path d="m401.44,82.68s-3.98,0-3.79,2.08c.19,2.08.57,4.54.57,4.54l-3.79,3.6,1.7,8.33s10.98-11.74,10.41-13.44c-.57-1.7-3.6-5.87-5.11-5.11Z" class="cls-2"/><g><path d="m412.43,86.65h-11.74l-1.14,5.87-2.46,1.89v3.98l-41.08-1.7-1.33-1.7-12.68.19s-2.46,6.44-2.27,11.17c.19,4.73,4.17,10.22,4.17,10.22h10.79l3.79-2.46,31.05-.19,10.41-.76s2.84,2.65,3.6,2.65,8.52.38,8.52.38l.38-29.54Z" class="cls-2"/><path d="m399.55,92.52l-2.46,1.89v3.98l.76,11.55,2.08,3.22s2.84,2.65,3.6,2.65,8.52.38,8.52.38l.38-29.54h-11.74l-1.14,5.87Z" class="cls-1"/><g><path d="m357.33,96.74l-1.33-.05-1.33-1.7-12.68.19s-2.46,6.44-2.27,11.17c.19,4.73,4.17,10.22,4.17,10.22h10.79l2.65-1.72-.19-.9c-1.12-5.3-1.14-10.77-.04-16.07l.23-1.13Z" class="cls-1"/><polygon points="384.97 97.89 380.62 97.71 380.62 113.97 384.97 113.94 384.97 97.89" class="cls-1"/><polygon points="366.61 114.05 370.77 114.03 370.77 97.3 366.61 97.13 366.61 114.05" class="cls-1"/></g></g><g><path d="m411.85,78.81s-5.57,9.09-4.4,11.44c1.17,2.35,1.14,7.1,1.14,7.1,0,0-4.37,4.93-3.19,7.57,1.17,2.64,4.69,3.81,4.69,3.81,0,0,2.05,11.14,3.52,12.02,1.47.88,34.02-19.94,35.19-23.46,1.17-3.52-8.8-22.58-16.72-23.76s-17.89,3.52-20.24,5.28Z" class="cls-2"/><path d="m408.98,91.39s-.4-2.97,3.37-1.98" class="cls-5"/><path d="m410.37,97.34s.4-1.98,2.78-1.59" class="cls-5"/></g><path d="m422.7,61.5s-4.99,0-11.14,2.64-4.4,2.35-1.47,4.4-4.99,3.81-7.04,6.75,7.92,3.52,8.8,3.52-6.75,2.93-2.93,3.23c3.81.29,9.68-2.64,9.68-2.64,0,0-2.64,4.69-.59,6.16,2.05,1.47,6.45,4.4,6.45,4.4l.59-2.93s2.64,9.09,4.4,6.45c1.76-2.64,4.69-6.16,4.69-6.16,0,0,6.75,1.76,7.33,6.75.59,4.99,0,6.45,0,6.45,0,0,5.57-.29,9.38-1.17,3.81-.88,5.87-7.92,5.87-7.92,0,0,4.11-10.56-3.52-19.06-7.63-8.51-10.26-10.26-14.37-11.14-4.11-.88-16.13.29-16.13.29Z" class="cls-1"/><path d="m397.92,128.07s1.36-8.44-.82-10.89c-2.18-2.45-10.08-3.81-10.08-3.81,0,0-4.52-.77-5.08-1.34s-2.65-2.84-5.3-3.79c-2.65-.95-4.35.38-3.6,1.14s4.35,3.98,5.3,4.92c.95.95-5.3.57-5.3.57,0,0,3.79,3.22,5.11,3.98,1.33.76,9.47,4.17,9.47,4.17l-.57,4.17,10.87.9Z" class="cls-2"/><g><path d="m373.55,451.8s-7.35,3.83-8.31,4.15c-.96.32-12.14.96-12.46,3.19-.32,2.24-.96,5.75,3.19,8.62s17.25,4.15,23.64,4.15,22.68.64,28.75-.96c6.07-1.6,5.75-4.47,5.11-7.35-.64-2.88-1.28-5.11-1.28-5.11,0,0-33.86-8.94-38.65-6.71Z" class="cls-1"/><path d="m465.87,441.58s-7.67,2.88-12.46,3.51c-4.79.64-12.46-.96-13.42,2.24-.96,3.19,2.24,7.99,5.43,8.94,3.19.96,18.21,3.83,18.21,3.83,0,0,8.31,7.35,15.97,7.35s11.5-3.19,12.14-8.31c.64-5.11-2.56-13.1-2.56-13.1l-23.32-4.47Z" class="cls-1"/><path d="m404.54,242.88l-1.6,18.53-32.26,96.15,7.35,84.33-3.83,2.88-.64,7.03s17.25,10.86,25.56,10.54c8.31-.32,13.1-3.83,13.1-3.83l-2.56-9.26,1.6-7.99-3.51-10.22-3.83-71.24,36.74-49.51,2.56,46,19.17,72.83-4.15,3.83,3.19,12.46,15.01,9.58s13.42-2.56,14.37-4.79,1.6-6.07,1.92-11.18c.32-5.11-3.19-8.31-4.15-11.5-.96-3.19-15.97-80.5-15.97-80.5l.64-56.54s4.79-24.6,2.24-33.22c-2.56-8.62-8.94-20.12-8.94-20.12l-61.97,5.75Z" class="cls-1"/><line x1="449.92" x2="467.18" y1="301.63" y2="280.21" class="cls-4"/></g><path d="m410.45,130.52l-10.35,11.98s2.18-9.53,1.36-12.53-8.71-6.54-12.8-5.45c-4.09,1.09-8.17,3.81-9.26,7.35-1.09,3.54-5.99,21.24-7.35,29.14-1.36,7.9.82,18.79,2.72,21.79,1.91,3,6.54,3.81,13.34,3.81h11.71s-4.9,38.95-1.09,46.3l3.81,7.35s-3,8.17-1.36,9.8,23.42,5.99,44.66,2.45c21.24-3.54,25.33-6.54,26.42-10.08,1.09-3.54,1.09-11.71,1.09-11.71,0,0,1.36-1.09,1.63-5.99.27-4.9-3-23.15-2.18-31.05.82-7.9,6.54-32.41,5.72-41.67s-1.36-13.89-1.36-13.89c0,0-1.09-10.35-11.44-18.52s-22.6-4.63-35.68-1.09c-13.07,3.54-19.61,11.98-19.61,11.98Z" class="cls-3"/><g><path d="m410.45,130.52s-2.45-3.54-1.36-5.99c1.09-2.45,37.86-28.32,44.94-27.78,7.08.54,17.16,11.98,20.43,22.33s4.63,21.24,4.63,21.24c0,0,2.45,6.54-2.18,8.44s-16.07-2.72-19.34-5.72-16.61-15.52-20.15-16.89c-3.54-1.36-15.52-.27-19.61.54-4.09.82-7.35,3.81-7.35,3.81Z" class="cls-3"/><path d="m417.18,123.64s20.62-6.09,24.37-5.62c3.75.47,14.53,10.31,14.53,10.31" class="cls-5"/></g><line x1="387.28" x2="382.13" y1="156.1" y2="161.56" class="cls-5"/><line x1="400.1" x2="391.16" y1="142.5" y2="151.98" class="cls-5"/><path d="m399.83,186.62s9.53-.54,12.26-2.45c2.72-1.91,23.97-22.06,23.97-22.06" class="cls-5"/><line x1="426.24" x2="445.04" y1="173.82" y2="166.47" class="cls-5"/><path d="m441.13,211.5c2.75,1.7,5.31,3.02,7.45,3.72" class="cls-5"/><path d="m412.63,188.8s11.17,10.41,22,18.3" class="cls-5"/><path d="m442.31,218.48s16.34,3.27,22.06-6.26" class="cls-5"/><path d="m459.07,237.38c3.42-1.4,6.76-3.13,9.93-5.28" class="cls-5"/><path d="m407.18,240.27s23.18,5.71,45.41-.66" class="cls-5"/></g></g><g id="Character_2" data-name="Character 2"><g><path d="m254.5,108.37s.67,7.34,2.22,9.78c1.56,2.45,7.56,3.56,14.45,4.67s9.34,1.56,14.01,8.23c4.67,6.67,22.01,30.68,22.01,30.68,0,0-.44,8.67-2.45,10.89-2,2.22-8-2.45-11.56-6.45-3.56-4-15.34-17.12-15.34-17.12,0,0-59.8,6.89-62.7,4s-8.45-22.01-5.56-25.79,11.34-6,14.45-7.34c3.11-1.33,8.45-2,10.23-5.11,1.78-3.11,2-8.23,2-8.23l18.23,1.78Z" class="cls-2"/><g><path d="m223.82,237.76s24.23,61.58,24.46,68.92c.22,7.34-36.02,71.37-41.35,74.7-5.34,3.33-17.34,1.11-18.9,4.89-1.56,3.78-1.56,12.45-5.11,18.68-3.56,6.23,6.23,13.12,6.23,13.12,0,0,11.34-3.33,12.67-.22,1.33,3.11,17.12,12.45,29.79,11.34,12.67-1.11,11.78-10.89,17.56-9.56s17.56,8.67,22.01,4.45c4.45-4.22,0-8.45,5.11-9.34s6.23-.22,10.67-2.89c4.45-2.67,6-4,6-4,0,0,2.22-26.68-1.78-49.36-4-22.68-5.56-47.8-4.89-60.03.67-12.23,6.89-43.58,6.23-56.47-.67-12.89-3.56-18.45-3.56-18.45l-67.36,5.56,2.22,8.67Z" class="cls-1"/><path d="m278.64,307.22c-.51-10.75-2.15-18.75-2.15-18.75" class="cls-4"/><path d="m258.54,397.91c5.88-19.1,18.77-62.09,19.88-75.51.27-3.26.37-6.48.36-9.57" class="cls-4"/><path d="m255.65,407.22s.64-2.03,1.71-5.48" class="cls-4"/><path d="m280.57,360.19c.26-3.15.52-6.38.76-9.68" class="cls-4"/><path d="m275.52,409.64s2.46-19.36,4.69-45.18" class="cls-4"/><path d="m231.51,385.96c2.55-3.5,4.99-7.39,7.18-11.7" class="cls-4"/><path d="m200.4,412.55s14.14-6.22,27.08-21.47" class="cls-4"/></g><g><path d="m278.73,147.28s3.33-.22-.67-5.56c-4-5.34-11.34-2.89-14.23-1.78-2.89,1.11-5.78-5.34-12.45-4.45s-7.34,4-10,5.11-6.67-1.56-13.56,2c-6.89,3.56-6.23,9.56-6.23,12.89s-2,9.34.22,13.78c2.22,4.45,9.34,20.23,9.34,22.68s-27.79,39.13-26.23,40.69c1.56,1.56,8.45,5.56,16.9,8.23,8.45,2.67,8.67,2.45,14.23-.89,5.56-3.33,12.01-4.45,17.34-2.22,5.34,2.22,8.67,1.33,15.56-2.45,6.89-3.78,12.45-1.11,12.45-1.11,0,0,9.34,2,12.67-1.78,3.33-3.78,8.67-3.78,8.67-3.78,0,0,2.45-.67,3.78-4.22,0,0-13.78-19.79-18.23-25.34-4.45-5.56-11.78-12.45-11.78-12.45l.44-18.45s7.78-13.34,1.78-20.9Z" class="cls-1"/><path d="m234.47,169.24s6.07,1.21,12.95-2.02" class="cls-4"/><path d="m262.81,166.41s5.26,3.64,10.93,1.62" class="cls-4"/><g><line x1="254.05" x2="254.28" y1="196.19" y2="229.54" class="cls-4"/><line x1="256.94" x2="258.28" y1="198.19" y2="212.64" class="cls-4"/><line x1="266.5" x2="273.62" y1="196.41" y2="216.2" class="cls-4"/><line x1="238.05" x2="234.49" y1="196.19" y2="215.75" class="cls-4"/><line x1="234.49" x2="230.71" y1="196.19" y2="204.41" class="cls-4"/></g></g><path d="m217.1,122.88s-9.47.21-10.29,11.12,3.09,42.82,3.09,42.82c0,0,5.15,14.62,8.24,8.85,3.09-5.76,3.09-15.44,3.91-22.44.82-7,2.06-18.53,2.06-18.53" class="cls-2"/><path d="m302.02,167.21s-3.61,1.26-4.71,4.08c-1.1,2.83-4.24,14.77-5.5,17.91-1.26,3.14-2.83,4.87-2.83,4.87,0,0-7.54-6.91-8.95-7.38-1.41-.47-5.65,1.1-7.23,2.83-1.57,1.73-.16,1.73.94,1.41,1.1-.31,5.15-1.28,5.15-1.28,0,0-5.06,4.27-4.44,5.36.63,1.1,3.92.1,3.92.1,0,0-2.91,2.56-1.5,3.03,1.41.47,6.28-1.1,6.28-1.1,0,0-4.24,3.14-2.2,3.3,2.04.16,5.97-1.88,5.97-1.88,0,0,4.71,6.13,5.97,5.34s6.44-10.05,8.48-12.72c2.04-2.67,8.01-13.51,8.64-19.95.63-6.44-1.41-9.58-3.77-10.52" class="cls-2"/><line x1="288.99" x2="293.07" y1="194.07" y2="197.84" class="cls-5"/><path d="m278.39,195.12s4.75-3.1,5.78-3.4c1.03-.31,1.55.52,1.55.52" class="cls-5"/><path d="m283.17,197.06s3.36-2.45,3.98-2.45,1.34.83,1.34.83" class="cls-5"/><g><path d="m259.97,102.44s-1.27,4.82-3.3,7.74-3.68,5.33-8.63,5.71-12.44-6.98-13.33-10.54c-.89-3.55-2.54-16.38,1.27-21.2,3.81-4.82,12.82-11.55,15.11-11.17s14.73,9.39,15.49,13.71c.76,4.32,1.14,6.22-1.52,9.01-2.67,2.79-5.08,6.73-5.08,6.73Z" class="cls-2"/><g><path d="m250.83,75.28s-2.79,3.05-6.09,5.08c-3.3,2.03-6.98,3.3-8.25,9.9-1.27,6.6,1.65,21.83,1.14,32.12s-4.82,13.2-5.59,18.91c-.76,5.71,4.06,3.43,3.3,2.79-.76-.63,3.17-2.92,2.79,1.9-.38,4.82-4.57,10.03-11.42,10.16-6.86.13-12.06-12.69-12.19-24.12-.13-11.42,6.73-17.77,6.09-23.1-.63-5.33-5.71-15.36,1.14-26.02,6.85-10.66,3.43-17.52,15.36-20.44,11.93-2.92,17.29-.51,20.34,1.9,3.05,2.41,10.76,17.62,10.76,17.62,0,0,3.43,7.9.76,13.35-2.67,5.46-9.01,7.11-9.01,7.11l1.02-7.49s1.4.63,2.16-2.03c.76-2.67,1.14-3.3.89-3.81s-1.78-2.28-1.78-2.28l-1.14,2.03s1.02-2.92-2.54-4.7-7.36-7.24-7.74-8.89Z" class="cls-3"/><path d="m250.83,75.28s4.29-5.03,1.3-9.76" class="cls-5"/><path d="m223.9,131.88c-6.69,8.65-5.86,14.73-1.39,19.53" class="cls-5"/><path d="m224.06,102.57c.31,1.1.78,2.19,1.43,3.28,5.23,8.71,12.62,10.66,1.74,22.16" class="cls-5"/><path d="m237.27,75.63c-.73.88-1.58,1.9-2.57,3.08-5.72,6.8-10.67,13.33-11.07,19.71" class="cls-5"/><path d="m241.43,70s.69-.41-2.22,3.25" class="cls-5"/><path d="m227.48,78.71s-8.71,11.7-7.97,18.67c.75,6.97,7.72,8.96,5.23,15.19-2.49,6.22-10.46,14.44-9.46,26.64" class="cls-5"/><path d="m267.29,94.83c-.37,1.47-1.17,2.78-2.47,3.8" class="cls-5"/><path d="m254.37,71.25s1.74,5.23,7.47,10.46c2.75,2.51,4.66,5.63,5.38,8.62" class="cls-5"/></g><ellipse cx="252.41" cy="93.21" class="cls-1" rx=".93" ry="1.37"/><path d="m240.66,94.42c0,.76-.42,1.37-.93,1.37s-.93-.61-.93-1.37.42-1.37.93-1.37.93.61.93,1.37Z" class="cls-1"/><path d="m248.95,90.74s3.29-3.62,7.9-1.54" class="cls-5"/><path d="m242.48,91.95s-2.41-1.98-5.16-1.21" class="cls-5"/><path d="m244.12,102.49s1.54,1.54,4.17,0" class="cls-5"/><path d="m241.38,105.67s6.69,3.07,11.52-1.76" class="cls-5"/></g><g><path d="m228.78,249.02s13.41,10.12,13.69,12.84c.27,2.72-1.09,8.98-2.27,10.16s-5.26,3.81-7.35,3.08c-2.09-.73-20.5-16.06-20.59-18.14-.09-2.09,4.9-12.79,8.26-12.43,3.36.36,8.27,4.49,8.27,4.49Z" class="cls-3"/><path d="m221.96,248.8s15.33,12.61,15.88,14.15-1.36,11.34-1.36,11.34l2.18-1.45s1.91-9.16,1.63-10.71c-.27-1.54-15.97-14.88-15.97-14.88,0,0-1.18.36-2.36,1.54Z" class="cls-1"/></g><g><path d="m209.61,174.54s-2.35,9.22-1.99,17.36c.36,8.14,4.52,43.03,4.52,43.03l-3.98,12.11s4.16,12.47,6.15,13.92c1.99,1.45,7.23,5.24,7.23,5.24,0,0,1.27-1.27,1.27-3.43s0-12.11.36-13.02c.36-.9,1.27-2.17,2.17-1.99s2.89,1.45,3.43,1.27c.54-.18.54-2.71-.72-5.24-1.27-2.53-4.7-6.15-5.06-8.68-.36-2.53-1.99-23.86-1.81-27.12.18-3.25,2.89-18.8,2.53-24.23-.36-5.42-2.83-13.71-2.83-13.71" class="cls-2"/><path d="m217.69,249.43s.27,6.35.27,7.98,2,6.44,2.36,7.8" class="cls-5"/><path d="m212.7,247.44s-.54,1.27.09,2.18c.64.91,1.18,2.18,1.18,2.18l1.18,8.26,2.36,2.9" class="cls-5"/><path d="m210.16,246.71s-.54,1.36.09,2.72c.64,1.36,1.27,2.54,1.27,2.54l1.45,7.26" class="cls-5"/></g></g></g><g id="Character_1" data-name="Character 1"><g><path d="m105.44,177.36l14.53,11.37s6.33,8.34,11.51,9.06c5.18.72,8.49.14,11.51-3.88,3.02-4.03,3.45-5.32,3.45-9.35v-4.75l-26.18-20.14-14.82,17.7Z" class="cls-2"/><g><path d="m12.99,418.59s-2.45,6.85-3.67,8.31c-1.22,1.47-8.56,11.98-8.8,15.65-.24,3.67,1.96,6.6,7.58,7.34,5.62.73,14.92,1.22,17.85-3.67s3.42-8.07,3.42-8.07c0,0,2.2-1.96,2.69-4.16.49-2.2,1.71-7.09,1.71-7.09l-20.79-8.31Z" class="cls-2"/><path d="m8.1,449.89c5.62.73,14.92,1.22,17.85-3.67,2.93-4.89,3.42-8.07,3.42-8.07,0,0,2.2-1.96,2.69-4.16.11-.49.26-1.12.42-1.79-1.62,1.8-3.35,4.24-3.35,4.24,0,0-3.18,7.09-12.47,8.8-9.29,1.71-16.14-2.69-16.14-2.69-.24,3.67,1.96,6.6,7.58,7.34Z" class="cls-2"/></g><path d="m34.26,277.74s20.54,72.63,20.79,73.61c.24.98-32.77,55.02-32.77,55.02,0,0-6.36,2.45-6.6,3.91-.24,1.47-2.69,8.31-2.69,8.31l21.27,9.78s9.05-7.58,11.25-11.74c2.2-4.16,5.62-11.25,5.62-11.25,0,0,29.1-35.46,30.57-38.39,1.47-2.93,3.91-14.18,4.4-21.03.49-6.85-2.69-40.59-2.69-40.59l36.19,24.45s-1.96,4.4-.98,4.89c.98.49,2.69,3.42,2.69,3.42,0,0-15.16,85.83-13.21,87.79,1.96,1.96,3.18,5.62,3.18,5.62,0,0-1.71,2.69-.49,3.18s11.74-4.4,16.63-5.62c4.89-1.22,6.11-1.96,6.11-1.96,0,0,.24-3.42.49-4.4.24-.98,1.22-1.22,1.96-2.93.73-1.71,2.45-4.89,2.69-6.6.24-1.71,13.21-83.63,13.21-83.63,0,0-.98-7.09-2.93-11.25-1.96-4.16-19.56-36.19-29.83-45.73-10.27-9.54-15.65-15.9-15.65-15.9l-4.16-4.16-65.78,17.85.73,7.34Z" class="cls-1"/><line x1="83.91" x2="97.6" y1="301.95" y2="274.56" class="cls-4"/><path d="m133.55,427.15l14.43,14.67s10.52,4.65,11,7.58c.49,2.93.49,5.14-3.18,6.11-3.67.98-12.23,1.47-18.34-.98-6.11-2.45-10.52-4.4-13.45-4.89-2.93-.49-11.74-.98-13.45-4.65s.24-10.27.24-10.27c0,0,19.07-9.05,22.74-7.58Z" class="cls-2"/><path d="m155.8,455.52c3.77-1.01,3.67-3.3,3.14-6.36-.02-.02-.04-.02-.06-.04-3.96.97-10.2,1.77-13.77,2.19-1.8.21-3.61.06-5.35-.43l-14.77-4.16-15.11-4.83c.06,1.12.26,2.21.68,3.11,1.71,3.67,10.52,4.16,13.45,4.65,2.93.49,7.34,2.45,13.45,4.89,6.11,2.45,14.67,1.96,18.34.98Z" class="cls-2"/><path d="m72.59,142.88s-9.89,2.86-12.97,6.15-6.37,9.89-6.37,9.89c0,0-17.36,11.87-20,28.13s-1.98,44.62-1.98,44.62c0,0-.88,30.11-2.2,35.83-1.32,5.71,2.42,10.33,4.4,12.09s3.08,1.76,4.18-.44.66-7.25,10.11-9.01c9.45-1.76,24.84-.66,30.77-1.32s15.61-5.49,18.9-9.67c3.3-4.18,4.18-7.91,4.18-7.91l-.66-29.45s3.74-33.19,4.62-36.49,3.08-8.13,3.08-8.13c0,0,6.59.44,10.55-5.49s3.52-11.87,3.52-11.87c0,0,.22-3.96-17.8-11.43-18.02-7.47-32.31-5.49-32.31-5.49Z" class="cls-3"/><path d="m58.3,170.14s10.99,10.11,20,18.68" class="cls-5"/><path d="m98.09,174.53s2.42,11.87-2.2,26.38" class="cls-5"/><path d="m93.6,200.25c-1.05,3.64-2.18,6.87-3.21,8.35" class="cls-5"/><path d="m97.43,184.2s-1.12,5.69-2.64,11.66" class="cls-5"/><g><path d="m131.05,138.66s3.74-3.44,6-3.44,3.55,2.58,3.55,2.58c0,0,3.88-.32,4.84,1.94s.32,7.11.32,7.11l-14.72-8.18Z" class="cls-2"/><path d="m122.13,141.97l-.29,15.39,5.61,15.54,17.41-4.03v-8.2l10.07-.58s1.58-4.75.72-9.21c-.86-4.46-1.44-6.76-3.6-7.19-2.16-.43-9.93-.58-9.93-.58,0,0,0-2.3-1.15-2.73-1.15-.43-7.62-1.73-9.93-1.73s-4.89,0-5.18,1.01c-.29,1.01-.29,2.45-.29,2.45l-3.45-.14Z" class="cls-1"/><path d="m154.36,145.42s1.29-1.73,2.88-1.15c1.58.58,2.73,5.18,2.59,9.21-.14,4.03-1.58,4.89-2.59,5.04-1.01.14-2.01-1.01-2.01-1.01,0,0,1.29-6.91-.86-12.09Z" class="cls-1"/><path d="m136.38,149.88c0,1.19-1.42,2.16-3.17,2.16s-3.17-.97-3.17-2.16,1.42-2.16,3.17-2.16,3.17.97,3.17,2.16Z" class="cls-2"/></g><path d="m58.08,181.13s9.45,0,12.97,8.35c3.52,8.35,5.28,16.48,7.03,17.8s20.88,20.88,20.88,20.88l16.27-17.14,11.65-23.96-.44-4.62s-5.06-7.69-4.4-11.21.22-8.35.66-11.43.88-3.74,2.86-2.64,2.2,4.18,2.2,6.15.44,5.49.44,5.49l11.21-11.65s.66-3.52.66-4.18-1.54-2.86.88-2.64,4.18,3.74,4.18,3.74c0,0,1.32,1.76,1.98,3.96s.44,3.08.44,4.4,2.64,5.71,1.98,10.77-7.91,18.24-7.91,18.24l-9.01,28.57s-14.07,29.45-16.05,32.31-2.86,4.18-5.71,4.18-11.21.44-26.6-7.03c-15.39-7.47-28.35-20-29.45-21.1s-14.73-16.92-17.14-19.34-3.96-6.15-3.96-7.03,1.1-15.39,6.37-19.34" class="cls-2"/><path d="m40.28,179.37c-9.01,6.15-8.57,23.08-6.37,27.91s16.92,21.32,16.92,21.32c0,0,1.98-.22,11.21-3.96s20.44-14.95,20.44-14.95l-3.96-5.71s-.66-9.67-6.59-16.49-15.39-9.23-19.12-8.79" class="cls-3"/><path d="m98.97,228.16s-2.86,2.2-2.64,6.59" class="cls-5"/><path d="m53.47,263.79c1.46.29,3.01.57,4.61.86,11.21,1.98,26.6.44,31.21-2.86" class="cls-5"/><path d="m38.74,260.47s2.76.75,7.28,1.76" class="cls-5"/><path d="m83.14,257.18s-1.32,5.06-16.27,5.71" class="cls-5"/><path d="m131.68,164.47s6.58,15.78,9.06,19.14c2.48,3.36,2.78,4.09,2.78,4.09l1.9-3.65s-1.9-2.34-5.55-8.62c-3.65-6.28-5.26-14.47-5.26-14.47l-2.92,3.51Z" class="cls-1"/><g><path d="m79.4,113.21s-11.65,9.89-11.65,18.46,2.42,12.75,2.42,16.05-10.77,7.91-10.77,11.87,9.67,12.09,16.27,16.92,7.69,6.81,10.55,3.96c2.86-2.86,3.74-5.06,5.93-6.15s6.59-3.08,6.59-3.08c0,0,5.49,3.74,9.67,1.98,4.18-1.76,9.67-16.49,9.67-17.14s3.52-3.08,3.52-3.96-2.42-6.15-2.42-7.03,3.08-3.08,3.08-6.37-.66-5.49-.66-5.49l.61-.2c2.99-1,5.45-3.14,6.86-5.95h0s.66-3.74-.88-7.91c-1.54-4.18-4.4-.44-4.4-.44,0,0-4.62-10.55-7.47-8.35s-1.54,5.06-1.54,5.06c0,0-6.59-3.3-12.09-4.84-5.5-1.54-14.29-.66-16.7.44-2.42,1.1-6.59,2.2-6.59,2.2Z" class="cls-2"/><path d="m123.8,118.7s-4.62-10.55-7.47-8.35-1.54,5.06-1.54,5.06c0,0-6.59-3.3-12.09-4.84-5.49-1.54-14.29-.66-16.7.44-2.42,1.1-6.59,2.2-6.59,2.2,0,0-11.65,9.89-11.65,18.46s2.42,12.75,2.42,16.05c0,.49-.24,1.01-.64,1.55l.2.21s-.88,4.4,1.76,7.25c2.64,2.86,10.77,3.96,14.73,1.32,3.96-2.64,5.71-6.15,9.23-7.03,3.52-.88,4.18,2.42,4.4,5.28.22,2.86,1.32,1.54,2.86,1.32,1.54-.22,1.32-7.03,2.2-9.23.88-2.2,3.74-3.3,7.25-5.28,3.52-1.98,1.76-6.81,1.76-6.81,0,0,4.62,1.98,7.03.88.66-.3,1-.73,1.16-1.2-.2-1.71-.5-2.76-.5-2.76l.61-.2c2.99-1,5.45-3.14,6.86-5.95,0,0,.66-3.74-.88-7.91-1.54-4.18-4.4-.44-4.4-.44Z" class="cls-1"/><path d="m89.29,156.73s-1.54,3.08.66,5.28,5.06,2.86,5.93,0" class="cls-5"/><path d="m119.19,145.08s-4.4,3.74-6.37,4.84" class="cls-5"/><path d="m116.77,149.26s.44,2.42-2.64,2.64" class="cls-5"/></g></g></g></svg>