<svg xmlns="http://www.w3.org/2000/svg" id="Layer_2" data-name="Layer 2" viewBox="0 0 462.12 442.49"><defs><style>.cls-1{opacity:.05}.cls-2{opacity:.1}.cls-3{fill:#f28f8f}.cls-4{fill:#f0f0f0}.cls-5{fill:#e6e6e6}.cls-6,.cls-7,.cls-8{fill:#fff}.cls-9{fill:#ffa8a7}.cls-10{fill:#e0e0e0}.cls-11{fill:#b16668}.cls-12{fill:#37474f}.cls-13{fill:#455a64}.cls-14{fill:#27debf}.cls-15{fill:#263238}.cls-16,.cls-7{opacity:.2}.cls-17{opacity:.15}.cls-18{opacity:.3}.cls-19{opacity:.25}.cls-20{opacity:.4}.cls-8{opacity:.5}</style></defs><g id="Floor"><ellipse id="Floor-2" cx="228.09" cy="309.37" class="cls-4" data-name="Floor" rx="228.09" ry="133.13"/></g><g id="Shadows"><ellipse id="Shadow" cx="134.6" cy="352.58" class="cls-10" rx="78.8" ry="45.5"/><ellipse id="Shadow-2" cx="325.52" cy="350.23" class="cls-10" data-name="Shadow" rx="78.8" ry="45.5"/></g><g id="Plants"><g id="Plants-2" data-name="Plants"><g><path d="m50.73,295.8l9.59-5.48s4.6-25.35,1.16-47.15c-4.84-30.64-25.7-41.21-33.28-38.16-7.58,3.05-9.36,12.12,4.33,29.83,8.07,10.45,18.46,32.53,18.2,60.96Z" class="cls-14"/><g class="cls-17"><path d="m50.73,295.8l9.59-5.48s4.6-25.35,1.16-47.15c-4.84-30.64-25.7-41.21-33.28-38.16-7.58,3.05-9.36,12.12,4.33,29.83,8.07,10.45,18.46,32.53,18.2,60.96Z"/></g><path d="m54.2,283.63s-.06,0-.1,0c-.37-.05-.64-.4-.58-.77,3.96-28.69-7.57-60.12-20.53-72.78-.27-.26-.28-.7-.01-.97.26-.27.7-.28.97-.01,13.2,12.9,24.95,44.84,20.93,73.95-.05.34-.34.59-.68.59Z" class="cls-6"/></g><g><path d="m24.11,311.18c-1.52.87-4.64-1.03-5.84-1.84-2.05-1.37-3.71-3.32-4.81-5.52-1.28-2.56-1.61-5.31-1.2-8.14.21-1.47.62-2.9,1.03-4.33.4-1.4.81-2.8,1.21-4.2.4-1.38.8-2.81.62-4.24-.37-2.87-2.92-4.89-5.24-6.62-2.56-1.92-5.23-4.45-5.22-7.91.01-2.67,1.39-5.15,3.05-7.24,1.65-2.09,3.62-3.95,5.11-6.16,1.08-1.59,1.92-3.46,1.74-5.38-.11-1.19-.6-2.31-1.17-3.36-1.22-2.25-2.83-4.32-3.68-6.74-.84-2.42-.72-5.43,1.17-7.16,1.55-1.42,3.85-1.62,5.95-1.48,1.94.13,3.84,1,5.54,1.95,5.49,3.05,8.63,9.56,14.46,11.91,2.25.91,4.71,1.1,7.05,1.72,2.34.62,4.73,1.82,5.82,3.98,2.14,4.27-1.83,9.54-.33,14.08,1.33,4.01,5.23,5.55,7.42,9.17.96,1.58,1.18,3.41,1.02,5.26-.26,3.12-.72,5.41-2.22,8.88-1.24,2.87-4.87,8-4.87,8-.09.09-26.38,15.24-26.61,15.37Z" class="cls-14"/><path d="m39.68,302.88h-.02c-.39-.02-.68-.34-.67-.71,1.13-27.15-11.66-57.13-20.97-65.84-.28-.26-.29-.69-.03-.97.26-.28.69-.29.97-.03,9.49,8.88,22.54,39.36,21.4,66.89-.02.37-.32.66-.68.66Z" class="cls-6"/><path d="m35.62,270.8c-.07,0-.13,0-.2-.03-8.72-2.7-19.6-3.17-19.7-3.18-.38-.02-.67-.34-.66-.71.02-.38.3-.67.71-.66.11,0,11.16.49,20.05,3.24.36.11.56.49.45.85-.09.29-.36.48-.65.48Z" class="cls-6"/></g></g><g id="Plants-3" data-name="Plants"><g><path d="m417.55,303.16l-13.85-7.33s-1.05-21.17.6-37.94c2.32-23.57,19.85-50.94,38.01-44.28,18.16,6.66-8.33,30.67-14.22,50.66-5.9,19.99-10.53,38.89-10.53,38.89Z" class="cls-14"/><path d="m417.55,303.16l-13.85-7.33s-1.05-21.17.6-37.94c2.32-23.57,19.85-50.94,38.01-44.28,18.16,6.66-8.33,30.67-14.22,50.66-5.9,19.99-10.53,38.89-10.53,38.89Z" class="cls-18"/><path d="m410.78,300.7h.02c.34-.01.6-.29.59-.63-1.78-52.38,24.3-78.73,24.56-78.99.24-.24.24-.63,0-.87-.24-.24-.63-.24-.87,0-.27.26-26.72,26.99-24.93,79.9.01.33.28.59.61.59Z" class="cls-6"/></g><g><path d="m424.66,307.34l-7.2-4.16s-2.27-16.67,4.47-34.94c6.67-18.1,23.9-27.97,31.84-25.27,9.68,3.29,9.74,12.56,6.22,18.66-4.15,7.18-30.1,25.36-35.33,45.72Z" class="cls-14"/><path d="m424.66,307.34l-7.2-4.16s-2.27-16.67,4.47-34.94c6.67-18.1,23.9-27.97,31.84-25.27,9.68,3.29,9.74,12.56,6.22,18.66-4.15,7.18-30.1,25.36-35.33,45.72Z" class="cls-2"/><path d="m420.86,305.76h0c.34,0,.61-.28.61-.62-.14-33.12,30.95-55.5,31.27-55.72.28-.2.34-.58.15-.85-.19-.27-.57-.34-.85-.15-.32.23-31.93,22.98-31.78,56.73,0,.34.28.61.61.61Z" class="cls-6"/></g></g></g><g id="Character"><g id="Character-2" data-name="Character"><g><path d="m261.97,104.09c.47-.77.63-1.79.17-2.57-.47-.79-1.47-1.15-2.4-1.12-.93.03-1.8.39-2.66.72-5.14,2-10.48,3.5-15.92,4.46-1.2.21-2.6.33-3.59-.27-.37-.22-.62-.63-.67-1.06-.14-1.24.54-2.64.99-3.9.67-1.86.74-3.92.25-5.84-.29-1.14-1.53-3.31-2.87-1.51-.61.83-2.17,3.33-6.48,7.46-4.32,4.13-3.87,7.22-8.08,11.22-.88.84-5.74,2.58-11.67,6.05l6.04,17.06c5.15-3.59,9.06-5.9,12.61-7.71,2.19-1.07,6.88-1.45,9.09-1.95,2.4-.54,4.79-1.13,7.2-1.63,3.62-.76,7.06-1.91,10.44-3.44,1.59-.72,3.2-1.58,4.2-3,.74-1.04,1.09-2.29,1.36-3.52.23-1.09.83-2.01,1.09-3.11.36-1.54.12-3.31-1.02-4.43.71-.56,1.44-1.14,1.91-1.91Z" class="cls-9"/><path d="m153.08,75.01c5.29.04,10.64.51,14.87,2.8,4.23,2.29,5.44,3.4,12.56,18.18,7.12,14.79,13.18,27.53,13.18,27.53l21.85-9.65c.58,5.11,5.48,14.27,8.26,16.18,0,0-11.82,7.68-20.48,13.06-6.48,4.03-11.85,7.26-15.3,6.59-3.46-.66-6.09-2.09-12.77-12.28-7.43-11.32-11.99-19.45-16.81-28.66,0,0-7.41-19.68-5.35-33.75Z" class="cls-13"/><path d="m193.69,123.52c-3.67,1.98-7.56,4.6-9.62,9.65,0,0-.14-7.06,8.33-12.36l1.29,2.71Z" class="cls-12"/></g><g><g><path d="m144.54,43.12l-29.54-2.18c-5.71,4.32-16.33,13.42-16.32,15.95h0v1.75h0c0,.08.02.15.06.22,1.05,1.99,4.81,3.21,10.68,3.31,6.96.12,17.76-.52,20.6-2.95,4.28-3.67,14.52-14.43,14.52-14.43l-1.49-.11c.92-.95,1.49-1.55,1.49-1.55Z" class="cls-14"/><path d="m144.54,43.12l-29.54-2.18c-5.71,4.32-16.33,13.42-16.32,15.95h0v1.75h0c0,.08.02.15.06.22,1.05,1.99,4.81,3.21,10.68,3.31,6.96.12,17.76-.52,20.6-2.95,4.28-3.67,14.52-14.43,14.52-14.43l-1.49-.11c.92-.95,1.49-1.55,1.49-1.55Z" class="cls-16"/><path d="m115.01,42.6c-5.96,4.52-17.3,14.26-16.26,16.25,1.05,1.99,4.81,3.21,10.68,3.31,6.96.12,17.76-.52,20.6-2.95,4.28-3.67,14.52-14.43,14.52-14.43l-29.54-2.18Z" class="cls-14"/><path d="m115.01,42.6c-5.96,4.52-17.3,14.26-16.26,16.25,1.05,1.99,4.81,3.21,10.68,3.31,6.96.12,17.76-.52,20.6-2.95,4.28-3.67,14.52-14.43,14.52-14.43l-29.54-2.18Z" class="cls-20"/></g><g><path d="m115.01,42.6c-.09.86,2.92,2.64,2.92,2.64l-.84-5.19-2.08,2.55Z" class="cls-14"/><path d="m115.01,42.6c-.09.86,2.92,2.64,2.92,2.64l-.84-5.19-2.08,2.55Z" class="cls-18"/></g></g><g><path d="m110.17,369.55c-.4,1.6-1.26,6.14-9.69,6.14s-13.28-3.46-14.94-7.75c-1.66-4.29-.71-7.47-.55-11.21.15-3.74-2.63-6.12-3.24-8.14-.91-2.98,1.58-7.07,1.58-7.07l26.85,28.03Z" class="cls-15"/><path d="m189.29,346.26c.31.23.5,2.86-.39,4.06-.61.83-6.27,4.94-13.25,4.08-6.98-.85-10.39-2.67-14.38-5.02-4.08-2.41-6.9-2.76-11.06-2.74-4.02.01-7-.77-7.34-1.82-.6-1.83-.65-3.01.23-2.98l46.19,4.42Z" class="cls-15"/><path d="m86.13,335.38c0,7.69,14.73,9.1,14.36,2.9l5.13-17.98-16.65-1.77-2.85,16.84Z" class="cls-9"/><path d="m110.09,365.7c-.55-1.46-2.41-3.71-3.18-5.07-4.03-7.08-6.1-14.96-5.59-23.16.03-.45.09-1.32-.31-1.65-.43-.35-.91-.02-1.41.13,0,0-.01-.02-.02-.03,0,0,0,.02-.01.03-.63.17-1.49.35-2.66.32-2.98-.08-6.13-1.23-6.87-1.23-.58,0-1,1.74-1.21,3.66-.95-.8-1.11-2.16-1.95-3.05-.45-.48-.67-.53-.57-1.2.07-.44.15-.83.22-1.28-.72-.32-1.75,2.48-2.67,4.6-1.07,2.45-2.36,5.21-1.71,7.94.36,1.52,1.11,2.91,1.79,4.32,1.16,2.43,2.11,5.05,2,7.74-.05,1.18-.3,2.35-.29,3.53.02,4.11,2.35,7.66,6.07,9.41,4.83,2.27,12.45,3.07,17.39.15,1.73-1.02,1.56-3.7,1.01-5.16Z" class="cls-14"/><path d="m110.09,365.7c-.55-1.46-2.41-3.71-3.18-5.07-4.03-7.08-6.1-14.96-5.59-23.16.03-.45.09-1.32-.31-1.65-.43-.35-.91-.02-1.41.13,0,0-.01-.02-.02-.03,0,0,0,.02-.01.03-.63.17-1.49.35-2.66.32-2.98-.08-6.13-1.23-6.87-1.23-.58,0-1,1.74-1.21,3.66-.95-.8-1.11-2.16-1.95-3.05-.45-.48-.67-.53-.57-1.2.07-.44.15-.83.22-1.28-.72-.32-1.75,2.48-2.67,4.6-1.07,2.45-2.36,5.21-1.71,7.94.36,1.52,1.11,2.91,1.79,4.32,1.16,2.43,2.11,5.05,2,7.74-.05,1.18-.3,2.35-.29,3.53.02,4.11,2.35,7.66,6.07,9.41,4.83,2.27,12.45,3.07,17.39.15,1.73-1.02,1.56-3.7,1.01-5.16Z" class="cls-20"/><path d="m146.04,329.11c4.16,2.99,8.01,3.36,12.91.9l2.47-26.23h-18.01l2.64,25.33Z" class="cls-9"/><path d="m106.59,160.96c-3.33,30.52-7.74,91.14-7.74,91.14,0,0-5,9.18-6.95,23.91-2.41,18.18-5.24,52.77-5.24,52.77,0,0,8.51,5.53,16.78,2.86,0,0,18.92-54.6,22.7-72.5,3.29-15.62,9.13-47.71,9.13-47.71l7.3,43.66s-2.86,9.06-2.35,21.28c.35,8.41,3.66,40.56,3.66,40.56,2.74,2.59,13.26,2.94,16.78.7,0,0,5.05-53.53,5.79-62.36.97-11.62,2.77-94.99,2.77-94.99l-62.61.69Z" class="cls-15"/><path d="m135.26,211.42l4.07-18.77s9.1-2.08,15.61-7.29c0,0-2.38,5.99-12.35,10.57l-4.16,17.59,3.58,38.58-6.74-40.68Z"/><path d="m185.71,341.02c-6.9-2.58-13.6-5.59-17.85-8.58-1.19-.84-2.11-1.54-2.87-2.2-1.75-1.76-2.83-5.6-3.58-6.04-.25-.14-.6.03-1.1.34-.29-.31-.55-.48-.81-.49l-.1,1.06c-1.06.66-2.57,1.45-4.72,1.72-4.23.54-4.4-.31-4.53,1.07-.03.33-.03.88.02,1.54-2.25-.29-4.04-.95-4.17-1.79l-.37-2.7c-2.24-.12-2.24,3.88-2.8,8.39-.46,3.65-1.23,6.32-.13,8.95,3.49,2.82,9.41,1.88,12.82,2.32,4.83.61,7.2,4.08,13.96,6.14,10.89,3.32,17.52-1.23,19.46-3.17,1.24-2.43.53-5.14-3.23-6.55Z" class="cls-14"/><path d="m185.71,341.02c-6.9-2.58-13.6-5.59-17.85-8.58-1.19-.84-2.11-1.54-2.87-2.2-1.75-1.76-2.83-5.6-3.58-6.04-.25-.14-.6.03-1.1.34-.29-.31-.55-.48-.81-.49l-.1,1.06c-1.06.66-2.57,1.45-4.72,1.72-4.23.54-4.4-.31-4.53,1.07-.03.33-.03.88.02,1.54-2.25-.29-4.04-.95-4.17-1.79l-.37-2.7c-2.24-.12-2.24,3.88-2.8,8.39-.46,3.65-1.23,6.32-.13,8.95,3.49,2.82,9.41,1.88,12.82,2.32,4.83.61,7.2,4.08,13.96,6.14,10.89,3.32,17.52-1.23,19.46-3.17,1.24-2.43.53-5.14-3.23-6.55Z" class="cls-20"/></g><path d="m128.7,74.41c-8.61.42-14.33,1.39-20.31,2.2-6.53.89-5.93,5.95-5.93,17.13,0,16.44,5.35,44.92,5.35,44.92l-2.29,28.03c7.65,8.18,44.29,11.76,63.84-.23,0,0,.53-55.77,0-65.18-.92-16.55-11.67-26.06-17.78-26.52,0,0-8.56-1.05-22.88-.35Z" class="cls-12"/><g><g><path d="m122.77,25.35s-4.61.64-6.3,4.12c-1.47,3.02-.94,10.32,1.02,18.28,1.96,7.96,3.81,12.75,4.96,14.95,1.15,2.2,3.52,2.82,3.52,2.82l-.23-9.44-.34-6.58s4.22-5.77,4.69-10.49c.6-6.08-.68-8.57-.68-8.57l-6.63-5.09Z" class="cls-15"/><path d="m130.22,34.49c.03,9.74,7.95,17.6,17.69,17.57,9.74-.03,17.03-8.02,17-17.75-.03-9.74-7.38-17.53-17.12-17.5-9.74.03-17.6,7.95-17.57,17.69Z" class="cls-15"/><path d="m125.65,48.45c-1.59,1.38-2.88-2.19-4.21-3.57-1.34-1.39-5.69-3.28-7.84,1.3-2.19,4.66,1.99,10.99,5.24,12.5,4.76,2.21,6.9-2.59,6.9-2.59l.51,19.86c5.02,9.04,12.15,10.68,16.87,10.17s5.77-5.43,2.31-9.39l-.04-6.47s5.34.79,7.95.38c4.33-.68,6.6-3.95,7.9-8.65,2.09-7.54,2.93-20.22.03-34.86-4.85-3.75-21.68-3.13-31.86,3.32.75,12.99-2.17,16.64-3.75,18.01Z" class="cls-9"/><path d="m159.44,20.72c-2-2.12-4.46-3.82-7.15-4.93-2.16-.89-4.56-1.48-6.89-1.47-3.07.02-6.13-.45-9.21-.36-5.34.17-11.78,2.34-14.19,7.53-1.1,2.37-1.29,4.88.89,6.52,1.86,1.4,4.24,2.03,6.51,2.43,3.95.69,7.87,1.56,11.85,2.09,4.24.56,8.65.82,12.84-.18,1.98-.47,3.89-1.25,5.58-2.38.87-.58,1.68-1.26,2.41-2.01.28-.29,1.03-.89,1.12-1.28.1-.44-.42-1.17-.63-1.56-.83-1.6-1.9-3.08-3.13-4.39Z" class="cls-15"/><path d="m145.39,70.25s-9.68-1.92-13.07-3.7c-2.27-1.2-4.14-3.28-4.69-4.61,0,0,.64,2.87,2.67,5.45,2.48,3.15,15.09,5.44,15.09,5.44v-2.57Z" class="cls-3"/></g><g><path d="m143.65,45.24c0,1.11-.86,2.01-1.93,2.02-1.07,0-1.94-.9-1.95-2.01,0-1.11.86-2.01,1.93-2.02,1.07,0,1.94.9,1.95,2.01Z" class="cls-15"/><path d="m141.71,38.49l-4.32,1.94c-.51-1.24.04-2.68,1.23-3.21,1.19-.54,2.58.03,3.09,1.27Z" class="cls-15"/><path d="m143.83,58.45l6.19,2.3c-.61,1.77-2.48,2.7-4.19,2.06-1.71-.64-2.6-2.59-2-4.36Z" class="cls-11"/><path d="m145.83,62.82c.57.21,1.16.24,1.71.13-.07-1.6-1.38-2.87-2.99-2.87-.29,0-.57.06-.84.13.21,1.16.97,2.19,2.12,2.61Z" class="cls-3"/><path d="m159.84,39.64l-4.48-1.65c.41-1.26,1.75-1.92,2.99-1.46,1.24.46,1.9,1.85,1.49,3.12Z" class="cls-15"/><path d="m159.6,44.66c0,1.11-.86,2.01-1.93,2.01-1.07,0-1.94-.9-1.95-2.01,0-1.11.86-2.01,1.93-2.02,1.07,0,1.94.9,1.95,2.01Z" class="cls-15"/><polygon points="149.22 42.6 150.17 55.46 156.25 53.36 149.22 42.6" class="cls-3"/></g></g><g><path d="m113.74,35.42c.07,2.56.5,5.02,1.26,7.34.5-.82,1.13-1.45,1.81-2.06,3.64-3.24,8.31-5.67,13.28-7.6h.02c11.16-4.31,24.18-4.98,34.58-1.31-.22-2.21-.62-4.29-1.39-6.24-3.8-9.89-11.46-15.07-23.72-13.8-14.37,1.49-26.22,9.47-25.84,23.68Z" class="cls-14"/><path d="m140.05,26.67c3.34-1.12,11.84-1.78,14.33-1,0,0,1.82-1.45,2.99-3.3,1.17-1.85.77-4.17-.32-4.65-1.09-.47-1.16.96-5.4,3.05,0,0,1.04-2.55.35-4.27-.69-1.72-2.14,1.37-5.29,3.35s-6.25,3-6.66,6.81Z" class="cls-15"/></g><g><g><path d="m108.91,77.28s-12.99,0-17.73,13.83c-2.57,7.5-8.92,26.66-12.77,38.5-6.73-3.26-23.04-11.14-26.29-14.01-3.97-3.33-6.76-7.02-8.3-8.91-1.97-2.43-3.12-4.46-3.98-6-2.05-3.68-2.7-6.75-3.19-8.19-.86-2.51-4.09.14-4.04,4.62.04,3.27.9,5.35,1.42,7.17-1.62-.15-6.32-.63-7.05-.69-2.54-.2-10.33-.07-9.55,4.06.18.92.8,1.77.72,2.71-.04.45-.24.86-.38,1.29-.52,1.61-.07,3.49,1.13,4.69.58.59.94,1.1,1.14,1.92.18.77.25,1.61.73,2.27.39.53.98.85,1.47,1.28.63.57,1.05,1.32,1.44,2.07s.79,1.51,1.38,2.12c1.39,1.44,3.62,1.07,5.43,1.05,2.41-.02,5.62-.08,8.23.17,4.78,1.11,22.07,16,36.99,24.11,5.11,2.78,9.29,4.16,12.53,2.45h-.04c2.73-1.08,4.08-4.07,5.82-8.36,3.96-10.03,14.21-36.78,14.21-36.78,3.92-11.12,3.6-25.96.69-31.36Z" class="cls-9"/><path d="m31.38,105.68c2.41-.04,3.49,1.21,4.48,4.36.58,1.87,2.29,5.12,4.76,5.82,0,0-1.73.4-3.01-.26-1.28-.66-1.58-.69-1.92.05-.34.74-1.13,1.27-1.13,1.27,0,0,1.62.87,1.18,2.8-.43,1.93-4.77,3.42-8.96,2.77,0,0,6.39-.13,7.12-2.42.73-2.29-3.11-3.57-5.6-3.43,0,0,6.04-.54,6.28-2.66.24-2.12-2.53-2.74-6.11-2.48,0,0,4.9-.71,5.17-2.54.32-2.23-1.45-2.87-2.26-3.29Z" class="cls-3"/></g><path d="m111.13,76.21c-5.24.73-9.37,1.01-13.27,3.84-3.89,2.83-6.05,4.97-11.17,20.56-5.12,15.59-8.9,28.15-8.9,28.15l-22.09-10.77c.09,5.15-4.48,14.52-6.99,16.78,0,0,15.06,10.63,21.42,14.64,6.36,4.01,13.49,7.57,16.82,6.45,3.34-1.11,5.12-3.89,10.41-14.88,5.88-12.2,9.33-20.86,12.9-30.62,0,0,4.76-20.48.87-34.16Z" class="cls-13"/><path d="m77.79,128.76c7.19,4.02,9.91,9.15,9.91,9.15,0,0-1.03-7.25-8.87-12.28l-1.04,3.13Z" class="cls-12"/></g></g></g><g id="Speech_Bubble" data-name="Speech Bubble"><g id="Speech_Bubble-2" data-name="Speech Bubble"><g id="Speech_Bubble-3" data-name="Speech Bubble"><g id="Speach_Bubble" data-name="Speach Bubble"><g><path d="m237.75.37l-44.57,25.71c-.83.48-1.51,1.65-1.51,2.61v43.25c0,.96.68,2.12,1.51,2.59l3.54,2.02c.84.47,2.19.47,3.02-.01l44.57-25.71c.83-.48,1.51-1.65,1.51-2.61V4.96c0-.96-.68-2.12-1.52-2.59l-3.54-2.02c-.84-.47-2.19-.47-3.02.01Z" class="cls-14"/><path d="m198.24,75.66v-43.25c0-.96.67-2.13,1.51-2.61l44.57-25.71c.83-.48,1.51-.09,1.51.87v43.25c0,.96-.67,2.13-1.51,2.61l-44.57,25.71c-.83.48-1.51.09-1.51-.87Z" class="cls-14"/><path d="m199.75,76.53c-.8.47-2.27.48-3.02.02l-3.54-2.02c-.84-.47-1.52-1.63-1.52-2.59V28.69c0-.5.19-1.05.48-1.54l6.54,3.78c-.28.47-.45,1-.45,1.48v43.24c0,.88.62,1.39,1.51.87Z" class="cls-16"/><path d="m245.8,4.69c-.12-.76-.74-1.03-1.49-.6l-44.57,25.71c-.42.24-.79.65-1.06,1.13l-6.54-3.78c.27-.45.63-.84,1.04-1.07L237.75.36c.83-.48,2.18-.49,3.02-.01l3.54,2.02c.76.43,1.39,1.43,1.5,2.32Z" class="cls-8"/></g></g><g><path d="m191.67,43.51l-10.24,10.83c-.65.66-.42,1.64.23,2.06.25.16,6.54,3.82,6.54,3.82l10.05-12.87-6.57-3.85Z" class="cls-14"/><path d="m191.67,43.51l-10.24,10.83c-.65.66-.42,1.64.23,2.06.25.16,6.54,3.82,6.54,3.82l10.05-12.87-6.57-3.85Z" class="cls-2"/><path d="m198.24,47.35l-10.24,10.83c-.89.91-.12,2.44,1.14,2.25l9.1-.08c1.18,0,1.18-13,0-13Z" class="cls-14"/></g></g><path id="Clapperboard" d="m234.13,26.44l-20.58,11.88,20.39-17.8c.6-.53,1.01-1.6.91-2.4l-.41-2.92c-.1-.8-.68-1.02-1.28-.49l-23.5,20.51c-.6.53-1.01,1.6-.91,2.4l.41,2.92c.04.28.14.49.27.62-.22.41-.35.89-.35,1.33v18.64c0,.88.54,1.29,1.2.91l23.85-13.77c.66-.38,1.2-1.41,1.2-2.29v-18.64c0-.88-.54-1.29-1.2-.91Zm-7.95-.92l1.57-4.27c.18-.47.57-1.06.87-1.32l3.11-2.71c.3-.26.4-.1.22.37l-1.57,4.27c-.18.47-.57,1.06-.87,1.32l-3.11,2.71c-.3.26-.4.1-.22-.37Zm-7.51,6.56l1.57-4.27c.18-.47.57-1.06.87-1.32l3.11-2.71c.3-.26.4-.1.22.37l-1.57,4.27c-.18.47-.57,1.06-.87,1.32l-3.11,2.71c-.3.26-.4.1-.22-.37Zm-7.51,6.56l1.57-4.27c.18-.47.57-1.06.87-1.32l3.11-2.71c.3-.26.4-.1.22.37l-1.57,4.27c-.18.47-.57,1.06-.87,1.32l-3.11,2.71c-.3.26-.4.1-.22-.37Zm5.97.29l-1.7,3.26c-.22.46-.65.98-.95,1.16l-3.18,1.83c-.31.18-.38-.05-.16-.51l1.7-3.26c.22-.46.65-.98.95-1.16l3.18-1.83c.31-.18.38.05.16.51Zm7.68-4.43l-1.7,3.26c-.22.46-.65.98-.95,1.16l-3.18,1.83c-.31.18-.38-.05-.16-.51l1.7-3.26c.22-.46.65-.98.95-1.16l3.18-1.83c.31-.18.38.05.16.51Zm7.68-4.43l-1.7,3.26c-.22.46-.65.98-.95,1.16l-3.18,1.83c-.31.18-.38-.05-.16-.51l1.7-3.26c.22-.46.65-.98.95-1.16l3.18-1.83c.31-.18.38.05.16.51Z" class="cls-13"/></g></g><g id="Video_camera" data-name="Video camera"><g id="Video_camera-2" data-name="Video camera"><g><path d="m306.5,380.64c-.33-.07-.55-.73-.5-1.48l14.47-232.93,7.2.76-20.43,232.42c-.08.75-.41,1.3-.74,1.23Z" class="cls-12"/><path d="m374.12,340.57c.15.74,0,1.34-.31,1.34-.32,0-.73-.59-.91-1.32l-44.94-189.96,8.31-1.67,37.86,191.62Z" class="cls-12"/><path d="m281.59,326.17l28.91-183.47,7.61,5.22-35.25,178.31c-.19.73-.62,1.31-.96,1.3-.33-.01-.48-.62-.32-1.35Z" class="cls-12"/></g><g><g><g><g><path d="m255.65,89.75c-1.28-.75-3.05-.65-5.02.48-3.93,2.26-7.12,7.76-7.13,12.29,0,2.22.76,3.79,2,4.55.42.26,5.43,2.82,5.83,3.05,1.28.75,3.06.65,5.02-.48,3.93-2.26,7.12-7.76,7.13-12.29,0-2.24-.77-3.81-2.03-4.57-.41-.25-5.4-2.81-5.8-3.04Z" class="cls-13"/><path d="m244.33,105.88c.04.06.08.13.12.19-.05-.06-.09-.13-.13-.19h0s0,0,0,0Z" class="cls-13"/><path d="m249.26,105.52c0,4.53,3.17,6.37,7.1,4.12,3.93-2.26,7.12-7.76,7.13-12.29,0-4.53-3.17-6.37-7.1-4.12-3.93,2.26-7.12,7.76-7.13,12.29Z" class="cls-15"/></g><path d="m251.16,110.02s-.05-.03-.07-.04c-.02-.01-.04-.02-.06-.03-.04-.02-.08-.04-.12-.06-.03-.02-.06-.04-.1-.06-.07-.04-.14-.08-.21-.11-.15-.08-.31-.17-.48-.27-.56-.31-3.43-1.72-3.92-1.99-.15-.09-.29-.16-.4-.22-.14-.08-.25-.14-.31-.18-.16-.1-.31-.21-.45-.33-.07-.06-.13-.12-.19-.18-.11-.1-.21-.22-.29-.34-.04-.05-.08-.1-.12-.15-.04-.06-.08-.12-.12-.19,0,0,0,0,0,0h0c-.52-.84-.82-1.97-.81-3.36,0-1.51.36-3.12.98-4.69.08-.2.16-.4.25-.59.06-.15.13-.29.2-.44.07-.15.14-.29.21-.43,0,0,0,0,0-.01l5.72,3.08c-1,1.98-1.6,4.13-1.61,6.09,0,1.36.28,2.48.79,3.32.3.49.67.88,1.11,1.17Z" class="cls-17"/></g><path d="m287.36,113.56c0,3.08-2.17,6.81-4.84,8.34-.77.45-1.51.66-2.15.66-.46,0-.89-.11-1.25-.32h0s-24.89-14.09-24.89-14.09l-.07-.04c-.13-.08-.26-.18-.37-.29-.63-.58-1-1.54-1-2.82,0-3.07,2.17-6.81,4.84-8.34,1.11-.64,2.13-.79,2.94-.53.14.04.27.1.39.16h.02s.14.09.14.09l24.84,14.05h0c.88.5,1.42,1.59,1.41,3.13Z" class="cls-12"/><path d="m277.1,115.24c-.44,1.12-.7,2.28-.7,3.37,0,.99.21,1.81.58,2.41l-3.22-1.86-.07-.04s0,0,0,0l-17.64-9.9-.08-.05h-.02s-.01-.02-.02-.02h0s-1.71-.99-1.71-.99c0,0,0,0,0,0h-.02c-.86-.52-1.39-1.6-1.38-3.12,0-1.02.24-2.11.66-3.17l23.64,13.4Z" class="cls-17"/></g><g><path d="m363.83,84.63h0c0-.34-.23-.68-.68-.94l-58.04-33.51c-.9-.52-2.37-.52-3.27,0l-36.58,21.12c-.45.26-.68.6-.68.94h0v14.16c0,.34.23.68.68.94l58.04,33.51c.9.52,2.37.52,3.27,0l36.58-21.12c.45-.26.68-.6.68-.94h0v-6.53s.26-.15.26-.15c-.16-.27-.24-.59-.26-.95v-6.53Zm-5.17,3.54h0s0,0,0,0h0Zm-88.89-12.39h0s0,0,0,0h0Z" class="cls-12"/><path d="m265.27,73.19l58.04,33.51c.9.52,2.37.52,3.27,0l36.58-21.12c.9-.52.9-1.37,0-1.89l-58.04-33.51c-.9-.52-2.37-.52-3.27,0l-36.58,21.12c-.9.52-.9,1.37,0,1.89Z" class="cls-13"/><path d="m323.31,106.69l-58.04-33.5c-.45-.26-.67-.6-.67-.94v14.16c0,.34.23.68.67.94l58.04,33.5c.45.26,1.04.39,1.63.39v-14.16c-.59,0-1.18-.13-1.63-.39Z" class="cls-15"/></g><g><path d="m376.09,101.22v38.7c0,1.03-.73,2.31-1.63,2.83l-35.63,20.56c-.9.52-2.35.52-3.26,0l-1-.58-2.18-1.26v-.51l-2.63-1.51-.43.25h0l-2.18-1.26-.44-.25s0,0-.02,0l-.11-.07c-.34-.19-.65-.49-.91-.85-.23-.29-.42-.63-.54-1-.02-.07-.05-.14-.07-.22-.08-.26-.12-.51-.12-.76v-40.59l.26-.14,38.89-22.46c.16.27.38.51.69.69l9.69,5.59c.9.52,1.63,1.8,1.63,2.83Z" class="cls-13"/><path d="m338.83,163.32c-.51.29-1.07.45-1.64.45s-1.12-.15-1.62-.44l-1-.58-2.18-1.26v-.51l-2.63-1.51-.43.25h0l-2.18-1.26-.44-.25s0,0-.02,0c-.41-.24-.75-.55-1.03-.91-.23-.29-.42-.63-.54-1-.02-.07-.05-.14-.07-.22-.08-.29-.12-.6-.12-.92l-.16-48.06.16,6.54c0,.33.09.66.26.94.16.28.4.52.69.69l11.79,6.81c-.29.43-.42.98-.48,1.61v38.7l1.63.94Z" class="cls-15"/><path d="m272.96,125.41c-.9-.52-1.63-1.79-1.63-2.83v-14.04s56.68,32.72,56.68,32.72v15.93l-55.04-31.78Z" class="cls-15"/><path d="m374.46,100.28l-35.63,20.57c-.9.52-1.63,1.79-1.63,2.83v38.7c0,1.04.73,1.46,1.63.94l35.63-20.57c.9-.52,1.63-1.79,1.63-2.83v-38.7c0-1.04-.73-1.46-1.63-.94Z" class="cls-12"/></g><g><path d="m271.3,89.06c-.85.49-1.53,1.73-1.53,2.77v21c0,1.04.73,2.31,1.63,2.83l48.84,28.2c.9.52,2.32.51,3.17-.02.85-.53,1.53-1.81,1.53-2.85v-20.92c0-1.04-.73-2.31-1.63-2.83l-48.84-28.13c-.9-.52-2.32-.55-3.17-.06Z" class="cls-14"/><path d="m271.3,89.06c-.85.49-1.53,1.73-1.53,2.77v21c0,1.04.73,2.31,1.63,2.83l48.84,28.2c.9.52,2.32.51,3.17-.02.85-.53,1.53-1.81,1.53-2.85v-20.92c0-1.04-.73-2.31-1.63-2.83l-48.84-28.13c-.9-.52-2.32-.55-3.17-.06Z" class="cls-16"/><path d="m271.4,90.88l48.85,28.2c.9.52,1.63,1.79,1.63,2.83v21c0,1.04-.74,1.46-1.64.94l-48.84-28.2c-.9-.52-1.63-1.79-1.63-2.83v-21c0-1.04.73-1.46,1.63-.94Z" class="cls-14"/><path d="m271.4,90.88l48.85,28.2c.9.52,1.63,1.79,1.63,2.83v21c0,1.04-.74,1.46-1.64.94l-48.84-28.2c-.9-.52-1.63-1.79-1.63-2.83v-21c0-1.04.73-1.46,1.63-.94Z" class="cls-20"/><path d="m324.94,120.07v20.93c0,1.04-.69,2.32-1.53,2.84-.77.49-2.01.54-2.91.14.78.32,1.38-.12,1.38-1.06v-21c0-.52-.17-1.1-.48-1.61h0s3.09-1.79,3.09-1.79c.27.49.45,1.05.45,1.55Z" class="cls-17"/><path d="m289.14,104.66c2.76,1.6,10.6,6.12,13.36,7.72.54.31.98,1.07.97,1.7v1.26c-.01.63-.45.88-.99.57l-13.35-7.7c-.54-.31-.98-1.07-.98-1.7v-1.28c0-.63.44-.88.98-.57Z" class="cls-5"/></g><g><g><path d="m288.15,128.04c0-.52-.37-1.15-.82-1.41l-2.96-1.71c-.23-.13-.43-.14-.58-.06-.15.09-1.39.8-1.54.89-.15.09-.23.27-.23.53v1.65c0,.52.37,1.15.82,1.41l2.96,1.71c.23.13.43.14.58.06.15-.09,1.38-.8,1.53-.88.15-.09.24-.27.24-.53v-1.65Z" class="cls-14"/><path d="m282.85,125.81l2.96,1.71c.45.26.82.89.82,1.41v1.65c0,.52-.37.73-.82.47l-2.96-1.71c-.45-.26-.82-.89-.82-1.41v-1.65c0-.52.37-.73.82-.47Z" class="cls-14"/><path d="m288.15,128.04v1.65c0,.26-.09.45-.24.53-.14.08-1.2.69-1.48.85.12-.1.19-.26.19-.5v-1.65c0-.26-.09-.54-.23-.8l1.53-.88c.14.26.23.54.23.8Z" class="cls-17"/><path d="m287.92,127.24l-1.53.88c-.14-.26-.35-.48-.58-.61l-2.96-1.71c-.21-.12-.4-.14-.54-.08.26-.15,1.36-.78,1.5-.86.14-.09.35-.08.57.05l2.96,1.71c.23.14.43.36.58.62Z" class="cls-19"/></g><g><path d="m297.35,133.36c0-.52-.37-1.15-.82-1.41l-2.96-1.71c-.23-.13-.43-.14-.58-.06-.15.09-1.39.8-1.54.89-.15.09-.23.27-.23.53v1.65c0,.52.37,1.15.82,1.41l2.96,1.71c.23.13.43.14.58.06.15-.09,1.38-.8,1.53-.88.15-.09.24-.27.24-.53v-1.65Z" class="cls-14"/><path d="m292.04,131.12l2.96,1.71c.45.26.82.89.82,1.41v1.65c0,.52-.37.73-.82.47l-2.96-1.71c-.45-.26-.82-.89-.82-1.41v-1.65c0-.52.37-.73.82-.47Z" class="cls-14"/><path d="m297.35,133.36v1.65c0,.26-.09.45-.24.53-.14.08-1.2.69-1.48.85.12-.1.19-.26.19-.5v-1.65c0-.26-.09-.54-.23-.8l1.53-.88c.14.26.23.54.23.8Z" class="cls-17"/><path d="m297.11,132.56l-1.53.88c-.14-.26-.35-.48-.58-.61l-2.96-1.71c-.21-.12-.4-.14-.54-.08.26-.15,1.36-.78,1.5-.86.14-.09.35-.08.57.05l2.96,1.71c.23.14.43.36.58.62Z" class="cls-19"/></g><g><path d="m306.54,138.67c0-.52-.37-1.15-.82-1.41l-2.96-1.71c-.23-.13-.43-.14-.58-.06-.15.09-1.39.8-1.54.89-.15.09-.23.27-.23.53v1.65c0,.52.37,1.15.82,1.41l2.96,1.71c.23.13.43.14.58.06.15-.09,1.38-.8,1.53-.88.15-.09.24-.27.24-.53v-1.65Z" class="cls-14"/><path d="m301.24,136.44l2.96,1.71c.45.26.82.89.82,1.41v1.65c0,.52-.37.73-.82.47l-2.96-1.71c-.45-.26-.82-.89-.82-1.41v-1.65c0-.52.37-.73.82-.47Z" class="cls-14"/><path d="m306.54,138.67v1.65c0,.26-.09.45-.24.53-.14.08-1.2.69-1.48.85.12-.1.19-.26.19-.5v-1.65c0-.26-.09-.54-.23-.8l1.53-.88c.14.26.23.54.23.8Z" class="cls-17"/><path d="m306.31,137.87l-1.53.88c-.14-.26-.35-.48-.58-.61l-2.96-1.71c-.21-.12-.4-.14-.54-.08.26-.15,1.36-.78,1.5-.86.14-.09.35-.08.57.05l2.96,1.71c.23.14.43.36.58.62Z" class="cls-19"/></g></g><g><path d="m334.57,136.32v26.43l-2.18-1.26v-.51l-2.63-1.51-.43.25h0l-2.18-1.26v-26.43c0-1.04.73-1.46,1.63-.94l4.17,2.41c.9.52,1.63,1.79,1.63,2.83Z" class="cls-13"/><path d="m332.39,151.65v9.33l-2.63-1.51-.43.25h0v-9.84c0-.34.19-.51.46-.45.06,0,.12.04.19.08l1.77,1.02c.36.21.65.72.65,1.13Z" class="cls-15"/><path d="m332.39,151.65v9.33l-2.63-1.51v-9.84c0-.08,0-.14.02-.2.06,0,.12.04.19.08l1.77,1.02c.36.21.65.72.65,1.13Z" class="cls-12"/><g><path d="m330.66,151.35l-.34.2.02.03c-.04.06-.06.14-.06.25,0,.33.23.74.52.9.09.05.17.07.24.07l.02.03.34-.2h0c.09-.05.15-.17.15-.34,0-.33-.23-.74-.52-.9-.14-.08-.27-.09-.37-.04Z" class="cls-14"/><path d="m330.66,151.35l-.34.2.02.03c-.04.06-.06.14-.06.25,0,.33.23.74.52.9.09.05.17.07.24.07l.02.03.34-.2h0c.09-.05.15-.17.15-.34,0-.33-.23-.74-.52-.9-.14-.08-.27-.09-.37-.04Z" class="cls-17"/><path d="m331.21,152.48c0,.33-.23.47-.52.3-.29-.17-.52-.57-.52-.9s.23-.47.52-.3c.29.17.52.57.52.9Z" class="cls-14"/></g><g><path d="m330.42,136.03l-.74.43.04.06c-.08.14-.13.32-.13.54,0,.73.51,1.61,1.14,1.98.19.11.37.16.53.16l.04.06.74-.43h0c.21-.12.33-.38.33-.74,0-.73-.51-1.61-1.14-1.98-.32-.18-.6-.2-.81-.08Z" class="cls-14"/><path d="m330.42,136.03l-.74.43.04.06c-.08.14-.13.32-.13.54,0,.73.51,1.61,1.14,1.98.19.11.37.16.53.16l.04.06.74-.43h0c.21-.12.33-.38.33-.74,0-.73-.51-1.61-1.14-1.98-.32-.18-.6-.2-.81-.08Z" class="cls-17"/><path d="m331.63,138.52c0,.73-.51,1.02-1.14.66s-1.14-1.25-1.14-1.98.51-1.02,1.14-.66c.63.36,1.14,1.25,1.14,1.98Z" class="cls-14"/></g><g><path d="m330.66,154.93l-.34.2.02.03c-.04.06-.06.14-.06.25,0,.33.23.74.52.9.09.05.17.07.24.07l.02.03.34-.2h0c.09-.05.15-.17.15-.34,0-.33-.23-.74-.52-.9-.14-.08-.27-.09-.37-.04Z" class="cls-14"/><path d="m330.66,154.93l-.34.2.02.03c-.04.06-.06.14-.06.25,0,.33.23.74.52.9.09.05.17.07.24.07l.02.03.34-.2h0c.09-.05.15-.17.15-.34,0-.33-.23-.74-.52-.9-.14-.08-.27-.09-.37-.04Z" class="cls-17"/><path d="m331.21,156.06c0,.33-.23.47-.52.3-.29-.17-.52-.57-.52-.9s.23-.47.52-.3c.29.17.52.57.52.9Z" class="cls-14"/></g><g><path d="m330.58,141.31l-.46.27.02.04c-.05.08-.08.2-.08.33,0,.45.32,1,.71,1.22.12.07.23.1.33.1l.02.04.46-.27h0c.13-.07.21-.23.21-.46,0-.45-.32-1-.71-1.22-.2-.11-.37-.12-.5-.05Z" class="cls-15"/><path d="m331.33,142.85c0,.45-.32.63-.71.41-.39-.23-.71-.77-.71-1.22s.32-.63.71-.41c.39.23.71.77.71,1.22Z" class="cls-12"/></g><g><path d="m330.58,145.18l-.46.27.02.04c-.05.08-.08.2-.08.33,0,.45.32,1,.71,1.22.12.07.23.1.33.1l.02.04.46-.27h0c.13-.07.21-.23.21-.46,0-.45-.32-1-.71-1.22-.2-.11-.37-.12-.5-.05Z" class="cls-15"/><path d="m331.33,146.72c0,.45-.32.63-.71.41s-.71-.77-.71-1.22.32-.63.71-.41c.39.23.71.77.71,1.22Z" class="cls-12"/></g></g><g><g><path d="m344.09,113.78c0-.28-.21-.62-.46-.76l-4.34-2.5c-.25-.15-.67-.15-.92,0l-5.99,3.44c-.25.15-.45.49-.44.78.01.28.23.63.48.78l4.32,2.48c.25.15.67.15.92,0l5.97-3.45c.25-.15.46-.49.46-.77Z" class="cls-14"/><path d="m344.09,113.78c0-.28-.21-.62-.46-.76l-4.34-2.5c-.25-.15-.67-.15-.92,0l-5.99,3.44c-.25.15-.45.49-.44.78.01.28.23.63.48.78l4.32,2.48c.25.15.67.15.92,0l5.97-3.45c.25-.15.46-.49.46-.77Z" class="cls-7"/><path d="m343.63,113.54l-5.99,3.44c-.25.15-.67.15-.92,0l-4.34-2.5c-.25-.15-.25-.39,0-.53l5.99-3.44c.25-.15.67-.15.92,0l4.34,2.5c.25.15.25.39,0,.53Z" class="cls-14"/><path d="m343.63,113.54l-5.99,3.44c-.25.15-.67.15-.92,0l-4.34-2.5c-.25-.15-.25-.39,0-.53l5.99-3.44c.25-.15.67-.15.92,0l4.34,2.5c.25.15.25.39,0,.53Z" class="cls-8"/><path d="m336.74,117.99l-4.32-2.48c-.25-.15-.47-.49-.48-.78-.01-.26.15-.57.38-.73-.19.15-.17.35.07.49l4.34,2.5c.13.07.29.11.46.11h0s0,1.01,0,1.01c-.16,0-.32-.04-.44-.11Z" class="cls-17"/></g><g><path d="m342.1,111.8v1.12c0,.21-.15.46-.33.57l-4.46,2.58c-.18.1-.47.1-.65,0l-2.41-1.39c-.18-.1-.33-.34-.33-.54s.15-.43.33-.54l2.41-1.39c.18-.1.44-.32.57-.47l1.55-1.79c.14-.16.39-.2.57-.1l2.41,1.39c.18.1.33.36.33.57Z" class="cls-14"/><path d="m342.1,111.8v1.12c0,.21-.15.46-.33.57l-4.46,2.58c-.18.1-.47.1-.65,0l-2.41-1.39c-.18-.1-.33-.34-.33-.54s.15-.43.33-.54l2.41-1.39c.18-.1.44-.32.57-.47l1.55-1.79c.14-.16.39-.2.57-.1l2.41,1.39c.18.1.33.36.33.57Z" class="cls-18"/><path d="m337.32,115.36l2.41-1.39c.18-.1.44-.32.57-.47l1.55-1.79c.14-.16.1-.37-.08-.47l-2.41-1.39c-.18-.1-.44-.06-.57.1l-1.55,1.79c-.14.16-.39.37-.57.47l-2.41,1.39c-.18.1-.18.27,0,.38l2.41,1.39c.18.1.47.1.65,0Z" class="cls-14"/><path d="m341.78,111.23l-2.41-1.39c-.18-.1-.44-.06-.57.1l-1.55,1.79c-.07.08-.17.18-.28.26l3.07,1.77c.11-.09.21-.18.28-.26l1.55-1.79c.14-.16.1-.37-.08-.47Z" class="cls-17"/></g><path d="m336.96,115.43v.69c-.11,0-.21-.02-.29-.08l-2.41-1.39c-.18-.11-.33-.35-.33-.54,0-.17.12-.38.27-.48-.12.09-.1.23.06.32l2.41,1.39c.08.05.19.08.29.08Z" class="cls-17"/><path d="m340.02,113.75l-3.07-1.77c-.1.08-.21.16-.29.21l-2.41,1.39c-.18.1-.18.27,0,.38l2.41,1.39c.18.1.47.1.65,0l2.41-1.39c.09-.05.19-.13.29-.21Z" class="cls-1"/></g><g><g><path d="m320.85,97.41v-.78h.19c.19-.35.53-.69,1.01-.97,1.6-.92,4.18-.92,5.78,0,.49.28.82.61,1.01.97h.19v.78h0c0,.6-.4,1.21-1.2,1.67-1.6.92-4.18.92-5.78,0-.8-.46-1.2-1.06-1.2-1.67Z" class="cls-15"/><path d="m327.83,98.3c1.6-.92,1.6-2.42,0-3.34-1.6-.92-4.18-.92-5.78,0s-1.6,2.42,0,3.34c1.6.92,4.18.92,5.78,0Z" class="cls-12"/></g><g><path d="m321.77,96.32v-1.35h.14c.15-.27.41-.53.78-.75,1.24-.71,3.24-.71,4.48,0,.38.22.64.48.78.75h.14v1.35h0c0,.47-.31.94-.93,1.29-1.24.71-3.24.71-4.48,0-.62-.36-.93-.83-.93-1.29Z" class="cls-14"/><path d="m321.77,96.32v-1.35h.14c.15-.27.41-.53.78-.75,1.24-.71,3.24-.71,4.48,0,.38.22.64.48.78.75h.14v1.35h0c0,.47-.31.94-.93,1.29-1.24.71-3.24.71-4.48,0-.62-.36-.93-.83-.93-1.29Z" class="cls-17"/><path d="m327.18,96.27c1.24-.71,1.24-1.87,0-2.59-1.24-.71-3.24-.71-4.48,0s-1.24,1.87,0,2.59,3.24.71,4.48,0Z" class="cls-14"/></g></g><g><path d="m336.85,92.78l-3.35,1.93c-.34.19-.88.19-1.22,0l-3.34-1.93c-.34-.2-.34-.51,0-.7l3.34-1.93c.34-.2.88-.2,1.22,0l3.35,1.93c.34.19.34.51,0,.7Z" class="cls-15"/><path d="m336.85,92.78l-3.35,1.93c-.34.19-.88.19-1.22,0l-3.34-1.93,3.34-1.93c.34-.19.88-.19,1.22,0l3.35,1.93Z" class="cls-12"/><g><path d="m331.43,92.74v-.62h.07c.07-.13.19-.25.36-.35.57-.33,1.49-.33,2.06,0,.17.1.29.22.36.35h.07v.62h0c0,.22-.14.43-.43.6-.57.33-1.49.33-2.06,0-.28-.16-.43-.38-.43-.6Z" class="cls-14"/><path d="m331.43,92.74v-.62h.07c.07-.13.19-.25.36-.35.57-.33,1.49-.33,2.06,0,.17.1.29.22.36.35h.07v.62h0c0,.22-.14.43-.43.6-.57.33-1.49.33-2.06,0-.28-.16-.43-.38-.43-.6Z" class="cls-17"/><path d="m333.92,92.71c.57-.33.57-.86,0-1.19-.57-.33-1.49-.33-2.06,0-.57.33-.57.86,0,1.19.57.33,1.49.33,2.06,0Z" class="cls-14"/></g></g><g><path d="m343.44,88.98l-3.35,1.93c-.34.19-.88.19-1.22,0l-3.34-1.93c-.34-.2-.34-.51,0-.7l3.34-1.93c.34-.2.88-.2,1.22,0l3.35,1.93c.34.19.34.51,0,.7Z" class="cls-15"/><path d="m343.44,88.98l-3.35,1.93c-.34.19-.88.19-1.22,0l-3.34-1.93,3.34-1.93c.34-.19.88-.19,1.22,0l3.35,1.93Z" class="cls-12"/><g><path d="m338.02,88.93v-.62h.07c.07-.13.19-.25.36-.35.57-.33,1.49-.33,2.06,0,.17.1.29.22.36.35h.07v.62h0c0,.22-.14.43-.43.6-.57.33-1.49.33-2.06,0-.28-.16-.43-.38-.43-.6Z" class="cls-14"/><path d="m338.02,88.93v-.62h.07c.07-.13.19-.25.36-.35.57-.33,1.49-.33,2.06,0,.17.1.29.22.36.35h.07v.62h0c0,.22-.14.43-.43.6-.57.33-1.49.33-2.06,0-.28-.16-.43-.38-.43-.6Z" class="cls-17"/><path d="m340.51,88.91c.57-.33.57-.86,0-1.19-.57-.33-1.49-.33-2.06,0s-.57.86,0,1.19c.57.33,1.49.33,2.06,0Z" class="cls-14"/></g></g><g><g><path d="m371.59,118.92h0s-.39-.23-.39-.23c-2.29-1.21-5.39-.97-8.82,1-7.07,4.07-12.81,13.96-12.83,22.12,0,1.5.19,2.85.55,4.01.49,1.55,1.27,2.78,2.29,3.65.25.21.51.4.79.57h.02s.03.03.05.03l.06.03.21.12,8.58,4.97c-.35-.22-.68-.48-.99-.76-1.67-1.53-2.65-4.09-2.65-7.48.02-8.15,5.76-18.05,12.83-22.11,2.94-1.69,5.65-2.1,7.8-1.42.37.11.71.25,1.04.43l-8.54-4.94Z" class="cls-14"/><path d="m371.59,118.92h0s-.39-.23-.39-.23c-2.29-1.21-5.39-.97-8.82,1-7.07,4.07-12.81,13.96-12.83,22.12,0,1.5.19,2.85.55,4.01.49,1.55,1.27,2.78,2.29,3.65.25.21.51.4.79.57h.02s.03.03.05.03l.06.03.21.12,8.58,4.97c-.35-.22-.68-.48-.99-.76-1.67-1.53-2.65-4.09-2.65-7.48.02-8.15,5.76-18.05,12.83-22.11,2.94-1.69,5.65-2.1,7.8-1.42.37.11.71.25,1.04.43l-8.54-4.94Z" class="cls-19"/><path d="m352.39,149.47c.25.21.51.4.79.57l-4.53-2.62s-.02-.01-.02-.02l-.05-.03c-2.27-1.35-3.68-4.21-3.67-8.25.02-8.15,5.76-18.05,12.83-22.11,2.05-1.18,3.99-1.74,5.71-1.73,1.24,0,2.37.3,3.33.86l4.42,2.56c-2.29-1.21-5.39-.97-8.82,1-7.07,4.07-12.81,13.96-12.83,22.12,0,1.5.19,2.85.55,4.01.48,1.55,1.26,2.78,2.29,3.65Z" class="cls-13"/><path d="m397.98,140.33c-.02,8.15-5.76,18.05-12.83,22.11-2.05,1.18-3.99,1.74-5.71,1.74-1.23,0-2.35-.3-3.31-.85h-.02s-13.83-8.03-13.83-8.03l-.19-.1c-.35-.22-.68-.48-.99-.76-1.67-1.53-2.65-4.09-2.65-7.48.02-8.15,5.76-18.05,12.83-22.11,2.94-1.69,5.65-2.1,7.8-1.42.37.11.71.25,1.04.43l.06.03.36.21,13.69,7.93h0c2.32,1.34,3.75,4.21,3.74,8.29Z" class="cls-12"/></g><g><path d="m357.67,151.58c-.07,0-.13-.02-.19-.05l-4.84-2.78c-.18-.11-.25-.34-.14-.53.11-.18.34-.25.53-.14l4.84,2.78c.18.11.25.34.14.53-.07.12-.2.19-.33.19Z" class="cls-12"/><path d="m356.71,148.15c-.07,0-.13-.02-.19-.05l-4.84-2.78c-.18-.11-.25-.34-.14-.53.11-.18.34-.25.53-.14l4.84,2.78c.18.11.25.34.14.53-.07.12-.2.19-.33.19Z" class="cls-12"/><path d="m356.36,144.89c-.07,0-.13-.02-.19-.05l-4.84-2.78c-.18-.11-.25-.34-.14-.53.11-.18.34-.25.53-.14l4.84,2.78c.18.11.25.34.14.53-.07.12-.2.19-.33.19Z" class="cls-12"/><path d="m356.55,141.92c-.07,0-.13-.02-.19-.05l-4.84-2.78c-.18-.11-.25-.34-.14-.53.11-.18.34-.25.53-.14l4.84,2.78c.18.11.25.34.14.53-.07.12-.2.19-.33.19Z" class="cls-12"/><path d="m357.37,139.08c-.07,0-.13-.02-.19-.05l-4.84-2.78c-.18-.11-.25-.34-.14-.53.11-.18.34-.25.53-.14l4.84,2.78c.18.11.25.34.14.53-.07.12-.2.19-.33.19Z" class="cls-12"/><path d="m358.51,136.27c-.07,0-.13-.02-.19-.05l-4.84-2.78c-.18-.11-.25-.34-.14-.53.11-.18.34-.25.53-.14l4.84,2.78c.18.11.25.34.14.53-.07.12-.2.19-.33.19Z" class="cls-12"/><path d="m359.92,133.56c-.07,0-.13-.02-.19-.05l-4.84-2.78c-.18-.11-.25-.34-.14-.53.11-.18.34-.25.53-.14l4.84,2.78c.18.11.25.34.14.53-.07.12-.2.19-.33.19Z" class="cls-12"/><path d="m361.59,130.98c-.07,0-.13-.02-.19-.05l-4.84-2.78c-.18-.11-.25-.34-.14-.53.11-.18.34-.25.53-.14l4.84,2.78c.18.11.25.34.14.53-.07.12-.2.19-.33.19Z" class="cls-12"/><path d="m363.48,128.62c-.07,0-.13-.02-.19-.05l-4.84-2.78c-.18-.11-.25-.34-.14-.53.11-.18.34-.25.53-.14l4.84,2.78c.18.11.25.34.14.53-.07.12-.2.19-.33.19Z" class="cls-12"/><path d="m365.54,126.51c-.07,0-.13-.02-.19-.05l-4.84-2.78c-.18-.11-.25-.34-.14-.53.11-.18.34-.25.53-.14l4.84,2.78c.18.11.25.34.14.53-.07.12-.2.19-.33.19Z" class="cls-12"/><path d="m367.76,124.73c-.07,0-.13-.02-.19-.05l-4.84-2.78c-.18-.11-.25-.34-.14-.53.11-.18.34-.25.53-.14l4.84,2.78c.18.11.25.34.14.53-.07.12-.2.19-.33.19Z" class="cls-12"/><path d="m370.4,123.17c-.07,0-.13-.02-.19-.05l-4.84-2.78c-.18-.11-.25-.34-.14-.53.11-.18.34-.25.53-.14l4.84,2.78c.18.11.25.34.14.53-.07.12-.2.19-.33.19Z" class="cls-12"/><path d="m373.48,122.13c-.07,0-.13-.02-.19-.05l-4.84-2.78c-.18-.11-.25-.34-.14-.53.11-.18.34-.25.53-.14l4.84,2.78c.18.11.25.34.14.53-.07.12-.2.19-.33.19Z" class="cls-12"/></g><path d="m371.12,144.94c-1.18,2.98-1.85,6.05-1.86,8.92,0,2.63.56,4.78,1.55,6.38l-8.53-4.94-.19-.11s0,0-.02,0l-8.56-4.97-.21-.12-.06-.04s-.03,0-.05-.02h-.02s-4.53-2.63-4.53-2.63c-.02,0-.02-.02-.02-.02l-.05-.03c-2.27-1.36-3.67-4.21-3.67-8.25,0-2.7.64-5.6,1.74-8.41l24.46,14.22Z" class="cls-17"/><g><g><path d="m393.21,127.1c-2.77-1.61-6.59-1.4-10.83,1.03-8.48,4.87-15.36,16.74-15.38,26.52,0,4.79,1.64,8.17,4.31,9.81.9.55,6.93,3.82,7.78,4.32,2.77,1.62,6.6,1.41,10.84-1.03,8.48-4.87,15.36-16.74,15.38-26.52,0-4.83-1.66-8.23-4.37-9.85-.89-.53-6.87-3.79-7.73-4.29Z" class="cls-13"/><path d="m368.78,161.9c.09.14.17.27.27.4-.1-.14-.2-.27-.29-.42h.02s0,.02,0,.02Z" class="cls-13"/><path d="m374.62,158.87c-.02,9.78,6.84,13.75,15.31,8.88,8.48-4.87,15.36-16.74,15.38-26.52.02-9.78-6.84-13.75-15.31-8.88-8.48,4.87-15.36,16.74-15.38,26.52Z" class="cls-12"/><path d="m383.09,166.06c-4.25,0-4.7-5.02-4.7-7.18.02-8.41,6.19-19.06,13.49-23.26,1.8-1.04,3.52-1.58,4.96-1.58,4.25,0,4.7,5.02,4.7,7.18-.02,8.41-6.19,19.06-13.49,23.26-1.8,1.04-3.52,1.58-4.96,1.58h0Z" class="cls-15"/><path d="m396.52,136.18c0-.55-.03-1.3-.15-2.1-1.34.1-2.88.61-4.49,1.54-7.29,4.19-13.47,14.84-13.49,23.26,0,.55.03,1.3.15,2.1,1.34-.1,2.88-.61,4.49-1.54,7.29-4.19,13.47-14.84,13.49-23.26Z" class="cls-14"/><path d="m396.52,136.18c0-.55-.03-1.3-.15-2.1-1.34.1-2.88.61-4.49,1.54-7.29,4.19-13.47,14.84-13.49,23.26,0,.55.03,1.3.15,2.1,1.34-.1,2.88-.61,4.49-1.54,7.29-4.19,13.47-14.84,13.49-23.26Z" class="cls-18"/><path d="m387.93,140.35c2.88-3.48,6.59-4.63,7.17-3.34.58,1.29-1.25,13.85-13.4,21.22,0,0,6.57-5.67,9.77-12.8,1.87-4.18.17-7.6-3.54-5.08Z" class="cls-10"/></g><path d="m378.73,168.57c-.05-.03-.1-.06-.15-.09-.04-.03-.08-.04-.12-.07-.08-.04-.16-.09-.26-.14-.06-.04-.13-.08-.21-.12-.15-.08-.3-.16-.46-.25-.32-.18-.67-.38-1.04-.57-1.21-.67-2.61-1.44-3.66-2.02-.33-.19-.62-.35-.86-.48-.3-.17-.53-.31-.66-.38-.34-.21-.67-.44-.97-.71-.15-.12-.28-.26-.42-.39-.23-.22-.44-.47-.63-.73-.09-.11-.17-.21-.25-.33-.09-.13-.18-.27-.27-.4,0,0,0,0,0,0h-.02c-1.12-1.82-1.76-4.26-1.75-7.25,0-3.25.77-6.73,2.1-10.11.17-.44.35-.86.54-1.28.14-.32.27-.63.43-.94.15-.32.3-.62.45-.93,0,0,0-.02,0-.03l7.55,4.38c-2.16,4.28-3.46,8.91-3.46,13.14,0,2.94.61,5.36,1.7,7.17.65,1.06,1.45,1.91,2.4,2.53Z" class="cls-17"/></g></g><g><g><path d="m310.05,65.71v-1.08h.26c.26-.49.73-.96,1.41-1.35,2.22-1.28,5.83-1.28,8.05,0,.68.39,1.14.86,1.41,1.35h.26v1.08h0c0,.84-.56,1.68-1.67,2.32-2.22,1.28-5.83,1.28-8.05,0-1.11-.64-1.67-1.48-1.67-2.32Z" class="cls-15"/><path d="m319.77,66.95c2.22-1.28,2.22-3.36,0-4.65-2.22-1.28-5.83-1.28-8.05,0s-2.22,3.36,0,4.65,5.83,1.28,8.05,0Z" class="cls-12"/></g><path d="m347.06,62.25l-26.01-15.02c-1.38-.79-3.03-.79-4.41,0-1.38.8-2.21,2.23-2.21,3.83v13.08c0,.19.14.38.39.51.51.3,1.35.3,1.86,0,.25-.14.38-.32.38-.51v-13.08c0-.64.33-1.21.89-1.53.56-.32,1.21-.32,1.77,0l26.01,15.02c.63.36,1.44.14,1.8-.48.36-.63.15-1.44-.48-1.81Z" class="cls-15"/><g><path d="m382.61,81.1h0c-1.62-2.8-31.46-22.02-39.2-26.5-.79-.51-1.91-.47-3.15.25-2.4,1.38-4.34,4.75-4.34,7.52,0,1.43.52,2.42,1.36,2.85,7.8,4.5,38.63,20.91,42.83,20.72,1.69,0,3.07-1.37,3.07-3.07,0-.66-.21-1.27-.57-1.77Z" class="cls-14"/><path d="m383.04,83.73c-.87,1.23-2.41,1.85-7.22-.24-4.48-1.95-30.52-17.15-39.74-22.5-.1.47-.15.93-.15,1.38,0,1.43.52,2.42,1.36,2.85,7.8,4.5,38.63,20.91,42.83,20.72,1.39,0,2.55-.93,2.93-2.2Z" class="cls-2"/></g></g><g><path d="m308.4,93.13c0-.28.21-.62.46-.76l4.34-2.5c.25-.15.67-.15.92,0l3.1,1.79c.25.15.45.49.44.78-.01.28-.23.63-.48.78l-4.32,2.48c-.25.15-.67.15-.92,0l-3.08-1.8c-.25-.15-.46-.49-.46-.77Z" class="cls-14"/><path d="m308.4,93.13c0-.28.21-.62.46-.76l4.34-2.5c.25-.15.67-.15.92,0l3.1,1.79c.25.15.45.49.44.78-.01.28-.23.63-.48.78l-4.32,2.48c-.25.15-.67.15-.92,0l-3.08-1.8c-.25-.15-.46-.49-.46-.77Z" class="cls-7"/><path d="m308.86,92.9l3.1,1.79c.25.15.67.15.92,0l4.34-2.5c.25-.15.25-.39,0-.53l-3.1-1.79c-.25-.15-.67-.15-.92,0l-4.34,2.5c-.25.15-.25.39,0,.53Z" class="cls-14"/><path d="m308.86,92.9l3.1,1.79c.25.15.67.15.92,0l4.34-2.5c.25-.15.25-.39,0-.53l-3.1-1.79c-.25-.15-.67-.15-.92,0l-4.34,2.5c-.25.15-.25.39,0,.53Z" class="cls-8"/><path d="m312.86,95.69l4.32-2.48c.25-.15.47-.49.48-.77.01-.26-.15-.57-.38-.73.19.15.17.35-.07.49l-4.34,2.5c-.13.07-.29.11-.46.11h0s0,1.01,0,1.01c.16,0,.32-.04.44-.11Z" class="cls-17"/></g><g><path d="m280.74,77.24c0-.28.21-.62.46-.76l4.34-2.5c.25-.15.67-.15.92,0l3.1,1.79c.25.15.45.49.44.78-.01.28-.23.63-.48.78l-4.32,2.48c-.25.15-.67.15-.92,0l-3.08-1.8c-.25-.15-.46-.49-.46-.77Z" class="cls-14"/><path d="m280.74,77.24c0-.28.21-.62.46-.76l4.34-2.5c.25-.15.67-.15.92,0l3.1,1.79c.25.15.45.49.44.78-.01.28-.23.63-.48.78l-4.32,2.48c-.25.15-.67.15-.92,0l-3.08-1.8c-.25-.15-.46-.49-.46-.77Z" class="cls-7"/><path d="m281.2,77.01l3.1,1.79c.25.15.67.15.92,0l4.34-2.5c.25-.15.25-.39,0-.53l-3.1-1.79c-.25-.15-.67-.15-.92,0l-4.34,2.5c-.25.15-.25.39,0,.53Z" class="cls-14"/><path d="m281.2,77.01l3.1,1.79c.25.15.67.15.92,0l4.34-2.5c.25-.15.25-.39,0-.53l-3.1-1.79c-.25-.15-.67-.15-.92,0l-4.34,2.5c-.25.15-.25.39,0,.53Z" class="cls-8"/><path d="m285.2,79.81l4.32-2.48c.25-.15.47-.49.48-.78.01-.26-.15-.57-.38-.73.19.15.17.35-.07.49l-4.34,2.5c-.13.07-.29.11-.46.11h0s0,1.01,0,1.01c.16,0,.32-.04.44-.11Z" class="cls-17"/></g><g><path d="m287.84,68.93v7.03l-2.75,1.59v-9.33c0-.48.34-.67.75-.44l2,1.15Z"/><path d="m315.3,80.58v11.37l-2.62,1.52-1.77-1.02v-9.33c0-.48-.34-1.07-.75-1.31l-21.54-12.43-2.78-1.61c-.42-.24-.75-.05-.75.44v9.33l-1.77-1.02v-11.37s0-.1.01-.15c.06-.45.37-.94.74-1.16l1.12-.65c.41-.24,1.09-.24,1.5,0l27.85,16.08c.42.24.75.83.75,1.3Z" class="cls-12"/><path d="m312.68,82.1v11.37l-1.77-1.02v-9.33c0-.48-.34-1.07-.75-1.31l-21.54-12.43-2.78-1.61c-.42-.24-.75-.05-.75.44v9.33l-1.77-1.02v-11.37s0-.1.01-.15c.07-.37.37-.5.74-.29l27.85,16.08c.41.24.75.83.75,1.31Z" class="cls-15"/></g></g></g></g></svg>