<?xml version="1.0" encoding="UTF-8"?>
<svg id="Layer_2" data-name="Layer 2" xmlns="http://www.w3.org/2000/svg" viewBox="0 0 2583.41 1782.13">
  <defs>
    <style>
      .cls-1 {
        fill: #fff;
      }
    </style>
  </defs>
  <g id="Layer_1-2" data-name="Layer 1">
    <g>
      <path class="cls-1" d="m1280.61,1555.33c-271.07,0-542.14.01-813.21-.04-10,0-20.03-.28-30-1.03-48.05-3.65-68.4-38.66-45.78-81.39,22.39-42.3,46.52-83.7,70.55-125.1,69.49-119.77,139.23-239.4,209.04-358.99,85.28-146.1,170.94-291.97,256.07-438.16,98.01-168.31,195.61-336.86,293.4-505.29,2.51-4.32,4.88-8.75,7.74-12.84,31.26-44.85,81.49-43.13,109.13,4.44,96.8,166.6,192.99,333.56,289.83,500.14,91.46,157.33,183.53,314.32,275.16,471.55,75.15,128.94,150.04,258.04,225.07,387.05,13.99,24.06,26.47,49.21,42.48,71.86,28.32,40.05-4.45,88.48-50.5,88.07-75.09-.67-150.2-.13-225.29-.13-204.55,0-409.11,0-613.66,0v-.13Zm748.47-109.75c-3.03-7.24-4.57-12.56-7.29-17.19-36.87-62.75-74.31-125.17-110.82-188.13-114.59-197.57-228.94-395.28-343-593.16-7.05-12.23-15.3-16.4-29.15-16.13-43.61.83-87.24.28-130.87.28-128.01,0-256.03-.21-384.04.45-8.3.04-20.41,4.43-24.23,10.74-32.14,53.09-63.19,106.86-93.32,161.12-4.02,7.24-4.61,20.36-.72,27.39,30.75,55.54,62.83,110.36,94.79,165.23,75.06,128.87,150.25,257.66,225.44,386.45,13.39,22.93,27.06,45.68,42.93,72.44,94.06-161.72,185.32-318.63,279.17-479.99-22.92,0-39.3.14-55.67-.04-20.73-.23-41.56.47-62.16-1.38-26.33-2.36-37-20.47-29.27-45.19,5.87-18.77,21.1-19.22,36.21-19.27,70.08-.23,140.17-.12,210.25,0,3.88,0,7.76,1.24,15.29,2.53-103.77,178.63-206.14,354.83-310.13,533.84h676.57Zm-845.2-.77c-109.14-187.47-216.35-371.63-325.86-559.74-109.51,188.26-216.63,372.43-325.59,559.74h651.45Zm97.24-1287.84c-78.86,136.06-155.25,267.87-233.66,403.14h468.95c-78.88-135.14-155.62-266.63-235.29-403.14Z"/>
      <path class="cls-1" d="m1928.52,1652.12h19.73c10.41,30.29,20.64,60.05,30.86,89.81,13.63-28.85,37.18-55.42,6.9-89.34,11.64-.54,19.51-.9,25.39-1.17,10.23,31.66,19.94,61.69,29.66,91.73,2.21.08,4.41.16,6.62.23,8.28-27.59,16.29-55.27,25.11-82.7,1.35-4.21,6.42-7.22,13.12-7.19-14.76,40.67-29.51,81.34-46.67,128.63-11.18-29.33-20.21-53.02-31.22-81.89-11.02,28.5-20.26,52.38-31.65,81.83-17.1-46.43-32.02-86.97-47.85-129.95Z"/>
      <path class="cls-1" d="m2377.02,1776.76h-18.41v-124.03c17.04,0,33.98-.83,50.79.25,15.1.97,28.18,7.2,31.15,24.01,2.81,15.93-3.46,27.83-18.98,34.19-2.57,1.05-4.78,3.02-10.72,6.88,15.18,19.51,29.95,38.48,44.5,57.17-19.25,10.06-21.82-.87-64.18-60.3,5.69-2.59,11.42-4.52,16.45-7.61,12.95-7.95,17.38-21.73,10.42-33.12-5.15-8.43-18.25-12.7-28.63-16.69-2.43-.93-11.73,6.64-11.83,10.46-.94,35.42-.55,70.87-.55,108.79Z"/>
      <path class="cls-1" d="m1455.16,1776.86h-17.51v-123.77c18.16,0,37.77-2.86,55.86,1.13,9.98,2.2,22.19,14.75,24.56,24.74,2.05,8.63-7.74,20.61-13.59,30.32-2.17,3.6-8.03,4.97-15.24,9.08,15.65,19.82,30.28,38.35,44.5,56.36-22,5.42-24.98,2.7-64.07-60.53,5.8-2.54,14.14-3.5,16.57-7.8,5.41-9.55,13.54-23.55,10.09-30.62-4.39-9-18.84-13.63-29.73-18.37-1.81-.79-10.83,7.34-10.94,11.49-.91,35.28-.52,70.6-.52,107.98Z"/>
      <path class="cls-1" d="m706.73,1654.84v21.15c-11.59-6.52-23.68-15.82-37.33-19.86-5.93-1.76-18.81,5.61-21.61,11.91-2.47,5.55,2.43,18.15,8.06,22.75,11.39,9.32,25.36,15.55,38.5,22.64,15.41,8.33,24.88,20.76,20.4,38.23-4.77,18.61-19.16,28.64-38.35,28-14.65-.49-29.2-4.03-44.85-6.37v-25.91c10.71,8.29,20.87,20.96,33.51,24.32,9.22,2.45,21.71-7.37,32.74-11.73-4.28-9.54-6.28-21.54-13.35-28.05-11.3-10.42-26.13-16.95-39.15-25.61-12.79-8.51-19.97-22.49-11.82-34.82,6.81-10.31,20.78-18.99,33.06-21.7,12.21-2.7,26.27,2.94,40.21,5.02Z"/>
      <path class="cls-1" d="m598.98,1655.85v31.45c-4.71-7.94-6.04-13.21-9.33-15.15-10.44-6.15-21.19-13.31-32.68-15.47-5.38-1.01-15.55,7.38-18.29,13.76-2.05,4.8,2.37,15.66,7.29,19.49,11.64,9.07,25.07,15.97,38.17,22.99,18.32,9.81,26.23,24.62,19.4,44.25-6.58,18.92-22.78,24.45-41.39,22.33-11.92-1.36-23.65-4.44-37.43-7.14-.63-7.38-1.26-14.83-1.86-21.92,11.44,7.72,21.62,19.08,33.43,21.16,9.95,1.75,25.77-4.27,31.87-12.28,8.92-11.72-1.43-22.16-12.96-28.8-11.12-6.41-22.54-12.42-33.14-19.6-13.53-9.17-24.66-20.04-17.73-38.94,7.14-19.49,22.25-24.99,41.01-22.81,11.05,1.29,21.9,4.28,33.65,6.68Z"/>
      <path class="cls-1" d="m498.11,1754.76c-.42,13.92-3.2,23.6-20.09,22.8-21.96-1.04-44.01-.25-66.99-.25v-125.84c23.87,0,47.3-.59,70.65.49,4.72.22,9.16,6.73,13.55,10.21-22.49-2.81-42.27-5.29-64.29-8.04v54.55c17.64-2.26,35.1-4.49,52.49-6.72v18.39c-17.01-2.58-34.12-5.17-59.23-8.98,5.74,24.41,4.46,50.98,15.24,57.44,17.27,10.35,43.01,9.26,58.67-14.04Z"/>
      <path class="cls-1" d="m1401.86,1662.59c-21.64-2.89-41.08-5.49-63.07-8.42v54.11c16.93-1.08,32.73-2.08,49.73-3.17.24,3.53.7,10.45,1.36,20.27-5.12-4.03-8.37-8.79-11.81-8.92-13.08-.5-36.74-2-37.54,1.36-3.79,16.01-7.62,38.65.79,48.82,6.75,8.16,31.09,2.73,47.47,1.39,5.2-.43,9.89-7.09,14.81-10.91,1.38,1.33,2.76,2.66,4.14,3.99-5.92,5.44-11.51,15.1-17.81,15.59-23.98,1.85-48.19.75-71.06.75v-126.07c23.14,0,47.95-.51,72.69.53,3.81.16,7.32,7.43,10.3,10.69Z"/>
      <path class="cls-1" d="m1886.8,1704.44v14.45c-16.01-2.04-31.93-4.07-48.44-6.18-1.35,5.47-2.85,8.2-2.49,10.67,2.28,16.09.22,42.24,8.49,46.12,18.11,8.5,41.91,7.35,57.64-13.89,1.41,1.99,2.82,3.97,4.23,5.96-6.37,5.34-12.42,14.76-19.16,15.29-23.96,1.88-48.15.73-70.18.73v-126.26c25.84,1.13,53.26-1.57,80.23,1.11-.18,2.49-.36,4.99-.54,7.48-18.99-1.52-37.98-3.04-59.11-4.73v52.51c15.87-1.05,31.96-2.12,49.32-3.27Z"/>
      <path class="cls-1" d="m986.85,1646.54c20.25,46.57,38.18,87.78,56.65,130.26h-21.97c-12.53-32.73-24.65-64.39-39.06-102.02-9.32,20.93-16.03,35.96-23.92,53.68,11.63,1.3,20.4,2.28,30.7,3.43-37.89,2.92-45.71,10.84-44.46,44.7-2.52.37-5.15,1.04-7.79,1.07-2.75.02-5.51-.58-8.45-.94,18.9-42.2,37.48-83.69,58.3-130.16Z"/>
      <path class="cls-1" d="m2200.36,1661.39c-19.15-2.23-38.43-4.48-60.23-7.03v54.53c17.64-1.73,33.97-3.34,51.15-5.03v15.9c-16.01-2.48-32.42-5.03-56.49-8.76,4.39,23.65,1.77,50.04,12.37,57.43,17.21,11.98,42.14,6.77,60.85-13.19-1.15,16.32-6.92,22.92-21.64,22.3-21.87-.92-43.81-.24-65.68-.24v-125.49c24.5,0,50.15-.36,75.74.64,2.2.09,4.05,9.25,3.92,8.93Z"/>
      <path class="cls-1" d="m1547.3,1652.48h25.99c12.35,21.82,23.51,41.55,37.73,66.67,13.78-25.14,24.54-44.77,36.7-66.96h14.02c-20.66,39.3-65.99,68.68-41.99,123.8h-26.72c18.28-52.69-20.28-84.47-45.73-123.51Z"/>
      <path class="cls-1" d="m33.17,1729.16c-7.24,14.69-14.49,29.39-23.32,47.29.45,0-4.87,0-9.85,0,18.54-41.98,36.81-83.34,57.58-130.37,20.18,46.25,38.14,87.42,56.73,130.02h-18.73c-9.81-16.73-18.27-31.15-26.73-45.57-3.7-16.51-7.41-33.01-11.11-49.52-2.92.06-5.85.12-8.77.18-5.27,15.99-10.53,31.98-15.8,47.97Z"/>
      <path class="cls-1" d="m227.23,1772.63c-25.07,12.78-52.19,9.8-70.7-6.7-17.32-15.43-25.17-49.39-15.71-73.43,7.9-20.08,21.06-37.17,43.47-40.19,19.9-2.68,40.44-.56,62.65-.56.54,12.19.94,21.09,1.53,34.21-16.17-21.09-30.27-39.25-57.29-29.03-27.58,10.43-38.7,36.92-31.95,77.12,4.43,26.38,22.2,39.85,52.22,39.48,4.68-.06,9.36-.52,15.8-.9Z"/>
      <path class="cls-1" d="m2495.02,1652.98c12.23,21.21,23.36,40.51,37.91,65.74,13.83-25.62,23.97-44.4,35.76-66.22h14.72c-23.68,38.3-62.79,69.93-42.76,123.53-9.48.8-16.17,1.36-26.75,2.25,20.9-54.54-19.99-85.44-43.47-125.3h24.59Z"/>
      <path class="cls-1" d="m367.06,1764.16c-20.52,17.61-51.07,20.51-71.1,7.67-22.41-14.36-35-44.2-26.21-73.72,16.6-55.73,59.13-55.2,106.22-40.76v17.25c-12.56-7.05-25.51-17.47-40.19-21.31-8.17-2.14-20.71,4.76-28.66,10.94-22.58,17.55-26.83,66.72-9.27,90.84,13.84,19.01,44.89,22.72,69.21,9.09Z"/>
      <path class="cls-1" d="m859.4,1774.21c-22.81,12.41-58.48-3.68-70.7-31.89-19.58-45.21,13.87-94.94,63.21-93.09,14.03.52,27.96,3.88,43.13,6.12.79,7.19,1.7,15.4,3.14,28.48-5.62-6.85-8.25-10.22-11.06-13.44-24.62-28.19-63.3-21.58-77.53,13.22-18.27,44.69,7.29,91.1,50.11,90.98l-.29-.37Z"/>
      <path class="cls-1" d="m2326.96,1762.01c-.89,7.42-4,16.13-19.65,15.51-22.55-.89-45.16-.23-67.77-.23v-124.49h18.97c0,33.75.05,66.88-.03,100-.03,12.58,6.14,18.81,18.54,17.19,16.65-2.18,33.19-5.26,49.93-7.98Z"/>
      <path class="cls-1" d="m1198.62,1652.15h19.17c0,34.62-.61,68.41.62,102.14.19,5.32,8.75,14.77,13.33,14.7,17.58-.26,35.11-3.61,53.71-5.94.52,6.92-2.67,14.71-17.1,14.52-23.45-.31-46.91-.08-69.74-.08v-125.33Z"/>
      <path class="cls-1" d="m1168.32,1763.5c-5.96,4.33-12.15,12.55-18.89,13.03-23.25,1.67-46.7.64-69.61.64v-124.47h20.5v118.41c21.79-2.44,43.53-4.88,68-7.62Z"/>
      <path class="cls-1" d="m1755.85,1652.05h18.41c0,30.82.4,61.13-.13,91.41-.38,21.67-14.94,36.79-34,35.51-4.97-.33-11.45-3.52-13.92-7.47-1.95-3.11,1.21-9.41,2.09-14.29,2.54-1.38,5.09-2.76,7.63-4.14,3.48,7.84,6.96,15.68,10.44,23.52,2.85-1.32,5.71-2.64,8.56-3.95,6.21-39.23,3.66-78.7.92-120.59Z"/>
      <path class="cls-1" d="m859.69,1774.58c22.7-6.24,29.61-23.34,21.3-53.13-.91-3.28-2.63-6.33-4.78-11.38h24.24c-.61,12.74-1.55,25.18-1.73,37.64-.4,26.96-12.52,35.35-39.23,26.6-.08-.09.21.27.21.27Z"/>
    </g>
  </g>
</svg>