<svg xmlns="http://www.w3.org/2000/svg" id="Layer_2" data-name="Layer 2" viewBox="0 0 1064.97 1060.97"><defs><style>.cls-1{fill:#fff}</style></defs><g id="Layer_1-2" data-name="Layer 1"><g><path d="m1014.49,303.17c2.25,6.94,2.58,15.95,7.24,20.11,4.96,4.43,2.04,11.33,7.62,14.46,1.13.63.65,3.81,1.33,5.66.81,2.21,2.04,4.28,3.16,6.37.36.66,1.24,1.13,1.39,1.8,1.99,8.76,3.89,17.54,5.96,27,5.5.63,5.54,4.36,4.52,9.67-.74,3.87-3.23,9.21,3.63,11.54.97.33.28,4.91.77,7.45.8,4.18-2.88,9.85,4.01,12.24.7.24.74,2.96.76,4.53.08,6.48-.18,12.97.12,19.44.16,3.5-2.3,8.36,3.92,9.71.54.12.8,2.54.82,3.9.12,11.13,0,22.27.34,33.4.07,2.31,1.77,4.57,2.72,6.85.72-.17,1.44-.34,2.16-.51v66.55c-1.35.33-3.02.73-4.65,1.12v43.18c-1.33.12-3.05.26-4.73.41v34.02c-1.31-.07-3.06-.15-5.93-.3.25,3.48,1.02,6.82.57,9.99-.45,3.21-2.14,6.23-3.23,9.36-.6,1.7-1.51,3.43-1.55,5.16-.1,4.2-.13,7.75-3.36,11.58-2.24,2.65-1.12,8.13-1.53,12.63h-4.79c-.1,2.26-.46,4.41-.24,6.5.85,8.2-2.68,14.88-6.79,21.52-1.51,2.43-1.91,5.53-3.01,8.24-2.47,6.12-5.07,12.2-7.59,18.3-.75,1.82-2.36,3.96-1.93,5.48,1.65,5.71-1.32,8.46-5.63,10.92-2.67,1.52-5.27,3.34-3.81,7.21.19.51.17,1.55-.11,1.72-3.9,2.29-3.82,6.58-5.58,9.95-6.27,12.03-13.92,23.34-20.86,35.04-1.49,2.52-2.03,5.59-3.27,8.28-.68,1.48-1.75,2.87-2.92,4.02-4.64,4.55-11.32,7.48-11.87,15.26-.05.72-.69,1.45-1.17,2.09-14.25,18.87-30.55,35.87-47.53,52.27-10.19,9.84-20.67,19.47-30.07,30.04-6.9,7.76-14.95,13.59-23.08,19.78-8.92,6.79-19.05,11.99-26.77,20.69-3.96,4.46-10.95,6.24-16.58,9.21-.35.18-.84.12-1.16.32-9.86,6.03-19.63,12.18-29.58,18.05-3.62,2.14-7.65,3.59-11.48,5.39-11.27,5.29-22.84,10.05-33.7,16.07-8.95,4.96-19.28,6.29-27.91,12.46-4.07,2.91-11.31,1.41-17.6,1.95-.24,1.39-.53,3.08-.78,4.59-4.58,2.01-11.64-5-13.67,4.59-3.11,0-6.39-.42-9.5.13-2.4.43-4.54,2.18-6.88,3.14-2.14.88-4.36,1.99-6.6,2.12-3.6.2-7.29-.77-10.85-.37-2.37.26-4.53,2.15-6.87,3.11-2.15.88-4.39,2.04-6.63,2.13-6.64.28-13.3.1-20.59.1-.36,1.09-.93,2.86-1.49,4.55h-42.02c-.83,6.29-5.63,5.65-10.65,5.53-14.75-.36-29.52-.47-44.28-.43-7.66.02-15.34,1.07-21.93-4.52-1.28-1.09-3.86-.84-5.85-.86-10.12-.08-20.25.11-30.36-.19-1.92-.06-3.76-1.96-5.7-2.88-1.54-.73-3.16-1.7-4.78-1.76-5.66-.2-11.38-.51-16.99.11-4.22.47-6.62-.22-6.46-5.06-6.36,0-12.23.29-18.05-.14-2.43-.18-4.75-1.86-7.12-2.86.15-.62.3-1.24.45-1.87-2.61,0-5.22.03-7.82-.01-1.21-.02-3.22.23-3.49-.32-4.3-8.69-11.05-2.5-17-2.99v-6.39c-3.21,0-6.15.04-9.09,0-4.23-.07-7.62.61-11.96-3.41-3.32-3.07-9.37-6.96-16.38-6.78-4.99.13-10.04-4.21-15.15-6.35-3.2-1.35-6.55-2.33-10.33-3.66-.59-.73-1.57-3.05-3.27-3.9-8.08-4.05-16.35-7.72-24.56-11.49-5.88-2.7-11.79-5.33-17.66-8.05-.89-.41-1.84-.99-2.41-1.75-5.5-7.38-13.59-10.23-21.86-12.92-1.83-.59-3.41-2.1-4.96-3.36-8.9-7.25-17.06-15.73-26.8-21.57-14.08-8.44-24.18-20.81-35.64-31.86-14.4-13.9-28.67-27.95-42.66-42.26-3.99-4.08-6.63-9.44-10.21-13.96-3.23-4.07-6.88-7.8-10.38-11.65-1.04-1.14-3.26-2.31-3.14-3.24.81-6.18-3.53-8.75-7.33-12.04-1.57-1.35-2-3.98-3.07-5.95-1.01-1.85-2.18-3.62-3.28-5.42-2.25-3.71-4.51-7.42-6.75-11.13-.51-.84-.76-2.13-1.49-2.49-8.52-4.15-9.4-13.1-12.96-20.36-.53-1.07-.67-2.59-1.5-3.21-10.06-7.5-13.55-17.95-13.41-30.14h-6.39c5.92-7.64-4.4-11.71-3.81-18.49.03-.35-3.07-.97-5.32-1.65.11-1.92-.01-4.33.45-6.63.68-3.4,1.19-5.69-2.42-8.69-2.41-2.01-1.65-7.82-2.22-11.35-6-7.56-9.95-15.42-9.24-25.04-10.51-4.03-1.48-13.21-6.23-19.57-.77-.08-2.64-.29-4.75-.52.45-4.29,1.2-8.3,1.21-12.31,0-4.44,1.37-9.42-3.82-12.55-.88-.53-.82-2.96-.84-4.52-.09-6.24-.04-12.49-.04-19.02h-4.93c0-12.8.12-25.3-.11-37.79-.04-2.11-1.62-4.17-2.38-6.29-.85-2.39-2.23-4.81-2.25-7.23-.22-21.46-.21-42.93-.23-64.39,0-1.4-.14-3.19.62-4.13,7.88-9.91,3.08-21.41,4.16-32.15.54-5.36-1.89-11.15,4.28-15.29,1.43-.96.69-5.32.74-8.13.09-4.86.03-9.72.03-14.58l1.64.43c1.07-3.08,2.92-6.12,3.05-9.24.29-6.72-1.43-13.43,4.48-19.23,1.76-1.73.76-6.59.52-9.98-.36-5.24-.54-5.22,4.35-6.81,1.55-10.64,3.81-20.77,9.52-30.18,3.08-5.07,3.52-11.66,5.85-17.28,6.28-15.19,12.92-30.24,19.47-45.33.64-1.47,1.28-3.32,2.5-4.1,7.44-4.8,8.11-13.52,12.18-20.24,6.17-10.16,12.72-20.1,19.22-30.05,2.47-3.79,6.79-6.93,3.96-11.25,4.78-3.94,9.3-7.63,13.77-11.38.6-.5,1.39-1.31,1.37-1.94-.4-9.52,8.64-11.79,13.29-17.39,4.27-5.14,9.84-8.76,12.02-16.13,1.17-3.96,5.11-10.92,12.7-7.63,3.05-10.66,7.61-19.17,20.24-20.21-.17-5.37.56-10.25,8.18-9.84,1.55.08,3.31-2.71,4.87-4.27,5.17-5.14,10.29-10.32,15.44-15.48.71-.72,1.4-1.9,2.22-2.01,7.35-.97,10.66-6.84,14.86-11.75,1.39-1.62,3.5-3.33,5.49-3.61,6.44-.91,10.21-5.16,13.86-9.78.37-.47.96-1.34,1.22-1.26,6.62,2.01,8.02-4.13,11.52-7.11,1.57-1.34,4-1.7,6.05-2.46,1.27-.47,2.69-.64,3.82-1.31,5.1-3.01,10.11-6.19,15.19-9.24,1.55-.93,3.55-1.32,4.77-2.53,6.13-6.05,14.62-7.61,21.62-11.81,4.82-2.89,8.89-4.86,14.76-4.68,3.56.11,7.88-2.86,10.7-5.63,3.97-3.9,11.31-2.41,13.35-8.89.09-.28.78-.68.97-.59,9.21,4.43,15.6-8.01,25.21-3.23.07-5.84,2.88-6.38,7.36-5.83,2.49.31,5.26-1.78,7.94-2.68,2.2-.74,4.43-1.69,6.7-1.87,3.82-.31,7.68-.08,11.53-.08-.16-.64-.32-1.28-.48-1.92,2.56-.98,5.05-2.39,7.7-2.83,2.96-.49,6.09.16,9.08-.22,1.61-.2,3-1.87,4.64-2.26,5.12-1.21,10.3-2.84,15.48-2.96,5.35-.12,10.28,1.27,15.2-3.07,2.33-2.06,7.33-1.33,11.13-1.43,6.27-.15,12.55.09,18.83.09,3.22,0,6.7,1.04,8.31-3.61.36-1.05,3.98-1.35,6.1-1.36,20.45-.04,40.89.05,61.34.1,6.07.01,12.15-.26,18.2.12,2.33.15,4.56,1.78,6.84,2.73-.17.61-.34,1.22-.51,1.84,9.7,0,19.4,0,29.1,0,3.57,0,7.38-.83,9.21,3.84.32.81,2.76,1.14,4.2,1.11,5.86-.15,11.71-.6,17.57-.8,3.92-.14,7.98-.24,7.37,5.76,4.41,0,8.25-.13,12.08.04,2.93.13,6.83-1.43,7.44,3.77.06.48,2.38.95,3.67,1,3.64.14,7.3-.09,10.93.14,1.43.09,3.85.78,4.02,1.58.84,3.92,3.56,2.68,6.06,3.09,3.3.54,8.58-2.7,9.25,4.05.03.27.64.75.88.7,7.48-1.58,13.3,3.32,19.95,4.95,2.16.53,4.71-.55,7.27-.92,1.18,8.42,9.6,7.72,15.01,10.54,5.56,2.89,11.28,8.32,19,3.25.53,2.31.9,3.94,1.34,5.89,2.06.63,4.56.94,6.57,2.09,8.64,4.95,17.04,10.34,25.74,15.2,5.6,3.12,11.84,5.14,17.28,8.48,7.31,4.48,14.38,9.45,21.06,14.81,4.57,3.67,7.17,10.03,14.55,9.49.62-.05,1.21,1.84,2.08,2.48,3.31,2.46,6.71,4.8,10.09,7.15,2.44,1.69,5.23,3.02,7.32,5.06,6.37,6.22,12.24,12.96,18.79,18.98,2.55,2.35,6.36,3.34,9.61,4.92.69.33,1.62.36,2.12.86,7.65,7.63,15.46,15.12,22.74,23.08,2.29,2.5,2.51,6.87,4.75,9.44,5.97,6.85,12.68,13.05,18.77,19.8,3.02,3.35,5.24,7.41,7.96,11.04,2.15,2.88,4.6,5.54,6.76,8.41,1.22,1.61,2.25,3.4,3.15,5.21.7,1.4.62,3.64,1.66,4.33,8.9,5.86,12.24,15.96,18.27,23.95,5.04,6.67,8.03,14.85,12.26,22.17,4.28,7.42,8.99,14.59,13.42,21.92.98,1.63,1.53,3.51,2.38,5.22.99,2,2.1,3.93,3.37,6.3ZM251.17,475.63c-.04,1.06-.09,2.11-.13,3.17,6.16,1.25,12.29,3.3,18.5,3.58,18.47.86,35.19,6.46,50.91,16.01,4.72,2.87,10.29,5.26,15.69,5.88,9.13,1.05,17.17,3.6,24.62,9.11,7.45,5.51,8.73,7.17,5.26,15.83-6.3,15.74-13.49,31.13-19.5,46.97-3.87,10.2-9.32,20.48-5.23,32.11,3.81,10.85,7.68,21.68,11.44,32.55,6.33,18.3,12.86,36.54,18.7,54.99,1.35,4.28,1.91,10.34-.14,13.83-3.48,5.93-4.51,11.73-3.51,17.95,1.31,8.15,3.65,16.13,5.13,24.27.52,2.87-.17,5.97-.36,10.03,3.16,2.42,7.71,6.01,12.38,9.45,4.38,3.23,6.13,10.18,13.64,10.05.21-2.35.7-4.18.46-5.91-.72-5.19,1.03-6.84,6.41-6.14,3.25.42,6.74-1.01,10.12-1.61.06-.7.12-1.41.18-2.11-3.98-1.71-8.75-2.57-11.7-5.37-2.79-2.63-3.67-7.29-5.7-11.75-1.9,1.47-3.71,3.43-5.96,4.46-2.43,1.12-5.27,1.38-7.92,2.01-.52-2.22-1.52-4.45-1.49-6.67.14-10.92.92-21.84.69-32.74-.11-5.07-.84-9.61,4.36-10.98-.81-5.28-2.4-10-2.1-14.61,2.45-37.55,4.54-75.16,8.27-112.59,1.87-18.81,6.9-37.31,10.5-55.95,1.1-5.7,3.64-7.79,10.08-6.35,19.07,4.26,35.37-1.2,49.08-15.29,13.95-14.34,28.3-28.3,42.59-42.31,9.1-8.92,14.67-19.68,17.53-31.98,9.37-40.32-2.5-75.8-24.49-109.13-3.48-5.28-6.73-11.19-8.16-17.27-5-21.22-2.03-42.07,4.69-62.84,1.12.15,2.08.28,3.04.4,9.38,1.18,18.13,2.17,27.15-3.88,10.92-7.32,17.13-4.75,25.59,6.11,2.93,3.75,7.07,6.55,10.65,9.79l2.31-1.3c-.27-3.4.02-6.96-.89-10.17-4.93-17.27-8.61-24.62-26.02-24.7-4.04-.02-8.59-1.49-12.02-3.68-10.55-6.77-21.63-6.87-33.3-4.43-5.83,1.22-9.83,4.28-12.37,9.63-7.48,15.77-13.88,31.9-16.59,49.25-3.54,22.64-.98,43.78,14.19,62.4,18.03,22.13,25.48,47.87,23.34,76.25-.7,9.26-6.19,16.13-13.7,21.14-1.34.9-5.32.46-5.96-.62-7.83-13.2-19.2-22.29-32.76-28.73-26.59-12.63-53.63-10.03-80.36-.86-36.91,12.67-66.87,36.54-95.73,61.77-3.85,3.37-5.03,9.71-7.75,14.49-.87,1.53-2.58,2.92-4.22,3.61-3.02,1.26-6.27,1.96-9.43,2.89Zm539.51,190v-107.98c-11.36,0-22.05-.12-32.72.17-1.12.03-2.95,2.39-3.14,3.84-1.07,8.42-1.69,16.89-2.57,25.33-.29,2.81-.44,5.76-1.49,8.3-.59,1.43-2.85,2.88-4.42,2.95-1.15.06-3.14-1.92-3.48-3.31-.66-2.69-.36-5.61-.57-8.43-.6-8.23-1.07-16.48-2.05-24.66-.18-1.5-2.46-3.88-3.84-3.93-10.26-.33-20.53-.18-31.43-.18v107.81h23.04c0-1.9.04-3.3,0-4.71-.42-14.55-.96-29.1-1.15-43.66-.02-1.49,2.51-4.44,3.02-4.27,2.05.7,4.92,2.06,5.38,3.74.8,2.99-.23,6.42.03,9.63,1.04,13.18,2.28,26.35,3.45,39.63,4.76,0,8.23-.36,11.59.08,5.12.68,6.62-1.39,6.91-6.29,1.02-17.34,2.49-34.66,3.65-51.99.21-3.09.83-4.98,4.48-4.82,2.91.12,5.38.28,5.17,4.09-.88,15.47-1.78,30.94-2.66,46.41-.23,4.08-.4,8.16-.6,12.24h23.42Zm-309.57.32c6.58,0,12.23-.11,17.87.04,3.12.09,4.37-1.11,4.38-4.24,0-2.79.39-5.59.75-8.36.43-3.23,1.85-6.55,1.41-9.63-3.84-27.23-8.07-54.41-11.98-81.63-.54-3.76-2.27-4.62-5.61-4.56-9.92.16-19.85.38-29.76.08-4.25-.13-5.54,1.33-6.07,5.35-3.5,26.67-7.21,53.32-10.92,79.97-1.04,7.5-2.29,14.98-3.48,22.78h28.69c.28-5.29.48-10.3.84-15.29.36-5.06,4.39-4.39,7.71-4.71,3.75-.37,4.94,1.73,5.1,5.12.22,4.83.67,9.64,1.06,15.09Zm-263.15,199.87c-.18-1.41-.4-2.75-.5-4.1-.82-11.39-1.48-22.8-2.55-34.17-.18-1.95-1.96-5.18-3.29-5.33-5.33-.62-10.77-.25-16.21-.25-2.08,17.42-4.09,34.36-6.2,52.02,5.82-.96,12.03,2.06,13.21-6.22.13-.89,2.15-2.22,3.12-2.09,1.26.17,2.73,1.37,3.43,2.54,1.14,1.9,1.74,4.14,2.63,6.4,4.72-3.23,8.7-5.95,13.15-8.99,3.61,6.74,8.75,10.11,14.96,8.32,5.34-1.53,10.06-5.22,15.84-8.38,2.8,3.68,6.4,8.5,14.07,8.81,8.17.33,11.39-5.74,16.52-10.43,4.23,8.87,10.97,11.68,19.73,10.07,6.61-1.22,8.31-3.63,8.18-10.45-.07-3.41.19-6.9.92-10.22.27-1.21,2.49-2.95,3.57-2.79,1.51.22,3.08,1.8,4.08,3.19.57.78-.2,2.41.06,3.55,1.07,4.72,1.2,10.16,3.78,13.89,3.05,4.41,12.31,4.37,16.86,1.45,5.98-3.82,7.99-9.46,6.02-16.3-7.41-2.83-10.91,1.37-14.22,7.3v-18.54c3.25.77,6.04,1.56,8.88,2.08,4.88.9,6.02-1.7,5.44-5.96-.83-6.17-4.93-9.61-11.8-9.73-10.37-.18-14.13,2.13-15.53,8.87-.46,2.21-2.19,4.16-3.33,6.23-1.15-2.17-2.15-4.45-3.5-6.48-1.89-2.84-3.49-6.81-6.2-7.98-7.8-3.35-15.89-.18-20.74,6.9-2.76,4.02-4.86,4.04-6.56-.41-1.76-4.61-5.07-6.79-9.58-7.14-4.34-.33-8.72-.07-13.17-.07.75,8.49,1.58,16.1,1.98,23.72.09,1.68-1.11,4.7-2.12,4.89-1.85.34-4.59-.38-5.93-1.7-3.53-3.47-6.51-7.51-9.91-11.55.27-.66.84-1.89,1.28-3.18.5-1.49.58-3.2,1.36-4.5,3.47-5.77,2.65-7.3-4.34-7.59-1.82-.07-3.64-.03-5.47-.02-4.68.03-9.06.78-10.88,5.89-1.92,5.38.1,11.52,4.76,14.82,3.45,2.44,5.68,5.18,3.9,8.68-5.67,1.8-10.52,3.34-15.68,4.98Zm327.01-309.01v108.68h26.55v-44.22c5.43,0,10.56.68,15.44-.14,10.24-1.74,16.3-5.43,16.55-15.83.26-10.87.14-21.81-.74-32.64-.56-6.81-5.18-11.84-12.11-12.54-14.99-1.52-30.06-2.23-45.68-3.31Zm-5.75,395.86c-1.19-5.61-2.52-11.09-3.46-16.64-.47-2.77-.22-5.66-.32-8.49-.32-9.01.45-9.66,9.91-7.76.09,2.06.28,4.25.26,6.43-.07,7.09-.4,14.18-.18,21.25.05,1.75,1.89,4.96,2.8,4.92,4.78-.2,10.88,3.29,13.42-4.33,4.2,1.91,7.92,3.94,11.87,5.33,9.04,3.19,16.42-1.02,18.74-10.17.59-2.31,1.9-4.43,2.88-6.64l2.81.31c.41,5.25.82,10.5,1.23,15.69,10.7,1.51,10.91,1.34,10.86-8.74,0-2.03-.07-4.05,0-6.07.47-12.22-1.89-10.51,9.72-14.26,2.21,1.53,4.59,2.77,6.37,4.58.91.92,1.28,4.09,1,4.21-7.28,3.23-4.53,9.54-4.7,14.87-.16,5.31,2.87,7.06,7.78,6.71,4.63-.32,9.28-.67,13.91-.57,3.56.08,4.75-1.66,4.77-4.73.04-9.11.45-18.25-.18-27.32-.39-5.59-3.63-10.39-10.09-9.89-6,.47-11.9,2.22-18.55,3.55-5.32-5.22-13.49-1.23-21.17-3.93,0,3.44.22,5.66-.06,7.81-.29,2.17-1.07,4.28-2.03,7.87-2.29-2.8-3.84-4.13-4.66-5.81-4.81-9.81-13.42-12.86-22.66-7.25-2.12,1.29-4.01,4.54-4.24,7.05-.57,6.22.2,12.56-.3,18.8-.14,1.76-2.58,4.33-4.37,4.74-3.18.73-5.28-1.11-4.96-4.93.25-3.02.04-6.07.16-9.11.12-3.17-.85-7.93.81-9.23,6.62-5.19.29-9.15-.89-13.17-.48-1.63-4.76-2.47-7.43-2.88-.68-.11-1.58,3.05-2.83,4.24-1.56,1.5-3.59,3.49-5.37,3.45-1.51-.04-2.94-2.69-4.43-4.15-2.26-2.21-4.29-5.33-8.11-2.88-2.99,1.92-5.26,10.38-3.95,12.65,1.22,2.11,2.47,4.56,2.54,6.9.29,9.03.12,18.08.12,27.58h12.97Zm109.86-394.85c-7.47,0-13.93.31-20.35-.1-4.98-.31-6.57,1.19-6.53,6.35.22,32.18.1,64.36.11,96.53,0,1.74.23,3.48.33,4.91,11.41,0,22.31-.06,33.21.02,8.95.07,9.02,1.77,8.98-9.26-.04-10.72-.04-10.93-10.35-10.75-4.29.08-5.73-1.26-5.57-5.51.29-7.48.15-14.97.16-22.46.01-19.6,0-39.19,0-59.73Zm274.24-127.88c-.52.29-1.04.59-1.56.88-1.76-2.36-4.26-4.46-5.14-7.11-2.86-8.6-4.76-17.53-7.72-26.09-2.78-8.04-3.17-7.91,4.62-11.3,6.17-2.69,7.1-5.44,3.51-11.28-4.02-6.55-9.6-10.96-17.56-11.35-3.69-.18-5.78-1.63-7.25-5.12-2.11-5.01-4.8-9.78-7.44-14.55-5.11-9.24-5.17-9.2,5.15-9.62,6.71-.27,10.77-4.44,8.2-9.36-2.55-4.88-6.11-9.56-10.22-13.2-4.77-4.22-7.74-2.43-8.86,3.9-.58,3.25-1.97,6.36-2.99,9.53-.69-.04-1.37-.08-2.06-.13-1.27-1.72-2.65-3.36-3.78-5.16-2.89-4.62-5.08-9.84-8.64-13.85-5.32-6-6.84-11.57-1.47-18.11.17-.2-.08-.74-.31-2.34-2.44.61-5.21.59-6.98,1.9-3.78,2.82-5.57,1.28-7.65-1.98-2.28-3.57-4.59-7.34-7.71-10.09-4.65-4.1-4.03-7.38-.56-11.79,3.49-4.43,6.19-9.49,9.85-15.24h-17.36c.65,4.51,1.25,8.68,2.01,13.92-2.58-.96-4.47-1.08-5.33-2.09-2.54-2.97-4.68-6.29-6.97-9.48,2.48-1.2,4.96-2.38,7.42-3.63.3-.15.42-.64.61-.98-5.85-4.06-11.52-3.29-19.49,3.05,3.79,4.41,7.85,8.59,11.3,13.23,11.67,15.7,23.34,31.41,34.57,47.43,6.59,9.4,12.49,19.29,18.42,29.14,4.58,7.61,7.15,17.34,13.49,22.75,7.21,6.15,4.54,12.08,4.47,18.56-.02,2.02-.58,4.18-.05,6.03.5,1.76,1.93,3.37,3.25,4.75,2.07,2.15,5.27,3.65,6.46,6.15,2.49,5.25,3.87,11.01,5.92,16.49,2.03,5.45,3.06,12,6.79,15.92,5.27,5.54,8.64,11.29,10.5,18.54.59,2.29,3.43,4.01,5.65,6.44,1.42-12.14,2.64-22.75,3.9-33.35.55-4.67-.86-8.2-6-10.58-1.05,6.7-2.02,12.94-3,19.18ZM166.31,288.96c-1.29,7.51-1.33,8.2,3.64,11.69,8.77,6.15,17.79,11.94,26.7,17.89,6.71,4.48,7.41,4.85,11.09-2.13,10.09-19.18,25-34.7,38.96-50.73,7.72-8.87,14.66-19.41,26.22-24.67,2.66-1.21,4.61-3.93,7.08-5.67,2.72-1.91,3.98-4.19,2.14-7.16-3.45-5.58-7-11.12-10.79-16.48-2.78-3.93-8.12-7.29-8.58-11.34-.89-7.64-4.27-7.42-9.45-5.46-1.93.73-3.57,2.2-5.34,3.33,1.32,1.78,2.41,3.81,4,5.29,8.19,7.62,16.52,15.1,25.53,23.28-6.64,4.75-12.26,8.04-16.95,12.34-3.79,3.47-6.41,4.33-10.77.96-2.67-2.06-6.42-4.54-11.14-.7,2.51,2.15,4.49,4.44,6.98,5.81,2.61,1.43,5.87,2.54,4.17,5.95-1.01,2.03-3.9,3.69-6.27,4.32-2.15.58-4.73-.43-7.12-.79-3.19-.48-6.38-1.02-9.57-1.53-.28.76-.56,1.52-.84,2.28,4.01,2.44,8.02,4.87,11.99,7.28-5.37,10.89-6.92,11.68-18.19,9.74-3-.52-6.04-.82-9.07-1.23l-.77,2.03c4.09,2.45,8.17,4.9,12.48,7.49-.61.89-1,1.55-1.48,2.15-6.41,7.96-14.82,14.43-17.85,24.92-.3,1.04-3.9,1.78-5.81,1.53-1.82-.24-3.47-1.93-5.14-3.05-8.51-5.7-17.01-11.42-25.84-17.35Zm384.4-154.35c-11.55-.87-20.91-1.57-30.31-2.28-.25-1.95-.43-3.55-.66-5.14-.26-1.8-.13-3.85-.98-5.33-.8-1.4-2.64-2.2-4.02-3.26-.79,1.79-1.9,3.52-2.26,5.39-.18.93,1.05,2.1,1.56,3.2,2.38,5.14.55,7.73-5.15,7.36-5.47-.36-6.96-4.86-9.17-8.66-1.79-3.08-3.4-6.64-8.91-4.37,1.28,3.16,2.69,6.03,3.56,9.06.44,1.53.55,3.98-.34,4.91-3.13,3.26-12.18,1.57-14.87-2.36-2.45-3.57-5.02-7.06-7.49-10.53-4.43,2.3-3.81,4.84-2.07,7.9,3.66,6.42,2.94,7.43-4.33,8.77-8.31,1.53-16.49,3.78-24.82,5.13-2.21.36-5.84-.72-6.98-2.39-3.38-4.94-5.86-3.5-9.19.36,2.03,2.12,3.79,4.34,5.92,6.1,3.64,3.01,3.73,6.7,1.94,10.38-2.9,6-6.81,10.88-14.27,11.72-3.76.43-7.51,1.66-11.05,3.08-1.54.62-2.53,2.6-3.77,3.96.45.54.91,1.08,1.36,1.62,5.49-1.09,10.96-2.4,16.49-3.23,11.98-1.79,13.05-2.05,15.51-13.76,1.66-7.89,5.71-12.08,13.38-13.35,3.18-.53,6.31-1.42,9.51-1.79,10.82-1.25,21.66-2.3,32.49-3.49,11.36-1.24,22.69-2.97,34.09-3.65,5.75-.34,11.62,1.1,17.43,1.83,5.85.74,9.62-1.76,10.37-7.51.78-5.99.66-12.08,1.13-18.12.31-3.99.28-8.19,1.61-11.87,2.42-6.67,2-8.42-4.71-9.74-1.57-.31-3.93.02-4.9,1.04-.91.95-.75,3.24-.55,4.88,1.35,10.88,2.84,21.74,4.48,34.12Zm-360.19,187.67c-.59.04-1.18.09-1.77.13-6.86,6.47-13.71,12.94-21.33,20.13,2.99.31,4.93.6,6.88.69,5.62.28,7.15,3.12,4.51,8.25-5.23,10.19-10.56,20.34-15.46,30.68-1.57,3.31-3.29,3.49-6.17,2.33-6.56-2.65-13.14-5.23-19.74-7.75-4.96-1.89-9.96-3.65-15.76-5.77,1.94,7.48,6.16,11.02,12.04,13.13,8.28,2.97,16.49,6.14,24.03,8.96-3.73,12.88-7.04,24.92-10.74,36.84-1.71,5.52.38,8.33,5.94,10.36.85-2.73,1.25-5.34,2.46-7.51.85-1.52,2.67-3.1,4.27-3.36,1.06-.17,3.31,1.76,3.6,3.07.98,4.29,2.07,8.78,1.73,13.09-.92,11.81-6.62,15.52-18.08,12.57-.96-.25-1.97-.29-2.95-.43-.15.48-.29.96-.44,1.44,4.23,1.66,8.33,3.92,12.72,4.84,8,1.68,13.07-2.51,14.11-10.75.36-2.81.69-5.63,1.21-8.4,1.65-8.79-.79-16.15-8.06-21.39-4.25-3.06-4.74-6.55-2.93-10.95,6.68-16.24,13.54-32.42,19.94-48.76,2.01-5.12,2.81-10.72,4.16-16.1,1.16-4.63,2.37-9.24,3.45-13.88.88-3.79,1.59-7.62,2.37-11.42Zm151.41-147.17c-3.53-8.91-11.45-14.64-10.37-24.64.12-1.12-1.28-3.39-2.11-3.46-4.07-.32-8.61-1.21-10.53,2.99,5.53,8.44,10.69,16.3,15.84,24.17,4.22,6.45,3.26,9.89-3.85,13.27-3.27,1.56-6.66,2.87-10.43,4.49,4.41,4.73,8.21,6.08,13.61,3.56,24.23-11.3,46.46-27.03,73.1-33.06,1.77-.4,4.41-2.85,4.37-4.29-.14-5.13-.47-10.54-2.23-15.28-1.95-5.23-4.26-5.1-8.87-.99,2.25,4.18,4.49,8.35,6.83,12.71-9.83,2.73-18.67,5.18-27.07,7.52-1.54-2.32-2.59-5.16-4.62-6.74-7.81-6.08-16.79-4.62-22.61,3.45-3.58,4.98-6.9,10.15-11.06,16.3Zm265.69,646.88c0,16.41-.05,32.33.13,48.24.01,1.01,1.81,2.79,2.84,2.84,2.87.15,5.77-.42,8.28-.67,0-5.89-.29-10.93.17-15.89.14-1.54,2.16-3.93,3.58-4.14,6.14-.9,11.6-2.67,16.03-9.94.89,4.16,1.77,6.55,1.86,8.97.21,5.65.24,11.33-.04,16.97-.17,3.49,1.19,4.82,4.48,4.73,2.11-.06,4.23-.01,6.62-.01,0-6.98-.06-13.01.02-19.04.07-5.23.95-9.92,8.28-8.9.22-2.95.33-5.55.63-8.12.47-3.97,1.12-7.9-4.83-3.83-.62.42-1.89.06-2.81-.15q-10.28-2.31-15.89,6.54c-.58-3.28-.88-6.08-1.59-8.78-1.18-4.46-2.97-8.64-8.53-8.78-6.04-.16-12.09-.04-19.23-.04Zm111.88,44.46c-10.49-.44-10.55-.49-10.61-9.49-.01-1.62-.21-3.27.07-4.85.95-5.47-1.65-11.93,4.54-16.11.58-.39-.13-3.92-1.19-5.24-2.08-2.62-4.81-4.72-7.52-7.26-1.97,1.69-3.6,2.87-4.95,4.31-3.3,3.53-7.16,7.12.07,10.73.78.39,1.39,2,1.36,3.02-.29,8.45-.87,16.9-1.05,25.35-.04,1.85.79,5.01,1.88,5.34,3.18.95,7.75,2.25,9.89.74,5.57-3.91,9.88-1.31,14.96.34,5.7,1.85,12.28,2.41,16.33-2.72,2.48-3.14,2.48-8.23,3.74-13h-10.03c-.52,6.92-2.02,9.37-5.66,7.9-6.8-2.74-1.93-8.5-3.25-12.39,6.62-1.41,12.43-2.64,18.39-3.91-.16-1.83-.27-3.22-.41-4.61-1.08-10.63-4.8-13.69-16.02-13.18-8.32.38-10.55,3.36-10.55,14.08,0,6.99,0,13.98,0,20.97Zm52.74-658.11c-.34.49-.68.99-1.02,1.48-3.02-1.13-6.36-1.78-9.01-3.49-6.78-4.37-13.03-9.58-19.92-13.77-7.67-4.66-7.81-4.3-4.54-12.33.74-1.82,1.38-3.94,1.16-5.81-.17-1.42-1.68-3.71-2.76-3.81-6.5-.6-13.2-1.66-19.53-.66-7.33,1.16-9.11,6.63-5.33,13.13,2.63,4.53,5.42,8.98,8.5,13.2.67.92,3.28,1.42,4.35.86,4.16-2.18,7.85-1.35,11.42,1.01,6.06,4,11.93,8.31,18.11,12.11,3.35,2.06,7.07,4.3,10.83,4.74,6.92.81,12.82,2.98,18.03,7.63,4.39,3.92,5.73,3.73,10.04.33-5.63-8.64-10.94-17.42-16.95-25.68-2.33-3.2-6.28-5.22-9.49-7.77-.61.58-1.21,1.16-1.82,1.74,2.65,5.7,5.29,11.39,7.94,17.09Zm18.63,614.46c-2.3,2.97-4.67,5.76-6.72,8.77-1.6,2.34-2.6,4.57,1.56,5.95,1.63.54,3.64,2.99,3.72,4.66.44,8.87.7,17.8.22,26.66-.23,4.32.84,5.53,4.87,4.94,1.58-.23,3.29.29,4.83-.06,1.61-.36,3.08-1.34,4.61-2.05-1.19-1.36-2.31-2.79-3.6-4.05-1.28-1.24-3.95-2.31-3.94-3.43.07-7.66.12-15.41,1.47-22.9.38-2.13,5.03-3.49,7.72-5.2.88,1.93,2.46,3.84,2.51,5.79.21,9.09.23,18.21-.18,27.29-.21,4.53,1.42,5.44,5.29,4.26,1.5-.46,3-.89,4.78-1.41,0-16.03.02-31.79-.07-47.55,0-.72-1.04-1.98-1.7-2.05-3.22-.37-6.47-.42-10.31-.62.52,2.27.88,3.22.92,4.17.07,1.83-.05,3.66-.09,5.49-1.91-.07-4.24.53-5.66-.33-3.04-1.86-5.62-4.47-10.22-8.31Zm-363.91,129.75c0-9.51-.03-18.76,0-28.01.02-6.06.04-12.13.23-18.19.13-3.98-1.9-4.94-5.34-4.31-2.83.52-7.38-1.08-6.31,4.55,1.11,5.84-1.13,6.57-6.21,5.06-5.61-1.67-10.12.67-10.29,5.86-.33,10.27-.02,20.6.8,30.84.16,1.96,3.78,5.11,5.9,5.19,7.19.27,14.43-.59,21.19-.99Zm116.36-121.51c-4.25.24-7.82-.13-11,.83-2.24.68-5.52,3.07-5.62,4.86-.59,10.44-.74,20.95-.15,31.39.12,2.1,3.89,5.42,6.27,5.71,6.65.79,13.45.27,20.9.27,0-4.15-.07-7.72.01-11.3.26-11.45.27-22.93.99-34.35.32-5.06-.93-7.29-6.11-6.74-1.58.17-3.18.19-5.29.31v9.03Zm4.21-107.43c.94,1.91,1.28,3.44,2.22,4.28.91.81,2.5,1.31,3.71,1.18.75-.08,1.87-1.57,1.92-2.48.55-8.82,1.07-17.64,1.2-26.47.03-2.27-1.36-4.57-2.1-6.85-3.2,1.16-6.58,2-9.54,3.61-1.64.9-2.58,3.09-4.22,5.18-.62-1.55-.87-2.08-1.04-2.63-.89-2.97-.73-6.68-5.72-6.05-4.85.61-4.88,3.9-4.88,7.49-.01,6.26-.11,12.53-.16,18.79-.02,3.29,0,6.57,0,9.86.65.26,1.3.51,1.95.77,2.27-1.84,4.55-3.69,6.78-5.5,4.56,6.22,5.15,6.18,9.88-1.19Zm339.4,148.8c0-11.22.12-22.47-.05-33.73-.08-5.44-3.01-7.82-8.63-7.27-4.98.48-10.03.34-15.04.52-3.93.13-5.39,1.54-5.08,6.06.67,9.94.7,19.96.29,29.92-.21,5,.4,6.28,5.39,5.6,3.82-.52,5.45-2.15,5.3-6.37-.35-9.83-.11-19.67-.11-29.4,7.15-.77,7.18-.77,7.24,4.98.08,7.28.09,14.55.12,21.83.03,8.96,1.11,9.78,10.57,7.87Zm-195.65-18.13s-.08,0-.12,0c0-2.63.13-5.26-.02-7.87-.84-14.08-4.26-16.65-18.37-14.67-3.74.52-6.46,1.89-6.68,5.58-.56,9.74-1.14,19.54-.64,29.26.13,2.45,3.89,5.86,6.68,6.82,11.43,3.93,19-1.74,19.15-13.65.02-1.82,0-3.64,0-5.45Zm-102.92-1.97c1.82-6.11,1.18-11.74-2.31-16.42-4.61-6.17-11.68-4.81-17.97-3.87-5.18.77-6.01,5.82-6.3,9.95-.48,6.84-.35,13.76.03,20.62.14,2.48,1.33,5.15,2.74,7.27,3.58,5.4,9.11,5.35,14.67,4.26,4.53-.88,8.42-2.72,9.07-8.83h-15.04c-1.99-15.4-1.74-15.21,15.11-12.98Zm49.29-727.7c-6.6,2.54-12.17,6.01-18.03,6.61-8.17.84-11.05,6.03-14.38,12.07,1.14.8,1.87,1.59,2.76,1.9,17.34,5.97,34.68,11.94,52.08,17.71,1.47.49,4.4.2,4.94-.73,2.96-5.1,5.57-10.45,7.81-15.91.31-.76-2.15-2.65-3.33-4.01-1.15,1.23-3.07,2.34-3.3,3.73-.5,3.11-.16,6.35-.16,10.59-8.41-2.74-15.96-5.43-23.65-7.61-3.87-1.1-5.05-3.05-4.82-6.95.34-5.75.09-11.53.09-17.4Zm-156.71,707.16c.89,7.24,2.57,14.05,2.32,20.78-.25,6.56,2.46,13.83-2.89,19.72,5.29,3.42,9.26,1.88,9.47-3.99.25-6.87-.03-13.76.04-20.64.03-3.08-.97-7.25,4.09-7.11,5,.14,3.78,4.39,3.83,7.39.12,7.08.02,14.16-.02,21.24-.03,5,3.93,3.83,6.6,3.91,1.49.04,4.35-1.46,4.35-2.25-.06-11.52-.35-23.04-1.04-34.53-.09-1.58-2.54-4.23-4.01-4.31-7.74-.44-15.51-.2-22.73-.2Zm296.58,15.68c.51-.68,1.01-1.37,1.52-2.05-.19-5.07.4-11.39-5.66-12.96-4.88-1.26-10.63.03-15.79,1.14-1.52.33-3.25,3.85-3.32,5.97-.31,8.85-.22,17.72.19,26.57.1,2.12,1.49,4.99,3.19,6.08,5.03,3.21,14.41,2.7,17.75-.81,4.55-4.77,3.79-10.53,2.35-16.82-4.86.43-9.31.83-13.82,1.24v-14.32c4.6,2.02,9.1,4,13.6,5.97Zm-64.69-132.39c-.84-.15-1.69-.29-2.53-.43-.7,2.26-2.09,4.57-1.92,6.76.21,2.64,1.62,7.34,2.73,7.4,5.46.32,11-.55,16.48-1.22.26-.03.37-2.22.34-3.4-.1-4.04-.28-8.08-.44-12.12-.42-10.66-2.88-12.91-13.3-11.18-2.49.41-4.7,2.49-7.08,3.83-4.25-4.48-9.94-5.71-16.07-2.9-1.24.57-2.5,2.57-2.56,3.96-.26,6.85-.12,13.71-.12,21.26,3.65.83,7.37,1.68,11.94,2.71v-19.98h19.66c.27,1.25,1.21,3.68,1.27,6.12.21,8.62-.16,8.83-7.39,6.02-.34-2.28-.68-4.56-1.02-6.83Zm-265.47,138.61h-.22c0,3.64.57,7.4-.13,10.91-1.13,5.7,1.95,8.08,6.47,8.95,3.5.68,7.3.64,10.83.09,4.57-.72,7.65-3.29,7.54-8.63-.18-7.88.16-15.78-.14-23.66-.29-7.52-2.47-9.51-9.99-9.9-2.4-.12-4.83.36-7.25.4-5.25.07-6.99,3.29-7.09,7.88-.1,4.65-.02,9.31-.02,13.97Zm14.56,99.69c0-12.88.17-24.58-.17-36.26-.05-1.92-2.3-3.78-3.54-5.66-1.3,1.9-3.61,3.74-3.72,5.71-.43,7.86-.25,15.75-.15,23.63.04,3.53.73,7.11-4.76,6.93-4.53-.14-6.39-1.89-6.23-6.67.32-9.61.1-19.23.1-29.25h-9.55c0,12.27-.11,24.14.06,36.01.06,3.98,2.93,5.52,6.61,5.54,6.84.05,13.68.01,21.34.01Zm389.09-100.11c-.06,0-.12,0-.17,0,0-3.23.04-6.47,0-9.7-.15-9.4-3.41-12.6-12.83-12.39-2.2.05-4.41.53-6.57,1.02-5.95,1.35-6.23,3.72-5.21,9.49,1.3,7.38,2.99,16.03.34,22.38-2.74,6.56-.01,7.73,3.93,8.98,3.69,1.17,7.91,1.56,11.77,1.14,5.9-.64,9.42-3.99,8.81-10.62-.32-3.4-.06-6.86-.06-10.3Zm-250.28-125.53c0-2.64.16-4.64-.03-6.61-.77-8.18,2.01-16.36-1.23-24.7-1.7-4.39-3.97-5.41-7.46-4.61-.88.2-.98,3.83-1.51,6.25-1.42,1.81-3.37,4.06-5.03,6.51-.59.87-1.05,2.79-.6,3.21.87.82,2.39,1.05,3.68,1.27,2.76.47,7.03-.17,8,1.35,1.8,2.83,2.17,6.89,2.07,10.41-.03,1.02-3.68,2.76-5.68,2.76-6.5.02-2.42-5.33-3.66-8.13-3,1.53-5.97,3.04-9.62,4.9,0-4.94-.21-9.26.06-13.55.29-4.53-1.78-6.29-6.04-6.23-1.62.02-3.47-.74-4.8-.16-2.52,1.09-4.97,2.66-6.87,4.6-.35.36,1.65,3.78,3.17,5.1,4.66,4.02,5.51,11.18,1.24,15.07,4.14,3.54,8.13,5.88,13.47,1.86,1.16-.88,4.1-.67,5.46.21,5.06,3.29,9.94,2.16,15.36.51Zm-205.38,140.73c.29-4.01.68-7.56.78-11.11.1-3.63-.28-7.28-.04-10.9.13-2.02.45-4.75,1.77-5.85,4.34-3.61,1.45-6.12-1.31-7.4-6.29-2.94-13.39-3.36-19.19.31-2.6,1.65-3.09,6.85-4.03,10.58-.12.46,2.93,2.42,4.54,2.48,3.72.12,6.83-.9,5.79-6-.14-.67,2.45-1.89,3.78-2.85.82,1.15,2.13,2.22,2.34,3.47.38,2.3.11,4.7.11,6.98-10.65,1.9-13.31,4.14-14.11,11.5-.21,1.97-.36,4.02-1,5.87-1.67,4.8.27,8.83,5.26,8.81,6.38-.03,12.77-.99,19.14-1.75,1.15-.14,2.18-1.28,3.26-1.96-.06-.46-.13-.93-.19-1.39-2.29-.25-4.58-.51-6.89-.76Zm97.03,75.59c0-12.72-.11-24.83.07-36.93.05-3.66-1.1-5.28-4.84-4.95-1.92.17-3.88.03-6.03.03v50.76c5.4,0,10.06-.12,14.7.04,3.38.12,5.6-.94,5.67-4.59.08-4.16-2.82-4.23-5.87-4.07-.97.05-1.96-.14-3.7-.28Zm-67.43-72.58c-8.27-8.26-9.14-26.92-1.77-36.89-1.59-2.13-2.97-4.69-5.02-6.51-1.59-1.42-5.14-3.22-5.85-2.6-2.85,2.5-6.83,5.8-6.93,8.93-.3,9.2,1.14,18.45,1.71,27.7.66,10.71,7.45,14.51,17.86,9.37Zm-66.77-43.36c-1.26,3.89-2.77,6.5-2.83,9.14-.22,10.1-.06,20.22.18,30.33.05,2.02.91,5.64,1.71,5.73,3.08.34,6.38-.16,9.37-1.08.56-.17.14-3.77.01-5.78-.14-2.2-.65-4.4-.66-6.59-.07-12.39-.03-24.78-.03-37.64h-12.21c2.19,2.89,3.78,4.99,4.47,5.9ZM700.65,127.11c-5.08-1.69-7.77-.31-9.45,3.75-4.71,11.35-9.62,22.61-14.18,34.01-.53,1.32.16,4.43,1.09,4.83,8.32,3.57,16.77,6.83,25.31,9.84,1.31.46,3.24-.85,4.89-1.35-.69-1.75-.91-4.07-2.18-5.12-2.12-1.75-4.86-2.8-7.43-3.96q-13.22-5.93-7.2-19.74c3.15-7.31,6.06-14.72,9.16-22.27Zm-183.52,776.84c-5.92-3.71-11.24-3.08-11.33,1.53-.29,14.95-.3,29.91.06,44.86.03,1.22,3.59,3.19,5.6,3.32,2.38.15,6.08.52,5.93-4.03-.32-9.68-.46-19.37-.86-29.05-.06-1.39-.82-3.09-1.83-4.04-5.09-4.77-4.13-10.1,2.43-12.59Zm150.75-.81c-11.77-2.33-13.24-.82-11.58,9.74.84,5.33,1.09,10.78,1.32,16.19.28,6.64.17,13.31.43,19.95.12,3.05,1.65,4.65,5.13,4.28,3.05-.32,4.78-1.04,4.75-4.61-.13-15.09-.06-30.19-.06-45.54Zm-235.97-74.89c-1.52,2.92-3.72,5.21-3.74,7.51-.09,10.85.36,21.71.75,32.56.06,1.75.69,4.96,1.17,4.98,2.94.13,6.01-.15,8.8-1.05.63-.2.42-3.38.4-5.18-.18-13.29-1.03-26.62-.26-39.85.24-4.16-.11-5.06-3.6-5.09-2.47-.02-4.94.29-7.42.45-.16.51-.32,1.02-.48,1.52,1.72,1.64,3.45,3.27,4.38,4.15Zm230.5-113.11c.98-15.62-.98-13.99-11-14.64-4.88-.31-6.1,1.68-5.87,5.9.33,6.23.41,12.48.92,18.69.12,1.38,1.38,3.55,2.5,3.84,9.99,2.51,13.99-.87,13.57-11.07-.04-1.01-.09-2.02-.13-2.72Zm-127.95-49.17c0-3.66.13-6.85-.02-10.03-.5-10.06-.61-9.51-10.61-10.82-6.77-.89-8.85,2.39-9.55,7.71-.41,3.14-.31,6.53.49,9.57.39,1.48,2.82,3.26,4.46,3.41,4.81.45,9.69.16,15.23.16Zm141.56-.28h18.83c0-6.02.19-11.63-.15-17.2-.08-1.25-1.93-3.32-3.09-3.41-5.1-.38-10.24-.16-15.59-.16v20.77Zm-63.86.1c0-5.89.32-11.35-.22-16.72-.14-1.43-3.37-3.97-4.41-3.63-4.7,1.53-11.86-4.21-14.02,3.3-1.49,5.18-.29,11.13-.29,17.05h18.94ZM297.65,221.58c-.1-10.87-18.22-39.8-25.64-42.8-3.56,6.19-1.09,11.07,3.23,15.7,3.99,4.29,7.87,8.68,11.61,13.19,3.42,4.12,6.58,8.44,10.8,13.91Zm270.39-78c12.26-14.27,7.47-31.81,10.72-47.88-.97-.39-1.94-.78-2.92-1.17-1.85,3.12-5.01,6.1-5.33,9.37-1.3,13.18-1.72,26.45-2.47,39.68Zm41.34,557.08c0,7.79-.1,15.35.09,22.91.04,1.46,1.22,2.89,1.87,4.33,1.05-1.42,2.87-2.77,3.01-4.27.53-5.61.39-11.28.74-16.91.41-6.77.19-7.04-5.7-6.05Zm22.88-.55c0,8.2-.19,15.81.07,23.41.17,4.98,3.28,6.28,8.14,3.84q-3.53-5.03-1.77-26.8c-2.05-.14-4.1-.29-6.44-.45Zm208.95-388.72c-2.76-4.36-5.15-8.41-7.88-12.2-.54-.75-2.65-1.03-3.66-.61-1.09.45-2.31,1.89-2.46,3.03-.39,2.98,9.43,10.43,14,9.79Zm-214.02-203.32c3.25,5.56,11.82,8.47,18.09,6.55-2.14-5.43-8.97-8-18.09-6.55Zm19.98,61.76c-.41,7.02,9.71,11.67,16.43,8.55-3.12-7.47-10.66-5.44-16.43-8.55Zm199.46,61.06c-1.05,6.57,2.72,12.6,9.39,15.66,2.75-4.57.18-9.01-9.39-15.66Zm-363.57-125.75c2.19,6.18,12.17,6.77,17.5,1.16-5.63-5.15-11.58-1.6-17.5-1.16Zm-322.31,251.24c7.53-4.9,8.7-8.39,4.93-12.89-7.46,1.76-4.62,7.48-4.93,12.89ZM485.1,92.25c-.48.93-.96,1.86-1.44,2.78,1.98,1.38,3.96,2.76,5.94,4.13l2.62-4.84-7.13-2.08Zm419.25,343.48c-2.86-1.72-4.36-3.11-6.05-3.42-.76-.14-2.87,2.13-2.68,2.89.33,1.33,1.86,3.14,3.06,3.28,1.36.15,2.9-1.31,5.67-2.75Z"/><path d="m251.17,475.63c3.16-.93,6.41-1.63,9.43-2.89,1.64-.69,3.35-2.08,4.22-3.61,2.73-4.79,3.9-11.13,7.75-14.49,28.86-25.23,58.82-49.1,95.73-61.77,26.73-9.17,53.77-11.77,80.36.86,13.57,6.44,24.94,15.54,32.76,28.73.64,1.08,4.62,1.51,5.96.62,7.51-5.01,13-11.88,13.7-21.14,2.14-28.38-5.32-54.12-23.34-76.25-15.17-18.62-17.73-39.76-14.19-62.4,2.71-17.34,9.11-33.48,16.59-49.25,2.54-5.35,6.54-8.41,12.37-9.63,11.66-2.44,22.74-2.34,33.3,4.43,3.42,2.2,7.97,3.67,12.02,3.68,17.41.08,21.09,7.43,26.02,24.7.92,3.21.63,6.77.89,10.17l-2.31,1.3c-3.59-3.23-7.73-6.04-10.65-9.79-8.47-10.85-14.67-13.43-25.59-6.11-9.03,6.05-17.77,5.06-27.15,3.88-.96-.12-1.93-.25-3.04-.4-6.72,20.77-9.69,41.62-4.69,62.84,1.43,6.07,4.67,11.99,8.16,17.27,21.99,33.33,33.86,68.81,24.49,109.13-2.86,12.31-8.43,23.06-17.53,31.98-14.29,14.01-28.63,27.97-42.59,42.31-13.71,14.09-30.01,19.55-49.08,15.29-6.43-1.44-8.97.65-10.08,6.35-3.6,18.64-8.63,37.14-10.5,55.95-3.72,37.44-5.81,75.04-8.27,112.59-.3,4.6,1.29,9.33,2.1,14.61-5.2,1.37-4.47,5.91-4.36,10.98.23,10.9-.55,21.83-.69,32.74-.03,2.22.96,4.45,1.49,6.67,2.66-.63,5.49-.89,7.92-2.01,2.24-1.03,4.06-2.99,5.96-4.46,2.03,4.45,2.91,9.11,5.7,11.75,2.95,2.79,7.73,3.66,11.7,5.37-.06.7-.12,1.41-.18,2.11-3.38.6-6.87,2.03-10.12,1.61-5.37-.7-7.12.95-6.41,6.14.24,1.73-.25,3.56-.46,5.91-7.51.13-9.26-6.82-13.64-10.05-4.67-3.44-9.22-7.03-12.38-9.45.19-4.06.88-7.16.36-10.03-1.48-8.13-3.81-16.11-5.13-24.27-1-6.22.03-12.02,3.51-17.95,2.05-3.49,1.5-9.55.14-13.83-5.83-18.46-12.36-36.7-18.7-54.99-3.76-10.87-7.63-21.7-11.44-32.55-4.09-11.63,1.36-21.91,5.23-32.11,6.01-15.84,13.2-31.23,19.5-46.97,3.47-8.65,2.18-10.32-5.26-15.83-7.45-5.51-15.49-8.06-24.62-9.11-5.41-.62-10.97-3.01-15.69-5.88-15.72-9.54-32.45-15.15-50.91-16.01-6.21-.29-12.33-2.34-18.5-3.58.04-1.06.09-2.11.13-3.17Zm134.17,44.98c-4.78.43-6.02,1.18-9,6.99-12.22,23.84-20.94,49.03-27.85,74.81-1.26,4.7-.28,10.61,1.39,15.36,4.64,13.27,10.29,26.18,15.34,39.31,3.26,8.47,6.05,17.13,9.34,25.59.63,1.63,2.58,2.74,3.93,4.1,1.12-1.7,2.38-3.33,3.3-5.14.42-.82.15-1.99.19-3,1.13-34.18,2.45-68.36,3.3-102.55.45-18.38.08-36.78.08-55.47Z" class="cls-1"/><path d="m790.68,665.64h-23.42c.2-4.08.37-8.17.6-12.24.88-15.47,1.78-30.94,2.66-46.41.22-3.81-2.26-3.97-5.17-4.09-3.65-.16-4.27,1.73-4.48,4.82-1.15,17.33-2.63,34.65-3.65,51.99-.29,4.9-1.79,6.97-6.91,6.29-3.36-.45-6.83-.08-11.59-.08-1.17-13.28-2.41-26.44-3.45-39.63-.25-3.21.78-6.63-.03-9.63-.45-1.68-3.32-3.04-5.38-3.74-.51-.17-3.04,2.77-3.02,4.27.19,14.56.72,29.11,1.15,43.66.04,1.4,0,2.81,0,4.71h-23.04v-107.81c10.9,0,21.17-.15,31.43.18,1.37.04,3.66,2.43,3.84,3.93.98,8.19,1.45,16.43,2.05,24.66.21,2.82-.09,5.73.57,8.43.34,1.39,2.32,3.37,3.48,3.31,1.57-.08,3.83-1.53,4.42-2.95,1.05-2.54,1.2-5.49,1.49-8.3.87-8.44,1.5-16.91,2.57-25.33.18-1.45,2.01-3.81,3.14-3.84,10.67-.29,21.36-.17,32.72-.17v107.98Z" class="cls-1"/><path d="m481.1,665.96c-.39-5.45-.84-10.26-1.06-15.09-.15-3.39-1.35-5.49-5.1-5.12-3.32.32-7.35-.35-7.71,4.71-.36,4.99-.55,10-.84,15.29h-28.69c1.2-7.8,2.44-15.27,3.48-22.78,3.7-26.65,7.42-53.29,10.92-79.97.53-4.02,1.82-5.48,6.07-5.35,9.91.3,19.84.08,29.76-.08,3.33-.05,5.07.8,5.61,4.56,3.9,27.22,8.14,54.4,11.98,81.63.43,3.08-.98,6.4-1.41,9.63-.37,2.77-.75,5.57-.75,8.36,0,3.12-1.26,4.32-4.38,4.24-5.64-.15-11.3-.04-17.87-.04Zm-2.94-37.64c0-12.18.02-23.43-.02-34.68-.01-2.62.19-5.31-3.89-5.35-3.6-.04-4.42,1.77-4.59,4.82-.58,10.06-1.18,20.13-1.99,30.17-.29,3.6.68,5.4,4.55,5.06,1.95-.17,3.93-.03,5.94-.03Z" class="cls-1"/><path d="m217.95,865.82c5.16-1.64,10-3.18,15.68-4.98,1.78-3.5-.45-6.24-3.9-8.68-4.66-3.3-6.69-9.44-4.76-14.82,1.83-5.1,6.21-5.86,10.88-5.89,1.82-.01,3.65-.05,5.47.02,7,.28,7.81,1.82,4.34,7.59-.78,1.3-.86,3.01-1.36,4.5-.43,1.28-1.01,2.52-1.28,3.18,3.4,4.05,6.38,8.08,9.91,11.55,1.34,1.32,4.08,2.05,5.93,1.7,1.02-.19,2.21-3.21,2.12-4.89-.4-7.62-1.22-15.23-1.98-23.72,4.44,0,8.83-.26,13.17.07,4.52.35,7.82,2.52,9.58,7.14,1.7,4.45,3.8,4.43,6.56.41,4.85-7.08,12.95-10.25,20.74-6.9,2.72,1.17,4.31,5.14,6.2,7.98,1.36,2.04,2.35,4.31,3.5,6.48,1.15-2.07,2.87-4.02,3.33-6.23,1.41-6.73,5.17-9.05,15.53-8.87,6.86.12,10.97,3.57,11.8,9.73.57,4.27-.56,6.86-5.44,5.96-2.84-.52-5.62-1.31-8.88-2.08v18.54c3.32-5.92,6.81-10.13,14.22-7.3,1.97,6.84-.04,12.47-6.02,16.3-4.56,2.92-13.81,2.96-16.86-1.45-2.58-3.72-2.7-9.17-3.78-13.89-.26-1.15.51-2.77-.06-3.55-1-1.39-2.56-2.96-4.08-3.19-1.09-.16-3.3,1.58-3.57,2.79-.74,3.32-.99,6.81-.92,10.22.13,6.83-1.58,9.24-8.18,10.45-8.76,1.61-15.5-1.19-19.73-10.07-5.13,4.68-8.35,10.75-16.52,10.43-7.66-.31-11.27-5.12-14.07-8.81-5.78,3.16-10.5,6.85-15.84,8.38-6.21,1.78-11.35-1.58-14.96-8.32-4.45,3.04-8.43,5.76-13.15,8.99-.89-2.26-1.49-4.49-2.63-6.4-.7-1.17-2.17-2.37-3.43-2.54-.98-.13-3,1.2-3.12,2.09-1.18,8.28-7.39,5.26-13.21,6.22,2.1-17.66,4.12-34.6,6.2-52.02,5.44,0,10.88-.36,16.21.25,1.33.15,3.1,3.39,3.29,5.33,1.08,11.37,1.73,22.78,2.55,34.17.1,1.35.32,2.69.5,4.1Zm90.03-28.04c-4.36.35-9.29-2.6-9.9,3.54-.68,6.81-.35,13.76.17,20.6.1,1.32,3.12,3.4,4.74,3.35,1.7-.05,4.69-2.17,4.77-3.52.46-7.8.22-15.64.22-23.98Zm-33.36,7.78c4.36,6.45,7.59,11.22,10.81,15.98.73-.21,1.45-.41,2.18-.62-.26-4.82.33-9.97-1.28-14.29-.53-1.42-6.77-.71-11.71-1.07Z" class="cls-1"/><path d="m544.96,556.81c15.62,1.08,30.69,1.8,45.68,3.31,6.93.7,11.56,5.73,12.11,12.54.88,10.83,1.01,21.77.74,32.64-.25,10.39-6.31,14.09-16.55,15.83-4.88.83-10.01.14-15.44.14v44.22h-26.55v-108.68Zm36.85,33.36c-.27-3.34.24-6.71-.96-9.27-1.1-2.34-4.05-3.82-6.19-5.67-1.08,2.06-2.91,4.06-3.1,6.19-.46,5.41-.46,10.91-.06,16.33.13,1.79,2.52,5.05,3.09,4.88,2.34-.67,5.35-1.92,6.28-3.85,1.22-2.53.72-5.9.94-8.62Z" class="cls-1"/><path d="m539.22,952.67h-12.97c0-9.5.17-18.55-.12-27.58-.08-2.34-1.32-4.8-2.54-6.9-1.31-2.27.96-10.73,3.95-12.65,3.82-2.45,5.85.67,8.11,2.88,1.5,1.46,2.92,4.12,4.43,4.15,1.78.04,3.82-1.95,5.37-3.45,1.24-1.2,2.14-4.35,2.83-4.24,2.67.41,6.95,1.25,7.43,2.88,1.19,4.02,7.51,7.98.89,13.17-1.67,1.31-.69,6.06-.81,9.23-.12,3.03.09,6.09-.16,9.11-.32,3.81,1.78,5.66,4.96,4.93,1.79-.41,4.23-2.98,4.37-4.74.5-6.23-.27-12.58.3-18.8.23-2.51,2.12-5.76,4.24-7.05,9.24-5.6,17.85-2.56,22.66,7.25.82,1.68,2.37,3,4.66,5.81.95-3.59,1.74-5.7,2.03-7.87.28-2.15.06-4.37.06-7.81,7.68,2.7,15.85-1.29,21.17,3.93,6.65-1.33,12.55-3.08,18.55-3.55,6.46-.5,9.7,4.3,10.09,9.89.63,9.07.22,18.21.18,27.32-.01,3.07-1.21,4.81-4.77,4.73-4.63-.1-9.28.25-13.91.57-4.91.34-7.94-1.4-7.78-6.71.16-5.33-2.58-11.64,4.7-14.87.28-.13-.09-3.29-1-4.21-1.78-1.82-4.16-3.05-6.37-4.58-11.61,3.75-9.25,2.04-9.72,14.26-.08,2.02-.01,4.05,0,6.07.05,10.08-.16,10.25-10.86,8.74-.41-5.19-.82-10.44-1.23-15.69l-2.81-.31c-.98,2.21-2.29,4.33-2.88,6.64-2.33,9.16-9.7,13.36-18.74,10.17-3.94-1.39-7.66-3.42-11.87-5.33-2.54,7.63-8.65,4.13-13.42,4.33-.91.04-2.75-3.17-2.8-4.92-.22-7.08.12-14.17.18-21.25.02-2.18-.17-4.37-.26-6.43-9.46-1.9-10.23-1.25-9.91,7.76.1,2.83-.15,5.72.32,8.49.94,5.55,2.27,11.03,3.46,16.64Zm35.12-5.31c.55.53,1.11,1.06,1.66,1.58,2.53-1.98,6.99-3.73,7.25-5.98.91-7.73.35-15.63.35-23.59h-9.26v27.99Z" class="cls-1"/><path d="m649.07,557.81c0,20.54,0,40.13,0,59.73,0,7.49.13,14.98-.16,22.46-.16,4.25,1.28,5.59,5.57,5.51,10.31-.18,10.31.03,10.35,10.75.04,11.03-.03,9.32-8.98,9.26-10.9-.08-21.8-.02-33.21-.02-.1-1.43-.33-3.17-.33-4.91-.02-32.18.11-64.36-.11-96.53-.04-5.16,1.55-6.66,6.53-6.35,6.42.41,12.88.1,20.35.1Z" class="cls-1"/><path d="m923.31,429.93c.98-6.24,1.95-12.48,3-19.18,5.14,2.37,6.55,5.91,6,10.58-1.26,10.6-2.48,21.2-3.9,33.35-2.22-2.43-5.06-4.15-5.65-6.44-1.86-7.24-5.23-13-10.5-18.54-3.73-3.92-4.76-10.47-6.79-15.92-2.04-5.48-3.43-11.24-5.92-16.49-1.19-2.5-4.38-3.99-6.46-6.15-1.33-1.38-2.75-2.99-3.25-4.75-.53-1.85.03-4.01.05-6.03.07-6.48,2.74-12.42-4.47-18.56-6.34-5.41-8.91-15.14-13.49-22.75-5.93-9.84-11.83-19.74-18.42-29.14-11.23-16.02-22.9-31.73-34.57-47.43-3.45-4.64-7.51-8.82-11.3-13.23,7.97-6.34,13.65-7.11,19.5-3.05-.2.34-.32.83-.62.98-2.45,1.25-4.94,2.43-7.42,3.63,2.29,3.18,4.43,6.51,6.97,9.48.86,1,2.75,1.13,5.33,2.09-.76-5.23-1.36-9.41-2.01-13.92h17.36c-3.66,5.75-6.37,10.8-9.85,15.24-3.47,4.41-4.09,7.7.56,11.79,3.12,2.75,5.43,6.52,7.71,10.09,2.08,3.26,3.87,4.8,7.65,1.98,1.77-1.32,4.54-1.29,6.98-1.9.23,1.6.48,2.14.31,2.34-5.37,6.54-3.86,12.11,1.47,18.11,3.56,4.01,5.75,9.23,8.64,13.85,1.13,1.8,2.51,3.45,3.78,5.16.69.04,1.37.08,2.06.13,1.02-3.17,2.41-6.28,2.99-9.53,1.12-6.33,4.09-8.13,8.86-3.9,4.11,3.64,7.67,8.32,10.22,13.2,2.57,4.92-1.49,9.09-8.2,9.36-10.31.41-10.26.38-5.15,9.62,2.64,4.77,5.33,9.54,7.44,14.55,1.47,3.49,3.56,4.94,7.25,5.12,7.96.39,13.54,4.8,17.56,11.35,3.58,5.85,2.66,8.59-3.51,11.28-7.79,3.39-7.4,3.26-4.62,11.3,2.96,8.56,4.86,17.49,7.72,26.09.88,2.65,3.38,4.76,5.14,7.11.52-.29,1.04-.59,1.56-.88Zm-25.76-51.34c2.15,2.74,3.5,6.17,5.26,6.39,4.27.54,7.05-2.81,6.06-6.77-.8-3.2-3.79-5.84-5.81-8.74-1.66,2.75-3.33,5.5-5.52,9.12Z" class="cls-1"/><path d="m166.31,288.96c8.83,5.93,17.33,11.65,25.84,17.35,1.68,1.12,3.33,2.81,5.14,3.05,1.92.25,5.51-.48,5.81-1.53,3.03-10.49,11.45-16.97,17.85-24.92.48-.59.87-1.26,1.48-2.15-4.31-2.58-8.4-5.04-12.48-7.49l.77-2.03c3.02.4,6.06.71,9.07,1.23,11.27,1.94,12.82,1.14,18.19-9.74-3.96-2.41-7.98-4.84-11.99-7.28.28-.76.56-1.52.84-2.28,3.19.51,6.37,1.05,9.57,1.53,2.38.36,4.97,1.36,7.12.79,2.37-.63,5.26-2.29,6.27-4.32,1.7-3.42-1.57-4.52-4.17-5.95-2.49-1.37-4.47-3.66-6.98-5.81,4.72-3.84,8.47-1.36,11.14.7,4.36,3.37,6.98,2.51,10.77-.96,4.69-4.3,10.31-7.6,16.95-12.34-9.01-8.19-17.33-15.67-25.53-23.28-1.59-1.48-2.68-3.51-4-5.29,1.77-1.13,3.42-2.6,5.34-3.33,5.18-1.96,8.56-2.19,9.45,5.46.47,4.05,5.81,7.41,8.58,11.34,3.79,5.36,7.34,10.89,10.79,16.48,1.83,2.96.58,5.25-2.14,7.16-2.48,1.74-4.42,4.46-7.08,5.67-11.56,5.26-18.5,15.8-26.22,24.67-13.95,16.03-28.86,31.55-38.96,50.73-3.67,6.98-4.37,6.61-11.09,2.13-8.91-5.95-17.94-11.74-26.7-17.89-4.97-3.49-4.94-4.19-3.64-11.69Z" class="cls-1"/><path d="m550.71,134.61c-1.65-12.38-3.13-23.24-4.48-34.12-.2-1.64-.36-3.93.55-4.88.97-1.02,3.33-1.35,4.9-1.04,6.72,1.32,7.13,3.06,4.71,9.74-1.33,3.67-1.3,7.88-1.61,11.87-.47,6.03-.35,12.13-1.13,18.12-.75,5.75-4.52,8.24-10.37,7.51-5.8-.73-11.67-2.17-17.43-1.83-11.39.68-22.72,2.41-34.09,3.65-10.83,1.18-21.67,2.24-32.49,3.49-3.2.37-6.33,1.26-9.51,1.79-7.67,1.27-11.72,5.46-13.38,13.35-2.46,11.7-3.53,11.97-15.51,13.76-5.53.83-11,2.14-16.49,3.23-.45-.54-.91-1.08-1.36-1.62,1.24-1.36,2.24-3.35,3.77-3.96,3.54-1.41,7.29-2.65,11.05-3.08,7.46-.85,11.37-5.72,14.27-11.72,1.78-3.69,1.69-7.37-1.94-10.38-2.13-1.76-3.88-3.98-5.92-6.1,3.33-3.85,5.81-5.29,9.19-.36,1.14,1.67,4.77,2.75,6.98,2.39,8.33-1.35,16.51-3.6,24.82-5.13,7.26-1.34,7.99-2.34,4.33-8.77-1.74-3.06-2.36-5.6,2.07-7.9,2.47,3.46,5.04,6.95,7.49,10.53,2.7,3.93,11.74,5.62,14.87,2.36.89-.93.78-3.38.34-4.91-.87-3.03-2.29-5.91-3.56-9.06,5.5-2.27,7.11,1.29,8.91,4.37,2.21,3.8,3.7,8.3,9.17,8.66,5.7.37,7.54-2.21,5.15-7.36-.51-1.1-1.74-2.27-1.56-3.2.36-1.87,1.46-3.6,2.26-5.39,1.38,1.06,3.23,1.86,4.02,3.26.85,1.48.72,3.52.98,5.33.23,1.6.41,3.2.66,5.14,9.4.71,18.76,1.41,30.31,2.28Z" class="cls-1"/><path d="m190.52,322.28c-.78,3.81-1.5,7.64-2.37,11.42-1.08,4.64-2.29,9.26-3.45,13.88-1.35,5.38-2.15,10.97-4.16,16.1-6.41,16.35-13.26,32.52-19.94,48.76-1.81,4.4-1.32,7.89,2.93,10.95,7.27,5.24,9.71,12.6,8.06,21.39-.52,2.78-.85,5.6-1.21,8.4-1.04,8.24-6.11,12.43-14.11,10.75-4.38-.92-8.49-3.18-12.72-4.84.15-.48.29-.96.44-1.44.98.14,1.99.18,2.95.43,11.46,2.95,17.16-.76,18.08-12.57.33-4.31-.76-8.8-1.73-13.09-.3-1.31-2.55-3.25-3.6-3.07-1.6.26-3.43,1.85-4.27,3.36-1.21,2.17-1.61,4.78-2.46,7.51-5.56-2.03-7.65-4.84-5.94-10.36,3.69-11.92,7.01-23.95,10.74-36.84-7.54-2.82-15.75-5.99-24.03-8.96-5.88-2.11-10.09-5.65-12.04-13.13,5.8,2.12,10.81,3.88,15.76,5.77,6.6,2.52,13.19,5.1,19.74,7.75,2.87,1.16,4.6.99,6.17-2.33,4.9-10.35,10.23-20.5,15.46-30.68,2.63-5.12,1.11-7.97-4.51-8.25-1.95-.1-3.9-.39-6.88-.69,7.62-7.19,14.47-13.66,21.33-20.13.59-.04,1.18-.09,1.77-.13Z" class="cls-1"/><path d="m341.93,175.12c4.16-6.15,7.47-11.32,11.06-16.3,5.81-8.07,14.8-9.54,22.61-3.45,2.03,1.58,3.08,4.42,4.62,6.74,8.4-2.33,17.24-4.79,27.07-7.52-2.35-4.36-4.58-8.53-6.83-12.71,4.61-4.11,6.93-4.24,8.87.99,1.77,4.74,2.09,10.15,2.23,15.28.04,1.43-2.6,3.89-4.37,4.29-26.64,6.03-48.88,21.76-73.1,33.06-5.39,2.52-9.19,1.17-13.61-3.56,3.77-1.61,7.16-2.93,10.43-4.49,7.12-3.38,8.07-6.83,3.85-13.27-5.15-7.86-10.31-15.73-15.84-24.17,1.92-4.2,6.47-3.31,10.53-2.99.83.07,2.24,2.34,2.11,3.46-1.09,10.01,6.84,15.74,10.37,24.64Zm3.88-.02c.34.48.68.97,1.02,1.45,9.19-1.94,18.05-4.56,24.9-11.81-5.02-6.65-11.28-7.54-16.19-2.31-3.63,3.86-6.52,8.42-9.73,12.67Z" class="cls-1"/><path d="m607.62,822c7.14,0,13.19-.12,19.23.04,5.56.14,7.35,4.32,8.53,8.78.71,2.7,1.01,5.5,1.59,8.78q5.61-8.85,15.89-6.54c.92.21,2.19.57,2.81.15,5.95-4.07,5.3-.14,4.83,3.83-.3,2.57-.41,5.17-.63,8.12-7.33-1.02-8.21,3.67-8.28,8.9-.08,6.03-.02,12.06-.02,19.04-2.39,0-4.51-.05-6.62.01-3.29.09-4.65-1.24-4.48-4.73.28-5.65.25-11.32.04-16.97-.09-2.42-.96-4.81-1.86-8.97-4.43,7.27-9.89,9.04-16.03,9.94-1.42.21-3.43,2.6-3.58,4.14-.46,4.97-.17,10-.17,15.89-2.51.25-5.42.82-8.28.67-1.04-.05-2.83-1.83-2.84-2.84-.18-15.92-.13-31.84-.13-48.24Zm7.34,6.51c.27,2.88.68,5.43.69,7.99,0,2.52-.42,5.05-.64,7.51,12.8,2.23,14.69.01,13.4-14.56-4.2-.29-8.36-.58-13.44-.94Z" class="cls-1"/><path d="m719.5,866.46c0-6.99,0-13.98,0-20.97,0-10.72,2.23-13.7,10.55-14.08,11.22-.51,14.94,2.55,16.02,13.18.14,1.38.25,2.77.41,4.61-5.96,1.27-11.77,2.5-18.39,3.91,1.32,3.89-3.54,9.66,3.25,12.39,3.64,1.47,5.14-.98,5.66-7.9h10.03c-1.26,4.77-1.27,9.86-3.74,13-4.05,5.13-10.64,4.57-16.33,2.72-5.09-1.65-9.39-4.25-14.96-.34-2.15,1.51-6.71.21-9.89-.74-1.09-.33-1.92-3.49-1.88-5.34.18-8.45.76-16.9,1.05-25.35.03-1.02-.58-2.63-1.36-3.02-7.23-3.61-3.37-7.2-.07-10.73,1.35-1.44,2.98-2.62,4.95-4.31,2.71,2.54,5.45,4.64,7.52,7.26,1.05,1.33,1.76,4.85,1.19,5.24-6.19,4.18-3.59,10.64-4.54,16.11-.27,1.57-.08,3.23-.07,4.85.06,9,.12,9.06,10.61,9.49Z" class="cls-1"/><path d="m772.24,208.34c-2.65-5.7-5.29-11.39-7.94-17.09.61-.58,1.21-1.16,1.82-1.74,3.21,2.56,7.16,4.57,9.49,7.77,6.02,8.26,11.32,17.04,16.95,25.68-4.31,3.4-5.64,3.6-10.04-.33-5.2-4.64-11.11-6.82-18.03-7.63-3.76-.44-7.48-2.69-10.83-4.74-6.18-3.8-12.05-8.11-18.11-12.11-3.57-2.36-7.25-3.19-11.42-1.01-1.06.56-3.68.05-4.35-.86-3.08-4.22-5.88-8.67-8.5-13.2-3.77-6.5-2-11.97,5.33-13.13,6.33-1,13.03.06,19.53.66,1.08.1,2.59,2.4,2.76,3.81.22,1.88-.42,3.99-1.16,5.81-3.27,8.04-3.13,7.68,4.54,12.33,6.89,4.18,13.14,9.4,19.92,13.77,2.65,1.71,5.98,2.36,9.01,3.49.34-.49.68-.99,1.02-1.48Zm-45.85-19.75c.7-.2,1.4-.39,2.09-.59,1.25-3.33,2.77-6.6,3.58-10.04.26-1.1-1.17-3.62-2.17-3.82-4.22-.87-8.58-1.12-12.88-1.59-.39.5-.78.99-1.17,1.49,3.52,4.85,7.03,9.7,10.55,14.56Z" class="cls-1"/><path d="m790.87,822.8c4.6,3.84,7.18,6.45,10.22,8.31,1.42.87,3.74.27,5.66.33.04-1.83.16-3.66.09-5.49-.04-.95-.4-1.9-.92-4.17,3.84.2,7.09.25,10.31.62.66.08,1.7,1.33,1.7,2.05.1,15.76.07,31.53.07,47.55-1.78.52-3.29.95-4.78,1.41-3.87,1.19-5.5.28-5.29-4.26.41-9.08.39-18.2.18-27.29-.04-1.95-1.63-3.86-2.51-5.79-2.69,1.71-7.34,3.07-7.72,5.2-1.35,7.49-1.4,15.24-1.47,22.9,0,1.12,2.66,2.19,3.94,3.43,1.29,1.25,2.41,2.69,3.6,4.05-1.53.71-3,1.69-4.61,2.05-1.54.34-3.25-.18-4.83.06-4.03.6-5.1-.61-4.87-4.94.47-8.86.21-17.79-.22-26.66-.08-1.67-2.09-4.11-3.72-4.66-4.16-1.38-3.16-3.61-1.56-5.95,2.05-3,4.42-5.79,6.72-8.77Z" class="cls-1"/><path d="m426.95,952.55c-6.77.4-14,1.26-21.19.99-2.12-.08-5.75-3.23-5.9-5.19-.81-10.24-1.13-20.57-.8-30.84.17-5.19,4.67-7.53,10.29-5.86,5.08,1.51,7.32.78,6.21-5.06-1.07-5.64,3.48-4.03,6.31-4.55,3.44-.63,5.46.33,5.34,4.31-.19,6.06-.21,12.13-.23,18.19-.03,9.25,0,18.49,0,28.01Zm-19.74-5.7c3.77-.92,8.69,3.38,9.41-2.67.88-7.37.44-14.94-.04-22.39-.07-1.07-3.48-2.53-5.42-2.66-1.24-.08-3.72,1.91-3.77,3.05-.33,8.03-.18,16.08-.18,24.66Z" class="cls-1"/><path d="m543.31,831.04v-9.03c2.11-.12,3.71-.14,5.29-.31,5.17-.55,6.43,1.68,6.11,6.74-.72,11.43-.73,22.9-.99,34.35-.08,3.58-.01,7.15-.01,11.3-7.44,0-14.25.51-20.9-.27-2.38-.28-6.15-3.6-6.27-5.71-.59-10.44-.44-20.95.15-31.39.1-1.78,3.38-4.18,5.62-4.86,3.17-.96,6.75-.58,11-.83Zm2.22,37.1v-30.2c-9.02-1.02-9.34-.75-9.34,7.68,0,4.22-.07,8.44,0,12.66.16,9.01.19,9.01,9.34,9.87Z" class="cls-1"/><path d="m547.52,723.61c-4.73,7.37-5.32,7.41-9.88,1.19-2.23,1.81-4.51,3.66-6.78,5.5-.65-.26-1.3-.51-1.95-.77,0-3.29-.02-6.57,0-9.86.04-6.26.15-12.53.16-18.79,0-3.59.03-6.88,4.88-7.49,4.98-.63,4.83,3.09,5.72,6.05.17.55.42,1.07,1.04,2.63,1.64-2.09,2.57-4.29,4.22-5.18,2.96-1.61,6.34-2.45,9.54-3.61.74,2.28,2.13,4.58,2.1,6.85-.13,8.83-.65,17.65-1.2,26.47-.06.91-1.17,2.4-1.92,2.48-1.21.13-2.8-.37-3.71-1.18-.95-.84-1.28-2.37-2.22-4.28Z" class="cls-1"/><path d="m886.92,872.42c-9.47,1.92-10.54,1.09-10.57-7.87-.02-7.28-.04-14.55-.12-21.83-.06-5.75-.1-5.75-7.24-4.98,0,9.73-.24,19.58.11,29.4.15,4.22-1.48,5.85-5.3,6.37-5,.67-5.6-.6-5.39-5.6.41-9.96.38-19.98-.29-29.92-.3-4.52,1.16-5.93,5.08-6.06,5.02-.17,10.06-.03,15.04-.52,5.62-.55,8.55,1.83,8.63,7.27.17,11.25.05,22.51.05,33.73Z" class="cls-1"/><path d="m691.27,854.28c0,1.82.02,3.64,0,5.45-.15,11.92-7.72,17.59-19.15,13.65-2.79-.96-6.55-4.37-6.68-6.82-.5-9.72.07-19.51.64-29.26.21-3.69,2.93-5.05,6.68-5.58,14.11-1.98,17.53.59,18.37,14.67.16,2.62.02,5.25.02,7.87.04,0,.08,0,.12,0Zm-16.68-16.79c0,8.77-.17,16.6.16,24.4.06,1.36,2.2,2.63,3.39,3.94,1.27-1.43,3.57-2.81,3.64-4.29.37-7.61.17-15.24.17-23.3-2.46-.25-4.37-.44-7.36-.75Z" class="cls-1"/><path d="m588.35,852.31c-16.85-2.23-17.1-2.42-15.11,12.98h15.04c-.65,6.11-4.54,7.95-9.07,8.83-5.56,1.09-11.09,1.13-14.67-4.26-1.41-2.12-2.6-4.78-2.74-7.27-.38-6.86-.51-13.77-.03-20.62.29-4.12,1.13-9.17,6.3-9.95,6.3-.94,13.36-2.3,17.97,3.87,3.49,4.67,4.13,10.31,2.31,16.42Z" class="cls-1"/><path d="m637.63,124.61c0,5.87.25,11.65-.09,17.4-.23,3.89.95,5.85,4.82,6.95,7.69,2.19,15.24,4.87,23.65,7.61,0-4.24-.34-7.49.16-10.59.22-1.38,2.15-2.49,3.3-3.73,1.18,1.36,3.64,3.25,3.33,4.01-2.23,5.46-4.84,10.81-7.81,15.91-.54.93-3.47,1.22-4.94.73-17.4-5.77-34.74-11.74-52.08-17.71-.89-.31-1.62-1.09-2.76-1.9,3.33-6.04,6.21-11.23,14.38-12.07,5.86-.6,11.43-4.08,18.03-6.61Zm-4.43,19.58c0-2.97.96-6.2-.24-7.96-1.47-2.16-4.66-3.29-7.31-4.37-.58-.24-2.78,1.51-2.95,2.55-1.38,8.38.91,10.58,10.5,9.78Z" class="cls-1"/><path d="m480.92,831.78c7.22,0,14.99-.23,22.73.2,1.47.08,3.92,2.73,4.01,4.31.69,11.49.98,23.02,1.04,34.53,0,.79-2.86,2.29-4.35,2.25-2.67-.07-6.62,1.09-6.6-3.91.04-7.08.14-14.16.02-21.24-.05-3,1.17-7.25-3.83-7.39-5.06-.14-4.06,4.03-4.09,7.11-.07,6.88.21,13.77-.04,20.64-.21,5.86-4.18,7.4-9.47,3.99,5.35-5.89,2.64-13.16,2.89-19.72.26-6.73-1.43-13.53-2.32-20.78Z" class="cls-1"/><path d="m777.5,847.46c-4.5-1.98-9-3.95-13.6-5.97v14.32c4.51-.4,8.97-.8,13.82-1.24,1.45,6.3,2.2,12.05-2.35,16.82-3.35,3.51-12.73,4.02-17.75.81-1.71-1.09-3.09-3.96-3.19-6.08-.41-8.84-.5-17.72-.19-26.57.07-2.11,1.81-5.64,3.32-5.97,5.16-1.11,10.91-2.4,15.79-1.14,6.06,1.56,5.47,7.89,5.66,12.96-.51.68-1.01,1.37-1.52,2.05Z" class="cls-1"/><path d="m712.81,715.07c.34,2.27.68,4.55,1.02,6.83,7.22,2.82,7.6,2.6,7.39-6.02-.06-2.45-.99-4.87-1.27-6.12h-19.66v19.98c-4.57-1.04-8.29-1.89-11.94-2.71,0-7.55-.14-14.41.12-21.26.05-1.39,1.32-3.39,2.56-3.96,6.13-2.81,11.82-1.59,16.07,2.9,2.38-1.34,4.59-3.41,7.08-3.83,10.41-1.73,12.88.52,13.3,11.18.16,4.04.34,8.08.44,12.12.03,1.18-.08,3.36-.34,3.4-5.48.67-11.02,1.54-16.48,1.22-1.11-.07-2.52-4.76-2.73-7.4-.17-2.19,1.22-4.5,1.92-6.76.84.15,1.69.29,2.53.43Z" class="cls-1"/><path d="m447.34,853.68c0-4.66-.08-9.32.02-13.97.1-4.59,1.84-7.81,7.09-7.88,2.42-.03,4.84-.52,7.25-.4,7.51.39,9.7,2.38,9.99,9.9.3,7.88-.04,15.77.14,23.66.12,5.34-2.96,7.91-7.54,8.63-3.53.56-7.33.59-10.83-.09-4.52-.87-7.59-3.25-6.47-8.95.69-3.51.13-7.26.13-10.91h.22Zm8.46-15.68c0,7.91-.24,15.53.19,23.11.09,1.68,2.55,3.23,3.92,4.84,1.13-1.55,3.12-3.06,3.22-4.67.35-5.81-.3-11.68.13-17.48.4-5.38-1.75-6.93-7.46-5.8Z" class="cls-1"/><path d="m461.9,953.37c-7.66,0-14.5.03-21.34-.01-3.68-.03-6.55-1.56-6.61-5.54-.18-11.87-.06-23.74-.06-36.01h9.55c0,10.02.23,19.64-.1,29.25-.16,4.78,1.7,6.52,6.23,6.67,5.49.17,4.8-3.4,4.76-6.93-.1-7.88-.28-15.77.15-23.63.11-1.96,2.42-3.81,3.72-5.71,1.23,1.89,3.48,3.74,3.54,5.66.33,11.68.17,23.37.17,36.26Z" class="cls-1"/><path d="m850.99,853.26c0,3.43-.26,6.89.06,10.3.61,6.62-2.91,9.97-8.81,10.62-3.86.42-8.07.03-11.77-1.14-3.94-1.25-6.66-2.41-3.93-8.98,2.65-6.36.96-15.01-.34-22.38-1.02-5.77-.75-8.14,5.21-9.49,2.16-.49,4.37-.97,6.57-1.02,9.42-.21,12.68,2.99,12.83,12.39.05,3.23,0,6.47,0,9.7.06,0,.12,0,.17,0Zm-8.85-17.29c-3.24,2.08-6.7,3.21-6.78,4.53-.48,8.95-.25,17.94-.25,27.16,2.75.15,4.68.26,7.03.39v-32.08Z" class="cls-1"/><path d="m600.72,727.73c-5.42,1.65-10.3,2.79-15.36-.51-1.36-.88-4.3-1.09-5.46-.21-5.35,4.02-9.34,1.68-13.47-1.86,4.26-3.89,3.41-11.05-1.24-15.07-1.52-1.31-3.53-4.74-3.17-5.1,1.9-1.94,4.35-3.51,6.87-4.6,1.32-.57,3.18.18,4.8.16,4.26-.06,6.32,1.7,6.04,6.23-.27,4.29-.06,8.61-.06,13.55,3.65-1.86,6.62-3.37,9.62-4.9,1.24,2.8-2.84,8.14,3.66,8.13,1.99,0,5.65-1.74,5.68-2.76.1-3.52-.27-7.58-2.07-10.41-.97-1.52-5.24-.88-8-1.35-1.29-.22-2.82-.46-3.68-1.27-.45-.42,0-2.34.6-3.21,1.66-2.44,3.61-4.7,5.03-6.51.54-2.42.63-6.05,1.51-6.25,3.49-.8,5.76.22,7.46,4.61,3.24,8.34.45,16.52,1.23,24.7.19,1.97.03,3.97.03,6.61Z" class="cls-1"/><path d="m395.33,868.46c2.31.26,4.6.51,6.89.76.06.46.13.93.19,1.39-1.08.68-2.11,1.83-3.26,1.96-6.36.77-12.75,1.73-19.14,1.75-4.99.02-6.93-4.01-5.26-8.81.64-1.85.79-3.9,1-5.87.8-7.36,3.45-9.6,14.11-11.5,0-2.28.27-4.68-.11-6.98-.21-1.25-1.52-2.32-2.34-3.47-1.33.96-3.91,2.19-3.78,2.85,1.04,5.11-2.07,6.13-5.79,6-1.62-.05-4.66-2.01-4.54-2.48.93-3.72,1.43-8.93,4.03-10.58,5.8-3.68,12.9-3.25,19.19-.31,2.76,1.29,5.65,3.8,1.31,7.4-1.32,1.1-1.64,3.83-1.77,5.85-.23,3.62.15,7.27.04,10.9-.1,3.55-.49,7.1-.78,11.11Zm-12.14-1.04c8.39,1.34,5.92-4.72,6.52-8.1.17-.94-2.57-3.56-3.25-3.32-6.22,2.17-2.48,7.17-3.28,11.43Z" class="cls-1"/><path d="m492.36,944.05c1.74.14,2.73.33,3.7.28,3.04-.16,5.95-.09,5.87,4.07-.07,3.65-2.29,4.71-5.67,4.59-4.64-.16-9.3-.04-14.7-.04v-50.76c2.15,0,4.11.14,6.03-.03,3.73-.33,4.89,1.29,4.84,4.95-.18,12.11-.07,24.22-.07,36.93Z" class="cls-1"/><path d="m424.93,871.47c-10.41,5.14-17.19,1.34-17.86-9.37-.57-9.24-2.01-18.5-1.71-27.7.1-3.12,4.08-6.43,6.93-8.93.71-.62,4.26,1.18,5.85,2.6,2.04,1.82,3.43,4.38,5.02,6.51-7.37,9.97-6.5,28.63,1.77,36.89Z" class="cls-1"/><path d="m358.16,828.12c-.69-.91-2.28-3.01-4.47-5.9h12.21c0,12.86-.03,25.25.03,37.64.01,2.2.52,4.39.66,6.59.13,2.01.55,5.61-.01,5.78-2.99.93-6.29,1.42-9.37,1.08-.8-.09-1.66-3.71-1.71-5.73-.24-10.11-.4-20.22-.18-30.33.06-2.64,1.58-5.25,2.83-9.14Z" class="cls-1"/><path d="m700.65,127.11c-3.1,7.56-6.01,14.97-9.16,22.27q-5.98,13.86,7.2,19.74c2.57,1.15,5.31,2.2,7.43,3.96,1.27,1.05,1.49,3.37,2.18,5.12-1.64.49-3.58,1.81-4.89,1.35-8.54-3.01-16.99-6.28-25.31-9.84-.93-.4-1.62-3.51-1.09-4.83,4.56-11.4,9.48-22.66,14.18-34.01,1.68-4.06,4.37-5.44,9.45-3.75Z" class="cls-1"/><path d="m517.13,903.94c-6.56,2.49-7.52,7.82-2.43,12.59,1.01.95,1.77,2.65,1.83,4.04.4,9.68.54,19.37.86,29.05.15,4.55-3.55,4.18-5.93,4.03-2.02-.13-5.57-2.1-5.6-3.32-.36-14.95-.35-29.91-.06-44.86.09-4.61,5.41-5.24,11.33-1.53Z" class="cls-1"/><path d="m667.88,903.13c0,15.35-.08,30.45.06,45.54.03,3.57-1.7,4.29-4.75,4.61-3.48.37-5.01-1.22-5.13-4.28-.26-6.65-.15-13.31-.43-19.95-.23-5.41-.48-10.85-1.32-16.19-1.66-10.56-.19-12.06,11.58-9.74Z" class="cls-1"/><path d="m431.91,828.24c-.93-.88-2.65-2.52-4.38-4.15.16-.51.32-1.02.48-1.52,2.47-.16,4.95-.47,7.42-.45,3.49.03,3.84.93,3.6,5.09-.77,13.23.08,26.56.26,39.85.02,1.8.23,4.98-.4,5.18-2.79.9-5.86,1.18-8.8,1.05-.48-.02-1.11-3.23-1.17-4.98-.39-10.85-.84-21.71-.75-32.56.02-2.3,2.22-4.59,3.74-7.51Z" class="cls-1"/><path d="m662.41,715.13c.03.7.08,1.71.13,2.72.42,10.2-3.58,13.58-13.57,11.07-1.12-.28-2.39-2.45-2.5-3.84-.52-6.21-.59-12.46-.92-18.69-.23-4.22.99-6.22,5.87-5.9,10.02.65,11.98-.99,11,14.64Z" class="cls-1"/><path d="m534.45,665.96c-5.54,0-10.42.29-15.23-.16-1.65-.16-4.08-1.93-4.46-3.41-.8-3.03-.89-6.43-.49-9.57.69-5.31,2.78-8.6,9.55-7.71,10,1.32,10.11.76,10.61,10.82.16,3.18.02,6.37.02,10.03Z" class="cls-1"/><path d="m676.02,665.67v-20.77c5.34,0,10.49-.21,15.59.16,1.16.09,3.02,2.16,3.09,3.41.34,5.58.15,11.19.15,17.2h-18.83Z" class="cls-1"/><path d="m612.16,665.77h-18.94c0-5.92-1.2-11.87.29-17.05,2.16-7.51,9.32-1.77,14.02-3.3,1.04-.34,4.27,2.21,4.41,3.63.54,5.37.22,10.83.22,16.72Z" class="cls-1"/><path d="m297.65,221.58c-4.23-5.46-7.39-9.79-10.8-13.91-3.74-4.51-7.62-8.91-11.61-13.19-4.32-4.64-6.78-9.52-3.23-15.7,7.42,3,25.55,31.93,25.64,42.8Z" class="cls-1"/><path d="m568.04,143.58c.75-13.23,1.17-26.5,2.47-39.68.32-3.27,3.48-6.25,5.33-9.37.97.39,1.94.78,2.92,1.17-3.25,16.06,1.55,33.6-10.72,47.88Z" class="cls-1"/><path d="m609.38,700.66c5.89-.99,6.11-.72,5.7,6.05-.34,5.63-.2,11.3-.74,16.91-.14,1.51-1.96,2.85-3.01,4.27-.65-1.44-1.83-2.87-1.87-4.33-.19-7.56-.09-15.12-.09-22.91Z" class="cls-1"/><path d="m632.26,700.1c2.35.16,4.39.31,6.44.45q-1.77,21.77,1.77,26.8c-4.86,2.45-7.97,1.14-8.14-3.84-.26-7.6-.07-15.22-.07-23.41Z" class="cls-1"/><path d="m841.21,311.38c-4.57.64-14.39-6.8-14-9.79.15-1.14,1.37-2.58,2.46-3.03,1.01-.41,3.11-.14,3.66.61,2.74,3.79,5.12,7.84,7.88,12.2Z" class="cls-1"/><path d="m627.19,108.06c9.13-1.45,15.95,1.12,18.09,6.55-6.27,1.93-14.84-.99-18.09-6.55Z" class="cls-1"/><path d="m647.17,169.82c5.77,3.11,13.31,1.08,16.43,8.55-6.72,3.12-16.84-1.53-16.43-8.55Z" class="cls-1"/><path d="m846.63,230.88c9.57,6.65,12.15,11.09,9.39,15.66-6.68-3.06-10.44-9.08-9.39-15.66Z" class="cls-1"/><path d="m483.07,105.12c5.92-.45,11.87-4,17.5,1.16-5.33,5.61-15.31,5.03-17.5-1.16Z" class="cls-1"/><path d="m160.75,356.36c.3-5.41-2.54-11.14,4.93-12.89,3.78,4.5,2.61,7.99-4.93,12.89Z" class="cls-1"/><path d="m485.1,92.25c2.38.69,4.75,1.39,7.13,2.08-.87,1.61-1.75,3.22-2.62,4.84-1.98-1.38-3.96-2.76-5.94-4.13.48-.93.96-1.86,1.44-2.78Z" class="cls-1"/><path d="m904.35,435.73c-2.77,1.44-4.31,2.9-5.67,2.75-1.2-.14-2.73-1.95-3.06-3.28-.19-.76,1.92-3.02,2.68-2.89,1.69.3,3.19,1.69,6.05,3.42Z" class="cls-1"/><path d="m385.34,520.62c0,18.69.37,37.09-.08,55.47-.84,34.19-2.17,68.37-3.3,102.55-.03,1.01.23,2.18-.19,3-.91,1.81-2.18,3.44-3.3,5.14-1.34-1.35-3.3-2.47-3.93-4.1-3.29-8.46-6.08-17.11-9.34-25.59-5.05-13.13-10.7-26.04-15.34-39.31-1.66-4.75-2.65-10.66-1.39-15.36,6.91-25.78,15.62-50.98,27.85-74.81,2.98-5.81,4.23-6.57,9-6.99Z"/><path d="m478.16,628.32c-2.01,0-3.99-.14-5.94.03-3.87.33-4.84-1.46-4.55-5.06.81-10.05,1.42-20.11,1.99-30.17.17-3.05,1-4.86,4.59-4.82,4.07.04,3.88,2.73,3.89,5.35.04,11.25.02,22.5.02,34.68Z"/><path d="m307.98,837.79c0,8.33.24,16.18-.22,23.98-.08,1.35-3.07,3.47-4.77,3.52-1.62.05-4.64-2.03-4.74-3.35-.52-6.84-.84-13.79-.17-20.6.61-6.14,5.54-3.19,9.9-3.54Z"/><path d="m274.61,845.56c4.95.36,11.19-.35,11.71,1.07,1.61,4.32,1.01,9.47,1.28,14.29-.73.21-1.45.41-2.18.62-3.22-4.76-6.45-9.53-10.81-15.98Z"/><path d="m581.81,590.17c-.22,2.71.29,6.08-.94,8.62-.93,1.93-3.94,3.18-6.28,3.85-.57.16-2.95-3.09-3.09-4.88-.4-5.42-.41-10.92.06-16.33.18-2.14,2.02-4.13,3.1-6.19,2.14,1.86,5.09,3.33,6.19,5.67,1.2,2.56.7,5.93.96,9.27Z"/><path d="m574.34,947.35v-27.99h9.26c0,7.96.56,15.86-.35,23.59-.26,2.25-4.72,4-7.25,5.98-.55-.53-1.11-1.06-1.66-1.58Z"/><path d="m897.54,378.59c2.19-3.62,3.85-6.37,5.52-9.12,2.02,2.89,5.01,5.54,5.81,8.74.99,3.96-1.79,7.31-6.06,6.77-1.76-.22-3.12-3.64-5.26-6.39Z"/><path d="m345.81,175.1c3.22-4.25,6.1-8.81,9.73-12.67,4.91-5.22,11.17-4.33,16.19,2.31-6.85,7.25-15.71,9.87-24.9,11.81-.34-.48-.68-.97-1.02-1.45Z"/><path d="m614.96,828.51c5.08.35,9.24.65,13.44.94,1.29,14.57-.6,16.79-13.4,14.56.23-2.46.65-4.99.64-7.51,0-2.55-.42-5.11-.69-7.99Z"/><path d="m726.39,188.6c-3.52-4.85-7.03-9.7-10.55-14.56.39-.5.78-.99,1.17-1.49,4.31.48,8.66.72,12.88,1.59,1,.21,2.43,2.72,2.17,3.82-.81,3.44-2.34,6.71-3.58,10.04-.7.2-1.4.39-2.09.59Z"/><path d="m407.21,946.85c0-8.58-.16-16.63.18-24.66.05-1.14,2.53-3.13,3.77-3.05,1.94.13,5.35,1.59,5.42,2.66.47,7.44.91,15.01.04,22.39-.72,6.04-5.64,1.75-9.41,2.67Z"/><path d="m545.53,868.14c-9.15-.86-9.18-.86-9.34-9.87-.07-4.22,0-8.44,0-12.66,0-8.42.32-8.7,9.34-7.68v30.2Z"/><path d="m674.59,837.49c2.98.3,4.9.5,7.36.75,0,8.06.2,15.7-.17,23.3-.07,1.49-2.37,2.87-3.64,4.29-1.18-1.31-3.33-2.58-3.39-3.94-.33-7.81-.16-15.64-.16-24.4Z"/><path d="m633.21,144.19c-9.59.8-11.88-1.4-10.5-9.78.17-1.04,2.36-2.78,2.95-2.55,2.65,1.08,5.84,2.21,7.31,4.37,1.2,1.76.24,4.99.24,7.96Z"/><path d="m455.8,838.01c5.7-1.13,7.86.41,7.46,5.8-.43,5.8.23,11.67-.13,17.48-.1,1.62-2.1,3.12-3.22,4.67-1.37-1.61-3.83-3.16-3.92-4.84-.43-7.58-.19-15.2-.19-23.11Z"/><path d="m842.14,835.97v32.08c-2.35-.13-4.28-.24-7.03-.39,0-9.22-.23-18.21.25-27.16.07-1.31,3.53-2.45,6.78-4.53Z"/><path d="m383.19,867.42c.8-4.26-2.94-9.26,3.28-11.43.68-.24,3.42,2.38,3.25,3.32-.6,3.39,1.87,9.44-6.52,8.1Z"/></g></g></svg>