<?xml version="1.0" encoding="UTF-8"?>
<svg id="Layer_2" data-name="Layer 2" xmlns="http://www.w3.org/2000/svg" viewBox="0 0 1743.85 447.69">
  <defs>
    <style>
      .cls-1 {
        stroke: #9866ff;
      }

      .cls-1, .cls-2, .cls-3 {
        font-family: ArialMT, Arial;
        font-size: 376.93px;
        letter-spacing: .1em;
      }

      .cls-1, .cls-2, .cls-3, .cls-4 {
        isolation: isolate;
      }

      .cls-2 {
        stroke: #5bd6ff;
      }
    </style>
  </defs>
  <g id="Layer_1-2" data-name="Layer 1">
    <g id="Logo_Artifex" data-name="Logo Artifex">
      <g id="Artifex" class="cls-4">
        <text class="cls-3" transform="translate(411.28 324.8)"><tspan x="0" y="0">Art</tspan></text>
        <text class="cls-2" transform="translate(411.28 324.8)"><tspan x="0" y="0">Art</tspan></text>
        <text class="cls-3" transform="translate(1006.01 324.8)"><tspan x="0" y="0">ifex</tspan></text>
        <text class="cls-2" transform="translate(1006.01 324.8)"><tspan x="0" y="0">ifex</tspan></text>
      </g>
      <g id="Art" class="cls-4">
        <text class="cls-3" transform="translate(411.28 324.8)"><tspan x="0" y="0">Art</tspan></text>
        <text class="cls-1" transform="translate(411.28 324.8)"><tspan x="0" y="0">Art</tspan></text>
      </g>
      <g id="Groupe_16" data-name="Groupe 16">
        <g id="Groupe_4" data-name="Groupe 4">
          <path id="Tracé_19" data-name="Tracé 19" d="m262.01,321.7l-3.97-28.36-28.86-205.67c-1.15-8.15-8.13-14.21-16.36-14.21h-15.72v-8.65C197.51,29.43,169.16.41,133.78,0c-35.38-.41-64.4,27.95-64.81,63.33v10.13h-19.57c-8.23,0-15.21,6.06-16.36,14.21L.49,319.4l-.32,2.29c-1.29,9.02,4.98,17.39,14.01,18.68.78.11,1.56.16,2.35.16h129.5l-6.16-12.72-11.27-23.3c-.28-.56-.46-1.14-.56-1.73-4.25-8.48-8.41-16.99-12.6-25.49-1.32-2.68-2.63-5.37-3.93-8.06-.6-1.24-.54-1.46.72-2.08,4.03-1.93,8.09-3.83,12.11-5.8,4.97-2.43,9.91-4.92,14.87-7.37,3.12-1.53,6.25-3.04,9.38-4.58l6.77-3.3,8.91-4.34,7.44-3.63c.54-.41,1.31-.31,1.72.24.14.17.22.38.25.59.12.37.28.72.45,1.07,5.77,11.85,11.54,23.69,17.3,35.52.4.75.64,1.57.71,2.4l18.1,37.41,12.18,25.13h23.19c9.12.03,16.53-7.35,16.56-16.47,0-.78-.05-1.55-.16-2.32ZM75.53,114.51c-8.45,0-15.3-6.83-15.3-15.28v-.02c0-8.44,6.84-15.28,15.28-15.28s15.29,6.84,15.3,15.28c0,8.45-6.84,15.3-15.28,15.3Zm91.25,113.48c-2.18,1.06-4.25,2.16-6.39,3.23-2.38,1.19-4.76,2.35-7.15,3.49-1.96.93-3.95,1.8-5.91,2.73-2.95,1.42-5.87,2.86-8.81,4.29l-9.69,4.74-8.05,3.92c-2.77,1.36-5.54,2.73-8.29,4.08-1.79.86-3.59,1.72-5.39,2.49-2.19.99-4.78.02-5.77-2.18-.04-.09-.08-.19-.12-.29-1.98-3.94-3.92-7.91-5.8-11.9-.85-1.34-.99-3.01-.37-4.48.76-1.24,1.91-2.21,3.27-2.74,1.64-.86,3.4-1.47,5.04-2.35,1.65-.87,3.24-1.86,4.75-2.96,3.65-2.71,5.25-7.38,4.05-11.77-.84-2.74-2.13-5.33-3.81-7.65-1.56-2.48-3.3-4.85-5-7.23-2.76-3.82-5.85-7.4-9.22-10.7-2.28-2.13-4.13-4.67-5.45-7.49-1.34-3.15-1.73-6.62-1.13-9.99.52-3.32,1.93-6.44,4.09-9.01,2.07-2.58,4.88-4.46,8.04-5.39,2.66-.87,5.48-1.14,8.25-.78,1.23.14,2.49.48,3.67.73,3.67,1.31,6.85,3.72,9.1,6.9,1.67,2.45,2.76,5.24,3.19,8.17.37,2.2.53,4.45.99,6.63.63,3.04,1.42,6.03,2.18,9.03.5,1.99.99,3.97,1.6,5.88.54,1.76,1.2,3.47,1.85,5.17.31.88.58,1.78.96,2.63,1.06,2.5,2.91,4.59,5.28,5.94,1.81,1.05,3.91,1.52,6,1.36,2.55-.26,5.01-1.06,7.22-2.34,2.24-1.24,4.56-2.32,6.96-3.22,2.14-.85,4.57.19,5.43,2.33.97,2.05,2.11,4.03,3.1,6.08,1.14,2.35,2.25,4.73,3.31,7.13.95,2.08.07,4.52-1.98,5.52ZM82.08,73.47l.02-8.66c.04-28.18,22.92-51,51.1-50.97.47,0,.94.01,1.41.02,27.79,1.22,49.63,24.21,49.41,52.02v7.59h-101.94Zm108.16,40.53c-8.16-.01-14.77-6.63-14.76-14.8,0-8.15,6.62-14.76,14.78-14.76,8.16.01,14.78,6.63,14.78,14.8-.01,8.16-6.64,14.77-14.8,14.76Zm7.15,204.96l-15.74-32.59c-.8.01-1.59-.36-2.1-1.04-1.92-2.47-4.07-4.74-6.09-7.13-1.29-1.5-2.41-3.09-3.72-4.54-.45-.5-1.37-1.12-1.85-.96-.83.29-.58,1.33-.39,2.04.96,3.7,1.99,7.38,3,11.07.27,1,.54,2,.83,3.01.18.6.17,1.21.02,1.78l25.07,49.93h11.4l-10.43-21.57Zm-45.83-18.19c-1.06-.16-2.05-.79-2.63-1.78-1.48-1.72-2.83-3.56-4.35-5.25-.36-.39-1.15-.4-1.75-.6-.2.46-.33.95-.36,1.45.2,1.59.55,3.18.82,4.77.23,1.35.45,2.7.65,4.06.11.74-.13,1.23-.51,1.6l10.42,21.55,6.76,13.96h10.48l-19.53-39.76Z"/>
        </g>
      </g>
    </g>
  </g>
</svg>