<svg xmlns="http://www.w3.org/2000/svg" id="Layer_2" data-name="Layer 2" viewBox="0 0 357.02 356.8"><g id="Layer_1-2" data-name="Layer 1"><g id="uozgLA"><g><path d="m85.1,329.01c-1.57-.45-3.52-.46-4.65-1.42-10.74-9.21-21.8-18.11-31.82-28.06-7.55-7.49-14.81-15.72-20.24-24.78-6.95-11.59-12.89-24-17.6-36.68-11.83-31.89-13.89-64.59-6.37-97.97,3.18-14.11,7.84-27.43,14.19-40.43,7.77-15.92,17.02-30.64,29.9-42.8,9.88-9.33,19.56-19.16,30.69-26.78,10.44-7.15,22.64-11.75,34.13-17.34,3.72-1.81,7.52-3.61,11.47-4.72,31.19-8.76,62.48-11.11,94.41-3.15,15.71,3.91,30.66,9.39,44.66,17.09,9.85,5.42,18.84,12.52,27.79,19.43,6.55,5.06,12.84,10.61,18.46,16.67,5.54,5.98,10.55,12.59,14.98,19.45,5.73,8.86,11.41,17.91,15.72,27.5,4.23,9.41,7.09,19.49,9.91,29.46,8.67,30.7,8.6,61.43-1.48,91.78-4.35,13.09-8.97,26.26-15.24,38.49-5.12,9.97-12.54,18.86-19.56,27.73-5.36,6.76-11.2,13.33-17.72,18.93-7.66,6.57-16.17,12.19-24.54,17.87-4.76,3.23-9.83,6.14-15.07,8.51-9.02,4.08-18.01,8.64-27.5,11.22-26.16,7.11-52.7,10.65-79.79,5.06-12.8-2.64-25.68-4.74-37.56-10.67-8.05-4.02-16.3-7.62-24.39-11.55-1.19-.58-1.98-1.98-2.95-3,1.43.31,2.97.39,4.28.97,10.67,4.77,21.3,9.63,31.94,14.46,14.95,6.78,31,8.57,47.04,9.54,23.75,1.44,46.89-1.79,69.46-9.96,16.27-5.89,31.43-13.74,45.14-23.95,22.73-16.93,40.75-37.96,53.06-63.84,5.93-12.46,11.4-24.92,13.49-38.6,1.85-12.12,4.05-24.25,4.88-36.45,1.19-17.72-2.17-35.11-7.14-52.01-2.96-10.05-7.21-19.84-11.94-29.22-4.91-9.73-10.36-19.36-16.87-28.06-11.46-15.32-25.28-28.28-41.35-39.04-11.61-7.77-23.79-14.18-36.64-19.25-18.49-7.28-37.99-11.22-57.76-10.96-15.66.21-31.44,2.31-46.87,5.14-11.94,2.2-23.26,7.1-34.37,12.43-13.58,6.51-26.14,14.57-37.39,24.25-8.96,7.71-16.31,17.3-24.19,26.21-9.32,10.54-16,22.71-21.68,35.54-6.52,14.74-11.18,29.79-13.44,45.89-3.71,26.45-2.17,52.23,5.47,77.78,4.7,15.71,11.55,30.35,20.5,44.02,3.04,4.64,6.43,9.09,9.96,13.37,5.49,6.66,10.75,13.62,17.01,19.49,6.76,6.34,14.58,11.53,21.89,17.29,2,1.58,3.82,3.4,5.72,5.11Z"/><path d="m56.03,298.78c-1.93-1.44-4.2-2.58-5.71-4.36-5.19-6.11-10.9-11.98-14.98-18.8-6.29-10.52-11.57-21.66-16.96-32.69-6.69-13.69-9.22-28.58-11.64-43.43-3.39-20.83-1.77-41.46,3.92-61.68,3.16-11.22,6.44-22.57,11.32-33.09,12.01-25.86,29.7-47.34,52.53-64.65,15.14-11.48,31.74-20.31,49.63-26,14.57-4.63,29.53-8.4,45.27-8.31,19.33.11,38.57-.04,56.97,7,10.86,4.15,21.66,8.45,32.45,12.79.87.35,1.41,1.53,2.11,2.33l.09-.1c-1.6-.31-3.39-.25-4.76-.98-12.71-6.74-25.99-11.65-40.07-14.87-24.9-5.71-49.7-6.46-74.48-.06-10.64,2.75-21.39,5.59-31.45,9.89-9.94,4.25-19.29,10.04-28.48,15.81-6.48,4.07-12.68,8.8-18.26,14.04-6.16,5.79-11.86,12.19-17.04,18.89-6.51,8.42-13.25,16.91-18.17,26.28-7.73,14.71-13.38,30.24-16.98,46.75-5.56,25.47-4.77,50.67,1.19,75.5,3.42,14.26,9.54,28.11,16.15,41.28,6.2,12.36,14.4,23.75,24.34,33.67,1.3,1.3,1.97,3.25,2.93,4.89l.11-.11Z"/><path d="m312.94,284.79c-.52,1.34-.69,3.03-1.62,3.97-7.66,7.81-14.86,16.25-23.39,22.98-9.48,7.49-19.76,14.26-30.49,19.8-24.54,12.67-50.59,19.6-78.58,19.37-17.29-.14-33.84-2.69-50.43-7.48-13.33-3.85-25.98-9.05-37.52-16.25-11.55-7.21-21.91-16.34-32.7-24.74-1.05-.81-1.47-2.43-2.19-3.67l-.11.11c.9.3,1.98.39,2.67.95,6.31,5.14,12.38,10.58,18.85,15.51,5.9,4.5,11.8,9.26,18.39,12.51,13.83,6.82,27.75,13.65,43.27,16.11,9.5,1.51,18.89,3.87,28.43,4.81,19.58,1.94,38.84-1.33,57.62-6.36,17.69-4.74,34.28-12.7,49.35-23.11,13.08-9.03,25.08-19.54,35.08-32.11.82-1.03,2.28-1.56,3.45-2.32,0,0-.09-.09-.09-.09Z"/><path d="m312.9,71.9c1.25.91,2.91,1.57,3.69,2.79,5.86,9.12,12.37,17.95,17.11,27.64,7.04,14.37,12.64,29.64,14.76,45.47,2.28,17.04,2.83,34.26,1.03,51.67-1.31,12.72-4.68,24.7-8.4,36.56-2.96,9.44-8.21,18.22-12.94,27.03-3.56,6.63-7.84,12.88-11.94,19.2-.71,1.09-2.16,1.71-3.26,2.54,0,0,.09.09.09.09,1.45-2.61,2.86-5.24,4.34-7.83,3.35-5.84,6.73-11.67,10.09-17.5l-.11.06c7.71-11.09,11.49-23.77,15.35-36.54,11.82-39.12,7.02-77.06-8.26-113.95-4.65-11.23-12.44-21.14-18.73-31.7-1.06-1.78-1.8-3.76-2.68-5.64,0,0-.13.12-.13.12Z"/><path d="m260.93,27.88c1.58.32,3.47.2,4.69,1.05,5.96,4.09,11.87,8.26,17.54,12.73,6.5,5.13,13.08,10.25,18.95,16.06,4.18,4.14,7.23,9.41,10.79,14.18,0,0,.13-.12.13-.12-1.05-.68-2.37-1.14-3.11-2.06-12.84-15.9-28.4-28.58-45.9-39-1.17-.7-2.01-1.95-3-2.94,0,0-.09.1-.09.1Z"/><path d="m56.05,86.85c3.14-4.34,5.78-9.18,9.52-12.92,6.59-6.59,13.51-12.93,20.88-18.61,17.24-13.29,36.76-22.52,57.94-26.88,20-4.12,40.32-4.9,60.85-1.03,15.14,2.85,29.51,7.02,42.83,14.63,8.78,5.02,17.75,9.89,25.83,15.9,6.48,4.81,12.2,10.86,17.45,17.05,6.86,8.1,13.64,16.43,19.14,25.46,7.75,12.74,13.87,26.38,16.42,41.31,1.37,7.99,2.85,15.96,4.11,23.96,2.26,14.35,0,28.44-2.42,42.56-2.17,12.6-6.38,24.51-11.77,36-2.71,5.77-6.14,11.2-9.37,16.71-.47.81-1.68,1.19-2.54,1.77l.14.13c.77-1.96,1.38-4,2.34-5.86,3.8-7.32,8.66-14.26,11.36-21.96,3.8-10.83,6.54-22.12,8.81-33.39,4.21-20.87,2.04-41.65-2.63-62.2-.98-4.32-3.41-8.29-4.54-12.59-3.31-12.65-9.81-23.74-17.24-34.16-5.68-7.96-12.58-15.06-19.08-22.42-7.88-8.92-17.5-15.6-27.72-21.62-10.71-6.31-21.81-11.35-33.67-15.27-13.95-4.61-28.15-6.38-42.6-6.47-16.48-.11-32.58,1.93-48.49,7.15-16.81,5.52-32.2,13.52-45.96,24.08-9.87,7.58-17.77,17.72-26.6,26.66-.83.84-2.06,1.3-3.11,1.93,0,0,.13.09.13.09Z"/><path d="m85.04,298.75c-1.47-.6-3.21-.88-4.36-1.86-11.75-10.05-22.47-21.2-30.81-34.18-8.17-12.71-14.71-26.35-18.82-41.07-5.98-21.39-6.89-42.91-4.38-64.98,2.16-18.95,8.65-36.16,17.31-52.72,3.2-6.12,7.99-11.42,12.06-17.09,0,0-.13-.09-.13-.09-1.93,3.35-3.93,6.66-5.76,10.06-6.64,12.31-13.19,24.53-17.01,38.25-4.14,14.86-6.47,29.63-6.39,45.08.13,25.62,6.94,49.22,19.12,71.51,8.89,16.27,20.27,30.46,34.58,42.3,1.7,1.4,2.99,3.29,4.48,4.95l.12-.14Z"/><path d="m231.9,320.76c-6.82,2.59-13.44,6.28-20.49,7.5-11.38,1.97-23.05,3.24-34.58,3.12-17.21-.17-34.15-2.51-50.54-8.81-13.66-5.24-26.43-11.77-38.25-20.26-1.22-.88-2.01-2.37-3-3.57,0,0-.12.14-.12.14,5.27,3.14,10.43,6.49,15.85,9.36,8.12,4.3,16.1,9.26,24.73,12.15,15.01,5.04,30.24,9.55,46.51,8.98,13.06-.46,26.17.51,38.99-3.11,6.96-1.97,14.01-3.61,21.01-5.4,0,0-.11-.12-.11-.12Z"/><path d="m304.9,262.74c-.64,1.81-.8,4.06-2,5.37-9.09,9.98-17.75,20.49-27.79,29.42-11.05,9.83-24.48,16.39-37.84,22.73-1.53.72-3.57.36-5.37.5,0,0,.11.12.11.12,1.06-.69,2.07-1.47,3.19-2.05,8.31-4.25,17.18-7.66,24.86-12.84,14.77-9.98,28.57-21.24,38.79-36.25,1.72-2.52,4.11-4.59,6.19-6.87l-.14-.13Z"/><path d="m34.08,237.62c-1.38,1.9-2.87,3.96-5.18,7.15-.94-1.5-1.62-2.58-2.84-4.52-.54,1.16-1.01,2.18-1.49,3.2-.3-.21-.59-.42-.89-.63.34-.9.69-1.8,1.11-2.91-1-.25-1.97-.48-3.81-.93,1.87-.63,2.88-.96,4.04-1.35-.7-1.43-1.31-2.66-1.91-3.88.23-.16.46-.32.69-.47.87,1.01,1.73,2.03,2.63,3.08.76-.99,1.58-2.06,2.5-3.28,1.63,1.44,3.03,2.67,5.14,4.54Z"/><path d="m18.14,143.27c1.44-.86,3.36-2.26,3.53-2.06,1.26,1.38,2.99,3.1,2.97,4.69-.02,1.6-1.81,3.26-3.1,4.62-.15.16-2.08-1.36-3.34-2.2-.48.59-1.23,1.51-1.97,2.42-.22-.13-.45-.26-.67-.4.49-1.27.97-2.54,1.58-4.1-1.12-.27-2.14-.52-3.63-.88,1.31-.33,2.21-.56,3.26-.83-.6-1.09-1.17-2.15-1.75-3.2l.71-.58c.87.91,1.74,1.82,2.41,2.52Z"/><path d="m114.84,329.7c-1.06,1.34-1.65,2.08-2.03,2.55-.56-1.43-1.12-2.87-1.73-4.41,0,0,.9-.23,2.2-.56-.62-1.44-1.16-2.7-1.57-3.65,1.65.08,3.57.18,5.49.27.23-.53.46-1.07.69-1.6.82,1.99,1.65,3.99,2.47,5.98.55-.4,1.1-.8,1.65-1.2-1.36,1.92-2.71,3.84-5.01,7.09-.85-1.76-1.43-2.94-2.17-4.48Z"/><path d="m343.72,181.64c.96.22,1.57.36,1.47.34-.21,1.6-.41,3.12-.68,5.22-.64-.69-1.29-1.38-2.22-2.39-.64.81-1.46,1.85-2.86,3.61-1.56-2.6-2.84-4.74-4.1-6.84,1.4-1.47,2.73-2.86,4.77-5.01.86,1.26,1.66,2.41,2.36,3.44.71-1.03,1.41-2.06,2.11-3.08l1.18.97c-.63,1.16-1.25,2.32-2.02,3.73Z"/><path d="m172.77,14.41c1.98-1.32,3.41-2.28,4.81-3.22,2.49,1.54,4.98,3.07,7.8,4.81-1.15.27-2.14.51-3.45.82.41,1.19.8,2.34.9,2.61-2.11.4-4.7,1.69-5.81.91-1.94-1.38-2.98-4.03-4.25-5.93Z"/><path d="m328.98,109.93c1.1.36,2.07.68,3.86,1.27-1.77.37-2.67.56-3.93.82.42,1.19.82,2.3,1.16,3.28-3.77-1.1-9.46,1.13-9.68-5.67,1.16-.85,2.5-1.82,3.72-2.71,1.85.3,3.71.6,5.9.95,0,0-.47.94-1.04,2.07Z"/><path d="m156.87,21.38c1.53-2.62,2.38-4.65-2.81-3.64,2.83-.96,6.28-.74,2.21-4.39,3.98.83,9.12-2.43,9.48,3.74.4,6.95-5.96,2.33-8.88,4.29Z"/><path d="m237.87,29.81c-2.14-3.53-4.03-2.13-5.87.74-1.98-2.8-3.62-5.11-4.95-6.98,2.02-.84,3.6-1.5,5.56-2.32.46.52,1.27,1.43,2.22,2.5.93-.99,1.77-1.88,3.04-3.23v9.28Z"/><path d="m18.52,169.08c-1.11-1.18-1.86-1.98-2.87-3.06-1.04.93-1.98,1.78-3.14,2.82.21-3.15.39-5.86.55-8.42,3.01.25,6.47.53,10.53.86-1.65,2.54-3.27,5.03-5.07,7.81Z"/><path d="m313.65,272.79c-.95,1.22-1.68,2.17-2.98,3.84-1.38-2.31-3.2-4.03-3.25-5.81-.05-1.57,1.87-3.2,2.92-4.8,1.14.77,2.29,1.55,3.52,2.38.58-.66,1.46-1.68,2.35-2.7.27.14.54.28.82.42-.49,1.07-.98,2.14-1.5,3.28.86.33,1.69.64,2.92,1.11-1.47.25-2.41.41-3.7.63.76,1.5,1.37,2.72,1.99,3.95-.19.17-.38.34-.57.51-.73-.82-1.47-1.63-2.52-2.8Z"/><path d="m307.99,77.85c1.26-1.43,2.16-2.44,2.88-3.26v9.82c-1.02-1.23-1.85-2.23-2.89-3.48-.93,1.15-1.81,2.24-2.85,3.53-1.77-2.65-3.44-5.15-4.66-6.97,1.72-.86,3.23-1.61,5.21-2.59.43.56,1.26,1.63,2.3,2.97Z"/><path d="m129.82,24.24c-.95,1.78-2.27,4.28-3.54,6.69-2.97-1.91-5.4-3.48-7.68-4.94.54-.11,1.57-.31,2.85-.57-.72-1.55-1.33-2.85-1.94-4.15.17-.16.34-.32.51-.48.88.93,1.76,1.87,2.74,2.92,1.61-5.64,4.44-1.05,7.06.54Z"/><path d="m32.35,259.37c-.24-3.13-.46-6.14-.69-9.18.46.38,1.42,1.16,2.53,2.08,4.24-6.16,4.33,1.13,7.17,1.84-2.41,2.28-1.98,8.41-7.42,3.83-.09-.08-1.25,1.13-1.58,1.43Z"/><path d="m31.68,125.9c-1.45,2.1-3.03,4.39-4.7,6.82-2.41-1.51-4.6-2.89-5.59-3.51-.47-2.65-.78-4.37-1.27-7.09,1.4,1.54,2.34,2.58,3.53,3.89.9-1.01,1.81-2.02,2.26-2.52,2.19.92,3.93,1.64,5.77,2.41Z"/><path d="m327.47,259.55c-1.44-.71-2.89-1.43-4.81-2.38-.45.49-1.37,1.5-2.53,2.76-1.74-2.49-3.38-4.83-4.7-6.71,1.57-.78,3.14-1.57,5.25-2.63.33.37,1.21,1.36,2.36,2.65,1.05-1.17,2-2.24,2.96-3.31-1.49,3.65-2.15,6.91,1.34,9.69.01-.01.13-.07.13-.07Z"/><path d="m219.49,25.92c-.77-1.11-1.3-1.88-2.03-2.93-.93,1.01-1.82,1.97-3.07,3.32-1.6-2.34-2.95-4.3-4.3-6.28,1.35-1.44,2.61-2.8,4.19-4.49,1.05.86,2.09,1.72,3.04,2.5.91-.77,1.8-1.52,2.17-1.83v9.71Z"/><path d="m268.34,307.43c2.27-.6,4.18-5.58,6.65-.33,1.05-.96,1.83-1.68,2.62-2.39.23.14.46.27.69.41-.64,1.06-1.28,2.12-1.99,3.31,1.23.25,2.31.47,3.48.7-1.57.71-3.22,1.03-4.28,2-4.05,3.71-4.93,3.52-6.5-1.85-.18-.63-.44-1.24-.67-1.85Z"/><path d="m285.53,303c-1.25-2.39-2.5-4.77-3.6-6.88,1.52-1.18,2.83-2.2,4.36-3.4,2.25,1.87,4.56,3.8,6.47,5.39-2.07,1.4-4.4,2.97-7.23,4.89Z"/><path d="m90.5,43.81c-.91,1.35-1.69,2.52-2.79,4.16v-9.75c.25-.63.49-1.25.74-1.88.38,1.56.77,3.12,1.3,5.26,1.46-1.77,2.22-2.69,2.96-3.57,1.63.85,3.24,1.69,5.23,2.72-1.21,1.81-2.88,4.32-4.74,7.1-.97-1.46-1.76-2.64-2.7-4.04Z"/><path d="m86.14,313.1c-2.81-.24-4.57-.39-6.54-.56-.18-1.87-.44-4.65-.65-6.86,3.24.52,6.76,1.08,10.64,1.71-1.19,1.97-2.5,4.14-3.45,5.71Z"/><path d="m337.83,169.51c-.95-2.67-2.71-5.02-2.28-6.88,1.13-4.91,5.47-1.26,8.86-2.58-2.66,3.17-.7,3.84,1.42,3.97-2.29,1.57-4.54,3.12-8,5.49Z"/><path d="m245.41,333.26c-1.39-2.01-2.2-3.18-3.16-4.58-1.22.81-2.26,1.5-3.58,2.39-1.42-1.82-2.78-3.58-3.86-4.98,1.85-.96,3.43-1.78,5.43-2.82.42.48,1.22,1.4,3.28,3.75.42-1.93.81-3.69,1.2-5.46.23.51.46,1.02.7,1.53v10.17Z"/><path d="m16.83,220.93c2.21-1.39,4.45-2.79,6.89-4.32,1.09.7,2.36,1.52,4.73,3.04-1.74,1.94-3.31,5.18-5.47,5.64-1.66.36-4.07-2.78-6.15-4.36Z"/><path d="m335.26,127.56c1.49.24,2.43.39,3.94.64-.6.32-.83.55-1.03.52-3.44-.39-6.87,5.2-9.97.48-.82-1.26,1.15-4.35,2.2-7.75,2.01,2.12,2.94,3.09,3.9,4.11.79-.89,1.61-1.82,2.44-2.76.22.13.44.26.66.38-.66,1.35-1.32,2.69-2.14,4.37Z"/><path d="m13.21,197.77h10.54c-.05,7.25-6.96,4.87-10.54,7.65v-7.65Z"/><path d="m52.83,74.43c1.06.81,2.34,1.79,4.17,3.19-.97,1.83-2.35,4.47-3.95,7.5-2.24-2.41-4-4.31-5.77-6.22.42.77.85,1.54,1.27,2.31,1.4-2.23,2.81-4.45,4.27-6.78Z"/><path d="m344.35,201.17c-1.66,1.19-3.82,2.73-6.82,4.88-1.29-2.48-2.61-5.04-3.74-7.22,5.49-5.58,7.5,1.99,10.56,2.34Z"/><path d="m270.11,47.71c-.55-.91-1.1-1.82-1.66-2.73q-3.39,3.9-7.28-2.92c1.32-1.43,2.63-2.85,4.64-5.03,1.95,3.61,3.64,6.75,5.34,9.88-.35.27-.7.53-1.04.8Z"/><path d="m279.13,48.05c2.54,1.71,4.85,3.27,6.7,4.51-1.55,1.06-3.71,3.59-6.08,3.79-1.6.14-3.48-3.01-5.38-4.82,2.16-1.57,3.43-2.5,4.77-3.48Z"/><path d="m203.58,343.39v-10.64c3.26,1.82,5.93,3.3,8.83,4.92-2.75,1.78-5.54,3.59-8.83,5.72Z"/><path d="m76.43,296.57c-3.63,1.72-7.25,3.45-10.86,5.16-.21-.8-.57-2.2-.99-3.82.09-.03.82-.31,1.78-.66-.69-1.48-1.31-2.79-1.93-4.1.48-.48.95-.97,1.43-1.45.56,1.47,1.11,2.94,1.87,4.93,1.38-1.66,2.24-2.69,2.93-3.53,1.54,1,2.88,1.87,4.22,2.74.51.24,1.03.48,1.54.73Z"/><path d="m70.94,51.13c3.77-.47,7.54-.94,12.36-1.53-1.95,3.12-3.29,5.26-4.39,7.03-2.25-.38-3.94-.66-6.21-1.03-.05-.23-.36-1.65-.67-3.07-.36-.46-.72-.93-1.09-1.39Z"/><path d="m327.23,232.47c1.67,2.1,2.52,3.17,3.5,4.4,1.12-1.31,2.13-2.5,3.44-4.03.05,5.3-2.1,8.51-6.94,10.34v-10.72Z"/><path d="m341.74,151.33c-1.3-1.74-2.01-2.7-2.98-4.01-1.01,1.34-1.76,2.33-3.28,4.35v-10.91c1.25,1.19,2.28,2.18,3.51,3.35.83-1.07,1.55-2,2.76-3.56v10.77Z"/><path d="m40.71,265.6c1.09,1.51,1.73,2.39,2.39,3.31q3.91-3.84,5.46-.42c-.96.22-2.56.16-2.88.77-.46.89-.29,2.4.19,3.35.23.45,1.8.23,2.7.31-1.51,3.89-1.72,3.89-5.2-.39-.65.74-1.27,1.45-2.66,3.04v-9.97Z"/><path d="m127.16,334.2c3.29-2.74,6.4-7.15,11.83-2.62-.46.71-.97,1.49-1.63,2.51-1.11-1.27-2.01-2.3-3.9-4.45-.36,2.71-.82,4.28-.59,5.74.06.41,2.19.48,3.63.76-.33.56-.97,1.65-1.57,2.66-2.9-1.71-5.4-3.19-7.78-4.6Z"/><path d="m304.54,286.48c-2.41,1.47-3.97,2.42-6.05,3.68v-10.45c2.11,1.12,3.81,2.02,6.05,3.21v3.55Z"/><path d="m217.91,332.05c2.47-1.25,4.3-2.19,6.67-3.39v9.75c-.44.29-.88.58-1.32.87-1.92-2.59-3.84-5.19-5.36-7.24Z"/><path d="m137.87,16.34c.55.75,1.28,1.75,2.34,3.22,1-1.36,1.83-2.5,3.54-4.84v11.86c-1.51-1.69-2.39-2.67-3.45-3.86-.84.92-1.72,1.87-2.44,2.65v-9.03Z"/><path d="m56.4,278.63c1.67,1.84,2.29,2.91,3.22,3.45.83.48,1.99.38,3.43.6-1.88,2.46-3.77,4.93-5.66,7.41-.33-.19-.66-.39-.99-.58v-10.88Z"/><path d="m163.72,339.2c2.7-1.07,5.39-2.14,8.09-3.21.17,1.22.54,2.45.46,3.66-.07,1.09-.63,2.14-1.15,3.74-2.52-1-5-1.98-7.48-2.96.03-.41.06-.82.09-1.22Z"/><path d="m14.66,180.94c1.35-1.48,2.32-2.54,3.29-3.61.43.17.86.35,1.28.52-3.94,3.13-3.25,6.25-1.17,9.81-1.08-1.17-2.16-2.33-3.44-3.71-.73.96-1.43,1.86-2.64,3.45v-9.72c1.08,1.32,1.81,2.2,2.68,3.26Z"/><path d="m300.15,65.96c-2.54,1.84-5.09,3.68-9.13,6.6.51-3.18.22-6.31,1.27-6.85,2.18-1.12,5.06-.88,7.65-1.19l.22,1.44Z"/><path d="m333.12,219.93c2.79-1.11,4.76-1.89,7.51-2.98-1.15,1.47-1.84,2.36-2.73,3.5,1.19.34,2.14.61,3.1.88-2.55.35-4.17,1.03-1.74,4.16-3.19-1.48-8.15-.5-6.15-5.56Z"/><path d="m41.86,98.93c-3.43-4.66-4.3-1.19-5.79,1.81v-11.05c.85.95,1.73,1.95,2.79,3.14.76-.66,1.53-1.33,3.42-2.97-.16,3.4-.26,5.6-.42,9.07Z"/><path d="m262.93,319.65c-2.93-.59-4.54,5.47-8.43,2.47,4.05-.61,4.48-1.66,2.02-6.27-.75.48-1.48.95-2.79,1.8.5-1.27.62-2.42,1.09-2.58.9-.31,2.28-.46,2.96.03,1.86,1.33,3.46,3.02,5.16,4.56Z"/><path d="m202.19,20.77c-2.3.17-4.28.32-6.27.47,3.21-2.63,2.76-5.35.31-8.57,1.03.79,2.05,1.58,3.96,3.05.34-.9.81-2.1,1.27-3.31l.72.7v7.67Z"/><path d="m33.8,107.42c-.93,1.02-1.88,2.07-3.02,3.33.89,1.55,1.74,3.04,2.48,4.35-1.93-.32-3.74-.61-6.33-1.04v-5.74c2.43-.32,4.43-.58,6.88-.9Z"/><path d="m57.84,65.86v-4.88q6.09,4.39.09,10.33c.79-2.14,1.26-3.41,1.8-4.88-1.05-.31-2.04-.61-1.89-.56Z"/><path d="m106.66,30.34c3.18-6.87,2.75,1.96,4.59,1.1.74-.47,1.47-.93,2.21-1.4.26.23.51.46.77.7-1.94,2.47-3.88,4.94-5.82,7.42l-1.06-.83c3.88-4.33,3.75-5.6-.72-7.06l.04.08Z"/><path d="m106.63,30.26l-2.48,7.82c-.55-.16-1.1-.33-1.65-.49.32-1.08.64-2.16.97-3.29-.85-.23-1.74-.47-3.49-.94,1.84-.36,2.83-.55,4.16-.81-.8-1.56-1.47-2.88-2.41-4.74,2.1,1.09,3.52,1.82,4.93,2.54-.01-.02-.05-.1-.05-.1Z"/><path d="m148.03,339.07c-1.1-.21-2.19-.42-4.03-.78,1.73-.51,2.75-.81,4.22-1.25-.75-1.13-1.35-2.05-2.29-3.47,6.5,3.66,6.56,4.18,1.22,9.14.35-1.43.6-2.46.89-3.64Z"/><path d="m234.37,198.66c5.55,9.48,10.59,18.14,15.67,26.77,6.42,10.91,12.86,21.82,19.33,32.7,2.78,4.69,5.3,9.61,8.67,13.83,1.39,1.74,4.73,1.93,8.07,3.15-5.93,5.52-11.76,11.02-17.69,16.41-.8.72-2.1,1.24-3.17,1.25-9.29.1-18.59.06-27.88.06-.23-.51-.47-1.02-.7-1.54,1.36-.89,2.62-2.04,4.1-2.64,8.1-3.29,9.36-6.34,4.87-14.05-8.56-14.71-17.39-29.26-26.06-43.91-2.48-4.19-4.8-8.49-7.57-13.4-3.33,5.29-6.06,9.52-8.68,13.81-4.65,7.59-9.19,15.25-13.85,22.83-5.18,8.43-10.51,16.76-15.63,25.22-2.33,3.85-1.21,5.6,4.1,7.9,2.25.97,6.24.76,4.44,5.59-12.9,0-25.89,0-38.87,0-7.67,0-15.33.01-23-.14-1.09-.02-2.16-.95-3.23-1.46.82-.99,1.51-2.17,2.51-2.92,1.04-.77,2.44-1.03,3.6-1.66,4.41-2.38,4.72-3.98,2.19-8.17-6.49-10.72-12.83-21.53-19.33-32.25-8.83-14.55-17.82-28.99-26.59-43.57-5.78-9.61-11.25-19.42-16.95-29.08-3.77-6.39-7.69-12.69-11.57-19.02-2.84-4.63-6.06-9.07-8.41-13.93-1.27-2.63-2.25-6.4-1.32-8.9,3.26-8.78,7.41-17.24,11.68-26.84,11.76,19.82,22.81,38.43,34.34,57.85,2.12-3.33,3.9-6.03,5.59-8.79,6.47-10.56,12.96-21.11,19.36-31.71,4.95-8.18,9.74-16.46,14.7-24.64,1.49-2.45.72-4.07-1.45-5.38-.99-.6-2.15-.96-3.09-1.62-1.55-1.09-2.99-2.35-4.48-3.53,1.78-.45,3.57-1.3,5.35-1.3,18.5-.04,37,.01,55.5.17,1.59.01,3.18.95,4.77,1.45-1.3,1.21-2.52,2.54-3.94,3.6-1.05.78-2.35,1.22-3.56,1.79-3.24,1.53-3.19,3.71-1.51,6.49,10.17,16.82,20.27,33.68,30.42,50.51,2.09,3.47,4.3,6.86,6.93,11.04,1.61-2.45,3.06-4.54,4.38-6.71,4.81-7.91,9.67-15.8,14.33-23.8,5.65-9.71,11.29-19.43,16.6-29.32,3.05-5.69,1.35-8.87-4.88-10.77-1.78-.54-3.5-1.26-5.25-1.9.1-.57.2-1.14.3-1.71,1.36-.16,2.72-.45,4.08-.45,15.17,0,30.33-.07,45.5.17,1.79.03,4.09,1.3,5.23,2.73,3.68,4.6,6.94,9.55,11.15,15.49-6.81,0-12.69.34-18.5-.1-4.81-.37-7.03,1.87-9.13,5.77-3.76,6.99-8.13,13.65-12.2,20.48-3.35,5.63-6.6,11.31-9.97,16.93-3.66,6.11-7.39,12.17-11.09,18.25-2.37,3.88-4.74,7.76-7.7,12.59h88.1c-.62,7.3-1.16,13.76-1.72,20.39h-86.87Zm-85.33-87.68c-3.15,5.28-6.1,10.18-9.02,15.09-7.18,12.07-14.38,24.13-21.53,36.22-4.8,8.12-9.55,16.26-14.2,24.47-.56.98-.89,2.71-.4,3.58,6.73,11.91,13.59,23.75,20.48,35.56,4.09,7.02,8.3,13.97,12.45,20.95,3.88,6.54,7.75,13.08,11.9,20.07,1.05-1.42,1.48-1.91,1.82-2.46,6.62-11.01,13.21-22.04,19.85-33.05,3.34-5.54,6.8-10.99,10.1-16.55,3.59-6.05,6.73-12.39,10.67-18.2,4.86-7.17,5.09-8.02-.33-15.24-.8-1.06-1.51-2.19-2.17-3.34-6.05-10.56-11.96-21.21-18.15-31.69-6.86-11.6-13.96-23.06-21.46-35.4Z"/><path d="m180.03,48.57c-1.34-2.65-2.17-4.31-3.7-7.33.16,2.91.24,4.36.33,6.07h-4.1c-.27-4.86-.53-9.42-.81-14.45,3.18-.8,6.87-2.68,8.59,4.19,1.17-6.48,4.83-4.75,7.8-4.27v14.65h-6.04c.2-1.7.37-3.09.54-4.48-.27-.08-.54-.16-.81-.24-.47,1.53-.93,3.06-1.79,5.86Z"/><path d="m142.87,35.83c4.65-.57,8.85-1.08,13.71-1.67.08,1.4.44,3.54.15,3.63-2.03.64-4.18.86-7.18,1.36,1.41.94,2.58,1.72,3.75,2.5-.79,1.26-1.78,2.85-3.47,5.56,3.48-1.93,5.52-3.07,8.48-4.71.28,2.97.43,4.68.62,6.68-4.29.5-8.21.95-12.47,1.45-1.1-4.51-2.21-9.09-3.59-14.78Z"/><path d="m114.9,58.76c.3,1.05,1.04,2.23.79,3.13-.3,1.05-1.31,2.22-2.31,2.62-.65.26-2.4-.55-2.65-1.24-1.5-4.14-2.71-8.4-4.01-12.57,2.81-1.35,5.03-2.41,7.73-3.71,3.14,3.63,6.3,7.3,9.7,11.23-2.07,1.35-3.7,2.42-5.33,3.48-1.11-1.43-2.01-2.59-2.9-3.75-.34.27-.68.54-1.03.81Z"/><path d="m224.64,44.37c-2.61-1.33-4.68-2.4-7.72-3.95,1.83,4.62,9.9,4.8,5.82,10.95-2.06,3.11-4.99,2.64-7.97,1.42-2.6-1.07-5.5-1.88-4.02-6.86,2.43,1.25,4.55,2.34,6.68,3.44l.68-.58c-1.31-1.32-2.79-2.52-3.86-4.01-.95-1.32-2.36-3.34-1.93-4.39.61-1.49,2.58-3.1,4.19-3.37,4.67-.79,8.26,2.23,8.14,7.33Z"/><path d="m134.44,47.21c-.78-2.23-1.56-4.46-2.55-7.31,1.72-.57,3.48-1.16,5.61-1.87.37,4.82,1.27,9.26.78,13.53-.2,1.75-3.39,3.17-5.54,5.02-3.38-4.9-6.22-9.02-9.23-13.38,1.97-.79,3.8-1.52,5.81-2.33,1.31,2.34,2.57,4.57,3.82,6.81.43-.16.86-.32,1.29-.48Z"/><path d="m252.16,57.66c-1.69-1.48-3.38-2.97-5.21-4.57-1.14,1.9-2.66,4.44-4.25,7.1h7.22c-.82,5.85-4.47,5.03-7.23,4.24-4.39-1.26-4.74-4.76-3.73-8.76,1.01-3.96,2.26-7.55,7.34-6.79,5.98.89,7.62,2.79,5.84,8.8Z"/><path d="m195.34,33.6c1.72.13,3.33.25,5.06.37-.64,4.03-1.25,7.88-1.86,11.72.76.15,1.52.31,2.28.46.79-3.56,1.58-7.13,2.45-11.06h4.98c-1.04,3.71-2.16,7.25-3.01,10.84-.87,3.7-3.48,4.08-6.51,3.7-3.13-.39-4.81-2.27-4.59-5.42.24-3.45.77-6.87,1.22-10.62Z"/><path d="m238.48,44.21c-2.52,4.74-4.74,8.91-7.05,13.25-1.57-.34-3.29-.71-5.04-1.09,1.97-4.46,3.89-8.79,6.05-13.67,1.68.42,3.79.95,6.05,1.52Z"/></g></g></g></svg>