<svg xmlns="http://www.w3.org/2000/svg" id="Layer_2" data-name="Layer 2" viewBox="0 0 1469.51 189.56"><g id="Layer_1-2" data-name="Layer 1"><g><path d="m765.4,187.74c-9.96,0-18.51,1.11-26.54-.47-4.02-.79-9.48-6.03-10.19-9.99-4.55-25.63-20.19-31.88-43.75-28.41-11.43,1.68-23.3.56-34.96.38-7.98-.13-13.03,3.11-14.96,10.99-.47,1.94-1.22,3.82-1.92,5.7-9.17,24.68-15.19,27.53-43.83,19.83,8.42-22.07,16.79-44.04,25.19-65.99,13.34-34.87,27.28-69.53,39.76-104.71,5.05-14.24,15.25-12.5,26.08-12.99,10.31-.47,17.18,1.87,21.24,12.78,20.4,54.91,41.49,109.56,62.26,164.32.81,2.14.89,4.57,1.62,8.56Zm-85.29-133.39c-1.14-.18-2.28-.35-3.42-.53-8.06,20.03-16.11,40.06-24.87,61.85h51.01c-7.89-21.3-15.3-41.31-22.72-61.32Z"/><path d="m249.91,110.4c0,21.14-.54,42.31.23,63.43.39,10.82-2.2,15.83-13.91,13.95-5.81-.93-11.89-.16-18.99-.16V0c25.78,2.38,51.4,3.08,76.35,7.57,20.38,3.66,28.58,21.05,30.97,40.05,2.62,20.84-2.23,39.31-22.14,50.72-13.34,7.64-13.22,7.53-5.75,21.21,10.19,18.68,20.2,37.46,30.17,56.25,1.62,3.05,2.65,6.4,4.8,11.71-12,0-22.28.88-32.25-.47-3.55-.48-7.22-5.91-9.39-9.87-10.21-18.67-19.85-37.64-29.84-56.43-2.17-4.08-4.93-7.85-7.42-11.76-.94.47-1.88.95-2.81,1.42Zm-.82-55.83c4.27,6.99-7.36,21.18,11.14,20.99,19.53-.2,31.39-7.06,31.37-18.94-.02-12.86-12.6-20.59-32.59-21-17.84-.37-5.23,13.14-9.92,18.95Z"/><path d="m132.02,187.82c-12.2,0-23.05,1.11-33.5-.49-4.96-.76-10.23-5.89-13.46-10.41-14.51-20.24-28.31-40.99-42.45-61.5-1.52-2.2-3.55-4.04-7.53-8.5v80.85c-10.84,0-20.02.53-29.06-.39-2.12-.21-5.34-5.3-5.35-8.16-.29-53.5-.17-107-.13-160.5,0-2.41.5-4.92,0-7.22C-1.53,2.11,2.48.61,10.96,1.86c7.38,1.09,15.05.23,23.56.23v60.82l5.4,4.5c1.5-3.63,2.35-7.73,4.6-10.81,11.11-15.27,22.82-30.11,33.81-45.46,4.93-6.88,10.54-10.23,19.21-9.59,9.1.68,18.28.15,29.99.15-8.5,11.53-15.95,22.14-23.94,32.33-10.16,12.98-20.37,25.96-31.3,38.28-7.77,8.76-7.72,15.81-.8,25.44,19.45,27.09,37.85,54.93,56.62,82.52,1.27,1.86,2.1,4.02,3.9,7.55Z"/><path d="m1403.93,35.83q-5.06,34.88,26.81,34.96c10.06.02,20.16-.58,30.17.13,2.77.2,7.26,3.85,7.54,6.32.95,8.25.36,16.68.36,26.33-17.96,0-34.73.5-51.45-.17-11.36-.45-16.3,3.14-15.02,15.12.94,8.75.59,17.72-.02,26.54-.53,7.63,2.68,10.08,9.77,9.87,15.29-.45,30.59-.54,45.88-.89,8.58-.2,12.06,3.03,11.47,12.32-1.37,21.52-.93,21.47-22.6,21.48-22.54.02-45.09.03-67.63.43-6.61.12-11.37-1.22-11.35-8.75.17-57.9.45-115.8.75-173.69,0-1.12.77-2.24,1.21-3.44,23.67,0,47.25,0,70.83,0,2.42,0,4.83-.03,7.25.05,6.53.22,18.12-1.01,18.71.99,2.53,8.59,2.33,18.15,1.89,27.3-.09,1.83-5.57,4.79-8.62,4.86-18.44.46-36.9.23-55.95.23Z"/><path d="m517.1,35.6c-19.88,0-37.57.33-55.24-.15-8.35-.23-11.25,2.48-11.25,11.05,0,23.97-.35,23.98,22.97,24.17,13.67.12,27.34.19,41.02.35.71,0,1.41.6,2.82,1.24v31.33c-16.73,0-33.41.04-50.1-.01q-16.81-.05-16.83,16.19c0,8.05.36,16.11-.09,24.13-.48,8.42,2.86,11.46,11.28,11.04,13.65-.68,27.35-.58,41.03-.62,4.72-.02,9.45.5,14.78.81v32.67c-19.8,0-38.96.02-58.13,0-11.27-.02-22.57.36-33.77-.52-2.94-.23-7.98-4.44-8-6.86-.45-59.06-.35-118.12-.35-178.18h99.86v33.35Z"/><path d="m1122.32,1.63h33.25c15.36,43.61,31,87.99,46.63,132.36.9-.02,1.81-.03,2.71-.05,5.69-16.96,11.25-33.97,17.09-50.88,8.25-23.89,17.09-47.58,24.88-71.61,2.9-8.97,7.67-12.02,16.68-11.13,7.02.7,14.17.14,23.82.14-10.56,29.42-20.34,56.43-29.97,83.5-11.15,31.36-22.62,62.61-32.91,94.25-2.36,7.25-5.36,9.67-12.28,9.99-26.15,1.24-25.57,1.16-34.14-23.92-16.74-48.96-34.23-97.66-51.31-146.5-1.76-5.02-2.85-10.28-4.45-16.15Z"/><path d="m828.99,35.81V2.59h102.84c0,9.4.54,18.53-.39,27.5-.23,2.2-5.14,5.39-8.08,5.59-25.81,1.78-25.82,1.61-25.81,27.29,0,37.39-.32,74.77.24,112.15.15,10.18-2.97,13.8-13.02,12.58-6.3-.76-12.77-.14-21.46-.14,0-9.63-.02-18.67,0-27.7.11-38.18.06-76.36.48-114.53.09-7.59-2.66-10-9.86-9.61-7.95.42-15.93.1-24.94.1Z"/><path d="m1039.84,187.57q-32.64,2.29-32.7-27.94c-.03-49.42,0-98.84,0-148.26,0-2.71,0-5.43,0-8.59,11.22-.66,21.47-1.26,32.7-1.92v186.72Z"/></g></g></svg>