<svg xmlns="http://www.w3.org/2000/svg" id="Layer_2" data-name="Layer 2" viewBox="0 0 1079.08 305.98"><defs><style>.cls-1{fill:#fff}</style></defs><g id="Layer_1-2" data-name="Layer 1"><g><path d="m1079.08,121.36c-3.83,5.66-7.18,11.71-11.58,16.88-7.67,8.99-18.04,13.7-29.49,15.82-20,3.7-39.26,2.07-56.69-9.49-7.76-5.14-12.72-12.52-16.46-21.09-4.13-9.48-4.92-19.25-4.9-29.31.04-28.8.05-57.6,0-86.4,0-3.45,0-5.34,4.82-4.73,6.34.8,12.89-.1,19.35-.05,1.04,0,2.34.97,3,1.87.48.65.14,1.93.14,2.93,0,31.47.03,62.94-.01,94.4-.02,14.75,8.58,26.54,22.5,31.35,14.02,4.84,32.82-1.33,39.39-12.72,4.42-7.67,5.89-15.97,5.82-24.66-.17-18.86-.38-37.71-.48-56.57-.06-10.92.08-21.83.02-32.75-.02-2.56.43-4.04,3.5-4.02,7.03.04,14.05-.21,21.08-.35v118.89Z"/><path d="m368.75,143.33c-6.29,2.12-11.06,7.73-18.2,7.9-1.14.03-2.27.26-3.39.4.61-.51,1.21-1,1.52-1.27h-21.37c.17,1.87.25,2.81.33,3.74-2.12-.31-4.47-1.36-6.33-.8-9.73,2.91-19.28,2.92-28.99-.11-2.17-.68-4.79.1-7.2.21-.37-.59-.87-1.75-1.08-1.7-3,.74-5.96,1.64-8.92,2.5.21.66.41,1.33.62,1.99,3.01-.9,6.03-1.8,9.04-2.7,1.12,1.02,2.19,2.84,3.37,2.91,7.56.44,15.17.94,22.71.53,5.59-.3,11.11-1.94,16.66-2.98,3.93-.4,7.86-.75,11.78-1.22,2.66-.32,5.3-.78,7.95-1.18-9.33,2.19-18.57,5.31-28.03,6.32-10.27,1.1-20.76.34-31.15.21-5.43-.07-10.85-.51-16.28-.85-.69-.04-1.45-.4-2.02-.82-1.13-.83-2.15-1.8-3.23-2.73,4.75-1.84,10.12-5.08,15.8-5.78,5.5-.67,11.42.83,16.96,2.21,8.11,2.02,15.78,1.23,23.39-1.84,2-.81,4.15-1.31,6.02-2.33,1.06-.58,1.7-1.93,2.54-2.93-1.32-.36-2.75-1.23-3.94-.97-2.86.61-5.55,2.13-8.42,2.59-4.56.73-9.22.77-13.81,1.35-1.7.22-3.32,1.13-5.32,1.85-2.45-.64-5.83-.82-8.43-2.34-6.7-3.92-12.13-.65-18.06,1.88-2.88,1.23-6.42.89-10.38,1.35,1.33-9.89,2.49-19.23,3.96-28.53.2-1.28,2.52-2.18,2.85-3.51.83-3.29,1.47-6.47,1.29-10.19-.37-7.76,1.32-15.66,2.49-23.45.99-6.63,2.42-13.19,3.36-18.21-5.38-3.07-9.96-5.52-14.35-8.28-1.85-1.17-4.93-3.79-4.65-4.38,1.36-2.77,3.67-5.08,5.68-7.52,1.12-1.36,2.43-2.58,3.46-4,1.22-1.68,2.11-3.62,3.37-5.27,6.68-8.67,16.07-12.95,26.26-15.66,2.23-.59,4.91.72,7.3.46,6.42-.68,12.79-1.76,19.19-2.62,1.02-.14,2.11-.15,3.11.07,6.09,1.31,12.17,2.7,18.3,4.07.19,1.58.34,2.88.49,4.11,3.75.89,7.66.13,8.86,6.02.63,3.08,5.7,5.18,8.61,7.89,1.32,1.23,2.28,2.86,3.41,4.3-1.08,1.13-2.16,2.26-3.25,3.4-2.81,1.75-5.43,4.15-8.48,5.04-2.58.75-3.25,1.76-3.13,4.02-.79-.54-1.57-1.08-3.09-2.13,6.26,26.31,12.33,51.81,18.4,77.3-.17-.05-.34-.09-.52-.14.09,1.57-.04,3.2.33,4.7.55,2.21,1.47,4.33,2.24,6.49-11.31-3.96-22.45-3.05-33.48,1.18,11.57,2.16,23.76,1.95,33.81-.58Z"/><path d="m4.21,82.31c8.5,0,16.63-.09,24.75.14.82.02,2.28,1.94,2.29,2.99.03,15.29-.09,30.59-.28,45.88-.04,3.13,1.28,3.59,4.16,3.5,7.7-.25,15.43-.23,23.13,0,19.88.6,37.51-4.34,48.05-22.55,8.76-15.13,10.95-31.89,6.99-49.13-2.55-11.09-6.57-21.57-15.43-29.33-9.27-8.13-20.18-12.38-32.54-12.41-16.97-.05-33.94.15-50.91.24-5.76.03-13.15-5.55-14.17-11.13C-.25,7.79.16,4.93.16,1.63c6.77,0,12.99-.08,19.2.02,13.44.22,26.88,1,40.31.69,15.02-.34,29.63.89,43.42,7.24,15.29,7.04,25.63,18.74,33.04,33.81,6.06,12.31,7.82,25.44,7.34,38.42-1.08,29.56-15.6,57.97-49.52,68.18-8.5,2.56-16.97,3.5-25.69,3.5-21.26,0-42.53,0-64.06,0v-71.17Z"/><path d="m940.58,153.43c-8.54,0-17.03-.45-25.44.15-5.82.42-9.56-1.63-12.84-6.09-11.86-16.12-23.85-32.15-35.86-48.16-2.66-3.55-5.59-6.89-8.5-10.45-6.68,5.23-10.44,11.4-9.72,20.53.94,12.05.74,24.2.87,36.3.03,2.73-.62,5.47-.93,7.94h-25.61V3.03c3.45,0,6.86-.04,10.26.01,4.14.07,8.45,1,12.37.12,4.3-.97,4.04,1.06,4.04,3.78-.01,8.49,0,16.98,0,25.48,0,13.56,0,27.11,0,41.53,1.58-1.89,2.94-3.56,4.35-5.18,6.93-7.99,13.89-15.95,20.82-23.94,10.8-12.44,21.56-24.91,32.39-37.33,2.61-3,5.21-5.63,10-5.14,5.6.57,11.3.13,18.11.13-1.3,1.87-2.03,3.18-2.99,4.27-13.98,15.87-27.98,31.73-42.02,47.55-3.85,4.34-7.75,8.64-11.81,12.78-1.9,1.93-1.97,3.28-.28,5.47,11.99,15.45,23.77,31.06,35.74,46.53,8.97,11.59,18.14,23.03,27.07,34.35Z"/><path d="m415.58,115.17c4.49,3.12,7.69,5.57,11.11,7.69,11.58,7.17,23.61,13.18,37.77,12.37,11.83-.68,21.44-5.13,25.08-15.53,2.83-8.06.25-17.51-7.41-21.33-10.3-5.14-21-9.5-31.65-13.91-11.04-4.57-21.94-9.11-29.15-19.48-7.44-10.71-8.62-22.4-4.86-34.37,5.57-17.75,19.31-26.2,36.71-29.17,16.64-2.84,32.83-1.11,48.41,6.03,3.82,1.75,5.34,3.58,5.14,7.69-.3,5.94-.08,11.91-.08,18.12-7.52-3.66-14.09-7.62-21.17-10.15-13.31-4.75-26.81-6.07-39.06,3.06-8.63,6.44-9.94,19.22.03,25.22,9.02,5.43,19.2,8.95,28.93,13.19,12.18,5.3,24.86,9.59,33.2,21.12,5.93,8.2,7.56,17.21,7.13,26.98-1.03,23.21-18.62,36.58-37.93,40.76-12.19,2.63-24.41,1.89-36.25-.59-8.19-1.72-15.81-6.29-23.56-9.88-1.17-.54-2.23-2.65-2.27-4.07-.23-7.38-.1-14.77-.1-23.74Z"/><path d="m634.07,33.55c-8.14-3.95-15.19-8.3-22.84-10.86-11.34-3.8-23.14-5.1-34.24,1.18-13.6,7.68-13.91,22.6-.09,30.27,7.96,4.42,16.93,7.01,25.38,10.58,12.56,5.31,26.05,9.43,34.12,21.58,5.32,8.02,7.23,17.04,6.42,26.88-.85,10.46-4.45,19.51-11.68,26.88-9.01,9.19-20.58,12.98-33.11,14.37-13.75,1.53-27.09-.18-39.99-5.13-4.29-1.65-8.53-3.51-12.58-5.67-1.31-.7-2.72-2.63-2.77-4.04-.27-7.62-.13-15.26-.13-24.25,3.93,2.71,7,4.94,10.17,7.01,12.29,8.02,25.28,13.99,40.46,12.9,8.22-.59,16.02-2.91,20.81-10.03,6.05-8.98,5.11-21.63-6.14-27.7-9.31-5.02-19.29-8.85-29.12-12.83-10.14-4.1-20.09-8.29-27.9-16.39-5.05-5.23-7.85-11.38-8.26-18.44-.5-8.67-.84-17.31,3.44-25.54,5.01-9.64,13.05-15.72,22.62-19.56,14.92-5.98,30.5-5.84,45.94-2.18,6.01,1.43,11.72,4.15,17.48,6.5.91.37,1.91,1.87,1.93,2.86.16,7.28.09,14.57.09,21.62Z"/><path d="m728.44,2.75c22.48,50.57,44.57,100.26,66.83,150.33h-29.39c-3.62-8.13-7.39-16.62-11.17-25.12-.67-1.5-1.65-2.93-1.96-4.49-1.41-7.21-6.3-7.51-12.39-7.3-12.63.43-25.29.14-37.93.14-8.27,0-8.66.39-11.58,8.1-3.25,8.56-6.71,17.03-10.14,25.52-1.18,2.91-2.68,4.86-6.62,4.21-3.98-.66-8.15-.14-13.12-.14,2.25-5.84,4.23-11.35,6.47-16.76,5.82-14.08,11.8-28.08,17.62-42.16,8.46-20.46,16.81-40.97,25.28-61.44,3.68-8.9,7.29-17.84,11.46-26.5.93-1.93,4.09-2.78,6.63-4.38Zm12.46,94.43c-6.74-15.2-13.22-29.81-19.94-44.96-6.16,15.19-12.1,29.85-18.22,44.96h38.16Z"/><path d="m184.95,2.54c9.11.45,17.68.88,27.02,1.34,0,1.66,0,3.4,0,5.15.07,22.1.1,44.21.21,66.31.1,21.73.57,43.47.32,65.2-.2,17.72-5.89,33.31-21.26,43.64-4.65,3.12-10.17,5.27-15.59,6.8-4.48,1.26-9.41.94-14.44,1.34v-20.65c16.29-1.18,19.91-9.5,22.71-18.93.97-3.28.95-6.92.96-10.4.08-32.96.07-65.93.08-98.89,0-13.45,0-26.9,0-40.9Z"/><path d="m87.21,67.74c-5.92,7.83-11.65,15.4-17.85,23.61-1.68-1.93-3.03-3.28-4.15-4.81-6.33-8.65-13.86-15.52-24.13-19.63-12.41-4.96-22.79-1.48-32.81,5.67-1.26.9-2.5,1.83-4.22,3.08v-34.54c28.81-12.24,64.22-.35,83.16,26.63Z"/><path d="m599.44,211.28c.35-3.57.67-6.89.93-9.61-2.5-1.75-4.62-3.24-7.16-5.02-.17.14-1.04.87-2.02,1.68.92,1.6,1.81,3.14,2.7,4.69l-.74,1.11c-2.6-.63-5.2-1.27-7.93-1.93-.99,2.99-1.94,5.87-2.88,8.75-.53,0-1.05,0-1.58,0-.35-3.15-.71-6.3-1.09-9.7-4.79,2.27-9.74,4.62-14.94,7.09-.65-.59-1.88-1.72-3.06-2.79,2.32-5.45,4.67-11,7.03-16.54-.4-.28-.81-.56-1.21-.84-5.53,6.95-6.79,17.18-15.23,22.5v-15.57c-2.49.86-4.68,1.63-6.87,2.39.03.28.06.56.09.84,1.8.37,3.6.74,5.4,1.11.16.51.33,1.03.49,1.54-4.21,2.62-8.42,5.24-12.35,7.68-1.37-1.08-2.83-2.23-3.99-3.14,2.2-4.65,4.47-9.42,6.7-14.2.2-.43.35-1.04.2-1.46-.72-2.15-2.54-3.89.92-5.96,4.51-2.7,8.89-2.11,13.39-1.08.76.18,1.33,2.35,1.51,3.66.26,1.85.06,3.76.06,5.79,2.75-3.57,5.3-6.89,7.85-10.2.19.48.37.97.56,1.45,1.55,0,3.12.17,4.63-.04,2.23-.31,4.43-.87,6.63-1.37,3.32-.76,6.39,3.04,10.38-.21,1.21-.99,6.45,2.96,10.1,4.77.42-.67,1.52-2.47,2.63-4.26.53.06,1.06.11,1.58.17v9.14c2.27-3.77,4.24-7.06,6.23-10.37,4.2,4.45-2.55,28.31-8.98,29.94Zm-27.78-13.6c.17.56.34,1.11.5,1.67,2.28-3.13,7.04,3.12,8.4-2.82.73-3.2.74-6.57,1.22-11.3-3.18,2.08-5.21,3.4-7.07,4.62,2.25,1.48,3.74,2.45,5.22,3.42-1.66.97-3.31,1.98-5,2.9-1.05.57-2.17,1.01-3.26,1.51Z"/><path d="m541.43,261.7q-2.67.04-3.07,11.01-3.2.52-4.54-8.29c-1.58,1.95-2.71,3.34-3.96,4.88-4.06-3.18-6.67-9.72-14.2-6.58,3.34,1.89,6.22,3.52,9.83,5.56-4.39,1.91-7.8,3.4-11.2,4.88l.22,1c1.65.13,3.3.26,4.99.39-2.81,11.29-7.8,16.17-15.98,15.24,0-8.87-.34-17.84.27-26.74.13-1.89,3.55-3.89,5.8-5.24,4.63-2.79,9.55-5.1,14.27-7.75,3.45-1.94,6.3-2.11,9.91.37,5.67,3.89,11.98,6.82,17.92,10.33,1,.59,2.03,2.07,2.09,3.18.4,7.38.59,14.77.73,22.16.09,5.11-2.7,6.24-7.39,4.8-6.55-2.01-7.16-5.46-5.93-11.58,1.12-5.53.24-11.46.24-17.61Z"/><path d="m616.22,181.11c8.76.96,12.59,4.58,9.7,12.74.43.09.87.19,1.3.28,1.11-1.17,2.34-2.25,3.32-3.51,3.19-4.12,5.5-9.22,11.4-10.44-.5,4.27-.97,8.23-1.43,12.18.37.13.75.27,1.12.4,1.92-3.47,3.85-6.94,5.77-10.41.47-.04.94-.07,1.41-.11.63,2.2,1.25,4.39,1.95,6.87,1.42-2.62,2.9-5.37,4.66-8.62,3.83,6.66-3.07,29.51-9.17,30.75,1.65-6.41,1.05-11.96-6.34-14.4-.7,2.44-1.2,5.17-2.32,7.61-.54,1.19-2.25,1.85-3.43,2.75-.46-1.49-1.12-2.96-1.3-4.48-.12-1.01.46-2.1.73-3.15l-1.18-.9c-1.27,2.21-2.54,4.42-4.11,7.16-1.9-3.71-2.94-5.76-4.25-8.3-4.98,5.78-8.5,12.16-17.54,9.31,1.44-4.44,2.91-8.55,4.06-12.75.65-2.37.23-5.14,1.23-7.28,1.14-2.43,3.33-4.37,4.4-5.69Zm-1.38,17.97l.54.32c1.97-2.71,4.1-5.31,5.79-8.19.43-.73-.59-2.29-.94-3.48-.73.78-1.76,1.43-2.14,2.35-1.21,2.94-2.18,5.98-3.25,8.99Z"/><path d="m687.96,185.23c11.29-5.59,13.17-5.61,17,.01,4.87-4.78,10.17-4.66,17.21-.5-4.18,1.6-7.09,2.71-11.45,4.38,2.5,1.37,4.15,2.27,6.87,3.75-3.1,2.01-5.73,3.72-7.91,5.13,1.58.87,3.17,1.74,4.76,2.62-1.36,1.18-2.62,2.51-4.11,3.5-2.63,1.76-5.4,3.3-8.37,5.09-1.06-1.53-2.38-3.44-3.85-5.58-2.19,1.12-4.68,2.71-7.39,3.68-4.27,1.52-6.2-.21-5.16-4.51,1.06-4.37,2.42-8.67,3.65-13-.38-.3-.77-.59-1.15-.89-.91,1.3-2.06,2.5-2.69,3.93-1.71,3.92-3.1,7.98-4.83,11.88-.38.85-1.66,1.31-2.53,1.94-.55-1.03-1.8-2.29-1.55-3.06,2.12-6.5,4.24-13.02,6.95-19.29,1.35-3.13,3.63-3.59,4.57.89Zm18.39,3.88c-.53-.31-1.06-.61-1.59-.92-.85,2.69-6.55,2.96-3.35,8.53,1.91-2.95,3.42-5.28,4.93-7.61Z"/><path d="m389.4,207.87c-.15-2.68-.3-5.35-.5-8.88-1.09,1.4-2.06,2.42-2.78,3.6-1.67,2.76-3.09,2.09-4.17-.31-1.72-3.82-3.85-7.15,2.63-9.65,3.44-1.33,5.43-6.29,8.26-9.43.95-1.06,2.51-1.57,4.22-2.58q-.98,11.23,3.24,11.69c1.14-3.93-.09-9.44,6.36-10.42.42,3.9.87,8.09,1.39,12.89,2.54-4.36,4.7-8.09,6.86-11.81.44.17.89.34,1.33.51v9.63c2.65-4.47,4.79-8.09,6.93-11.71.61.23,1.21.47,1.82.7.63,9.31-5.06,16.85-7.77,25.82-5.75-4.16-.92-8.68-2.04-13.69-1.94,5.34-3.52,9.68-5.17,14.21-6.74,1.08-2.52-6.57-6.71-8.13-1.12,1.55-2.49,3.44-3.87,5.33-.38-.12-.75-.24-1.13-.36v-9.26c-.33-.18-.65-.36-.98-.54-2.05,4.21-4.11,8.41-6.16,12.62-.59-.07-1.18-.14-1.76-.22Z"/><path d="m491.59,186.94c-.7,1.28-1.61,2.49-2.07,3.86-1.98,5.84-3.82,11.72-5.71,17.59-.66-.05-1.32-.11-1.99-.16-.37-2.78-.74-5.56-1.21-9.02-1.03.51-2.57,1.05-3.83,1.96-2.46,1.79-4.67,3.92-7.16,5.64-.85.59-2.26.37-3.41.53.05-1.33-.44-3.16.25-3.89,1.7-1.79,3.93-3.06,6.16-4.7-6.68-4.83-6.97-5.08-2.57-10.16,2.28-2.63,6.71-6.55,8.59-5.82,6.66,2.59,13.42-3.8,19.8,1.48.08,1.27.18,3.02.35,5.84,2.23-3.45,3.93-6.08,5.62-8.71.46.18.92.36,1.38.55,1,10.81-3.6,20.16-7.71,29.64-.66-.06-1.33-.13-1.99-.19v-10.26c-5.97-.96-6.31-3.15-4.5-14.18Zm-10.2,9.39c.93-2.27,1.76-4.28,2.57-6.27-2.15-.9-3.83-1.61-5.6-2.35-1.13,1.5-2.16,2.87-3.18,4.23,1.83,1.29,3.66,2.59,6.21,4.39Z"/><path d="m458.78,193.49c-2.42,1.46-4.83,2.91-7.76,4.67,2.26.51,3.99.9,5.72,1.3.24.55.49,1.11.73,1.66-4.25,2.42-8.5,4.85-13.1,7.47-1.14-2.69-3.26-3.03-6.78,1.23v-13.49c-1.44,1.67-2.32,2.69-3.48,4.03-1.1-1.17-2.06-2.19-2.69-2.86-1.31,3.68-2.74,7.69-4.29,12.05-4.69-3.95-1.02-21.86,5.48-29.11.74,3.29,1.37,6.09,2.23,9.87,2.25-2.39,4.24-4.16,5.82-6.24,2.54-3.34,4.42-2.63,6.2,1.21,2.69-1.59,5.12-3.02,7.31-4.32,2.66.85,5.32,1.71,9.4,3.02-2.4,1.37-3.76,2.08-5.06,2.9-1.28.81-2.48,1.72-3.72,2.59,1,1.01,2,2.02,3.98,4.02Z"/><path d="m509.13,294.05c3.93-4.21,7.23-7.58,10.34-11.11,2.86-3.24,5.24-1.01,7.84.22-.47,2.26-.89,4.32-1.32,6.38l1.59.53c1.13-2.04,2.27-4.07,3.26-5.86,5.07,3.2,10.13,6.41,15.58,9.86-4.39,5.87-10.91,8.48-16.77,11.84-.88.51-3.32-1.58-4.98-2.56-5.21-3.08-10.39-6.2-15.55-9.29Z"/><path d="m516.69,187.68c3.19-5.95,10.74-7.47,18.01-3.46-3.51,1.91-6.7,3.65-10.96,5.97,3.36,1.03,5.19,1.59,7.01,2.15.06.42.11.84.17,1.26-2.77,1.37-5.54,2.73-8.52,4.2,1.79,1.14,3.13,1.98,4.47,2.83-1.31,1.19-2.51,2.56-3.96,3.54-2.37,1.6-4.9,2.96-7.78,4.66-.14-.23-.6-1.03-.37-.63-3.27,0-6.37.92-8.27-.2-3.36-1.98-2.74-6.2-1.63-9.11,2.06-5.39,5.04-10.43,7.77-15.55.36-.68,1.51-.94,2.63-1.58,2.27,8.59-4.32,14.5-5.34,21.76,3.68.13,6.12-2.37,6.28-5.81.08-1.65.79-3.5,1.77-4.84,1.79-2.45,2.56-4.32-1.29-5.18Z"/><path d="m664.47,209.97c.45-8.26.75-15.88,1.38-23.47.1-1.22,1.69-2.32,2.59-3.47.66,1.18,1.5,2.3,1.91,3.56.39,1.18.34,2.5.48,3.8,2.61-2.86,5.17-5.66,8.14-8.92,1.34,8.38-7.45,25.77-14.51,28.49Z"/><path d="m368.75,143.33c-10.05,2.53-22.24,2.74-33.81.58,11.02-4.23,22.17-5.14,33.48-1.18.1.21.21.41.33.6Z" class="cls-1"/><path d="m362.67,47.45c1.08-1.13,2.16-2.26,3.25-3.4.64.71,1.87,1.45,1.83,2.11-.19,2.94-10.39,10.95-13.53,10.82-.26-.01-.51-.37-.76-.57,3.07-2.99,6.15-5.98,9.22-8.97Z"/><path d="m362.67,47.45c-3.07,2.99-6.15,5.98-9.22,8.97-.8.03-1.6.06-2.4.09-.12-2.26.55-3.27,3.14-4.02,3.06-.89,5.68-3.29,8.48-5.04Z" class="cls-1"/><path d="m285.12,153.4c2.41-.11,5.03-.89,7.2-.21,9.71,3.03,19.26,3.02,28.99.11,1.86-.56,4.21.49,6.33.8l-.11-.13c-5.55,1.05-11.07,2.69-16.66,2.99-7.54.41-15.15-.09-22.71-.53-1.17-.07-2.25-1.9-3.37-2.91.11-.04.22-.07.33-.1Z" class="cls-1"/><path d="m327.63,154.09c-.08-.93-.17-1.87-.33-3.74h21.37c-.32.27-.91.77-1.52,1.27-.02,0,.14-.07.13-.06-2.67.41-5.31.87-7.97,1.19-3.92.46-7.85.82-11.78,1.22,0,0,.11.12.11.12Z" class="cls-1"/><path d="m285.12,153.4c-.11.03-.22.07-.33.1-3.01.9-6.03,1.8-9.04,2.7-.21-.66-.41-1.33-.62-1.99,2.97-.86,5.93-1.76,8.92-2.5.21-.05.71,1.1,1.08,1.7Z" class="cls-1"/></g></g></svg>