<?xml version="1.0" encoding="UTF-8"?>
<svg id="Layer_2" data-name="Layer 2" xmlns="http://www.w3.org/2000/svg" viewBox="0 0 923.19 479.81">
  <defs>
    <style>
      .cls-1 {
        fill: #fff;
      }
    </style>
  </defs>
  <g id="Layer_1-2" data-name="Layer 1">
    <g>
      <path class="cls-1" d="m923.16,473.17c-.37-6.63-.08-13.31-.1-19.97-.01-6.92-.02-6.95-6.86-6.95-27.8-.01-55.6,0-83.4,0-6.29,0-6.55-.22-6.56-6.38-.03-15.81-.02-31.63,0-47.44,0-7.47.02-7.48,7.38-7.48,27.8-.01,55.6-.09,83.4.08,4.39.03,5.85-1.32,5.67-5.71-.31-7.64-.27-15.31,0-22.96.14-3.99-1.31-5.19-5.17-5.18-30.46.11-60.93.26-91.39,0-20.06-.16-34.05,16.84-33.51,34,.64,20.29.63,40.62.03,60.91-.56,18.55,15.33,34.4,33.71,33.67,14.46-.57,28.96-.11,43.44-.11h0c15.65,0,31.3-.18,46.95.12,5.16.1,6.68-1.66,6.41-6.62Zm-147.41-88.82c-.03-19.08-12.9-32.74-31.99-32.95-31.12-.36-62.25-.08-93.37-.19-3.8-.02-4.9,1.48-4.82,5.04.17,7.99.15,15.98.01,23.97-.06,3.35,1.05,5.06,4.58,4.77,1.32-.11,2.66-.02,4-.02,27.46,0,54.92-.02,82.39.06,1.86,0,5.2.53,5.32,1.25.6,3.52.77,7.27.09,10.74-.17.88-4.01,1.46-6.17,1.47-27.97.1-55.93.2-83.89-.04-5.18-.04-6.48,1.61-6.37,6.56.3,13.64.02,27.29.12,40.94.15,20.1,13.49,33.54,33.5,33.7,14.48.11,28.96.02,43.44.02v.02c15.65,0,31.3-.2,46.94.11,5.19.11,6.39-1.64,6.35-6.58-.22-29.62-.09-59.25-.13-88.87Zm-32.96,49.14c-.38,14.76,1.88,12.58-12.7,12.75-6.49.07-12.98.01-19.48.01v-.02c-8.82,0-17.64-.09-26.46.05-3.55.05-5.15-1.13-5.07-4.9.33-16-2.03-13.29,12.92-13.44,14.98-.16,29.96.09,44.94-.11,4.26-.05,5.97,1.19,5.85,5.66ZM190.05,192.99c10.76-42.74,21.63-85.45,32.44-128.18,1.87-7.35,3.65-14.73,5.69-23.03h-6.77c-12.81-.01-25.64.28-38.45-.15-5.18-.18-7.31,1.58-8.52,6.44-6.03,24.38-12.39,48.68-18.55,73.02-11.13,44.02-22.19,88.06-33.28,132.09-2.38,9.45-4.71,18.92-7.03,28.24,1,.44,1.3.69,1.6.69,30.63.05,61.26.12,91.89.01,1.23,0,3.2-1.4,3.57-2.55,2.79-8.68,5.26-17.45,8.16-27.28h-6.5c-10.99,0-21.98.02-32.97,0-5.76-.02-5.83-.18-4.51-5.52,4.42-17.92,8.72-35.88,13.23-53.78Zm-34.79-151.19c-29.96-.02-59.93.03-89.9-.1-3.51,0-4.58,1.74-5.31,4.58-7.59,29.48-15.27,58.93-22.82,88.42C25.14,181.91,13.11,229.14,1.08,276.37c-.43,1.69-.63,3.43-1.08,5.9h45.06c7.5,0,7.42-.03,9.18-7.26,8.41-34.42,16.91-68.82,25.25-103.25.82-3.42,2.5-4.6,5.88-4.55,9.33.13,18.65.09,27.97.02,10.57-.08,8.62,1.35,11.33-8.87,1.72-6.5,3.15-13.07,4.9-20.41h-6.35c-9.16,0-18.31.01-27.47,0-5.87-.02-6.16-.39-4.76-5.89,4.59-18.07,9.26-36.11,13.73-54.2.94-3.78,2.9-5.03,6.69-4.97,11.65.18,23.31.15,34.96-.04,1.68-.03,4.48-1.03,4.81-2.15,2.71-9.21,4.96-18.56,7.51-28.48-1.82-.22-2.62-.41-3.43-.41ZM556.89.7c-3.12-.29-4.87-.58-6.63-.58-12.32-.04-24.64.14-36.96-.12-4.58-.09-7.22,1.56-9.47,5.54-30.67,54.15-61.48,108.22-92.23,162.33-.85,1.49-1.36,3.18-2.5,5.92h53c-26.58,50.52-52.44,99.67-78.52,149.24,1.9.55,2.82,1.04,3.73,1.04,14.65.03,29.3.15,43.94-.2,1.88-.05,4.43-2.19,5.46-4.04,13.87-25.04,27.59-50.15,41.21-75.32,18.06-33.36,36-66.77,53.97-100.17.81-1.51,1.4-3.14,2.65-5.98h-51.55c24.91-46.39,49.15-91.56,73.9-137.66Zm64.39,411.68c-.31-5.51-3.55-10.86-5.41-16.3-.57-1.67-1.44-3.41-1.38-5.08.51-12.77,1.71-25.53,1.73-38.29.03-19.05-14.73-33.3-33.72-33.31-38.1-.02-76.21.01-114.31.03-7.11,0-7.16.02-7.13,7.3.23,44.24.48,88.48.72,132.72.03,4.49,0,8.98.01,13.47,0,6.7.02,6.72,6.53,6.73,20.14.01,40.27,0,60.4,0s39.93.1,59.9-.03c17.16-.1,30.74-11.43,32.34-28.4,1.21-12.86,1.03-25.93.32-38.84Zm-119.9-57.56c12.47.11,24.94.05,37.41.05s23.95.12,35.92-.07c4-.06,5.77,1.13,5.54,5.38-.28,5.14-.2,10.31-.02,15.45.12,3.54-1.03,5.09-4.82,5.07-24.77-.11-49.55-.09-74.32-.02-3.15.01-4.57-1.06-4.49-4.33.13-5.65.16-11.31-.01-16.95-.11-3.54,1.45-4.61,4.79-4.58Zm80.8,90.96c-6.07-.07-12.13-.09-18.2-.09-7.59,0-15.17.03-22.76.03-5.56,0-11.12-.03-16.67-.05-7.6-.02-15.19-.01-22.78.16-4.98.11-6.39-1.77-6.19-6.41.28-6.48.14-12.98.07-19.47-.04-3.17,1.31-4.48,4.49-4.48,27.64.05,55.28.06,82.91.01,3.29-.01,4.34,1.5,4.28,4.6-.13,6.83-.21,13.66.04,20.48.14,3.94-1.31,5.26-5.19,5.22ZM390.97,40.79c-18.65-.04-37.29.12-55.94-.14-4.97-.08-7.38,1.76-9.22,6.28-10.05,24.65-20.56,49.11-30.62,73.75-19.99,48.96-39.79,98-59.68,147.01-1.81,4.45-3.67,8.88-5.77,13.97,1.6.29,2.38.54,3.16.56,13.46.38,26.92.9,40.38,1.02,10.73.1,8.91,1.56,12.72-8.59,18.29-48.75,36.42-97.55,54.63-146.32.44-1.2,1.11-2.31,1.68-3.47-.59,12.27-2.26,24.09-3.82,35.92-2.84,21.61-5.6,43.22-8.44,64.83-2.32,17.64-4.65,35.27-7.12,52.89-.49,3.54.6,4.84,4.15,4.81,14.65-.09,29.3-.08,43.95,0,3.37.02,4.76-1.52,5.05-4.74,2.42-26.84,4.94-53.68,7.36-80.53,2.56-28.32,4.98-56.66,7.61-84.97,2.01-21.7,4.28-43.36,6.37-65.05.65-6.73.18-7.21-6.45-7.23Zm301.66.04c-13.15-.03-26.3.14-39.45-.11-4.33-.08-6.22,1.51-7.21,5.61-6.45,26.67-12.99,53.31-19.68,79.92-2.82,11.24-3.02,11.05-14.5,10.74-4.12-.11-4.82-1.75-3.82-5.29,1.93-6.88,3.72-13.79,5.55-20.7,5.64-21.38,11.33-42.75,16.88-64.15,1.47-5.66,1.05-6.05-4.74-6.07-13.15-.04-26.3.16-39.45-.12-4.56-.1-6.35,1.59-7.42,5.9-8.05,32.27-16.36,64.46-24.53,96.7-6.62,26.1-13.13,52.24-19.74,78.35-4.65,18.38-9.4,36.73-14.06,55.11-1.51,5.94-.97,6.57,5.25,6.57,13.15.02,26.3-.15,39.45.09,4.14.07,5.86-1.43,6.81-5.36,4.33-18.11,8.94-36.14,13.41-54.22,4.23-17.1,8.35-34.24,12.67-51.32.38-1.49,1.79-3.72,2.93-3.85,4.03-.47,8.16-.19,13.2-.19-5.29,20.69-10.23,40.15-15.25,59.58-4.31,16.75-8.64,33.49-13.13,50.19-1.07,3.95.28,5.12,4.02,5.11,14.98-.08,29.96-.08,44.94,0,3.17.02,4.76-1.15,5.55-4.34,6.88-27.59,13.9-55.15,20.88-82.71,7.92-31.27,15.85-62.54,23.78-93.81,4.58-18.05,9.23-36.08,13.75-54.14,1.66-6.63.91-7.46-6.09-7.48Z"/>
      <path d="m614.18,168.45c-5.04,0-9.17-.29-13.2.18-1.13.13-2.54,2.36-2.92,3.85-4.32,17.08-8.45,34.22-12.68,51.32-4.47,18.07-9.08,36.11-13.41,54.21-.94,3.93-2.66,5.44-6.81,5.36-13.14-.24-26.3-.07-39.45-.09-6.22,0-6.76-.63-5.26-6.57,4.66-18.38,9.42-36.73,14.07-55.12,6.61-26.11,13.12-52.24,19.73-78.35,8.17-32.23,16.48-64.43,24.53-96.7,1.07-4.31,2.86-6,7.43-5.9,13.14.28,26.3.08,39.45.12,5.79.02,6.21.41,4.74,6.07-5.55,21.4-11.24,42.77-16.88,64.14-1.83,6.91-3.62,13.83-5.55,20.71-.99,3.54-.3,5.18,3.82,5.29,11.48.3,11.68.49,14.5-10.75,6.69-26.61,13.23-53.25,19.68-79.91.99-4.1,2.88-5.7,7.21-5.61,13.14.25,26.3.08,39.45.11,7,.02,7.75.84,6.09,7.48-4.52,18.06-9.17,36.09-13.75,54.14-7.93,31.27-15.86,62.54-23.78,93.81-6.98,27.56-14,55.12-20.87,82.71-.79,3.19-2.38,4.36-5.55,4.35-14.98-.07-29.96-.07-44.94,0-3.74.02-5.09-1.15-4.03-5.1,4.49-16.7,8.82-33.44,13.14-50.19,5.01-19.44,9.96-38.89,15.25-59.58Z"/>
      <path d="m229.74,281.66c2.1-5.09,3.96-9.52,5.76-13.97,19.89-49.01,39.69-98.05,59.69-147.01,10.06-24.64,20.57-49.11,30.62-73.75,1.84-4.52,4.25-6.35,9.22-6.28,18.64.27,37.29.11,55.94.15,6.63.01,7.1.5,6.45,7.23-2.09,21.68-4.36,43.35-6.37,65.04-2.63,28.32-5.04,56.66-7.6,84.98-2.43,26.84-4.94,53.68-7.36,80.53-.29,3.22-1.69,4.75-5.05,4.74-14.65-.08-29.3-.09-43.95,0-3.55.02-4.64-1.27-4.15-4.81,2.47-17.62,4.8-35.26,7.12-52.9,2.84-21.6,5.6-43.22,8.44-64.83,1.56-11.83,3.22-23.65,3.81-35.92-.56,1.15-1.23,2.27-1.68,3.46-18.21,48.77-36.33,97.58-54.63,146.32-3.81,10.15-1.99,8.69-12.72,8.6-13.46-.12-26.92-.64-40.38-1.02-.78-.02-1.56-.27-3.16-.56Z"/>
      <path d="m621.28,412.38c-.31-5.51-3.55-10.86-5.41-16.3-.57-1.67-1.44-3.41-1.38-5.08.51-12.77,1.71-25.53,1.73-38.29.03-19.05-14.73-33.3-33.72-33.31-38.1-.02-76.21.01-114.31.03-7.11,0-7.16.02-7.13,7.3.23,44.24.48,88.48.72,132.72.03,4.49,0,8.98.01,13.47,0,6.7.02,6.72,6.53,6.73,20.14.01,40.27,0,60.4,0s39.93.1,59.9-.03c17.16-.1,30.74-11.43,32.34-28.4,1.21-12.86,1.03-25.93.32-38.84Zm-119.9-57.56c12.47.11,24.94.05,37.41.05s23.95.12,35.92-.07c4-.06,5.77,1.13,5.54,5.38-.28,5.14-.2,10.31-.02,15.45.12,3.54-1.03,5.09-4.82,5.07-24.77-.11-49.55-.09-74.32-.02-3.15.01-4.57-1.06-4.49-4.33.13-5.65.16-11.31-.01-16.95-.11-3.54,1.45-4.61,4.79-4.58Zm80.8,90.96c-6.07-.07-12.13-.09-18.2-.09-7.59,0-15.17.03-22.76.03-5.56,0-11.12-.03-16.67-.05-7.6-.02-15.19-.01-22.78.16-4.98.11-6.39-1.77-6.19-6.41.28-6.48.14-12.98.07-19.47-.04-3.17,1.31-4.48,4.49-4.48,27.64.05,55.28.06,82.91.01,3.29-.01,4.34,1.5,4.28,4.6-.13,6.83-.21,13.66.04,20.48.14,3.94-1.31,5.26-5.19,5.22Z"/>
      <path d="m383.58,323.04c26.08-49.57,51.95-98.73,78.53-149.24h-53.01c1.15-2.74,1.66-4.43,2.51-5.92,30.75-54.11,61.56-108.17,92.23-162.33,2.25-3.98,4.89-5.64,9.47-5.54,12.31.26,24.64.07,36.96.11,1.76,0,3.51.3,6.63.58-24.75,46.1-49,91.27-73.9,137.67h51.55c-1.25,2.84-1.85,4.47-2.66,5.97-17.97,33.4-35.91,66.82-53.96,100.17-13.62,25.17-27.35,50.29-41.22,75.32-1.02,1.85-3.57,4-5.46,4.04-14.64.35-29.29.23-43.93.2-.92,0-1.84-.49-3.74-1.04Z"/>
      <path d="m158.69,42.22c-2.55,9.92-4.8,19.26-7.51,28.47-.33,1.12-3.13,2.13-4.81,2.15-11.65.19-23.31.22-34.96.04-3.79-.06-5.75,1.19-6.69,4.97-4.47,18.09-9.15,36.13-13.74,54.19-1.4,5.51-1.11,5.87,4.76,5.89,9.16.03,18.31.01,27.47.01,1.78,0,3.57,0,6.35,0-1.76,7.34-3.19,13.91-4.91,20.41-2.71,10.22-.76,8.79-11.32,8.87-9.32.07-18.65.11-27.97-.02-3.38-.05-5.06,1.13-5.89,4.55-8.34,34.44-16.84,68.84-25.24,103.26-1.77,7.23-1.68,7.25-9.18,7.26-12.99,0-25.97,0-38.96,0-1.78,0-3.57,0-6.1,0,.44-2.47.65-4.22,1.08-5.91,12.03-47.23,24.05-94.46,36.15-141.67,7.55-29.48,15.23-58.94,22.82-88.41.73-2.84,1.8-4.6,5.31-4.58,29.97.13,59.94.08,89.91.1.8,0,1.61.19,3.42.41Z"/>
      <path d="m220.8,252.29c-2.89,9.83-5.37,18.6-8.16,27.28-.37,1.15-2.33,2.55-3.56,2.55-30.63.1-61.26.04-91.89-.02-.3,0-.6-.25-1.61-.69,2.32-9.33,4.66-18.79,7.04-28.24,11.08-44.03,22.15-88.07,33.28-132.09,6.15-24.35,12.52-48.64,18.55-73.02,1.2-4.86,3.33-6.62,8.52-6.44,12.8.43,25.63.15,38.45.15,1.94,0,3.88,0,6.77,0-2.05,8.3-3.83,15.68-5.69,23.04-10.81,42.73-21.68,85.44-32.45,128.18-4.51,17.9-8.81,35.85-13.23,53.77-1.32,5.34-1.25,5.51,4.52,5.52,10.99.03,21.98,0,32.96,0,1.8,0,3.59,0,6.5,0Z"/>
      <path d="m775.75,384.35c-.03-19.08-12.9-32.74-31.99-32.95-31.12-.36-62.25-.08-93.37-.19-3.8-.02-4.9,1.48-4.82,5.04.17,7.99.15,15.98.01,23.97-.06,3.35,1.05,5.06,4.58,4.77,1.32-.11,2.66-.02,4-.02,27.46,0,54.92-.02,82.39.06,1.86,0,5.2.53,5.32,1.25.6,3.52.77,7.27.09,10.74-.17.88-4.01,1.46-6.17,1.47-27.97.1-55.93.2-83.89-.04-5.18-.04-6.48,1.61-6.37,6.56.3,13.64.02,27.29.12,40.94.15,20.1,13.49,33.54,33.5,33.7,14.48.11,28.96.02,43.44.02v.02c15.65,0,31.3-.2,46.94.11,5.19.11,6.39-1.64,6.35-6.58-.22-29.62-.09-59.25-.13-88.87Zm-32.96,49.14c-.38,14.76,1.88,12.58-12.7,12.75-6.49.07-12.98.01-19.48.01v-.02c-8.82,0-17.64-.09-26.46.05-3.55.05-5.15-1.13-5.07-4.9.33-16-2.03-13.29,12.92-13.44,14.98-.16,29.96.09,44.94-.11,4.26-.05,5.97,1.19,5.85,5.66Z"/>
      <path d="m869.8,479.67c-14.48,0-28.99-.46-43.45.12-18.38.73-34.26-15.13-33.71-33.67.6-20.29.61-40.63-.03-60.92-.54-17.16,13.46-34.16,33.51-34,30.46.25,60.93.1,91.4,0,3.86-.01,5.3,1.19,5.16,5.18-.27,7.65-.31,15.32,0,22.97.18,4.39-1.28,5.73-5.67,5.71-27.8-.17-55.6-.09-83.4-.08-7.35,0-7.37.01-7.38,7.48-.01,15.81-.03,31.63,0,47.44.01,6.16.27,6.38,6.56,6.38,27.8,0,55.6-.02,83.41-.01,6.84,0,6.85.03,6.86,6.96.01,6.66-.27,13.33.1,19.97.27,4.95-1.25,6.72-6.42,6.62-15.64-.3-31.3-.11-46.94-.11v-.02Z"/>
      <path class="cls-1" d="m563.98,445.69c-7.58,0-15.17.03-22.76.04-5.55,0-11.11-.04-16.67-.06,5.55.02,11.11.05,16.67.05,7.59,0,15.17-.03,22.76-.03Z"/>
    </g>
  </g>
</svg>