<?xml version="1.0" encoding="UTF-8"?>
<svg id="Layer_2" data-name="Layer 2" xmlns="http://www.w3.org/2000/svg" viewBox="0 0 1598.41 227.02">
  <defs>
    <style>
      .cls-1 {
        fill: #fff;
      }
    </style>
  </defs>
  <g id="Layer_1-2" data-name="Layer 1">
    <g>
      <path class="cls-1" d="m140.47,159.93c-.09-32.35.12-64.71-.21-97.06-.11-11.16,1.23-20.8,13.73-24.69.84-.26,1.39-1.4,3.3-3.43h-58.29c1.37,2.03,2.84,2.81,4.41,3.15,15.44,3.29,17.48,5.72,17.36,21.53-.09,12.37-.73,24.76-.34,37.11.23,7.05-2.32,9.32-9.11,9.28-23.11-.14-46.22-.01-69.32.32-5.5.08-6.78-2.52-6.69-7.19.21-12.09.66-24.19.35-36.27-.32-12.52,2.49-22.4,16.73-25,.85-.15,1.52-1.23,2.9-2.41H1c3.65,3.79,8.07,5.4,11.24,8.35,2.55,2.37,5.05,6.34,5.07,9.62.26,34.87-.09,69.75-.05,104.62.02,18.7.22,18.69-16.6,26.17-.16.07-.21.4-.66,1.31h53.95c-.88-1.69-1.82-2.23-2.85-2.48-13.64-3.27-15.25-5.09-15.31-18.69-.06-14.07.2-28.14.09-42.2-.04-4.65,1.55-6.48,6.38-6.39,13.53.25,27.06.11,40.58.12h37.51c0,15.56-.64,30.16.16,44.68,1.05,18.92.64,19.99-18.09,22.31-1.54.19-3.02.8-4.54,1.21.05.49.09.97.13,1.46h61.12c-18.53-7.72-18.61-7.72-18.66-25.43Zm1085.78,23c-14.86-3.14-26.87-11.17-37.47-21.63-13.41-13.23-26.83-26.44-40.18-39.73-1.49-1.48-2.54-3.41-4.34-5.9,3.24-1.83,5.82-3.36,8.47-4.77,17.37-9.23,25.9-27.91,19.91-45.39-4.6-13.41-15-21.65-27.9-26.39-29.24-10.75-58.95-4.19-88.52-1.53-.86.08-1.6,1.62-3.19,3.33,4.64.26,8,.25,11.31.67,7.31.92,12.34,4.7,12.36,12.45.13,37.67.04,75.34-.03,113.01-.02,8.3-4.56,12.86-12.53,14.39-2.69.52-5.33,1.23-8,1.85.14.53.28,1.05.42,1.58h60.34c.04-.62.08-1.24.12-1.86-3.48-.78-7.38-.84-10.35-2.53-4.14-2.37-10.59-5.75-10.83-9.06-1.12-16.08-.51-32.28-.51-48.43,6.48,0,11.85.54,17.07-.13,8.47-1.08,15.5,1.05,21.53,7.04,10.99,10.9,21.65,22.19,33.27,32.37,8.78,7.7,18.33,14.86,28.49,20.58,10.9,6.14,23.36,3.84,35.39,3.1-1.48-1.73-3.09-2.65-4.83-3.02Zm-100.19-65.71c-9.86,1.47-19.91,1.68-30.54,2.51-.16-3.64-.39-6.07-.36-8.5.24-21.62.68-43.23.7-64.85.01-5.72,1.91-8.27,7.75-8.16,13.52.24,27.08-.22,38.31,9.5,13.92,12.07,13.57,27.71,10.46,43.48-2.78,14.09-11.49,23.82-26.32,26.02ZM350.78,34.89h-52.79c1.98,2.45,4.2,3.52,6.49,4.39,14.67,5.61,15.61,6.86,15.69,22,.12,24.47.09,48.95.31,73.42.25,26.46-18.88,47.18-44.42,47.84-25.25.65-48.34-21.78-48.5-47.43-.17-26.15.17-52.29-.17-78.43-.1-8.58,3.67-13.75,11.04-17.08,2.73-1.24,5.42-2.57,10.32-4.89h-59.61c-.45.77-.91,1.53-1.36,2.3,20.02,1.54,22.68,14.22,22.18,30-.66,21.07-.34,42.18-.24,63.28.21,45.31,35.36,70.43,78.19,59.91,25.06-6.15,42.08-30.52,42.6-59.41.43-23.62-.14-47.26-.38-70.89-.12-10.99,3.05-16.01,13.14-19.94,2.67-1.04,5.34-2.08,8-3.12-.16-.65-.33-1.3-.49-1.95Zm1244.71,118.14c-.82,2.31-1.82,4.58-2.42,6.94-2.3,9.1-7.72,15.48-17.23,16.02-15.41.86-30.91,1.17-46.31.46-3.39-.16-9.2-5.43-9.35-8.56-.89-18.42-.44-36.92-.44-55.79,15.2,0,29.52-.49,43.77.35,3.52.21,7.34,4.28,10.01,7.43,2.28,2.7,3.12,6.63,4.6,10.01.57-.18,1.14-.35,1.71-.53v-40.96c-3.13,2.28-4.86,4.99-6.03,7.92-2.17,5.43-6.06,7.72-11.78,7.69-11.55-.05-23.11-.12-34.65.16-5.77.14-7.93-1.9-7.79-7.85.35-14.91.31-29.83.01-44.73-.1-5.26,1.88-6.94,6.86-6.89,14.93.16,29.87.17,44.8-.01,5.64-.07,8.94,2.48,10.79,7.53,1.96,5.33,4.01,10.64,6.02,15.96.38-.09.76-.17,1.14-.26v-30.21c-22.19-3.85-105.5-1.79-111.41,2.99,1.46.3,2.47.76,3.41.66,20.47-2.19,20.52,6.13,20.66,20.98.33,33.48.06,66.96-.4,100.43-.17,12.49-5.62,17.64-18,18.99-3.11.34-6.23.52-9.35.78,1.25,2.22,2.47,2.85,3.69,2.85,37.47,0,74.93-.03,112.4-.21,1.68-.01,4.68-1.24,4.82-2.22,1.4-9.82,2.33-19.71,3.39-29.57-.98-.12-1.95-.24-2.92-.36Zm-135.47-9.68c-.72-.05-1.44-.1-2.15-.15-.96,3.6-1.96,7.19-2.85,10.81-4.89,19.83-9.3,23.31-29.81,23.26-20.28-.05-40.56-.2-60.84-.2-4.62,0-9.25.46-13.87.7-.6-.95-1.21-1.9-1.81-2.85,35.43-45.21,70.85-90.43,106.96-136.52-3.25-.73-5.61-1.71-7.99-1.73-35.5-.2-71.01-.2-106.51-.44-5.06-.03-7.2,1.86-7.22,6.84-.01,7.04-.42,14.07-.39,21.1,0,1.79,1.04,3.58,1.61,5.37,1.94-2.22,2.16-4.1,2.46-5.97,2.33-14.45,7.17-19.32,20.46-18.98,20.28.5,40.58.1,60.87.23,2.8.02,5.6.9,9.52,1.58-36.14,46.33-71.26,91.37-106.98,137.16,2.91.66,4.5,1.33,6.09,1.33,41.14.12,82.28.12,123.42.29,5.74.02,7.18-3.27,7.53-7.98.62-8.41,1.37-16.82,1.87-25.23.17-2.86-.23-5.75-.37-8.62Zm-438.41-99.07c-5.31-3.47-11.57-5.76-17.69-7.66-21.63-6.74-43.6-.93-65.42-1.07-4.6-.03-9.22,2.33-13.84,3.58,1.37,1.82,2.23,2.09,3.02,1.96,14.78-2.38,17.19-.46,17.19,13.86,0,35.7.12,71.4-.05,107.1-.09,17.71,3.4,15.56-15.3,21-.31.09-.42.88-.7,1.52h59.53c-4.41-2.35-8.99-2.94-13.48-3.92-5.89-1.29-9.7-5.19-9.83-11.12-.34-15.66-.12-31.33-.12-45.42,15.92-2.33,31.2-3.05,45.56-7.04,18.01-5,27.47-19.19,29.52-37.35,1.73-15.39-5.78-27.23-18.39-35.44Zm-1.49,33.93c-.66,18.58-9.99,30.9-26.54,37.36-6.74,2.64-14.78,2.15-22.26,2.65-4.9.32-6.73-2.38-6.58-7.4.34-10.68.1-21.38.1-32.08.02-10.97-.17-21.96.18-32.92.07-2.17,2.29-6.16,3.4-6.13,11.06.38,22.76-.6,32.98,2.75,16.49,5.4,19.28,19.95,18.72,35.77ZM504.93,33.42c1.05,11.48-4.64,23.67-1.89,36.06.86.08,1.73.16,2.59.24.38-2,1.3-4.07,1.04-5.97-2-14.24,7.19-20.99,20.92-20.69,9.57.22,19.16.38,28.73.04,5.49-.19,7.71,1.82,7.71,7.21-.05,39.38.12,78.77-.08,118.15-.04,9.46-4.61,13.51-14.23,14.32-3.31.27-6.62.46-9.94.68.05.64.1,1.29.15,1.93h61.25c-.78-1.92-1.71-2.37-2.69-2.58-13.51-2.82-17.86-8.92-16.28-22.46.45-3.9.46-7.86.46-11.8-.04-32.63.02-65.26-.33-97.89-.07-6.12,2.06-7.91,7.83-7.69,9.57.37,19.16.17,28.73.29,12.59.15,16.89,4.19,18.46,16.95.37,3.01,1.13,5.96,1.71,8.94.54-.11,1.08-.23,1.63-.35v-35.38h-135.77Zm-10.78,124.83c-2.29,3.04-4.94,5.86-6.79,9.15-4.45,7.91-10.82,11.51-20.03,11.22-12.66-.38-25.34-.23-38.01.02-6.89.14-9.48-2.8-9.45-9.58.22-38.24.13-76.48.33-114.72.06-10.18,5.3-15.33,15.45-16.31,3.66-.36,7.3-.9,10.95-1.36-.05-.68-.11-1.36-.16-2.05h-66.33c2.96,2.48,6.38,3.33,9.43,4.9,5.64,2.92,12.23,5.28,12.16,13.4-.3,39.36-.69,78.71-.91,118.07-.05,7.83-4.03,11.18-11.41,11.52-2.99.14-5.96.48-8.95.74.95,1.67,1.74,2.14,2.52,2.15,31.8.31,63.6.69,95.41.67,2.48-.01,6-2.31,7.27-4.54,3.95-7.01,7.05-14.49,10.48-21.8-.65-.49-1.3-.98-1.96-1.48Zm801.19,22.7c-12.21-4.61-12.51-5.12-12.31-18.45.16-10.11.24-20.23.27-30.34.07-25,.19-50,.09-75-.03-8.73,2.86-14.63,12.38-15.84,1.77-.22,3.38-1.69,5.06-2.58-18.04-2.04-35.48-3.21-52.69.05,17.17,6.15,16.65,2.8,16.75,23.35.15,32.02-.28,64.05.22,96.07.19,12.07-1.07,22-15.48,24.24-.25.04-.37.93-.67,1.76h50.7c-1.32-2.02-2.8-2.69-4.32-3.26Zm-490.25-26.86c-4.09-1.58-11.85,6.54-10.1,10.94,1.65,4.16,6.41,9.56,10.08,9.77,3.72.22,7.78-5.23,13.81-9.8-5.99-4.92-9.39-9.2-13.79-10.91Zm-32.37-95.31c-.66-4.14-5.64-7.59-8.7-11.35-1.29.1-2.58.21-3.88.31-2.25,3.98-5.54,7.72-6.51,11.99-1.18,5.18,4.72,10.72,9.85,10.12,6.42-.75,10.06-5.89,9.24-11.07Zm32.61-9.33c-5.24-.66-10.08,3.09-10.56,9.46-.38,5.05,5.92,12.08,10.47,10.65,3.96-1.25,6.99-5.4,12.5-9.99-5.47-4.7-8.66-9.65-12.41-10.12Zm29.85,74.92c-3.76.72-8.71,5.8-9.36,9.58-.88,5.03,2.57,10.09,8.9,10.68,6.17-1.07,10.55-4.01,10.35-10.34-.19-5.92-4.07-11.02-9.89-9.92Zm-72.53,30c-6.01.32-8.86,3.9-9.06,9.85-.2,6.38,2.76,9.91,11.9,10.99,1.88-2.44,5.82-5.61,6.98-9.58,1.5-5.11-4.71-11.54-9.82-11.26Zm72.45-74.16c-5.86.69-10.66,4.23-9.58,10.07.71,3.83,5.58,9.27,9.06,9.65,5.1.57,10.08-3.56,10.11-10.01.02-5.91-3.21-9.32-9.59-9.71Zm-102.57,43.99c-3.07-.02-8.59,6.34-8.6,9.89-.01,3.46,5.05,8.92,8.84,9.95,5.95,1.6,8.58-3.66,10.68-11.18-3.64-3.13-7.26-8.63-10.92-8.66Zm.47-44.06c-6.06.07-10.41,5-9.3,10.49.76,3.74,5.81,8.74,9.39,9.13,3.1.34,6.83-4.99,10.28-7.82-1.24-8.06-4.68-11.87-10.37-11.8Zm29.3-59.29c-2-.16-4.31,3.43-6.47,5.34,2.92,2.69,5.54,5.97,8.94,7.71,1.02.52,4.24-3.29,8.55-6.84-5.16-3.1-7.98-5.96-11.02-6.21Zm100.75,137.62c-1.58-3.17-4.16-6.36-7.21-8-1.1-.59-4.53,3.15-9.2,6.62,5.07,3.44,7.69,6.42,10.62,6.77,1.8.21,6.18-4.62,5.79-5.39Zm-98.64,32.53c-2.45-.05-4.97,3.62-7.46,5.66,2.14,2.51,3.86,6.04,6.57,7.15,1.68.69,4.87-2.29,9.51-4.75-4.09-4.05-6.31-8.01-8.62-8.06Zm-47.6-123.27c-.38-2.61-4.01-4.74-6.22-7.08-2.05,2.13-5.75,4.26-5.75,6.4-.01,2.97,2.75,5.94,4.33,8.91,1.15.01,2.3.01,3.45.01,1.53-2.77,4.55-5.75,4.19-8.24Zm88.33,122.26c-2.84,1.09-4.81,4.43-7.14,6.85,2.66,2.51,5.33,5.03,7.99,7.54,1.92-2.32,3.83-4.64,6.93-8.4-3.42-2.76-6.42-6.51-7.78-5.99Zm-102.29-106.79c-1.12.02-2.25.05-3.37.07-1.5,2.76-4.34,5.66-4.06,8.22.23,2.13,4.12,5.31,6.42,5.34,2.03.02,5.76-3.69,5.74-5.72-.03-2.65-3.02-5.27-4.73-7.91Zm8.7,67c-2.76.92-6.56,4.04-6.61,6.34-.06,2.54,3.59,5.17,5.63,7.76,2.35-2,4.7-4.01,8.51-7.26-3.51-3.32-6.25-7.27-7.53-6.84Zm151.33-83.67c-.35-2.23-4.33-5.05-6.96-5.36-1.6-.18-5.38,4.09-5.17,6.05.29,2.81,3.33,5.32,6.83,10.28,2.76-5.31,5.7-8.4,5.3-10.97Zm-35.7,114.14c-2.39.09-4.66,3.59-8.47,6.92,3.64,3.22,5.77,5.12,7.9,7.01,2.17-2.55,5.55-4.88,6.1-7.74.34-1.8-3.62-6.25-5.53-6.19Zm-85.79.53c-2.84.68-5.03,4.07-7.51,6.3,2.49,2.22,4.87,6.04,7.48,6.21,2.46.15,5.17-3.55,9.83-7.15-4.78-2.78-7.72-5.86-9.8-5.36Zm63.45-163.44c-3.2,4.58-6.77,7.48-6.38,9.69.46,2.61,4.33,4.64,6.72,6.92,1.81-2.69,4.56-5.21,5.1-8.14.35-1.83-2.6-4.29-5.44-8.47Zm-63.79,13.8c-2.25.02-6.62,4.22-6.25,5.4.9,2.88,3.7,6.62,6.27,7.1,2.3.43,5.33-3.06,10.45-6.4-5.09-3.16-7.8-6.13-10.47-6.1Zm-38.82,96.5c-2.47.12-4.8,3.16-7.18,4.93,2.12,2.52,3.84,6.15,6.52,7.14,1.65.6,4.79-2.86,9.36-5.9-4.18-3.14-6.52-6.28-8.7-6.17Zm126.31-98.97c-1.02.01-2.04.02-3.07.03-1.36,2.64-3.94,5.39-3.73,7.9.21,2.56,3.17,4.9,4.92,7.33,2.05-2.46,5.32-4.73,5.78-7.47.39-2.31-2.47-5.17-3.9-7.79Zm37.87,95.7c-3.39,4.06-7.03,7-6.54,8.09,1.39,3.09,4.47,5.42,6.88,8.04,1.65-2.21,4.55-4.38,4.63-6.66.09-2.44-2.46-4.98-4.97-9.47Zm.07-40.67c-2.28,2.34-4.56,4.68-6.84,7.02,2.16,2.05,4.04,5.1,6.56,5.79,1.66.45,4.25-2.5,8.09-5.03-3.59-3.58-5.7-5.68-7.81-7.78Zm-19.21,120.21c-.34-2.45-2.73-4.6-5.46-8.68-2.26,3.95-4.67,6.33-4.19,7.71.81,2.35,3.44,4.06,5.31,6.05,1.55-1.71,4.55-3.62,4.34-5.08Zm-168.18-118.19c-1.72.2-3.09,3.36-4.61,5.21,1.96,1.58,3.81,4.18,5.92,4.42,1.75.19,3.81-2.41,8.1-5.47-4.77-2.27-7.23-4.42-9.41-4.16Zm131.45,134.68c-.91-2.45-3.02-5-5.32-6.14-.88-.43-5.29,3.09-5.12,4.45.29,2.36,2.87,4.45,5.41,7.88,2.51-2.97,5.41-5.19,5.03-6.19Zm-47.18-6.01c-2.43.52-4.38,3.27-6.53,5.07,1.77,1.72,3.45,4.71,5.32,4.82,2.24.14,4.64-2.16,8.85-4.41-3.81-2.88-6.08-5.82-7.64-5.48Zm-83.63-88.07c-2.65,3.47-5.29,5.44-5.08,7.05.25,1.93,3.18,5.16,4.49,4.95,2.4-.38,4.47-2.87,6.67-4.48-1.61-2-3.23-4-6.08-7.52ZM763.36,0c-2.12.13-4.1,2.62-6.14,4.08,1.75,1.66,3.3,4.3,5.31,4.7,1.9.39,4.28-1.56,8.84-3.5-4.11-2.86-6.14-5.39-8.01-5.28Zm42.93.13c-2.42.59-4.38,3.01-6.54,4.67,1.67,1.44,3.28,3.95,5.03,4.05,2.11.14,4.35-1.77,8.34-3.64-3.41-2.66-5.5-5.41-6.83-5.08Zm-76.06,202.22c-1.99-1.34-3.98-3.69-5.96-3.67-1.39.01-4.12,3.51-3.82,4.96.44,2.16,2.77,5.1,4.74,5.5,2.26.45,5-1.52,7.53-2.44-.83-1.45-1.66-2.9-2.49-4.35Zm156.93-120.18c-2.08,4.33-4.33,6.83-3.92,8.78.42,1.98,3.45,3.41,5.34,5.08,1.2-1.81,3.48-3.72,3.34-5.42-.2-2.25-2.3-4.32-4.76-8.44Zm-190.57-37.65c-2.87,3.59-4.6,5.75-6.33,7.91,1.79,1.32,3.79,3.91,5.31,3.65,2.04-.34,4.5-2.6,5.23-4.6.45-1.22-2-3.51-4.21-6.96Zm-1.19,121.56c-2.27,2.99-4.95,5.11-4.59,6.35.63,2.15,3.13,3.77,4.85,5.61,1.73-1.68,4.76-3.3,4.84-5.06.08-1.84-2.66-3.81-5.1-6.9Zm177.26-120.38c-1.55,1.88-4.46,3.9-4.29,5.61.18,1.81,3.07,4.05,5.2,4.7,1.09.33,3.12-2.39,5.8-4.62-2.97-2.52-4.84-4.11-6.71-5.69Zm-29-31.17c-1.3-.72-2.61-1.43-3.92-2.15-.87,2.31-2.73,4.81-2.32,6.87.42,2.16,2.84,5.19,4.7,5.43,1.74.22,5.02-2.47,5.47-4.38.36-1.53-2.5-3.82-3.93-5.77Zm-119.14.58c-1.56,1.56-4.25,3.04-4.37,4.7-.14,2.04,1.88,4.22,3.98,8.32,2.7-3.89,5.27-5.97,5.16-7.89-.11-1.8-3.07-3.43-4.77-5.13Zm162.73,114.5c-1.4.02-4.01,3.36-3.8,4.91.23,1.75,2.84,4.05,4.75,4.43,1.36.26,3.27-2.25,6.5-4.71-3.5-2.33-5.49-4.66-7.45-4.63Zm-14.92,38.01c-1.28,1.62-3.66,3.33-3.55,4.86.13,1.9,2,4.6,3.71,5.17,1.29.43,3.52-1.96,6.76-4.01-3.18-2.77-5.05-4.4-6.92-6.02Z"/>
      <path d="m159.14,185.36h-61.12c-.04-.49-.09-.97-.13-1.46,1.51-.42,3-1.03,4.54-1.22,18.73-2.32,19.14-3.39,18.09-22.31-.8-14.52-.16-29.12-.16-44.68-13.47,0-25.49,0-37.51,0-13.53,0-27.06.14-40.58-.12-4.84-.09-6.42,1.74-6.39,6.39.11,14.07-.15,28.14-.09,42.2.06,13.6,1.67,15.42,15.31,18.69,1.02.25,1.97.79,2.85,2.48H0c.45-.91.5-1.24.66-1.31,16.82-7.48,16.62-7.48,16.6-26.17-.04-34.87.31-69.75.05-104.62-.02-3.28-2.53-7.25-5.07-9.62-3.17-2.95-7.59-4.57-11.24-8.35h54.29c-1.38,1.18-2.05,2.25-2.9,2.41-14.24,2.6-17.05,12.48-16.73,24.99.31,12.08-.14,24.19-.36,36.28-.08,4.67,1.19,7.26,6.69,7.18,23.11-.33,46.22-.46,69.32-.32,6.79.04,9.34-2.22,9.11-9.28-.39-12.35.25-24.74.34-37.11.12-15.81-1.92-18.24-17.36-21.53-1.57-.33-3.04-1.12-4.41-3.14h58.29c-1.91,2.03-2.46,3.17-3.3,3.43-12.51,3.89-13.84,13.53-13.73,24.69.33,32.35.12,64.71.21,97.06.05,17.71.13,17.71,18.66,25.43Z"/>
      <path d="m1226.25,182.93c-14.86-3.14-26.87-11.17-37.47-21.63-13.41-13.23-26.83-26.44-40.18-39.73-1.49-1.48-2.54-3.41-4.34-5.9,3.24-1.83,5.82-3.36,8.47-4.77,17.37-9.23,25.9-27.91,19.91-45.39-4.6-13.41-15-21.65-27.9-26.39-29.24-10.75-58.95-4.19-88.52-1.53-.86.08-1.6,1.62-3.19,3.33,4.64.26,8,.25,11.31.67,7.31.92,12.34,4.7,12.36,12.45.13,37.67.04,75.34-.03,113.01-.02,8.3-4.56,12.86-12.53,14.39-2.69.52-5.33,1.23-8,1.85.14.53.28,1.05.42,1.58h60.34c.04-.62.08-1.24.12-1.86-3.48-.78-7.38-.84-10.35-2.53-4.14-2.37-10.59-5.75-10.83-9.06-1.12-16.08-.51-32.28-.51-48.43,6.48,0,11.85.54,17.07-.13,8.47-1.08,15.5,1.05,21.53,7.04,10.99,10.9,21.65,22.19,33.27,32.37,8.78,7.7,18.33,14.86,28.49,20.58,10.9,6.14,23.36,3.84,35.39,3.1-1.48-1.73-3.09-2.65-4.83-3.02Zm-100.19-65.71c-9.86,1.47-19.91,1.68-30.54,2.51-.16-3.64-.39-6.07-.36-8.5.24-21.62.68-43.23.7-64.85.01-5.72,1.91-8.27,7.75-8.16,13.52.24,27.08-.22,38.31,9.5,13.92,12.07,13.57,27.71,10.46,43.48-2.78,14.09-11.49,23.82-26.32,26.02Z"/>
      <path d="m189.14,34.71h59.61c-4.9,2.32-7.59,3.65-10.32,4.89-7.36,3.33-11.14,8.5-11.03,17.08.33,26.14,0,52.29.16,78.43.17,25.65,23.26,48.08,48.51,47.43,25.53-.66,44.67-21.38,44.42-47.84-.23-24.47-.2-48.95-.32-73.42-.08-15.14-1.02-16.39-15.68-21.99-2.29-.88-4.51-1.95-6.5-4.39h52.79c.16.65.33,1.3.49,1.95-2.67,1.04-5.33,2.08-8,3.12-10.09,3.93-13.26,8.95-13.15,19.94.25,23.63.81,47.27.38,70.89-.52,28.89-17.54,53.26-42.6,59.41-42.83,10.52-77.98-14.6-78.19-59.91-.1-21.1-.42-42.21.24-63.28.5-15.78-2.16-28.46-22.18-30,.45-.77.9-1.53,1.35-2.3Z"/>
      <path d="m1589.2,37.71v30.21l-1.14.26c-2.01-5.32-4.06-10.62-6.02-15.96-1.85-5.05-5.15-7.6-10.79-7.53-14.93.18-29.86.17-44.79.02-4.98-.05-6.96,1.62-6.86,6.88.3,14.9.34,29.82-.02,44.73-.14,5.96,2.02,8,7.79,7.86,11.54-.28,23.1-.22,34.65-.16,5.72.03,9.61-2.27,11.78-7.69,1.17-2.93,2.9-5.64,6.03-7.92v40.96c-.57.18-1.14.35-1.71.53-1.48-3.38-2.31-7.31-4.6-10.01-2.67-3.15-6.49-7.23-10.01-7.44-14.25-.84-28.57-.35-43.76-.35,0,18.88-.45,37.37.44,55.8.15,3.13,5.96,8.4,9.35,8.55,15.4.71,30.9.41,46.31-.46,9.51-.53,14.93-6.92,17.23-16.01.6-2.37,1.61-4.63,2.43-6.94.97.12,1.94.23,2.91.35-1.06,9.87-1.99,19.76-3.38,29.58-.14.98-3.14,2.2-4.82,2.21-37.47.18-74.93.22-112.4.22-1.22,0-2.44-.63-3.69-2.86,3.11-.25,6.24-.43,9.34-.77,12.39-1.35,17.83-6.5,18.01-19,.46-33.47.73-66.95.4-100.43-.15-14.85-.19-23.17-20.66-20.98-.94.1-1.95-.36-3.41-.66,5.91-4.78,89.21-6.84,111.41-2.99Z"/>
      <path d="m1350.51,177.77c4.62-.24,9.24-.69,13.86-.69,20.28,0,40.56.14,60.84.19,20.51.05,24.92-3.43,29.81-23.25.89-3.62,1.9-7.21,2.85-10.81.72.05,1.43.1,2.15.15.14,2.87.54,5.76.37,8.61-.5,8.42-1.25,16.82-1.87,25.23-.35,4.71-1.79,8-7.52,7.98-41.14-.16-82.28-.17-123.43-.28-1.59,0-3.18-.67-6.08-1.33,35.72-45.79,70.84-90.83,106.98-137.16-3.92-.68-6.72-1.56-9.52-1.58-20.29-.13-40.59.27-60.87-.24-13.3-.33-18.13,4.54-20.46,18.98-.3,1.87-.52,3.76-2.46,5.97-.57-1.79-1.61-3.58-1.61-5.37-.03-7.03.38-14.06.4-21.09.01-4.98,2.15-6.88,7.21-6.84,35.51.24,71.01.24,106.52.44,2.37.01,4.74,1,7.99,1.73-36.11,46.09-71.54,91.3-106.97,136.52.61.95,1.21,1.9,1.82,2.85Z"/>
      <path d="m1021.61,44.28c-5.31-3.47-11.57-5.76-17.69-7.66-21.63-6.74-43.6-.93-65.42-1.07-4.6-.03-9.22,2.33-13.84,3.58,1.37,1.82,2.23,2.09,3.02,1.96,14.78-2.38,17.19-.46,17.19,13.86,0,35.7.12,71.4-.05,107.1-.09,17.71,3.4,15.56-15.3,21-.31.09-.42.88-.7,1.52h59.53c-4.41-2.35-8.99-2.94-13.48-3.92-5.89-1.29-9.7-5.19-9.83-11.12-.34-15.66-.12-31.33-.12-45.42,15.92-2.33,31.2-3.05,45.56-7.04,18.01-5,27.47-19.19,29.52-37.35,1.73-15.39-5.78-27.23-18.39-35.44Zm-1.49,33.93c-.66,18.58-9.99,30.9-26.54,37.36-6.74,2.64-14.78,2.15-22.26,2.65-4.9.32-6.73-2.38-6.58-7.4.34-10.68.1-21.38.1-32.08.02-10.97-.17-21.96.18-32.92.07-2.17,2.29-6.16,3.4-6.13,11.06.38,22.76-.6,32.98,2.75,16.49,5.4,19.28,19.95,18.72,35.77Z"/>
      <path d="m503.04,69.49c-2.75-12.39,2.94-24.58,1.89-36.06h135.76v35.38c-.54.12-1.09.24-1.63.35-.58-2.98-1.34-5.93-1.71-8.94-1.57-12.77-5.87-16.8-18.46-16.96-9.58-.12-19.17.09-28.73-.29-5.77-.22-7.9,1.57-7.83,7.69.35,32.63.29,65.26.33,97.9,0,3.93,0,7.9-.46,11.79-1.58,13.54,2.78,19.64,16.28,22.46.98.21,1.92.66,2.7,2.58h-61.25c-.05-.64-.1-1.29-.15-1.93,3.31-.23,6.63-.41,9.94-.69,9.62-.8,14.18-4.86,14.23-14.31.2-39.38.03-78.77.07-118.15,0-5.38-2.22-7.4-7.71-7.21-9.57.34-19.16.17-28.73-.04-13.73-.3-22.92,6.45-20.92,20.68.27,1.9-.66,3.98-1.03,5.97l-2.59-.23Z"/>
      <path d="m496.12,159.74c-3.43,7.3-6.53,14.79-10.49,21.79-1.26,2.23-4.78,4.54-7.27,4.54-31.8.03-63.6-.35-95.4-.67-.79,0-1.57-.48-2.52-2.15,2.98-.25,5.96-.59,8.95-.73,7.38-.35,11.36-3.69,11.41-11.52.23-39.36.62-78.72.92-118.07.06-8.11-6.52-10.48-12.17-13.4-3.05-1.57-6.47-2.42-9.42-4.9h66.33c.05.68.11,1.37.16,2.05-3.65.46-7.29,1-10.95,1.35-10.15.99-15.39,6.13-15.45,16.31-.2,38.24-.11,76.49-.33,114.73-.04,6.78,2.55,9.72,9.45,9.58,12.67-.26,25.35-.41,38.01-.02,9.21.28,15.57-3.31,20.03-11.23,1.85-3.28,4.51-6.11,6.8-9.15.65.49,1.31.99,1.96,1.48Z"/>
      <path d="m1248.14,38.8c17.21-3.26,34.65-2.1,52.69-.05-1.68.89-3.29,2.36-5.06,2.58-9.52,1.2-12.41,7.1-12.38,15.83.09,25-.02,50-.1,75-.03,10.11-.11,20.23-.26,30.34-.21,13.34.1,13.84,12.31,18.45,1.52.57,3,1.25,4.31,3.27h-50.7c.3-.83.42-1.72.67-1.76,14.41-2.25,15.67-12.17,15.48-24.25-.5-32.02-.07-64.05-.22-96.07-.1-20.54.43-17.19-16.75-23.34Z"/>
      <path d="m818.89,165c-6.03,4.57-10.09,10.02-13.82,9.8-3.67-.22-8.43-5.61-10.08-9.77-1.75-4.4,6.01-12.52,10.1-10.94,4.4,1.71,7.81,5.98,13.8,10.91Z"/>
      <path d="m764.02,47.43c3.06,3.76,8.04,7.21,8.7,11.35.83,5.19-2.82,10.33-9.23,11.08-5.13.6-11.03-4.94-9.85-10.13.97-4.27,4.26-8.01,6.51-11.98l3.87-.31Z"/>
      <path d="m817.75,59.58c-5.51,4.59-8.55,8.74-12.5,9.98-4.55,1.43-10.85-5.6-10.47-10.65.48-6.37,5.32-10.12,10.56-9.46,3.75.47,6.93,5.42,12.41,10.13Z"/>
      <path d="m834.72,144.63c-6.32-.59-9.77-5.65-8.9-10.68.65-3.78,5.61-8.86,9.37-9.58,5.82-1.11,9.7,4,9.89,9.92.2,6.33-4.18,9.26-10.35,10.34Z"/>
      <path d="m765.49,175.22c-9.15-1.08-12.1-4.61-11.9-11,.19-5.95,3.04-9.52,9.05-9.85,5.11-.27,11.33,6.15,9.83,11.26-1.17,3.98-5.11,7.14-6.98,9.58Z"/>
      <path d="m835.1,80.22c6.38.39,9.62,3.79,9.59,9.7-.03,6.45-5,10.58-10.11,10.02-3.48-.38-8.36-5.82-9.06-9.65-1.08-5.84,3.72-9.39,9.58-10.07Z"/>
      <path d="m743.45,132.86c-2.1,7.52-4.73,12.78-10.68,11.18-3.8-1.02-8.85-6.49-8.84-9.95.01-3.55,5.53-9.9,8.6-9.88,3.66.03,7.28,5.53,10.92,8.66Z"/>
      <path d="m743.37,91.94c-3.45,2.83-7.18,8.17-10.28,7.82-3.58-.4-8.63-5.39-9.38-9.13-1.11-5.49,3.23-10.42,9.3-10.49,5.69-.07,9.13,3.74,10.37,11.8Z"/>
      <path d="m773.32,27.07c-4.31,3.55-7.53,7.35-8.55,6.84-3.41-1.74-6.03-5.02-8.95-7.71,2.17-1.91,4.48-5.51,6.47-5.34,3.04.25,5.86,3.11,11.02,6.21Z"/>
      <path d="m846.65,157.09c4.66-3.47,8.1-7.21,9.2-6.62,3.05,1.64,5.62,4.83,7.21,8,.38.77-3.99,5.6-5.8,5.38-2.93-.35-5.55-3.33-10.61-6.77Z"/>
      <path d="m773.04,199.07c-4.64,2.46-7.83,5.43-9.52,4.75-2.71-1.11-4.43-4.64-6.56-7.15,2.49-2.04,5.01-5.71,7.46-5.66,2.31.05,4.53,4.01,8.62,8.06Z"/>
      <path d="m709.17,75.97c-1.58-2.97-4.34-5.95-4.33-8.91,0-2.14,3.7-4.27,5.75-6.4,2.21,2.34,5.84,4.48,6.22,7.08.36,2.49-2.66,5.48-4.19,8.24-1.15,0-2.3,0-3.44,0Z"/>
      <path d="m812.93,195.98c-3.1,3.76-5.02,6.08-6.94,8.4-2.66-2.51-5.32-5.03-7.99-7.54,2.33-2.42,4.3-5.76,7.14-6.85,1.36-.52,4.36,3.23,7.79,5.99Z"/>
      <path d="m702.85,83.2c1.71,2.64,4.7,5.26,4.73,7.91.02,2.03-3.71,5.74-5.74,5.72-2.3-.02-6.19-3.21-6.42-5.33-.28-2.56,2.57-5.47,4.06-8.22,1.12-.02,2.25-.05,3.37-.07Z"/>
      <path d="m719.08,157.04c-3.81,3.25-6.16,5.26-8.51,7.27-2.04-2.59-5.69-5.22-5.63-7.76.05-2.3,3.85-5.42,6.61-6.34,1.28-.43,4.02,3.52,7.53,6.84Z"/>
      <path d="m857.59,77.5c-3.5-4.96-6.54-7.47-6.84-10.28-.21-1.96,3.57-6.23,5.17-6.05,2.63.31,6.61,3.13,6.96,5.36.4,2.57-2.53,5.65-5.29,10.97Z"/>
      <path d="m818.72,187.59c3.81-3.33,6.08-6.83,8.47-6.92,1.91-.07,5.87,4.39,5.52,6.19-.55,2.86-3.92,5.18-6.1,7.73-2.13-1.89-4.26-3.78-7.89-7.01Z"/>
      <path d="m751.2,186.57c-4.67,3.6-7.37,7.3-9.83,7.14-2.61-.16-4.99-3.98-7.48-6.2,2.47-2.23,4.67-5.62,7.51-6.3,2.08-.5,5.01,2.58,9.8,5.36Z"/>
      <path d="m804.85,17.76c2.83,4.18,5.79,6.63,5.44,8.47-.55,2.93-3.29,5.44-5.11,8.13-2.39-2.28-6.26-4.3-6.72-6.92-.39-2.21,3.18-5.11,6.38-9.69Z"/>
      <path d="m751.52,37.66c-5.13,3.34-8.15,6.83-10.45,6.4-2.58-.48-5.38-4.22-6.28-7.1-.37-1.18,4-5.38,6.25-5.4,2.68-.03,5.39,2.95,10.48,6.1Z"/>
      <path d="m710.94,134.24c-4.58,3.03-7.72,6.5-9.36,5.89-2.69-.98-4.4-4.62-6.52-7.13,2.39-1.77,4.71-4.81,7.18-4.93,2.18-.11,4.52,3.03,8.71,6.18Z"/>
      <path d="m828.55,29.1c1.42,2.62,4.28,5.48,3.89,7.79-.46,2.74-3.73,5-5.78,7.47-1.75-2.44-4.71-4.77-4.92-7.33-.21-2.52,2.38-5.26,3.73-7.9,1.02,0,2.05-.02,3.07-.02Z"/>
      <path d="m866.42,124.8c2.51,4.49,5.06,7.03,4.97,9.47-.08,2.28-2.98,4.45-4.63,6.66-2.41-2.63-5.49-4.96-6.88-8.05-.49-1.09,3.15-4.03,6.54-8.09Z"/>
      <path d="m874.29,91.9c-3.84,2.53-6.43,5.48-8.09,5.03-2.53-.69-4.41-3.74-6.56-5.79,2.28-2.34,4.56-4.68,6.84-7.02,2.11,2.1,4.21,4.2,7.81,7.78Z"/>
      <path d="m841.82,195.65c2.73,4.08,5.12,6.23,5.46,8.68.2,1.46-2.79,3.37-4.34,5.08-1.87-1.98-4.5-3.7-5.31-6.04-.48-1.39,1.93-3.77,4.19-7.71Z"/>
      <path d="m688.5,90.31c-4.3,3.05-6.35,5.65-8.1,5.46-2.11-.23-3.96-2.84-5.92-4.42,1.53-1.85,2.9-5.01,4.62-5.21,2.18-.25,4.64,1.9,9.41,4.17Z"/>
      <path d="m805.51,227.02c-2.54-3.44-5.13-5.52-5.41-7.88-.17-1.36,4.25-4.88,5.12-4.44,2.3,1.14,4.41,3.68,5.33,6.14.37,1-2.52,3.22-5.03,6.19Z"/>
      <path d="m771,220.29c-4.21,2.25-6.61,4.55-8.86,4.42-1.86-.11-3.55-3.1-5.31-4.82,2.15-1.81,4.1-4.56,6.53-5.08,1.56-.34,3.83,2.61,7.64,5.48Z"/>
      <path d="m679.73,126.74c2.85,3.53,4.47,5.53,6.08,7.52-2.21,1.61-4.27,4.1-6.68,4.48-1.31.21-4.24-3.02-4.49-4.95-.21-1.61,2.43-3.58,5.08-7.05Z"/>
      <path d="m771.37,5.28c-4.56,1.94-6.93,3.89-8.84,3.51-2-.4-3.56-3.04-5.31-4.7,2.04-1.46,4.02-3.95,6.15-4.08,1.87-.11,3.89,2.41,8,5.28Z"/>
      <path d="m813.12,5.21c-3.99,1.87-6.23,3.78-8.34,3.64-1.75-.11-3.36-2.62-5.03-4.06,2.15-1.66,4.12-4.08,6.54-4.67,1.33-.33,3.42,2.42,6.83,5.08Z"/>
      <path d="m732.72,206.7c-2.53.92-5.27,2.9-7.52,2.44-1.97-.4-4.3-3.34-4.75-5.5-.3-1.45,2.43-4.95,3.82-4.96,1.98-.02,3.97,2.33,5.96,3.67.83,1.45,1.66,2.9,2.48,4.35Z"/>
      <path d="m887.16,82.17c2.46,4.12,4.56,6.2,4.76,8.44.15,1.7-2.14,3.61-3.34,5.42-1.89-1.67-4.92-3.1-5.33-5.08-.41-1.95,1.84-4.45,3.92-8.78Z"/>
      <path d="m696.6,44.52c2.2,3.46,4.66,5.74,4.21,6.96-.73,2-3.19,4.26-5.23,4.6-1.52.26-3.52-2.33-5.31-3.66,1.73-2.16,3.46-4.32,6.33-7.91Z"/>
      <path d="m695.41,166.08c2.44,3.09,5.18,5.06,5.1,6.9-.08,1.75-3.11,3.38-4.84,5.06-1.72-1.84-4.22-3.45-4.85-5.61-.36-1.24,2.32-3.36,4.59-6.35Z"/>
      <path d="m879.37,51.4c-2.68,2.23-4.7,4.95-5.8,4.61-2.13-.65-5.02-2.88-5.2-4.7-.17-1.71,2.74-3.73,4.29-5.61,1.87,1.59,3.74,3.17,6.71,5.7Z"/>
      <path d="m843.67,14.53c1.43,1.95,4.29,4.24,3.92,5.78-.45,1.91-3.73,4.6-5.47,4.38-1.86-.24-4.29-3.27-4.71-5.43-.4-2.06,1.46-4.56,2.32-6.86l3.92,2.14Z"/>
      <path d="m724.13,28.14c-2.1-4.1-4.12-6.28-3.98-8.32.11-1.66,2.81-3.14,4.36-4.7,1.7,1.7,4.66,3.33,4.77,5.12.12,1.92-2.45,4-5.16,7.9Z"/>
      <path d="m894.71,134.24c-3.23,2.46-5.14,4.97-6.5,4.71-1.91-.38-4.52-2.68-4.75-4.43-.21-1.55,2.4-4.89,3.8-4.91,1.96-.03,3.95,2.3,7.46,4.63Z"/>
      <path d="m879.26,173.65c-3.25,2.04-5.47,4.44-6.76,4.01-1.71-.57-3.59-3.27-3.72-5.17-.1-1.53,2.28-3.24,3.55-4.86,1.87,1.63,3.74,3.25,6.92,6.03Z"/>
    </g>
  </g>
</svg>