<svg xmlns="http://www.w3.org/2000/svg" id="Layer_2" data-name="Layer 2" viewBox="0 0 461.48 403.75"><g id="Layer_1-2" data-name="Layer 1"><g><path d="m230.54,87.1c-13.96,19.73-27.57,38.96-41.3,58.37-2.94-3.07-5.27-6.42-8.42-8.56-3.04-2.07-6.92-2.9-10.87-4.45.73-1.13,1.64-2.63,2.65-4.06,13.52-19.16,27-38.35,40.65-57.41,2.06-2.87,2.19-4.83.03-7.79-9.3-12.76-18.3-25.72-27.88-39.27-1.37,1.73-2.51,3.02-3.5,4.42-23.72,33.54-47.46,67.06-71.07,100.67-2.22,3.17-4.47,4.74-8.51,4.55-7.42-.35-14.86-.1-23.34-.1,2.28-3.31,4-5.86,5.78-8.38,26.68-37.74,53.38-75.47,80.04-113.22,11.17-15.83,29.56-15.84,40.87.06,7.99,11.25,15.96,22.51,23.96,33.75.18.25.53.39,1.24.9,5.44-7.67,10.88-15.33,16.32-23,3.27-4.61,6.4-9.33,9.81-13.83,9.89-13.06,28.39-13.06,37.9.31,28.35,39.82,56.49,79.78,84.71,119.7.38.54.64,1.15,1.5,2.72-6.25,0-12.01-.61-17.59.14-8.23,1.12-12.74-2.46-17.27-9.02-22.31-32.29-45.16-64.2-67.82-96.24-.66-.94-1.38-1.83-2.4-3.18-1.09,1.28-2.08,2.28-2.89,3.42-8.47,11.93-16.82,23.95-25.42,35.79-1.98,2.72-2.04,4.53-.04,7.32,13.57,18.92,26.94,37.98,40.36,57.01.92,1.31,1.73,2.69,2.92,4.55-9.38.14-15.03,5.13-19.44,12.69-13.82-19.51-27.22-38.45-40.97-57.86Z"/><path d="m230.56,215.09c8.09-11.59,15.87-22.73,23.65-33.88,8.28-11.87,16.64-23.68,24.79-35.63,3-4.4,6.78-6.35,12.12-6.33,29.12.12,58.24.03,87.36.08,8.51.02,13.36,5.32,12.31,13.16-.79,5.94-5.45,9.59-12.52,9.6-25.46.03-50.92.15-76.38-.11-4.76-.05-7.4,1.53-10.04,5.37-16.56,24.13-33.69,47.88-50,72.18-6.14,9.15-16.59,8.88-22.64.1-16.79-24.38-34.38-48.21-51.49-72.36-2.05-2.9-4.12-4.05-7.7-4.03-25.79.16-51.58.11-77.37.07-7.58,0-12.53-3.89-13.18-10.15-.74-7.09,3.97-12.62,11.37-12.77,10.48-.21,20.97-.07,31.45-.07,18.64,0,37.27.12,55.91-.07,5.87-.06,10,1.96,13.43,6.82,15.05,21.34,30.34,42.51,45.56,63.73.95,1.32,2,2.56,3.36,4.31Z"/><path d="m461.23,245.24c-2.62.14-4.22.29-5.81.29-28.95.01-57.89-.02-86.84.02-17.45.02-31.09-7.2-41.12-21.39-10.37-14.66-20.78-29.29-31.02-44.05-1.02-1.47-1.9-4.17-1.23-5.45,1.41-2.71,2.57-6.19,7.04-5.91,7.12.45,14.28.58,21.42.61,16.97.08,33.94.1,50.9,0,12.3-.08,17.8-3.5,22.94-14.25,21.14,29.91,42.09,59.54,63.7,90.12Z"/><path d="m62.8,156.19c4.85,9.65,6.85,11.21,18.7,14.45-11.96,16.96-23.76,33.68-36.31,51.47,3.93,0,6.67,0,9.41,0,12.31,0,24.62-.11,36.92.03,9.97.11,17.57-3.94,23.24-12.07,8.46-12.14,17.12-24.15,25.52-36.33,2.02-2.94,4.28-4.33,7.84-3.96,2.47.26,5.03.34,7.47-.01,4.41-.63,7.55.95,9.17,4.94.62,1.51.88,3.98.07,5.15-10.98,15.85-21.88,31.78-33.43,47.21-8.84,11.81-21.21,18.24-36.03,18.38-30.77.3-61.54.09-92.31.08-.65,0-1.31-.17-3.05-.4,21.06-29.82,41.79-59.17,62.8-88.92Z"/><path d="m230.23,303.37c-3.01,8.58-6.34,17.06-8.89,25.77-1.21,4.13-3.52,4.38-6.93,4.35-3.62-.04-6.59.16-7.93-4.54-2.26-7.96-5.32-15.7-8.06-23.52-.3-.86-.75-1.67-1.97-2.38v29.92h-12.84v-53.5c4.59,0,9.19-.25,13.73.16,1.24.11,2.77,2.02,3.35,3.44,3.77,9.21,7.3,18.52,10.93,27.79.64,1.62,1.4,3.19,2.64,6.01,2.27-5.84,4.09-10.54,5.91-15.25,1.32-3.4,2.62-6.81,3.93-10.22q5.1-13.29,20.26-11.55v53.27h-12.75v-29.74c-.46,0-.93-.01-1.39-.02Z"/><path d="m143.69,316.91c4.12-10.69,7.8-20.44,11.63-30.14,3.56-9.02,1.04-7.07,10.79-7.31,2.46-.06,4.92,0,7.66,0v53.52h-12.53v-29.9c-.39-.11-.78-.21-1.17-.32-.63,1.56-1.33,3.09-1.89,4.67-2.64,7.52-5.5,14.97-7.74,22.61-1.37,4.67-4.75,3.15-7.62,3.36-2.82.21-5.33.35-6.51-3.49-2.76-8.95-6.07-17.74-10.34-26.45v29.68h-12.9v-53.67c4.66,0,9.13-.24,13.55.15,1.26.11,2.86,1.88,3.42,3.25,3.84,9.37,7.43,18.84,11.12,28.26.65,1.65,1.42,3.26,2.53,5.78Z"/><path d="m371.5,279.45v53.61h-12.53v-30.14l-1.34-.33c-.6,1.56-1.26,3.11-1.81,4.69-2.51,7.21-5.3,14.34-7.36,21.68-1.21,4.32-3.8,4.64-7.39,4.53-3.39-.1-6.21.23-7.45-4.38-2.07-7.67-5.07-15.09-7.72-22.61-.47-1.34-1.1-2.62-2.62-3.81v30.32h-12.59v-53.51c4.77,0,9.53-.21,14.23.16,1.05.08,2.29,2.09,2.83,3.45,3.78,9.39,7.39,18.86,11.08,28.29.59,1.5,1.3,2.95,2.43,5.49,4.06-10.52,7.74-20,11.39-29.5q3.05-7.93,11.34-7.94c2.32,0,4.64,0,7.5,0Z"/><path d="m418.18,403.09v-53.73c10.62,0,21.05-.47,31.41.2,5.21.33,9.09,4.01,10.05,9.64,1.15,6.71-.61,12.21-7.57,15.54,1.04.77,1.75,1.36,2.53,1.84,5.21,3.25,7.33,7.99,6.54,13.98-.83,6.33-4.51,10.51-10.72,11.5-5.53.88-11.22.83-16.85,1-4.96.15-9.93.03-15.39.03Zm13.12-10.72c3.58,0,6.85.07,10.12-.02,3.87-.11,6.43-1.92,6.41-6.04-.02-4.1-2.74-5.91-6.45-6.18-3.25-.24-6.54-.05-10.08-.05v12.29Zm-.31-33.26c0,3.15.1,5.61-.03,8.05-.14,2.73.92,4.01,3.73,3.82,2.3-.16,4.64.02,6.92-.28,3.22-.43,5.11-2.51,5.06-5.72-.05-3.44-2.09-5.58-5.56-5.82-3.11-.22-6.24-.05-10.13-.05Z"/><path d="m13.11,311.22v21.83H.17v-53.29c.76-.25,1.22-.5,1.69-.54q11.23-1.04,11.23,10.06c0,3.45,0,6.9,0,10.69h20.46v-20.43h13.15v53.53h-12.89v-21.85H13.11Z"/><path d="m352.5,402.86h-12.53c0-6.3-.14-12.4.06-18.49.11-3.22-.93-4.48-4.24-4.31-4.31.23-8.65.21-12.96,0-3.15-.15-4.01,1.16-3.93,4.1.16,6.11.05,12.22.05,18.62h-12.57v-53.93h12.57c0,5.86.13,11.46-.05,17.06-.1,3,.93,4.18,3.98,4.1,5.44-.16,10.89-.04,16.94-.04v-21.06h12.69v53.95Z"/><path d="m112.41,403.09c-2.39,0-4.07-.2-5.69.04-5.83.86-9.88-.52-10.87-7.2-.16-1.1-2.41-2.56-3.8-2.69-3.95-.37-7.99.16-11.94-.21-4.16-.39-6.55.97-7.39,5.14-.32,1.59-1.1,3.09-1.71,4.75h-13.59c2.76-7.56,5.4-14.83,8.07-22.09,3.43-9.34,6.98-18.64,10.25-28.04.98-2.8,2.38-3.81,5.38-3.85,11.28-.13,11.25-.23,15.16,10.44,5.24,14.3,10.54,28.58,16.13,43.71Zm-27.62-40.08c-2.5,7.41-4.55,13.5-6.69,19.87h13.46c-2.21-6.48-4.25-12.49-6.77-19.87Z"/><path d="m394.99,348.88h13.03c0,4.73.02,9.31,0,13.89-.05,6.98.18,13.98-.26,20.94-.78,12.14-9.61,19.83-22.42,20.03-12.14.19-21.29-7.14-22.06-19.11-.76-11.73-.16-23.56-.16-35.7h12.73c0,3.25,0,6.5,0,9.75,0,7.48-.15,14.97.06,22.45.19,6.53,4.07,10.29,9.86,10.12,5.57-.16,9.08-3.84,9.18-10.26.16-10.6.04-21.2.04-32.11Z"/><path d="m107.22,333.42c-2.33,0-4.16-.17-5.94.03-5.33.59-9.37-.24-10.28-6.74-.18-1.28-2.83-2.8-4.55-3.13-2.72-.53-5.66.15-8.44-.21-5.86-.75-9.94.57-10.95,7.24-.16,1.07-2.12,2.52-3.38,2.66-3.43.37-6.92.13-11.1.13,1.11-3.16,1.99-5.76,2.94-8.34,5.03-13.71,10.17-27.37,15.05-41.13,1.16-3.26,2.6-4.66,6.32-4.58,10.56.24,10.58.04,14.31,10.16,4.76,12.92,9.51,25.84,14.25,38.77.56,1.52,1.06,3.06,1.77,5.14Zm-34.12-20.07h13.46c-2.18-6.43-4.21-12.44-6.69-19.76-2.5,7.3-4.56,13.31-6.77,19.76Z"/><path d="m304.74,333.39c-4.07,0-7.78.48-11.25-.21-1.61-.32-3.52-2.76-3.97-4.57-1.04-4.21-3.25-5.77-7.42-5.22-1.8.24-3.67.22-5.48,0-6.15-.72-11.14.08-12.14,7.67-.12.9-2.02,2.12-3.18,2.22-3.45.3-6.94.11-10.93.11.52-1.8.83-3.19,1.32-4.51,5.54-15.11,11.19-30.18,16.61-45.33,1.12-3.14,2.62-4.27,6.07-4.21,10.66.19,10.69.01,14.39,10.04,4.83,13.07,9.61,26.15,14.41,39.24.5,1.37.92,2.77,1.58,4.77Zm-26.74-38.33c-.37,0-.73,0-1.1,0-2.01,5.97-4.01,11.93-6.11,18.17h13.33c-2.14-6.38-4.13-12.28-6.11-18.18Z"/><path d="m55.06,348.57c-3.55,10.3-6.71,19.52-9.9,28.74-2.61,7.53-5.36,15.01-7.83,22.58-.81,2.49-2.07,3.22-4.62,3.27-13.49.28-13.49.35-17.81-12.1-4.35-12.54-8.69-25.08-13.01-37.63-.47-1.36-.8-2.77-1.39-4.83,4.31,0,8.12-.3,11.82.18,1.19.15,2.6,2.21,3.1,3.67,3.4,9.88,6.57,19.84,9.83,29.78.61,1.85,1.25,3.68,2.96,5.59,2.06-6.13,4.15-12.25,6.17-18.4,1.81-5.51,3.7-11.01,5.25-16.6.91-3.25,2.48-4.7,5.98-4.3,2.76.32,5.58.06,9.47.06Z"/><path d="m194.56,348.88h33.1v10.08h-20.26v11.57c4.15,0,8.07,0,12,0q6.55,0,6.34,6.57c-.03.81-.16,1.61-.32,3.24-4.51,0-8.93.22-13.32-.07-3.93-.26-5.5,1.1-5.02,5.07.25,2.09.04,4.24.04,7.15h20.47v10.28h-33.03v-53.9Z"/><path d="m381.13,333.04v-53.52h33.24v9.91h-19.61c-.53,1.09-.76,1.37-.8,1.67q-1.05,9.97,8.83,9.98c2.97,0,5.94,0,9.3,0,.14,1.89.18,3.34.38,4.77.53,3.83-.83,5.45-4.93,5.12-4.28-.35-8.61-.08-13.32-.08v12.11h20.14v10.04h-33.23Z"/><path d="m283.55,348.57c-5.33,10.28-9.84,19.52-14.87,28.47-2.95,5.25-4.59,10.52-4.04,16.54.27,2.93.05,5.91.05,9.18h-12.87c-.14-1.32-.5-2.48-.33-3.57,1.66-10.83-2.39-20.04-7.68-29.09-3.9-6.67-7.16-13.71-11.19-21.52,4.97,0,9.08-.29,13.11.16,1.31.15,2.79,2.02,3.52,3.45,2.92,5.7,5.58,11.54,8.86,18.44,3.02-6.28,5.89-11.42,7.98-16.86,1.66-4.32,4.19-5.85,8.62-5.27,2.55.33,5.18.06,8.85.06Z"/><path d="m461.48,279.57v9.69h-14.66v43.72h-13.23c0-7.1,0-14.02,0-20.94,0-5.81-.18-11.63.06-17.43.16-3.78-.89-5.59-5-5.18-2.95.3-5.95.06-9.37.06v-9.92h42.19Z"/><path d="m131.47,348.92v44.09h17.43v9.71h-30.08v-53.81h12.65Z"/><path d="m186.67,402.84h-29.89v-53.93h12.27c.12,1.81.33,3.56.34,5.31.03,11.48.12,22.97-.04,34.45-.05,3.44,1,4.8,4.55,4.57,4.12-.26,8.28-.06,12.77-.06v9.67Z"/></g></g></svg>