<?xml version="1.0" encoding="UTF-8"?>
<svg id="Layer_2" data-name="Layer 2" xmlns="http://www.w3.org/2000/svg" viewBox="0 0 1922.08 475.31">
  <defs>
    <style>
      .cls-1 {
        fill: #fff;
      }
    </style>
  </defs>
  <g id="Layer_1-2" data-name="Layer 1">
    <g>
      <path d="m1352.57,353.6c-.22-8.07-1.01-8.35-20.99-6.36,5.23,6.24-7.81,16.96,5.55,19.02,15.59,2.41,15.8,1.06,15.44-12.66Zm-755.96-6.42c-5.28,18.9-4.66,19.75,14.47,19.59,1.07,0,2.13-.24,3.58-.42,3.64-19.05,1.54-21.18-18.05-19.17Zm190.4,8.67q-.29-9.4-13.28-9.17c-7.74.13-9.86,3.61-9.89,13.92-.03,8.42,5.71,5.89,10.59,6.07,12.27-.31,12.89-.83,12.58-10.82Zm545.14,20.89v71.58c6.92.37,13.1.69,19.97,1.05.16-3.15.41-5.79.42-8.44.04-15.54.03-31.08.04-46.63q.01-19.32-20.43-17.56Zm-716.33,66.17c-.19-10.06-.06-20.13-.06-30.19h.03v-22.04c0-13.76-.07-13.26-13.88-15.03-6.82-.87-8.01,1.56-7.95,7.28.17,16.59-.06,33.18.15,49.77.19,15.47.37,15.2,15.29,16.59,5.62.52,6.5-1.73,6.42-6.38Zm171.27-2.95c-.46-16.05-.14-32.12-.14-48.18q.01-14.23-13.69-16.07c-2.38-.33-4.75-.78-8.49-1.39-.33,3.64-.77,6.29-.77,8.94,0,17.15.07,34.3.18,51.45.09,14.48.12,14.1,14.03,14.06,6.71-.02,9.08-1.91,8.88-8.81Zm-151.79-91.34c0,28.41-.23,56.36.09,84.31.19,17.17.57,17.16,19.71,14.93v-99.24h-19.8Zm655.5-1.2c-.15,2.47-.36,4.33-.36,6.19-.09,26.41-.15,52.83-.2,79.24-.03,14.79.02,14.52,14.41,16.16,5.16.58,6.77-.44,6.76-5.74-.07-25.86.49-51.73.26-77.59-.2-21.97,4.14-18.23-20.87-18.26Zm126.06,88.34c-.1-4.33-1.54-6.27-5.92-5-4.51,1.31-8.44-.03-8.67-4.6-.58-11.53-.19-23.1-.19-34.8,2.64,0,4-.14,5.33.03,4.63.59,8.96,1.04,9.42-5.57.44-6.33-1.49-10.18-8.67-9.37-4.68.52-6.4-1.78-6.31-6.2.13-5.89.03-11.78.03-18.03h-20.67c-.33,5.73-.7,10.85-.89,15.97-.16,4.19-1.15,6.85-6.14,8.08-2.72.67-5.83,4.62-6.51,7.6-1.12,4.9,2.57,6.71,7.3,7.73,2.14.46,5.04,3.89,5.16,6.1.55,9.79.17,19.63.2,29.45.05,18.48,4.26,22.73,22.61,22.96,14.38.19,14.27.19,13.92-14.35Zm-860.3-60.77c-.31,4.99-.43,9.55-.92,14.08-1.23,11.33-2.19,22.72-4.11,33.94-1.16,6.77-7.06,8.69-13.22,8.47-6.12-.22-9.51-3.95-9.8-10-.6-12.78-1.15-25.57-1.38-38.36-.09-5.47-1.74-8.3-7.74-7.35-2.41.38-4.93.35-7.38.13-4.56-.4-6.66,1.47-6.51,6.05.54,16.08.51,32.2,1.71,48.22.94,12.45,9.91,19.75,22.35,19.92,3.84.05,7.73.3,11.49-.25,2.48-.36,5.9-1.34,6.96-3.16,3.37-5.82,5.01-3.17,9.13-.37,3.85,2.61,9.89,2.43,14.98,2.44.85,0,2.36-5.31,2.44-8.2.44-15.82.64-31.65.71-47.47.08-16.62-.02-16.62-18.71-18.09Zm633.28,7.07c.01-4.99-2.41-6.83-7.26-6.14-2.15.31-4.38.39-6.56.24-6.25-.44-8.12,1.72-8.14,8.46-.03,12.95-1.34,25.96-3,38.83-.91,7.09-7.14,8.69-13.21,7.9-5.83-.77-7.66-5.43-7.89-10.84-.42-9.8-1.03-19.59-1.38-29.39-.55-15.31-.49-15.13-16-15.31-4.63-.06-6.65,1.5-6.58,5.95.26,16.07.23,32.16.94,48.22.37,8.34,4.08,16.35,12.52,18.44,11.05,2.72,23.05,5.5,30.63-2.82,7.12,1.45,12.68,2.68,18.28,3.69,5.26.95,7.64-1.47,7.63-6.72-.04-20.17-.02-40.34.02-60.51Zm-314.44,12.01c-1.13-17.19-22.63-28.07-37.85-19.57-5,2.79-8.98,3.95-14.4,2.15-3.27-1.09-7.04-.63-10.59-.94-4.34-.39-6.89,1.42-6.92,5.87-.12,20.42-.28,40.85-.04,61.27.03,1.89,2.7,5.16,4.4,5.34,6.09.66,12.28.26,18.8.26,0-13.23-.18-25.49.1-37.73.09-4,1.15-8.01,2.14-11.93,1.55-6.18,6.54-6.54,11.71-6.38,5.25.17,8.21,3.06,8.54,8.09.64,9.49,1.21,18.99,1.29,28.49.19,23.31.12,20.33,19.18,18.26,1.06-.12,2.12-.14,3.89-.26,0-18.16.89-35.6-.25-52.92Zm614.01-19.43c-5.3-.9-8.07,1.1-9.58,6.22-2.84,9.65-6.08,19.2-9.32,28.74-.87,2.57-2.34,4.95-3.93,8.27-2.88-8.85-6.5-16.07-7.42-23.62-1.94-15.93-11.36-20.43-25.64-19.26-.27.02-.54.11-3.41.68,1.43,6.23,2.19,12.3,4.22,17.91,5.74,15.88,12.23,31.48,17.99,47.35,3.66,10.07,1.2,12.99-9.38,14.08-2.46.25-6.26,2.66-6.65,4.63-.97,4.86-.32,10.04-.32,14.96,26.53,1.69,33.23-2.31,41.93-24.77,7.87-20.31,15.52-40.7,23.08-61.12,1.49-4.03,2.11-8.38,3.11-12.48-6.08-.64-10.42-.87-14.68-1.59Zm-215.84,18.78c-.36-8.48-3.92-15.29-12.71-18.12-13.22-4.26-26.29-3.12-39.35,1.02-8.89,2.82-12.22,9.5-13.07,17.87-.17,1.72,1.56,5.24,2.2,5.2,5.92-.45,13.41.41,17.27-2.85,4.92-4.15,9.55-5.34,15.3-5.96,5.26-.57,7.58,2.09,6.88,6.37-.34,2.05-3.69,4.64-6.07,5.13-8.77,1.81-17.93,2.07-26.49,4.49-4.15,1.18-8.64,5.19-10.64,9.1-8.89,17.32,1.68,34.29,21.13,34.31,7.53,0,15.06-1.28,23.98-2.11,5.28.41,12.31,1.22,19.33,1.23,1.23.01,3.54-3.36,3.52-5.16-.17-16.84-.56-33.69-1.28-50.52Zm-30.71,40.7c-3.04,1.34-8.98,1.62-10.44-.17-2.36-2.91-2.4-7.89-2.77-12.06-.08-.93,2.46-2.8,3.98-3.02,5.6-.81,11.27-1.12,17.77-1.69,1.69,8.46-1.85,13.97-8.54,16.94Zm-754.38-41.44c-6.77-16.78-18.22-22.28-36.1-18.28-4.16.94-8.23,2.3-13.73,3.86.39-4.01.62-6.83.95-9.64,2.34-19.99.27-22.08-19.83-20.03-.21.02-.4.33-1.04.88v98.38c2.27.13,3.88.21,5.48.32,7.98.56,15.98,1.75,23.94,1.53,9.25-.25,18.69,3.19,27.7-3.24,16.9-12.06,18.39-39.5,12.63-53.78Zm-33.74,38.77c-9.3.06-16.34-8.69-16.45-20.43-.1-10.57,7.28-19.44,16.45-19.77,8.42-.3,14.91,8.16,15.04,19.61.12,11.29-6.62,20.53-15.04,20.59ZM99.67,14.78c-3.11-2.94-6.95-5.49-10.91-7.1C61.28-3.51,34.3-2.87,8.34,12.27c-10.21,5.96-11.16,21.58-2.22,29.63,13.32,11.99,29.94,13.68,47.23,15.15,4.92-.55,10.44-.76,15.78-1.85,11.27-2.3,22.55-4.81,30.92-13.75,8.15-8.69,8.24-18.54-.38-26.67Zm641.79,332.48c-5.17-.14-10.34-.03-17.23-.03v30.2c-32.71-7.44-41.32-1.93-48.33,14.34-6.11,14.16-5.98,43.39,11.64,54.46,9.59,6.02,29.36,5.35,37.13-2.08,4,9.3,12.28,4.31,18.77,5.07.48.06,2.02-7.23,2.74-11.17.44-2.39.32-4.89.34-7.34.12-24.79.3-49.59.25-74.39-.01-3.74,1.14-8.89-5.31-9.06Zm-19.78,76.01c-1.52,3.87-8.91,7.55-13.69,7.57-6.86.02-11.41-5.73-12.96-12.73-.45-2.06-.07-4.32-.07-6.48-.09-.01-.18-.01-.27-.01.1-2.16-.12-4.41.36-6.48,1.59-6.89,4.05-13.21,12.59-13.81,7.99-.55,13.78,3.4,15.01,10.82,1.16,6.91,1.49,14.86-.97,21.12Zm380.49-39.84c.08-6.09-1.71-7.45-7.3-7.39-8.13.1-16.66.78-24.33-1.29-20.27-5.47-39.32,4.16-43.28,24.61-1.69,8.77-1.39,18.67.87,27.31,6.66,25.42,34.18,29.56,50.78,17.31,0,8.63-.16,16.36.1,24.07.08,2.23,1.25,6.27,2.13,6.33,6.19.41,12.66.84,18.52-.68,1.73-.44,2.52-7.17,2.53-11.02.11-26.42-.36-52.84-.02-79.25Zm-28.49,44.56c-2.69,2.78-10.49,3.89-13.86,1.98-4.55-2.57-9.32-8.52-9.83-13.45-.65-6.24,1.97-13.36,4.85-19.29,3.48-7.15,14.24-6.88,20.04.45,2.82,3.58,3.88,8.55,6.09,13.7-2.38,5.87-3.41,12.61-7.29,16.61Zm-116.49-52.02c-11.69-.37-23.36-1.32-35.05-1.67-18.96-.57-28.69,7.15-32.87,25.82-.72,3.18-1.37,6.47-1.32,9.7.33,18.72,7.23,37.04,33.19,36.6,6.12-.11,12.21-2.33,20.11-3.94-1.53,4.43-1.76,10.29-4.76,12.61-5.22,4.04-12.62,5.39-18.18.1-7.96-7.59-16.98-5.11-26.52-4.87,1.63,9.54,4.43,16.88,13.62,21.28,10.36,4.96,20.73,3.92,31.33,2.73,15.86-1.79,25.81-12.33,26.08-28.27.36-21.26.13-42.52.47-63.77.08-4.76-1.61-6.17-6.1-6.32Zm-18.81,45.51c-2.87,3.37-8.45,7.58-11.7,6.78-4.72-1.17-9.45-5.83-12.25-10.21-4.07-6.38-1.94-19.26,3.99-23.23,3.4-2.28,9.35-2.71,13.5-1.58,7.93,2.16,8.72,9.54,9.1,18.79-.45,1.85-.31,6.69-2.64,9.45ZM106.29,77c-.01-3.31-.54-6.63-.84-10.08-35.56,8.38-42.48,17.8-104.71.4-.18,3.14-.43,5.54-.43,7.94-.05,51.28.03,102.56-.24,153.84-.03,5.72,2.81,6.42,7,6.42,30.68-.03,61.35-.14,92.03-.12,5.49,0,7.51-1.97,7.48-7.83-.28-50.19-.2-100.38-.29-150.57Zm286.4,89.93c-15.43-21.39-39.42-28.9-63.14-36.05-12.67-3.82-26.06-5.27-38.79-8.92-7.42-2.12-7.92-8.53-1.51-12.44,3.14-1.92,7.03-3.35,10.68-3.58,21.86-1.39,42.96,2.94,63.76,9.17,7.02,2.1,14,4.34,22.29,6.92,0-13.39-.35-25.09.16-36.76.25-5.64-2.08-7.91-7.03-8.9-9.91-1.98-19.82-3.94-29.69-6.1-37.65-8.22-75.64-8.68-113.29-1.79-22.01,4.03-43.44,11.53-58.82,29.77-6.4,7.59-6.96,15.66-2.8,24.36,6.1,12.74,16.47,21.33,29.13,26.36,14.42,5.74,29.6,9.58,44.31,14.64,11.34,3.89,22.58,8.12,33.6,12.82,2.55,1.09,4.02,4.68,5.99,7.12-2.44,1.48-4.72,3.41-7.36,4.36-25.56,9.25-50.52,1.98-75.55-2.99-.5-.09-.89-.64-1.39-.84-10.02-4.02-20.04-8.03-32.12-12.86,0,16.16-.09,30.98.16,45.78.03,1.28,2.14,3.24,3.63,3.65,8.94,2.49,18,4.57,26.99,6.88,35.72,9.18,72.19,9.07,108.59,7.78,27.55-.98,53.5-8.64,75.72-25.72,14.54-11.16,17.17-27.83,6.48-42.66Zm1529.37,5.09c.04-5.3-2.34-6.68-7.22-5.4-6.87,1.81-13.76,3.56-20.7,5.02-12.04,2.54-24.04,5.62-36.22,7.06-18.51,2.2-31.29-9.63-31.37-27.9-.07-14.97-.02-29.93-.02-46.82,8.9,0,15.97.05,23.04-.01,19.18-.17,38.36-.74,57.53-.39,7.47.14,8.73-2.9,8.34-9.2-.41-6.8-.07-13.64.01-20.47.12-10.77.06-10.37-11.12-10.12-22.18.5-44.38.68-66.57.44-11.41-.13-11.36-.67-11.43-11.55-.07-11.18-.02-22.38-.55-33.55-.11-2.27-2.51-6.3-3.95-6.34-12.44-.33-25.12-2.83-37.05,3.51-38.39,20.39-76.71,40.92-115.43,60.67-8.92,4.55-12.39,9.78-11.52,19.62.48,5.44,1.85,7.16,7.06,7.12,11.78-.09,23.57.65,35.33.16,7.33-.3,9.56,2.3,9.45,9.32-.37,23.47-.03,46.94-.48,70.41-.23,11.41,4.1,19.48,13.38,26.23,18.39,13.38,38.89,21.36,61.16,24.16,36.29,4.56,72.17,1.35,107.34-8.79,8.65-2.49,17.29-5.13,25.62-8.47,2.35-.94,5-4.56,5.1-7.05.52-12.54.16-25.1.27-37.66Zm-300.88,18.94c-11.73-.7-15.32-3.69-15.6-15.22-.34-14.15.1-28.34.84-42.47,1.33-25.34-9.31-43.33-32.78-53.01-21.55-8.88-43.73-15.82-67.45-15.77-20.54.04-41.13-.62-61.62.49-29.64,1.61-58.75,6.76-85.83,19.6-6.02,2.85-14.82,4.63-15.27,13.14-.78,14.72-.22,29.52-.22,44.95,23.79-12.96,49.02-19.97,74.58-25.79,22.59-5.14,45.29-8.15,67.83.96,7.01,2.83,12.05,7.03,14.86,15.56-10.05,2.82-19.48,6.76-29.24,7.95-29.77,3.63-59.67,6.14-88.76,14.12-15.08,4.13-28.53,11.21-40.02,21.51-12.74,11.41-12.73,26.82-.48,38.69,11.19,10.85,25.21,15.97,40.36,18.41,26.42,4.26,52.98,3.54,79.43,1.04,17.59-1.66,35.54-2.57,51.76-11.31,1.97-1.07,5.6.24,8.21,1.17,7.89,2.82,15.46,7.79,23.51,8.68,19.54,2.16,39.28,2.43,58.94,3.55,10.84.62,18.33-3.44,22.22-14.05,2.63-7.14,6.52-13.81,9.37-20.87,1.24-3.08,1.29-6.63,2.12-11.28-6.49,0-11.64.26-16.76-.05Zm-120.96,5.5c-.07,1.8-2.29,4.12-4.11,5.14-20.02,11.16-41.57,8.61-62.98,6.38-6.07-.62-10.58-5.02-10.54-10.78.03-4.56,2.03-11.02,5.41-13.25,7.08-4.67,15.38-8.11,23.65-10.23,13.7-3.51,27.77-5.61,41.7-8.21,2.05-.38,4.21-.23,7.06-.36,0,10.79.2,21.06-.19,31.31Zm-743.29-94.34c-28.13-24.98-63.18-33.5-99.07-36.81-27.43-2.54-55.32-1.23-82.95-.23-14.08.52-28.36,2.98-42.01,6.58-25.74,6.81-49.04,18.69-67.43,38.56-19.47,21.03-20.23,55.39-1.65,76.42,18.72,21.19,42.54,34.85,69.79,40.5,26.1,5.42,52.93,7.4,79.44,10.9.1-.85.21-1.69.32-2.53,6.85,0,13.71.3,20.54-.05,32.42-1.66,64.36-5.7,94.05-20.07,18.05-8.73,34.77-19.9,44.08-37.86,13.59-26.21,9.47-53.59-15.11-75.41Zm-106.07,71.92c-11.45,3.99-23.43,6.48-35.37,9.68-13.49-3.23-26.31-5.69-38.73-9.46-9.97-3.03-16.91-15.04-16.61-25.94.3-10.77,7.46-20.81,17.44-24.44,24.53-8.94,49-10.54,73.44.41,10.7,4.8,17.14,12.46,17.1,24.53-.05,12.23-5.83,21.23-17.27,25.22Zm629.33-51.95c-.61-19.93-10.21-35.84-29.28-44.93-38.24-18.24-78.16-15.38-118.3-9.69-17.23,2.44-30.5,12.61-43.37,23.8-22.79-24.4-52.63-26.32-82.7-28.03-30.93-1.75-59.67,4.34-85.72,23.96-1.01-8.04-1.76-14.13-2.56-20.47-3.05-.15-5.48-.36-7.9-.36-26.86-.02-53.72.24-80.57-.18-7.55-.11-9.9,2.07-9.81,9.65.48,40.66.48,81.33.63,121.99.04,11.39,0,22.78,0,36.08,1.02.26,3.59,1.49,6.17,1.51,28.23.18,56.45.2,84.68.21,4.15,0,6.43-1.59,6.42-6.41-.07-23.46.16-46.92.29-70.38.02-3.27-.17-6.58.24-9.81,1.63-12.81,6.69-23.79,18.86-29.77,12.46-6.12,24.11-4.19,35.39,4.12,9.52,7.03,11.91,16.4,11.91,27.2-.01,24.84-.05,49.67.07,74.5.05,10.51.3,10.61,11.26,10.6,33.16-.05,66.32-.1,99.48-.14,10-.02,10.52-.46,10.53-10.79.03-25.11.75-50.25-.34-75.31-.56-12.9,4.36-21.42,14.23-28.2,10.33-7.09,21.36-8.48,32.47-2.25,10.26,5.76,18.46,12.69,18.1,26.58-.71,27,.12,54.04-.43,81.05-.15,7.25,2.25,8.85,8.75,8.82,28.5-.14,57,.03,85.5.09,5.13.01,10.25,0,15.73,0,.25-1.95.57-3.25.57-4.55.03-36.3.81-72.63-.3-108.89Z"/>
      <path class="cls-1" d="m820.61,233.91c0-13.3.03-24.69,0-36.08-.15-40.66-.15-81.33-.63-121.99-.09-7.58,2.26-9.76,9.81-9.65,26.85.42,53.71.15,80.57.17,2.42,0,4.85.22,7.91.36.79,6.34,1.55,12.43,2.55,20.47,26.06-19.62,54.8-25.71,85.73-23.95,30.06,1.71,59.91,3.63,82.7,28.03,12.87-11.19,26.14-21.36,43.36-23.81,40.14-5.69,80.07-8.55,118.3,9.69,19.07,9.1,28.67,25.01,29.28,44.93,1.11,36.27.32,72.59.3,108.89,0,1.3-.32,2.61-.57,4.55-5.48,0-10.61,0-15.73,0-28.5-.06-57-.23-85.5-.09-6.5.03-8.91-1.58-8.76-8.82.55-27.01-.27-54.05.44-81.05.36-13.89-7.84-20.82-18.1-26.58-11.1-6.23-22.14-4.84-32.47,2.25-9.86,6.78-14.79,15.3-14.23,28.2,1.09,25.06.37,50.21.34,75.31-.01,10.33-.53,10.77-10.53,10.78-33.16.04-66.32.1-99.48.14-10.96.01-11.22-.08-11.27-10.6-.11-24.83-.08-49.66-.07-74.49,0-10.8-2.38-20.18-11.91-27.2-11.28-8.32-22.93-10.24-35.39-4.12-12.17,5.98-17.23,16.96-18.85,29.76-.41,3.23-.22,6.54-.24,9.81-.14,23.46-.36,46.92-.29,70.38.01,4.81-2.27,6.4-6.42,6.4-28.23,0-56.45-.02-84.67-.21-2.58-.02-5.15-1.25-6.17-1.51Z"/>
      <path class="cls-1" d="m756.93,102.12c-28.13-24.98-63.18-33.5-99.07-36.81-27.43-2.54-55.32-1.23-82.95-.23-14.08.52-28.36,2.98-42.01,6.58-25.74,6.81-49.04,18.69-67.43,38.56-19.47,21.03-20.23,55.39-1.65,76.42,18.72,21.19,42.54,34.85,69.79,40.5,26.1,5.42,52.93,7.4,79.44,10.9.1-.85.21-1.69.32-2.53,6.85,0,13.71.3,20.54-.05,32.42-1.66,64.36-5.7,94.05-20.07,18.05-8.73,34.77-19.9,44.08-37.86,13.59-26.21,9.47-53.59-15.11-75.41Zm-106.07,71.92c-11.45,3.99-23.43,6.48-35.37,9.68-13.49-3.23-26.31-5.69-38.73-9.46-9.97-3.03-16.91-15.04-16.61-25.94.3-10.77,7.46-20.81,17.44-24.44,24.53-8.94,49-10.54,73.44.41,10.7,4.8,17.14,12.46,17.1,24.53-.05,12.23-5.83,21.23-17.27,25.22Z"/>
      <path class="cls-1" d="m1621.18,190.96c-11.73-.7-15.32-3.69-15.6-15.22-.34-14.15.1-28.34.84-42.47,1.33-25.34-9.31-43.33-32.78-53.01-21.55-8.88-43.73-15.82-67.45-15.77-20.54.04-41.13-.62-61.62.49-29.64,1.61-58.75,6.76-85.83,19.6-6.02,2.85-14.82,4.63-15.27,13.14-.78,14.72-.22,29.52-.22,44.95,23.79-12.96,49.02-19.97,74.58-25.79,22.59-5.14,45.29-8.15,67.83.96,7.01,2.83,12.05,7.03,14.86,15.56-10.05,2.82-19.48,6.76-29.24,7.95-29.77,3.63-59.67,6.14-88.76,14.12-15.08,4.13-28.53,11.21-40.02,21.51-12.74,11.41-12.73,26.82-.48,38.69,11.19,10.85,25.21,15.97,40.36,18.41,26.42,4.26,52.98,3.54,79.43,1.04,17.59-1.66,35.54-2.57,51.76-11.31,1.97-1.07,5.6.24,8.21,1.17,7.89,2.82,15.46,7.79,23.51,8.68,19.54,2.16,39.28,2.43,58.94,3.55,10.84.62,18.33-3.44,22.22-14.05,2.63-7.14,6.52-13.81,9.37-20.87,1.24-3.08,1.29-6.63,2.12-11.28-6.49,0-11.64.26-16.76-.05Zm-120.96,5.5c-.07,1.8-2.29,4.12-4.11,5.14-20.02,11.16-41.57,8.61-62.98,6.38-6.07-.62-10.58-5.02-10.54-10.78.03-4.56,2.03-11.02,5.41-13.25,7.08-4.67,15.38-8.11,23.65-10.23,13.7-3.51,27.77-5.61,41.7-8.21,2.05-.38,4.21-.23,7.06-.36,0,10.79.2,21.06-.19,31.31Z"/>
      <path class="cls-1" d="m1826.54,103.97c0,16.89-.06,31.86.01,46.83.08,18.26,12.86,30.1,31.37,27.9,12.18-1.45,24.18-4.52,36.21-7.06,6.95-1.47,13.84-3.21,20.71-5.02,4.88-1.28,7.26.1,7.22,5.4-.11,12.55.25,25.12-.26,37.65-.1,2.49-2.76,6.11-5.11,7.05-8.33,3.34-16.97,5.98-25.61,8.47-35.17,10.14-71.05,13.35-107.35,8.79-22.27-2.8-42.77-10.78-61.16-24.16-9.28-6.75-13.61-14.82-13.38-26.24.46-23.46.12-46.94.48-70.4.11-7.02-2.12-9.62-9.45-9.32-11.75.48-23.55-.25-35.32-.17-5.22.04-6.59-1.68-7.06-7.12-.86-9.84,2.6-15.07,11.52-19.62,38.72-19.75,77.04-40.28,115.43-60.67,11.93-6.34,24.61-3.83,37.05-3.51,1.43.04,3.84,4.07,3.95,6.34.53,11.17.48,22.37.55,33.55.07,10.88.02,11.42,11.43,11.54,22.19.24,44.39.06,66.57-.44,11.17-.25,11.24-.65,11.12,10.13-.08,6.82-.42,13.67,0,20.46.38,6.3-.88,9.34-8.34,9.21-19.17-.35-38.35.22-57.53.38-7.07.06-14.14,0-23.04,0Z"/>
      <path class="cls-1" d="m385.99,122.03c-8.3-2.58-15.28-4.82-22.3-6.92-20.79-6.23-41.9-10.56-63.76-9.17-3.65.23-7.54,1.66-10.68,3.58-6.41,3.92-5.91,10.32,1.51,12.45,12.74,3.65,26.12,5.1,38.79,8.91,23.73,7.15,47.71,14.66,63.14,36.05,10.69,14.83,8.06,31.5-6.47,42.67-22.22,17.08-48.17,24.73-75.72,25.71-36.4,1.3-72.87,1.4-108.59-7.78-8.99-2.31-18.05-4.39-26.99-6.88-1.49-.41-3.6-2.37-3.63-3.65-.25-14.81-.16-29.62-.16-45.78,12.08,4.83,22.1,8.83,32.12,12.86.5.2.89.74,1.4.84,25.03,4.96,49.99,12.24,75.55,2.99,2.64-.95,4.92-2.89,7.36-4.37-1.97-2.44-3.44-6.03-5.99-7.12-11.02-4.7-22.26-8.93-33.6-12.82-14.71-5.06-29.89-8.9-44.31-14.63-12.66-5.03-23.02-13.62-29.12-26.36-4.17-8.7-3.6-16.77,2.8-24.36,15.38-18.24,36.81-25.74,58.81-29.77,37.66-6.9,75.65-6.43,113.3,1.79,9.87,2.15,19.78,4.12,29.68,6.1,4.96.99,7.28,3.26,7.03,8.9-.51,11.66-.15,23.36-.15,36.76Z"/>
      <path class="cls-1" d="m.74,67.32c62.23,17.4,69.15,7.98,104.71-.41.3,3.46.83,6.77.84,10.08.09,50.19.01,100.38.29,150.57.03,5.86-1.99,7.84-7.48,7.83-30.68-.02-61.35.09-92.03.12-4.19,0-7.03-.69-7-6.41.27-51.28.19-102.56.24-153.84,0-2.4.25-4.8.43-7.94Z"/>
      <path class="cls-1" d="m957.19,375.97c-11.69-.37-23.36-1.32-35.05-1.67-18.96-.57-28.69,7.15-32.87,25.82-.72,3.18-1.37,6.47-1.32,9.7.33,18.72,7.23,37.04,33.19,36.6,6.12-.11,12.21-2.33,20.11-3.94-1.53,4.43-1.76,10.29-4.76,12.61-5.22,4.04-12.62,5.39-18.18.1-7.96-7.59-16.98-5.11-26.52-4.87,1.63,9.54,4.43,16.88,13.62,21.28,10.36,4.96,20.73,3.92,31.33,2.73,15.86-1.79,25.81-12.33,26.08-28.27.36-21.26.13-42.52.47-63.77.08-4.76-1.61-6.17-6.1-6.32Zm-18.81,45.51c-2.87,3.37-8.45,7.58-11.7,6.78-4.72-1.17-9.45-5.83-12.25-10.21-4.07-6.38-1.94-19.26,3.99-23.23,3.4-2.28,9.35-2.71,13.5-1.58,7.93,2.16,8.72,9.54,9.1,18.79-.45,1.85-.31,6.69-2.64,9.45Z"/>
      <path class="cls-1" d="m1102.17,383.43c.08-6.09-1.71-7.45-7.3-7.39-8.13.1-16.66.78-24.33-1.29-20.27-5.47-39.32,4.16-43.28,24.61-1.69,8.77-1.39,18.67.87,27.31,6.66,25.42,34.18,29.56,50.78,17.31,0,8.63-.16,16.36.1,24.07.08,2.23,1.25,6.27,2.13,6.33,6.19.41,12.66.84,18.52-.68,1.73-.44,2.52-7.17,2.53-11.02.11-26.42-.36-52.84-.02-79.25Zm-28.49,44.56c-2.69,2.78-10.49,3.89-13.86,1.98-4.55-2.57-9.32-8.52-9.83-13.45-.65-6.24,1.97-13.36,4.85-19.29,3.48-7.15,14.24-6.88,20.04.45,2.82,3.58,3.88,8.55,6.09,13.7-2.38,5.87-3.41,12.61-7.29,16.61Z"/>
      <path class="cls-1" d="m741.46,347.26c-5.17-.14-10.34-.03-17.23-.03v30.2c-32.71-7.44-41.32-1.93-48.33,14.34-6.11,14.16-5.98,43.39,11.64,54.46,9.59,6.02,29.36,5.35,37.13-2.08,4,9.3,12.28,4.31,18.77,5.07.48.06,2.02-7.23,2.74-11.17.44-2.39.32-4.89.34-7.34.12-24.79.3-49.59.25-74.39-.01-3.74,1.14-8.89-5.31-9.06Zm-19.78,76.01c-1.52,3.87-8.91,7.55-13.69,7.57-6.86.02-11.41-5.73-12.96-12.73-.45-2.06-.07-4.32-.07-6.48-.09-.01-.18-.01-.27-.01.1-2.16-.12-4.41.36-6.48,1.59-6.89,4.05-13.21,12.59-13.81,7.99-.55,13.78,3.4,15.01,10.82,1.16,6.91,1.49,14.86-.97,21.12Z"/>
      <path class="cls-1" d="m53.35,57.04c-17.28-1.47-33.91-3.16-47.22-15.14C-2.82,33.85-1.87,18.22,8.34,12.27,34.3-2.87,61.28-3.51,88.76,7.68c3.96,1.61,7.8,4.16,10.91,7.1,8.61,8.13,8.52,17.98.38,26.67-8.37,8.93-19.65,11.44-30.92,13.75-5.34,1.09-10.86,1.3-15.78,1.85Z"/>
      <path class="cls-1" d="m488.48,392.68c-6.77-16.78-18.22-22.28-36.1-18.28-4.16.94-8.23,2.3-13.73,3.86.39-4.01.62-6.83.95-9.64,2.34-19.99.27-22.08-19.83-20.03-.21.02-.4.33-1.04.88v98.38c2.27.13,3.88.21,5.48.32,7.98.56,15.98,1.75,23.94,1.53,9.25-.25,18.69,3.19,27.7-3.24,16.9-12.06,18.39-39.5,12.63-53.78Zm-33.74,38.77c-9.3.06-16.34-8.69-16.45-20.43-.1-10.57,7.28-19.44,16.45-19.77,8.42-.3,14.91,8.16,15.04,19.61.12,11.29-6.62,20.53-15.04,20.59Z"/>
      <path class="cls-1" d="m1273.57,393.42c-.36-8.48-3.92-15.29-12.71-18.12-13.22-4.26-26.29-3.12-39.35,1.02-8.89,2.82-12.22,9.5-13.07,17.87-.17,1.72,1.56,5.24,2.2,5.2,5.92-.45,13.41.41,17.27-2.85,4.92-4.15,9.55-5.34,15.3-5.96,5.26-.57,7.58,2.09,6.88,6.37-.34,2.05-3.69,4.64-6.07,5.13-8.77,1.81-17.93,2.07-26.49,4.49-4.15,1.18-8.64,5.19-10.64,9.1-8.89,17.32,1.68,34.29,21.13,34.31,7.53,0,15.06-1.28,23.98-2.11,5.28.41,12.31,1.22,19.33,1.23,1.23.01,3.54-3.36,3.52-5.16-.17-16.84-.56-33.69-1.28-50.52Zm-30.71,40.7c-3.04,1.34-8.98,1.62-10.44-.17-2.36-2.91-2.4-7.89-2.77-12.06-.08-.93,2.46-2.8,3.98-3.02,5.6-.81,11.27-1.12,17.77-1.69,1.69,8.46-1.85,13.97-8.54,16.94Z"/>
      <path class="cls-1" d="m1430.11,375.67c2.87-.58,3.14-.66,3.41-.68,14.28-1.17,23.7,3.33,25.64,19.26.92,7.55,4.54,14.77,7.41,23.62,1.6-3.31,3.06-5.69,3.94-8.27,3.24-9.54,6.47-19.08,9.32-28.74,1.51-5.12,4.28-7.12,9.58-6.22,4.26.72,8.59.96,14.68,1.59-1,4.1-1.63,8.45-3.12,12.48-7.56,20.43-15.21,40.82-23.08,61.13-8.7,22.46-15.41,26.46-41.93,24.77,0-4.92-.65-10.1.32-14.96.39-1.97,4.2-4.38,6.65-4.63,10.58-1.09,13.04-4,9.38-14.08-5.76-15.87-12.25-31.47-17.99-47.34-2.03-5.62-2.79-11.69-4.22-17.91Z"/>
      <path class="cls-1" d="m875.65,446.99c-1.77.11-2.83.14-3.89.25-19.06,2.07-18.99,5.05-19.18-18.26-.08-9.5-.65-19-1.29-28.49-.34-5.03-3.3-7.92-8.55-8.09-5.16-.17-10.16.2-11.71,6.38-.98,3.92-2.05,7.93-2.14,11.93-.28,12.25-.1,24.5-.1,37.73-6.51,0-12.71.4-18.79-.26-1.71-.18-4.38-3.46-4.4-5.34-.25-20.42-.09-40.85.04-61.28.03-4.45,2.57-6.25,6.92-5.87,3.54.31,7.32-.15,10.59.94,5.42,1.8,9.4.64,14.39-2.14,15.22-8.5,36.73,2.38,37.85,19.57,1.14,17.31.25,34.76.25,52.92Z"/>
      <path class="cls-1" d="m1163.91,445.6c-7.58,8.32-19.57,5.54-30.62,2.82-8.44-2.08-12.15-10.1-12.52-18.44-.71-16.06-.68-32.14-.94-48.22-.07-4.45,1.94-6.01,6.58-5.95,15.51.18,15.45,0,16,15.31.35,9.8.96,19.59,1.38,29.39.23,5.41,2.06,10.07,7.89,10.84,6.07.8,12.31-.81,13.22-7.89,1.66-12.87,2.97-25.88,3-38.83.02-6.75,1.89-8.9,8.14-8.47,2.17.15,4.4.07,6.56-.24,4.85-.69,7.27,1.15,7.26,6.14-.04,20.17-.06,40.34-.02,60.51.01,5.25-2.37,7.67-7.63,6.72-5.6-1.01-11.17-2.24-18.29-3.69Z"/>
      <path class="cls-1" d="m556.56,374.98c18.69,1.47,18.79,1.47,18.71,18.09-.07,15.82-.27,31.65-.71,47.47-.08,2.89-1.6,8.2-2.45,8.2-5.08,0-11.13.17-14.98-2.44-4.11-2.79-5.76-5.45-9.13.37-1.05,1.82-4.47,2.8-6.96,3.16-3.76.55-7.65.3-11.49.25-12.45-.17-21.41-7.47-22.35-19.92-1.21-16.03-1.17-32.14-1.71-48.22-.15-4.58,1.95-6.45,6.51-6.04,2.44.22,4.97.25,7.38-.13,6-.95,7.64,1.88,7.74,7.35.23,12.79.78,25.58,1.38,38.36.29,6.05,3.68,9.78,9.8,9.99,6.16.22,12.06-1.7,13.22-8.47,1.92-11.22,2.88-22.61,4.11-33.94.49-4.53.61-9.09.92-14.08Z"/>
      <path class="cls-1" d="m1381.22,352.22h20.67c0,6.25.1,12.14-.03,18.03-.1,4.42,1.63,6.73,6.31,6.2,7.18-.81,9.11,3.04,8.67,9.37-.46,6.61-4.79,6.16-9.43,5.57-1.32-.17-2.69-.03-5.33-.03,0,11.7-.39,23.27.19,34.8.23,4.56,4.16,5.91,8.67,4.6,4.38-1.27,5.82.66,5.92,5,.35,14.54.46,14.54-13.93,14.35-18.34-.23-22.56-4.49-22.61-22.96-.03-9.82.35-19.66-.19-29.45-.12-2.22-3.02-5.64-5.16-6.1-4.73-1.02-8.42-2.83-7.3-7.73.68-2.98,3.79-6.92,6.51-7.6,4.99-1.23,5.98-3.89,6.14-8.07.19-5.13.57-10.24.9-15.97Z"/>
      <path class="cls-1" d="m1290.81,347.41c25,.04,20.67-3.71,20.86,18.26.23,25.86-.33,51.73-.26,77.6.01,5.3-1.59,6.32-6.75,5.73-14.39-1.64-14.44-1.37-14.41-16.16.05-26.41.11-52.83.2-79.24,0-1.86.22-3.72.37-6.19Z"/>
      <path class="cls-1" d="m655.1,447.86c-19.14,2.23-19.52,2.24-19.71-14.93-.32-27.95-.09-55.9-.09-84.31h19.8v99.24Z"/>
      <path class="cls-1" d="m764.78,374.32c3.74.61,6.1,1.06,8.49,1.39q13.69,1.85,13.69,16.07c0,16.06-.33,32.13.13,48.18.2,6.9-2.17,8.79-8.87,8.81-13.91.04-13.94.42-14.03-14.05-.11-17.15-.18-34.3-.18-51.45,0-2.65.45-5.3.78-8.94Z"/>
      <path class="cls-1" d="m615.76,412.71c0,10.07-.13,20.13.06,30.2.09,4.65-.79,6.9-6.42,6.37-14.92-1.39-15.1-1.11-15.29-16.58-.2-16.59.03-33.19-.15-49.78-.06-5.72,1.13-8.15,7.96-7.28,13.81,1.77,13.87,1.26,13.87,15.03,0,7.35,0,14.69,0,22.04h-.03Z"/>
      <path class="cls-1" d="m1332.16,376.74q20.43-1.76,20.42,17.56c0,15.54,0,31.08-.04,46.63,0,2.65-.26,5.29-.42,8.44-6.87-.36-13.05-.68-19.96-1.05v-71.58Z"/>
      <path class="cls-1" d="m774.44,366.67c-4.88-.18-10.62,2.35-10.6-6.07.03-10.31,2.16-13.79,9.89-13.92q12.99-.23,13.28,9.18c.31,9.99-.31,10.51-12.58,10.82Z"/>
      <path class="cls-1" d="m614.67,366.35c-1.45.18-2.52.41-3.59.42-19.13.15-19.75-.69-14.47-19.59,19.59-2.01,21.69.11,18.05,19.17Z"/>
      <path class="cls-1" d="m1331.58,347.24c19.98-1.99,20.77-1.71,20.99,6.36.36,13.71.15,15.06-15.44,12.66-13.37-2.06-.32-12.78-5.55-19.02Z"/>
    </g>
  </g>
</svg>