<svg xmlns="http://www.w3.org/2000/svg" id="Layer_2" data-name="Layer 2" viewBox="0 0 1367.89 1106.01"><g id="Layer_1-2" data-name="Layer 1"><path d="m354.43,1106c.66-98.89-11.36-196.94,17.02-292.72,26.27-88.67,72.56-166.22,131.45-236.58,22.7-27.13,46.74-53.26,71.62-78.42,82.41-83.31,165.35-166.09,248.57-248.59,5.25-5.21,14.61-8.75,22.1-8.83,67.24-.65,134.48-.34,201.73-.32,7.89,0,15.79,0,23.68,0,.42,1.05.83,2.11,1.25,3.16-11.97,12.15-23.86,24.38-35.93,36.43-104.58,104.4-209.18,208.77-313.79,313.14-1.99,1.99-3.78,4.31-6.09,5.83-7.61,5.04-7.01,10.12-1.78,16.92,34.34,44.66,68.38,89.55,102.55,134.34,87.39,114.55,174.81,229.08,262.18,343.64,2.15,2.82,3.93,5.91,6.49,9.81-3.05.92-5.14,2.11-7.24,2.11-64.01-.05-128.02-.03-192.02-.67-6.04-.06-14.3-2.61-17.7-6.98-39.51-50.83-78.1-102.36-117.29-153.44-51.69-67.37-103.66-134.52-155.59-201.72-11.09-14.35-11.42-13.96-23.88-.45-11.72,12.72-23.8,25.18-36.5,36.91-8.09,7.48-11.21,15.76-11.18,26.59.24,95.03-.03,190.07.39,285.1.05,11.5-2.54,14.43-14.7,14.25-48.7-.73-97.43.17-146.15.47-2.78.02-5.55,0-9.2,0Z"/><path d="m353.6,692.39c0-123,0-245.8,0-368.59,0-23.76.36-47.52-.1-71.26-.16-8.01,2.54-10.51,10.3-10.49,49.92.16,99.85.12,149.78-.18,8.13-.05,10.01,3.14,10,10.8-.07,76.09.32,152.19.15,228.28-.01,4.37-2.66,10.2-6.04,12.87-46.78,36.99-87.18,79.91-120.44,129.36-15.13,22.5-28.97,45.85-43.64,69.2Z"/><path d="m991.99,20.72c2.57-6.26,5.15-12.53,8.51-20.72,44.89,21.36,86.06,48.76,123.88,81.13,101.49,86.85,173.75,193.32,212.95,321.43,75.65,247.21-1.01,479.99-100.56,602.96-5.34-13.1-10.95-25.38-15.14-38.13-1.06-3.22,1.71-8.4,3.95-11.88,56.33-87.42,89.54-183.4,100.7-286.22,8.96-82.52,1.79-164.11-21.65-244.66-33.51-115.13-94.37-212.95-181.55-293.82-34.58-32.07-75.26-57.56-113.16-86.03-2.69-2.02-5.44-3.98-10.52-7.68,16.5-5.43,28.01,15.81,42.61,2.15-14.58-12.68-31.51-18.01-50.27-18.71,0,0,.26.18.26.18Z"/><path d="m133.84,1010.5C-122.59,662.22,7.84,178.95,368.66.96c0,2.26.76,5.12-.12,5.76-8.08,5.94-16.34,11.64-24.75,17.11-7.31,4.75-14.89,9.11-22.35,13.64.39,1.66.77,3.31,1.16,4.97,8.32,2.09,16.64,4.18,24.96,6.27l.95,3.96c-6.53,2.58-13.06,5.16-19.59,7.74.45.23.89.45,1.34.68-10.41,8.36-20.6,16.99-31.25,25.02-126.99,95.76-208.38,221.02-244.51,375.96-21.35,91.57-21.13,183-2.89,275.06,14.25,71.93,42.35,138.11,79.86,200.39,7.49,12.44,10.78,23.14,8.02,36.78-2.3,11.35-3.63,22.9-5.66,36.2Z"/><path d="m991.72,20.53c.88,4.03,1.76,8.06,2.63,12.09-1.08.62-2.17,1.24-3.25,1.86-8.87-4.46-17.74-8.91-27.25-13.69,10.39,0,19.3,0,28.17-.03-.04-.03-.3-.22-.3-.22Z"/></g></svg>