<svg xmlns="http://www.w3.org/2000/svg" id="Layer_2" data-name="Layer 2" viewBox="0 0 332.59 425.01"><g id="Layer_1-2" data-name="Layer 1"><g><path d="m193.76,239.85c-3.16-8.75-7.12-16.95-15.62-23.47,2.97,5.93,5.41,10.81,8.05,16.06-10.05.83-19.56-1.5-29.86,2.43,9.55.65,17.65,1.21,26.8,1.83-9.43.84-17.71,1.57-25.98,2.31l.1,1.55c8.22.54,16.43,1.07,24.65,1.61-.02.49-.03.98-.05,1.48-12.61-.31-24.93.83-36.13,7.75,3.34-.33,6.67-.7,10.01-.98,8.72-.73,17.22,0,25.56,3.06,3.72,1.36,5.53,3.61,5.46,7.28-.17,9.1-.55,18.19-.84,26.98,6.76-2.24,18.57-17.84,21.44-45.46.46,9.26.91,18.52,1.43,29.08,4.87-10.87,7.38-21.17,8.72-32.09.8,5.05,1.6,10.1,2.39,15.15.31-.01.62-.02.92-.04.5-8.29,1.01-16.58,1.51-24.87,2.11,13.54,5.76,26.66-5.22,39.17-8.82,10.05-17.25,20.32-27.44,29.06-6.45,5.54-13.5,8.98-22.2,7.84-4.63-.61-7.89.35-9.06,5.65-.53,2.42-2.49,4.52-3.81,6.77-.6-.34-1.19-.68-1.79-1.02,1.75-3.58,3.5-7.15,5.27-10.76-8.63-1.64-10.02-.62-11.55,7.53-.28,1.48-1.6,2.76-2.44,4.13-.69-.39-1.39-.77-2.08-1.16,1.54-3.86,3.08-7.73,4.75-11.94-2.06-.74-4.2-1.51-6.44-2.32-3.59,4.42-.04,11.55-4.89,15.1l-1.9-.68c1.21-5.07,2.42-10.14,3.77-15.81-.52-.43-1.62-1.32-3.68-2.99-.98,6.85-1.85,12.94-2.9,20.25-8.42-.82-16.81-1.78-25.21-2.36-1.99-.14-4.06,1.46-6.11,1.52-7.49.2-15-.19-22.48.21-4.36.23-5.95-1.92-6.83-5.47-.75-3.03-1.47-6.07-3.37-9.02v14.08c-.56.11-1.12.22-1.68.33-5.45-8.65-6.38-18.81-9.18-28.91-.63,2.36-1.36,4.7-1.85,7.09-.5,2.42-.77,4.88-1.29,8.38-4.7-10.73-5.05-20.93-4.53-31.44-1.62,4.43-3.25,8.86-4.87,13.3l-1.48-.12c.66-10.52,1.31-21.04,2-32.1-8.75,1.02-17.92,1.34-27.42-2.04,7.8-2.24,14.9-4.28,22-6.31-.08-.53-.17-1.06-.25-1.59-10.28,1.29-19.59-1.22-29.4-6.81,8.21-1.62,15.18-3,22.16-4.38l-.03-1.55H0c13.65-13.51,17.68-29.96,23.36-45.6,2.29-6.31,4.71-12.56,7.65-20.35-3.05,1.85-4.8,2.92-6.56,3.99-.33-.17-.66-.33-1-.5,3.83-6.81,7.65-13.62,11.85-21.09-2.83,1.27-5.18,2.32-7.52,3.37-.35-.41-.71-.83-1.06-1.24,5.42-6.4,10.84-12.8,17.38-20.52-4.95,1.87-8.67,3.27-12.39,4.67-.32-.49-.65-.98-.97-1.46,7.9-6.25,15.8-12.49,24.09-19.04,1.27,1.92,1.96,2.97,3.44,5.21.13-2.59.2-3.87.31-6.07-6.49,1.44-12.38,2.74-18.27,4.04-.2-.28-.41-.57-.61-.85,2.27-2,4.54-4,7.77-6.85.4,1.73.82,3.59,1.25,5.45,2.94-3.56-1.14-8.11,5.03-6.98,1.42.26,2.37-6.25,1.16-7.81-6.24-8.06-9.43-17.21-9.26-27.63,1.64,2.88,3.28,5.75,4.92,8.63l1.29-.31c-2.95-11.9-4.23-23.84-1.25-35.97.44,1.69.88,3.39,1.41,5.4,1.61-5.55,3.4-10.73,4.6-16.03,2.78-12.24,9.65-21.9,18.56-30.33,4.1-3.88,6.65-3.81,11.94-.74,10.66,6.19,18.27,15.38,25.52,25.04,5.82,7.76,11.84,15.4,18.1,22.8,2.33,2.75,5.32,4.02,9.71,3.23,8.48-1.52,17.19-1.84,25.81-2.4,1.7-.11,3.47.97,5.12,1.47,1.72-.37,3.63-1.15,5.5-1.09,3.31.11,6.62.68,9.91,1.15,6.26.89,12.34,1.3,18.11-2.38,1.82-1.16,3.67-1.42,2.55-4.17-.2-.49.49-1.47.96-2.09,6.86-9.12,13.35-18.56,20.77-27.21,5.62-6.56,11.98-12.48,20.31-16.11,4.32-1.88,6.47.14,8.98,2.32,10.7,9.33,16.76,21.36,20.1,34.94.87,3.53,1.79,7.04,2.83,11.12.62-1.91,1.13-3.46,2.04-6.25.54,2.45,1.11,3.76,1.08,5.06-.27,9.95-.66,19.9-1.02,29.84-.02.64-.44,1.7-.21,1.86,2.72,1.81,3.21,4.08,1.53,6.78-2.01,3.22-4.14,6.36-6.22,9.53-.51-.21-1.03-.43-1.54-.64,0-1.38-.15-2.78.02-4.14,2.28-18.44.56-36.54-5.57-54.04-1.75-4.99-5.27-9.43-8.38-13.83-.56-.79-3.63-.87-4.64-.09-3.88,2.97-7.38,6.45-11.07,9.69-1.42,1.25-3.1,2.24-4.38,3.61-.4.42.47,1.85.15,2.54-1.28,2.78-2.79,5.45-4.32,8.36-1.27-3.19-2.35-5.91-3.43-8.63-.61.15-1.22.31-1.83.46v20.61c-.33.09-.66.19-.99.28-.93-1.36-1.87-2.72-2.66-3.87-1.62,6.86-3.25,13.77-4.87,20.68,4.45,1.59,9.53,3.47,14.66,5.18.75.25,2.14.02,2.6-.52,2.77-3.25,5.35-6.66,8-10.01-.36-.36-.71-.71-1.07-1.07l-6.46,3.5c8.52-12.4,11.1-26,11.34-40.5.51,5.12,1.02,10.23,1.53,15.35.46.14.92.28,1.38.41.93-2.75,1.86-5.51,3.01-8.93,3.22,11.3,2.19,22.08-.4,32.93.63.1,1.26.2,1.89.3,2.56-4.1,5.11-8.2,7.67-12.3.26.07.52.15.77.22-2.05,7.22-4.1,14.44-6.15,21.66l.66.73c2.09-1.85,4.18-3.69,6.38-5.63q.99,4.5-5.12,16.72c9.93,6.49,19.96,13.04,29.99,19.59l-.62,1c-3.19-1.04-6.38-2.07-9.56-3.11-.17.32-.33.64-.5.96,5.06,3.73,10.13,7.47,15.19,11.2-.2.31-.39.61-.59.92-4.23-1.25-8.46-2.5-13.99-4.14,6.81,6.21,12.59,11.49,18.37,16.76-.28.36-.57.73-.85,1.09-3.05-1.39-6.11-2.78-10.3-4.68,4.92,6.79,9.15,12.64,13.39,18.49-.27.19-.54.39-.81.58-2.4-1.75-4.79-3.5-7.19-5.25-.3.22-.61.45-.91.67.57,1.82,1.08,3.67,1.73,5.47,3.86,10.56,7.19,21.36,11.78,31.6,5.03,11.22,11.16,21.95,16.97,32.81,1.19,2.23,3.12,4.05,4.71,6.07-2.22,1.37-4.3,3.12-6.69,4.03-5.53,2.1-11.13,4.71-16.88,5.3-3.34.34-7.3-2.44-10.49-4.56-3.64-2.42-6.68-5.73-10.12-8.49-1.07-.86-2.55-1.19-4.16-1.91-1.13,5.29-1.96,10.02-3.18,14.64-1.13,4.28-2.73,8.44-4.05,12.67-.89,2.84-1.2,5.14,1.14,8.09,2.51,3.17,3.31,7.69,4.86,11.62.44-.06.88-.12,1.32-.18-.95-5.26-1.89-10.53-2.84-15.79.22-.19.44-.39.66-.58,2.3,3.32,4.6,6.64,6.9,9.96.42-.17.84-.35,1.25-.52-1.26-3.75-2.52-7.51-3.78-11.26.14-.13.28-.26.43-.39,1.55,2.35,3.1,4.7,4.66,7.05.48-.25.95-.5,1.43-.75-2.6-5.49-5.21-10.97-7.93-16.7,5.05-1.33,8.83,2.16,12.16,5.01,4.39,3.75,6.57,8.98,5.88,15.1-.69,6.04-1.16,12.11-1.73,18.16-.51.02-1.02.05-1.54.07-1.07-5.31-2.13-10.61-3.2-15.92-.55.06-1.1.12-1.65.18.37,10.7-.91,21.03-6.91,31.36,0-2.55-.19-4.24.05-5.87.23-1.58,1.47-3.17,1.26-4.61-.33-2.29.11-5.82-3.27-5.25-3.2,10.12-6.28,19.88-9.36,29.63l-1.52-.36c.5-3.72,1-7.44,1.5-11.15-.33-.08-.66-.17-.99-.25-3.45,7.27-6.89,14.54-10.34,21.8-.54-.19-1.09-.38-1.63-.57.47-3.08.95-6.15,1.6-10.43-3.56,4-6.75,6.83-8.96,10.28-2.02,3.16-4.55,3.25-7.61,3.19-4.82-.1-9.65-.03-15.2-.03,13.99-28.77,13.26-57.3.51-85.92,13.65,13.19,17.52,29.97,18.53,47.98,2.22-7.52,1.52-15,.11-22.34-1.4-7.25-3.52-14.37-4.56-22.09,2.49,4.66,4.98,9.31,7.55,14.12.91-1.12,2.15-2.64,2.5-3.08-1.38-3.6-2.4-6.2-3.38-8.81-2.15-5.7-4.26-11.41-6.45-17.1-.48-1.25-1.22-2.4-1.24-3.98,6.19,3.73,10.4,9.01,12.55,15.79,2.13,6.72,3.97,13.54,5.82,19.9,6.4-8.7.06-35.17-13.32-52.15,14.44,7.12,19.86,19.41,21.86,34.32,4.55-8.75-2.57-31.13-14.91-47.49,5.76,2.64,10.22,5.68,12.86,10.8,2.52,4.88,4.84,9.87,7.56,15.46-1.09-15.54-4.13-29.52-16.2-40.22,2.42,1.22,4.83,2.43,7.25,3.65l.92-.96c-3.64-3.6-7.27-7.2-10.91-10.8-.51.15-1.03.3-1.54.45.37,9.8-4.98,15.99-13.29,21.45,2.14-.18,3.28-.27,5.36-.44-5.54,7.27-13.64,7.79-20.51,11.51,2.16.18,4.33.36,7.19.6-6.54,5.5-14.13,4.19-21.27,4.66-.08.44-.16.89-.24,1.33,2.74,1.12,5.49,2.24,8.82,3.6-1.61,1.02-2.98,2.08-4.51,2.82-9.02,4.39-9.57,6.75-9.29,14.38.22,5.82.04,11.65.04,18.89-2.17-9.18-3.49-17.19-6.03-24.79-2.59-7.75-6.39-15.09-9.56-22.4,2.28,1.1,5.12,2.47,9.27,4.48-3.06-4.16-5.26-7.15-7.86-10.68,6.3,2.45,11.65,4.53,17,6.61.23-.46.47-.92.7-1.37-2.31-1.5-4.61-2.99-6.92-4.49l.29-1.05c5.47.78,10.94,1.55,16.4,2.33.15-.52.29-1.05.44-1.57-2.87-.93-5.74-1.85-8.62-2.78,7.8.26,16.21,4.12,21.85-6.52-5.38.37-9.89.69-14.39,1,6.22-3.91,12.48-7.45,15.97-13.92,1.83-3.39,2.82-7.3,3.76-11.08.78-3.15-1.34-4.5-4.18-4.89-6.02-.83-13.2,3.45-15.53,9.23-3.41,8.46-9.4,12.99-17.92,12.29-6.05-.49-10.68,1.19-15.22,5.56.42-1.95.66-3.97,1.32-5.83.7-1.96,1.82-3.78,3.36-6.88-2.27,1.3-3.29,1.88-5.44,3.1,2.69-4,4.6-6.85,6.51-9.7l-.54-.8c-1.51.97-3.01,1.94-4.56,2.94,1.04-9.8,14.75-21.78,23.39-19.39-2.73,2.12-5.49,4.27-8.26,6.41.24.55.47,1.09.71,1.64,7.79-.11,15.6.09,23.34-.53,2.26-.18,4.53-2.52,6.35-4.33.51-.51-.17-2.98-1-3.96-3.09-3.63-7.22-5.1-12-4.99-2.42.06-4.84-.22-8.78-.42,3.32-1.66,5.3-2.65,7.29-3.64.1-.45.21-.91.31-1.36-5.58-1.04-11.17-2.09-16.92-3.16.96-.68,2.17-1.54,3.38-2.4-5.77,1.04-12.3-1.95-16.85,3.19-2.67,3.02-4.8,6.52-7.06,9.88-1.09,1.62-1.94,3.41-3.37,5.98-.27-2.37-.43-3.76-.59-5.15-.4-.07-.8-.15-1.2-.22-1.03,5.94-2.05,11.89-3.12,18.07-.47-.32-1.2-.82-3.29-2.24,4.85,16.03,9.29,30.69,13.82,45.68-4.01-4.58-7.75-8.86-11.48-13.14,5.1,10.42,12.62,19.34,16.03,30.66-4.55-5.37-8.93-10.54-13.31-15.71-.32.25-.65.5-.97.76,3.41,5.45,7.24,10.69,10.1,16.41,2.92,5.85,4.89,12.18,7.28,18.29-.54.27-1.08.54-1.63.81Zm-101.13,30.59c2.56-17.68,3.14-35.74,10.69-52.44-2.28,13.53-1.49,26.83,1.86,40.07,2.09-12.42,2.24-25.14,6.99-37.08.26,13.74-.24,27.51,7.17,39.84.24-1.19.09-2.31-.06-3.43-1.45-10.96-1.91-21.87,1.5-32.62,2.27-7.16-.32-12-7.46-14.58-1.87-.68-3.57-1.83-6-3.1,2.46-1.11,3.96-1.78,5.47-2.46-17.51-1.43-26.32-11.84-30.79-28.11-6.71,3.72-11.2,9.13-13.81,16.78,3.78-2.75,7.15-5.19,10.51-7.64-1.45,4.13-3.67,7.39-5.28,10.93-1.56,3.42-2.84,7.05-3.62,10.73-.77,3.63-.76,7.43-.99,9.98,4.44-6.12,9.2-12.68,13.96-19.25.53.3,1.05.6,1.58.9-8.68,14.29-13.12,29.43-10.14,46.07,3.72-11.98,7.37-23.9,15.81-33.84-1.56,9.77-3.45,19.2-4.47,28.73-1.03,9.59.81,19.04,2.71,28.45,1-15.1.61-30.28,6.99-44.45-3.99,15.3-4.29,30.82-2.61,46.53Zm-10.53-199.77c1.89,6.35,8.24,12.14,12.99,12.61,10.44,1.02,17.57-9.03,12.49-18.63-5.19-9.8-10.82-19.47-17.27-28.47-4.56-6.36-10.82-11.51-16.69-17.59-2.1,2.33-3.43,3.54-4.45,4.97-6.14,8.63-8.98,18.4-9.33,28.85-.33,9.9-.86,19.88,4.96,28.82.65.99-.2,2.96-.37,4.64,1.17-.17,2.67-.39,3.72-.54-1.84-8.02-3.6-15.65-5.35-23.29.36-.08.71-.17,1.07-.25,1.74,2.41,3.48,4.82,5.87,8.12,1.09-11.18-1.5-21.47,2.86-32.43,1.11,4.35,1.88,7.37,2.65,10.39.41-.06.81-.11,1.22-.17.99-4.54,1.99-9.08,2.98-13.63,1.48,15.63,3.87,30.83,14.9,43.24-.36.28-.72.57-1.08.85-3.65-2.45-7.3-4.9-11.17-7.49Zm205.96,146.65c10.88,2.03,21.76,4.07,32.64,6.1.15-.41.31-.82.46-1.22-9.06-3.1-17.5-7.1-23.74-14.34.29-.56.59-1.12.88-1.68,6.94,3.06,13.87,6.11,21.55,9.5-6.63-10.73-16.19-17.03-25.8-23.67,5.44,1.92,10.89,3.84,17.33,6.11-6.12-9.06-13.81-14.34-22.03-19.41,5.21,1.62,10.43,3.25,15.36,4.79-3.6-5.7-20.74-14.37-29.03-14.28,4.13,7.99,9.49,15.41,9.7,25.08-1.77-1.38-3.23-2.52-4.56-3.56,2.45,8.99,4.86,17.85,7.24,26.59Zm-180.73-49.67c-1.26-3.43-2.39-6.5-3.5-9.57-1.22-3.38-11.66-6.63-14.53-4.41-.68.53-1.46,1.83-1.24,2.45,1.92,5.54,3.01,11.8,6.43,16.26,3.11,4.06,8.8,6.14,13.9,9.45-3.83-.2-7.2-.38-11.42-.61,7.04,7.07,15.09,4.12,22.66,3.73l.19,1.32c-4.24,1.47-8.49,2.94-13.21,4.58,8.78,2.67,16.02-.27,22.86-5.34.27.42.54.85.82,1.27-3.32,3.06-6.65,6.12-11.05,10.17,7.43-1.57,13.13-3.11,16.88-8.71,1.67-2.5,3.73-4.61,1.92-8.05-1.82-3.46-4.63-4.39-8.2-4.48-4.14-.11-8.31-.21-12.4-.82-2.83-.42-5.61-1.48-8.25-2.64-1.84-.81-3.4-2.26-5.72-3.87,1.95-.38,2.89-.56,3.87-.75Zm-64.79,35.4c-6.69,6.37-13.48,12.24-18.24,20.5,8.37-2.76,16.15-5.33,23.93-7.89.2.48.4.95.59,1.43-3.52,2-7.05,4.01-10.57,6.01,3.39.87,6.37.77,9.33.9,3.79.17,5.37-1.32,5.22-5.29-.29-7.68.17-15.3,4.06-22.29,1.1-1.99,1.84-4.18,2.75-6.28-.21-.14-.42-.27-.63-.41-1.54,1.27-3.08,2.55-4.62,3.82-.29-.16-.58-.32-.87-.48,1.04-3.15,2.09-6.29,3.29-9.9-9.09,2.11-15.16,7.85-21.18,13.77,2.5-1.03,5-2.06,7.5-3.1l.21.72c-4.34,4.26-8.69,8.52-13.03,12.79.35.41.7.82,1.06,1.23,3.74-1.85,7.48-3.69,11.22-5.54Zm99.68-54.65c-3.7-7.52-4.13-15.7-11.32-20.13-4.3-2.65-17.32-6.46-21.49-5.57,2.25,1.08,4.18,2.01,5.44,2.61-4.8,1.41-10.03,2.95-15.26,4.49.02.55.04,1.11.05,1.66,1.5.9,2.89,2.09,4.5,2.64,7.68,2.6,15.37,5.25,23.18,7.42,3.97,1.1,6.2,3.18,7.52,7.01,2.51,7.28,5.39,14.44,8.11,21.64.38-.04.76-.07,1.14-.11v-27.86c-.29-.03-.57-.05-.86-.08-.28,1.74-.56,3.47-1.02,6.28Zm-18.5,1.99c-2.17-5.31-9.98-10.22-17.18-11.45-7.35-1.26-10.6,3.26-14.21,9.64,3.6,1.29,7,3.5,10.41,3.53,7,.05,14.02-1.08,20.98-1.72Zm-69.58,87.3c-5.12,4.24-9.46,7.83-13.8,11.43l.52.93c5.89-1.76,11.79-3.51,16.35-4.87v-26.13c-.62-.23-1.23-.47-1.85-.7-2.6,10.36-8.18,17.58-18.93,19.34h17.7Zm242.75-68.55c-5.01-8.01-12.52-12.21-22.29-12.83,2.52,3.71,5.03,7.81,8.69,9.72,4.03,2.1,9.11,2.18,13.6,3.11Zm-234.88,2.48c-7.69-.25-13.86,2.63-17.37,9.85,7.2-.59,15.44.25,17.37-9.85Zm141.25-11.73c-.78,4.78.29,7.89,3.96,8.75,2.54.6,6.01.49,8.03-.86,2.23-1.48,3.47-4.72,1.1-7.82-4.49,7.39-9.25,5.85-13.1-.07Zm74.68,115.71c.16.04.33.09.49.13-.59-6.66-1.13-13.33-1.84-19.98-.08-.78-1.23-2.13-1.69-2.06-.94.16-2.26.96-2.49,1.76-.41,1.46-.55,3.25-.09,4.67,1.71,5.21,3.72,10.33,5.61,15.48ZM60.48,160.19c1.78.55,2.71.84,3.95,1.23-4.1,1.15-7.83,2.2-12.85,3.61,11.49,3.12,16.33,1.36,18.79-6.11-3.05.39-5.98.77-9.89,1.27Zm66.39.49c-.33.06-.65.11-.98.17-1.29,1.66-2.96,4.9-3.79,4.69-2.79-.68-5.29-2.59-8.35-4.27-.39,2.94.82,6.07,3.98,7.2,2.24.8,5.79.42,7.62-.95,1.42-1.06,1.07-4.47,1.51-6.83Zm-73.56,97.54c.23.24.45.47.68.71,3.1-2.28,6.2-4.55,9.48-6.96-1.2-1.81-2.31-3.49-3.97-5.99-2.27,4.49-4.23,8.37-6.19,12.24Zm37.48-153.19c-1.71-1.03-2.67-1.6-3.99-2.4,1.17-.28,1.86-.44,3.07-.72-1.59-1.09-2.83-1.93-4.6-3.14-.75,3.69-1.35,6.68-2.24,11.08,3.23-2.01,5.18-3.22,7.76-4.82Zm196.4,50.37c.29-.74.59-1.49.88-2.23-3.9-1.32-7.81-2.65-11.71-3.97,1.53,7.3,7.48,3.54,10.83,6.2Zm-33.04-15.98c-.19.47-.39.93-.58,1.4,1.26.62,3.35,2.02,3.64,1.72,1.62-1.7,2.8-3.81,4.31-6.04-2.33-.82-3.98-1.39-6.77-2.37,1.35,2.54,2.02,3.82,2.8,5.29h-3.4Zm13.11,24.29c.22-.33.44-.65.66-.98-2.77-1.69-5.55-3.38-9.34-5.7.21,3.07.33,4.75.47,6.68h8.22Zm16.63-15.41c.18-.59.35-1.17.53-1.76-3.88-1.45-7.77-2.91-11.65-4.36,1.53,8.05,7.9,2.74,11.12,6.12Zm-28.79-4.03c.89,6.78,5.07,4.38,8.48,3.69-2.6-1.13-5.2-2.27-8.48-3.69Z"/><path d="m210.26,370.07c-8.56,16.35-16.91,32.29-25.31,48.33-3.89-10.27-2.18-20.9-1.17-31.48-.57-.16-1.13-.32-1.7-.48-5.88,12.65-11.76,25.3-17.93,38.57-6.8-19.88-16.71-37.85-30.36-54.93h76.47Z"/><path d="m190.53,341.41c-1.28,4.22-2.19,8.61-3.93,12.63-2.55,5.87-8.54,8.85-14.98,8.15-6.7-.73-10.49-4.04-12.33-10.86-2.2-8.19-2.09-16.11,3.94-22.77,4.22-4.65,9.6-6.52,15.78-4.38,6.37,2.2,9.67,7.01,10.63,13.52.17,1.14.02,2.32.02,3.48.29.08.57.16.86.23Zm-23.75,1.52c.64,2.92.96,5.76,1.91,8.36,1.38,3.75,6.46,4.56,8.99,1.67,3.97-4.55,4.04-15.57.12-20.13-2.5-2.91-7.57-2.19-8.94,1.5-1.02,2.75-1.41,5.74-2.08,8.6Z"/><path d="m113.1,361.5c0-1.44-.27-2.3.04-2.71,6.38-8.47,1.75-18.12,2.93-27.13.06-.43-.27-.95-.5-1.38q-3.25-6.01,3.7-6.1c3.99-.05,7.98-.23,11.97-.16,6.23.11,9.81,3.25,10.57,9.03.94,7.12-1.47,11.2-7.74,13.06-.95.28-1.95.42-2.94.54-6.74.84-8.64,4.22-5.44,10.27,1.8,3.41.77,4.57-2.71,4.57-3.14,0-6.29,0-9.88,0Zm11.42-22.18c5.68.59,8.27-.96,8.18-4.51-.08-3.14-1.93-4.68-4.89-4.16-5.69.99-2.29,5.42-3.29,8.67Z"/><path d="m95.53,325.56v9.63c-2.86.54-5.03,1.06-6.18-2.76-.38-1.28-3.34-2.29-5.2-2.44-1.09-.09-3.46,2.09-3.29,2.68.48,1.67,1.78,3.27,3.14,4.47,1.2,1.06,2.88,1.61,4.4,2.28,7.32,3.2,10.27,10.26,6.86,17.28-.77,1.59-2.61,3.19-4.29,3.69-3.14.94-6.53,1.5-9.81,1.47-7.63-.07-8.93-1.68-7.93-9.27.14-1.08,1.47-2.71,2.36-2.78.95-.08,2.11,1.3,3.02,2.2,1.11,1.09,2.04,3.31,3.08,3.33,1.92.03,4.83-.64,5.58-1.99,1.17-2.1,0-4.11-2.96-5-4.75-1.43-9.39-3.28-11.51-8.52-3.26-8.07,2.26-16.47,10.91-16.08,3.93.18,7.82,1.18,11.81,1.81Z"/><path d="m204,324.51h15.19c-1.34,5.21-3.23,10.24,1.84,14.44,1.86-3.58,5.78-6.53,2.07-11.33-.29-.38,1.33-3.23,2.12-3.26,3.04-.1,6.11.48,9.17.8-.84,2.41-1.67,4.82-2.52,7.23-2.39,6.78-4.82,13.55-7.13,20.36-.3.87-.02,1.99.15,2.96.32,1.82.75,3.62,1.13,5.42-3.76-.06-7.52-.09-11.28-.29-.22-.01-.79-1.7-.49-2.19,5.42-9.14-1.08-15.94-4.55-23.29-1.59-3.38-3.47-6.63-5.69-10.85Z"/><path d="m223.23,317.86c3.34-8.43,6.28-15.87,9.23-23.32-.48-1.1-1.81-2.75-1.8-4.4.01-5.97.47-11.95,1.7-18.16.51,2.88.89,5.78,1.55,8.63,2.55,11.12.75,22.18-.52,33.22-.74,6.44-5.73,2.82-10.16,4.03Z"/><path d="m292.9,233.54c10.66,4.86,21.65,4.55,32.94,3.77-3.93,4.19-8.66,6.91-14.19,8.27-6.41,1.58-10.92-.5-13.82-6.62-1-2.11-3.25-3.63-4.93-5.42Z"/><path d="m93.87,370.07c11.81-1.15,12.01-1.17,13.12,9.81.51,5.02.09,10.14.09,15.22-.4.09-.81.18-1.21.26-3.96-8.36-7.93-16.72-11.99-25.3Z"/><path d="m214.26,295.77c2.99,8.15,1.97,20.65-2.5,21.63.85-7.39,1.68-14.56,2.5-21.63Z"/><path d="m219.98,317.18c.47-6.81.93-13.62,1.47-21.52v21.71c-.49-.06-.98-.12-1.47-.18Z"/></g></g></svg>