<?xml version="1.0" encoding="UTF-8"?>
<svg id="Layer_2" data-name="Layer 2" xmlns="http://www.w3.org/2000/svg" viewBox="0 0 300.54 324.02">
  <defs>
    <style>
      .cls-1 {
        fill: #fff;
      }
    </style>
  </defs>
  <g id="Layer_1-2" data-name="Layer 1">
    <g>
      <path class="cls-1" d="m61.63,158.59c-.02.08-.03.15-.05.22.15.03.3.06.45.09-.13-.1-.26-.2-.4-.31Zm0,0c-.02.08-.03.15-.05.22.15.03.3.06.45.09-.13-.1-.26-.2-.4-.31Zm0,0c-.02.08-.03.15-.05.22.15.03.3.06.45.09-.13-.1-.26-.2-.4-.31Z"/>
      <path d="m86.19,280.4h0s.01.01.01.01c.02-.05.04-.11.06-.17-.02.06-.04.1-.07.16Zm207.36-148.6c-8.58-49.92-31.95-90.63-76.96-116.49C189.43-.3,160.1-3.61,129.77,3.73c-24.23,5.87-44.42,18.94-61.86,36.56-1.33,1.34-3.83,2.13-5.79,2.13-6.67-.01-12.13,3.14-9.5,11.07.73,2.2-.16,5.66-1.53,7.72-14.73,22.11-23.78,46.4-27.61,72.55-1.14,7.77-.17,15.84-.17,24.22.87-.62,1.31-.76,1.34-.97,1.86-12.68,3.63-25.38,5.6-38.04.21-1.3,1.57-2.42,2.39-3.62,1.16,1.21,3.25,2.39,3.3,3.65.18,4.56-.17,9.16-.6,13.72-.59,6.28-1.57,12.53-2.08,18.82-.12,1.47.94,3.02,1.45,4.54.79-1.47,2.08-2.89,2.27-4.43.79-6.48,1.25-12.99,1.84-19.49.34.04.68.07,1.02.11-.78,7.67-1.57,15.34-2.33,22.68,6.97,1.05,13.12,1.86,19.22,2.94,1.62.29,3.23.59,4.85.92.15.03.3.06.45.09,3.91.79,7.88,1.67,12.09,2.54,1.73-2.29,5.24-4.93,8.8-3.02,1.73.92,1.66,5.62,1.99,8.66.8,7.15,1.49,14.33,1.92,21.51.12,1.92-.34,5.16-1.43,5.59-1.95.79-4.91.56-6.81-.45-1.65-.87-2.35-3.46-3.59-5.21-4.2-5.93-8.2-12.02-12.81-17.6-1.79-2.18-5-3.19-8.22-5.13v38.94c2.74,1.51,5,2.76,6.91,3.82-2.83,3.28-6.62,5.65-6.82,8.29-.71,9.32-1.91,19.03,4.57,27.26.98,1.94,1.97,3.87,2.95,5.81,2.51,2.7,2.73,7.55.36,9.87-3.67,3.61-5.13,13.51-.55,17.12,1.94,1.53,3.54,3.51,5.24,5.33,23.64,25.36,52,40.41,87.35,41.7,23.86.87,45.97-4.29,66.22-16.52,23.39-14.13,41.24-33.78,54.17-57.83.72-1.33.7-3.54.13-4.99-.92-2.32-2.77-4.26-3.86-6.53-.81-1.7-.91-3.73-1.62-5.5-.41-1.03-1.39-1.83-2.12-2.74-.29.21-.58.42-.88.64.24-1.83.49-3.65.81-6.12-9.51,4.06-17.7,1.47-26.15-1.95-2.66,8.32-5.25,16.36-7.79,24.4-1,3.16,1.05,3.81,3.46,3.88,3.69.1,4.84,2.66,4.05,5.36-.44,1.49-3.1,3.19-4.84,3.28-6.97.38-13.98-.06-20.96.25-3.59.16-6.02-.99-6.43-4.39-.45-3.58,2.7-4.31,5.35-4.49,3.39-.24,5-2.02,5.99-4.99,3.16-9.45,6.45-18.86,9.59-28.31.4-1.21.53-2.62.36-3.88-.58-4.42,1.26-6.84,4.53-7.04.24-2.22.15-4.04.67-5.66,3.63-11.22,7.27-22.43,11.15-33.56,1.17-3.35.25-4.87-2.93-5.94-5.31-1.79-5.44-3.63-.77-7.67,5.35-4.08,10.44-8.07,12.19-15.36.84-3.52,3.39-7.55,6.38-9.44,6.04-3.81,9.29-9.11,12.77-15.8,1.01,4.27,2.03,8.54,3.05,12.81.34.92.8,1.82,1.01,2.77,4.09,18.57,3.43,37.3,2.11,56.08-.2,2.91.44,5.88.7,8.82.43-.01.87-.02,1.31-.04.22-1.1.47-2.21.66-3.32,3.46-20.57,2.77-41.09-.9-61.56-.26-1.44-.86-3.2-.3-4.32.77-1.58,2.48-2.69,3.79-4,.87,1.04,2.26,1.96,2.52,3.14,1.53,6.89,3.26,13.79,4.07,20.79,2.21,19.17.79,38.21-3.2,57.05-.51,2.4-1.03,4.34,2.65,4.22.22-.63.49-1.21.62-1.82,5.29-23.82,6.13-47.92,2.01-71.85ZM43.71,80.78c3.45-5.86,6.67-11.3,10.02-17,4.31,8.09,2.07,14.63-3.32,20.9-1.97-1.14-4.03-2.34-6.7-3.9Zm14.35,8.29s-.09-.07-.13-.11c-.68-.56-1.54-1.27-2.53-2.09-1.04,1.87-1.92,3.45-2.79,5.02h0c-.28-.13-.56-.27-.84-.41,1.65-3.22,3.3-6.43,5.52-10.76.34,3.69.55,6.01.77,8.34h0Zm3.47-6.41c-2.02-10.16-3.98-20.6-6.21-30.98-.65-3-.15-4.76,2.93-5.67,2.94-.87,4.66-.08,5.71,2.91,2.23,6.38,4.68,12.68,7.04,19.02-.39.18-.78.37-1.17.55-2.08-5.38-4.13-10.77-6.27-16.13-.83-2.05-1.44-5.31-4.54-3.35-1.19.75-1,3.78-1.29,5.79-.08.59.35,1.26.68,2.31,4.43-2.21,6.1.75,7.33,4.19,3.5,9.73,1.87,17.06-4.21,21.36ZM162.79,16.72c-.06.56-.13,1.11-.19,1.66v.03c.01,6.2.07,11.77-.12,17.33-.04,1.1-1.48,2.15-2.28,3.22-3.79,6.81-7.42,13.11-7.85,21.78-.42,8.38-3.51,17.08-10.14,24.23-3.71,4.01-4.1,11.1-5.99,16.81.18.34.38.68.59,1.02.11.17.22.34.33.51.02.02.03.04.03.05h.01s0,.02.01.02c0,.02.01.03.02.04,0,.01.01.02.01.02.01.01.02.02.02.03.27.41.54.81.81,1.21.14.21.27.41.4.61.14.2.27.4.39.6.17.27.33.53.48.8.08.15.16.29.23.44.07.14.14.27.2.41.13.27.24.54.33.81.05.14.09.27.12.41.03.1.05.2.07.31.08.34.11.67.1,1-.02.67-.05,1.33-.09,2-.03.55-.07,1.11-.12,1.67-.03.28-.05.55-.07.83-.19,2.06-.45,4.12-.74,6.17-.5,3.54-1.1,7.09-1.58,10.64-.78,2.15-1.82,4.24-2.3,6.46-1.29,5.99-2.67,12-3.33,18.08-.21,1.97,1.69,4.16,2.62,6.25.66,2.12,1.31,4.25,2.32,7.56-6.8,0-12.78.14-18.74-.14-.99-.04-1.9-1.9-2.84-2.92.12-1.14-.03-2.39.4-3.39,1.78-4.13.22-7.05-3.06-9.49-8.07-6.01-10.21-14.9-12.14-24.08-1.55-7.38-2.23-14.86-8.84-20.72-3.7-3.27-5.91-9.53-6.52-14.71-1.15-9.9-4.63-18.55-9.68-26.92-4.22-7-3.89-7.81,1.92-13.69,15.68-15.84,33.45-28.32,55.41-33.77,5.13-1.27,10.47-1.64,15.71-2.42,4.8-.67,9.6-1.34,13.89-1.94v1.19c.07,0,.13-.01.2-.01Zm10.44,12.91c3.05-4.43,3.68-10.79,9.3-13.15.55.35,1.1.7,1.65,1.04-3.45,6.86-7.17,13.61-10.19,20.66-.76,1.77.72,4.5,1.41,8.02-4.28-.78-8.56-1.55-12.31-2.23,3.38-4.77,6.83-9.51,10.14-14.34Zm-7.2-6.91c.16-1.77,1.46-3.54,2.61-5.04.21-.28,3.06.65,3.15,1.25.33,2.28.75,5.02-.2,6.91-1.56,3.1-4.17,5.67-5.68,7.62,0-2.41-.25-6.6.12-10.74Zm37.5,216.79c-.14-.27-.27-.54-.4-.8h0c-.24-.55-.43-1.07-.58-1.6-.06-.19-.11-.38-.15-.58-.04-.18-.08-.36-.11-.54-.03-.15-.05-.29-.07-.44-.02-.13-.03-.26-.04-.39-.01-.09-.02-.19-.03-.29-.01-.16-.02-.32-.02-.48-.15-4.4,2.19-8.55,3.58-12.84.61.08,1.22.16,1.83.25h.01c-1.18,6.18-2.36,12.35-3.54,18.53h-.01c-.18-.28-.33-.55-.47-.82Zm.11,8.48c.11,1.3-1.6,2.76-2.49,4.14-.4-.21-.8-.43-1.2-.65v-10.25c.47-.18.95-.36,1.42-.55.82,2.43,2.06,4.83,2.27,7.31Zm-3.32,11.75c.96.23,1.44,2.5,2.15,3.82-.77.9-1.4,1.99-2.33,2.66-5.8,4.19-11.77,8.17-12.94,16.13-.21,1.4-.88,3.29-1.94,3.9-1.64.93-4.05,1.65-5.65,1.09-.99-.34-2.04-3.69-1.44-4.89,3.08-6.23,6.58-12.28,10.21-18.21.59-.97,2.59-1.45,3.96-1.51,2.8-.11,5.62.22,8.44.37-8.13-3.14-16.36-5.5-25.23-2.61-.21-.59-.42-1.19-.63-1.79,2.05-.94,4.21-2.87,6.12-2.65,6.49.77,12.92,2.15,19.28,3.69Zm3.07,12.53c-.16.42-.32.84-.48,1.27-10.94,1.3-10.34,11.68-13.95,19.16-2.14-6.25,3.83-19.47,9.36-21.11,1.49-.44,3.37.42,5.07.68Zm-111.76-91.2c.35.02.7.04,1.04.07-1.07,15.55-2.14,31.09-3.2,46.64-.34-.03-.67-.05-1.01-.07,1.05-15.55,2.11-31.09,3.17-46.64Zm2.95,19.36c.32-4.63-.08-9.34.5-13.93.29-2.3,2.2-6.32,3.13-6.25,2.79.21,6.01,1.5,8,3.44,1.27,1.26.67,4.43.91,6.73-.56.14-1.13.28-1.69.41-.85-.8-1.7-1.6-2.56-2.41-.2.22-.57.44-.57.66.09,7.26.18,14.53.35,21.79.08,3.15.11,6.32.53,9.43.84,6.2-.61,7.45-6.75,5.47-.61-.2-1.23-.36-1.93-.57-.69,1.64-1.31,3.12-2.32,5.52.87-10.77,1.74-20.52,2.4-30.29Zm14.5-41.1c-2.15-.92-4.31-1.84-6.77-2.89-.44-.2-.89-.39-1.36-.59-.71-.3-1.44-.61-2.2-.94,2.34-1.31,4.2-1.93,5.68-1.79.06.01.11.01.17.02h.01c.07,0,.15.02.21.03,0,0,.02,0,.03.01.06.01.12.02.17.04h.02c.1.02.2.05.29.09.14.04.27.1.41.17.13.05.25.12.36.2.26.17.5.37.73.61.1.1.19.2.29.32.1.13.2.27.3.42.1.14.2.3.28.46.19.32.36.68.52,1.07.17.39.32.82.46,1.28.15.46.28.96.41,1.49h-.01Zm1.18,1.83c.54.03,1.43.76,1.47,1.23.05.64-.5,1.89-.88,1.93-.14,0-.29.03-.43.05-.44.05-.89.12-1.34.18-.17.02-.35.05-.52.07-.28.03-.56.06-.83.07-.95.05-1.9-.04-2.78-.5-.13-.07-.25-.14-.37-.22-.16-.1-.33-.23-.49-.37-.08-.07-.16-.14-.23-.22-.11-.1-.22-.22-.32-.34-.1-.11-.19-.23-.28-.35-.09-.12-.19-.26-.28-.4-.06-.1-.13-.21-.19-.32-.16-.27-.31-.55-.45-.87,2.19,0,4.04-.04,5.78-.01.21.01.43.01.64.01.5.01,1,.03,1.5.06Zm2.26,8.61c-4.91.25-9.31.98-9.96,6.91-2.52.19-4.9.36-7.29.54.93-4.73,12.97-10.25,17.25-7.45Zm29.46-67.04c-1.76-5.8.63-8.9,6.55-7.86,3.83.67,7.63,1.58,11.44,2.38-.17.41-.34.83-.51,1.24-2.38,1.37-4.76,2.74-6.44,3.71-2.81-1.01-5.16-1.86-8.37-3.01.64,5.15.64,9.16,1.71,12.86,2.8,9.65,2.89,9.58,1.45,21.6-.17,1.38,1.2,3.24,2.34,4.41.1.1.2.19.3.27.02.03.04.05.06.05.12.1.25.2.38.3.02.02.04.03.06.04.14.1.29.19.44.28.94.56,2.03.97,3,1.5-.04.13-.08.25-.12.38-.08.24-.17.48-.26.72-.08.2-.15.38-.24.57,0,.03-.02.06-.04.09-.07.15-.14.29-.22.43-.04.07-.07.13-.11.19-.03.06-.07.12-.11.18-.16.24-.34.46-.54.63-.1.09-.21.17-.32.24-.01.01-.02.01-.03.02-.1.06-.21.11-.33.15-.13.06-.27.1-.42.11-.05.01-.11.02-.16.02-.34.04-.73.01-1.18-.11-.16-.04-.32-.09-.49-.15-.1-.03-.2-.07-.31-.12-.11-.04-.22-.09-.34-.15-.12-.05-.24-.11-.36-.17-1.19-.61-3.25.66-4.93.77-1.89.13-3.79-.07-5.69-.13.32-1.66.51-3.35.99-4.97,3.5-11.97,6.6-23.98,2.8-36.47Zm20.59-27.82c.68.1,1.35.2,2.03.3h.01c-.49,3.49-.98,6.97-1.47,10.46h0c-.09-.01-.17-.02-.26-.03-.68-.09-1.35-.18-2.03-.26h0c.58-3.5,1.15-6.98,1.73-10.47Zm2.28,171.15c.88,5.85.29,6.3-6.32,6.12-.34-.45-.67-.9-1.01-1.34,2.31-1.51,4.61-3.01,7.33-4.78Zm-3.51-154.56c.38-.02.76-.04,1.15-.07-.1.58-.21,1.09-.35,1.53-.03.11-.07.21-.1.3-.04.11-.08.21-.13.31-.07.18-.16.35-.27.5-.09.15-.19.27-.32.38-.17.17-.37.29-.59.38-.14.06-.3.1-.47.11-.16.02-.33.02-.51,0-.08,0-.17-.01-.27-.04-.19-.03-.38-.07-.59-.13-.2-.06-.42-.13-.66-.23-.38-.15-.79-.35-1.24-.58-.15-.08-.3-.16-.46-.25-.48-.26-1.01-.58-1.59-.94-.13-.08-.26-.17-.39-.25-.26-.16-.54-.34-.82-.53,2.12-.13,4.24-.28,6.48-.42.37-.02.75-.04,1.13-.07Zm-3.08,111.59c-1.51-14.88-4.92-29.67-.34-44.43-3.54,14.86.03,29.69.34,44.43Zm-.2-66.18v-21.48c.16-.01.31-.01.47-.01v21.48c-.16,0-.32,0-.47.01Zm-6.66-6.95c.06-.21.13-.43.21-.64.06-.18.13-.37.21-.55.07-.19.15-.38.24-.58.08-.2.18-.4.28-.6.1-.2.21-.39.32-.59.19-.36.38-.71.6-1.07.11-.18.22-.36.33-.55.11-.18.23-.36.36-.54,0,0,0-.01,0-.01.14,5.22.29,10.44.43,15.66-.15-.14-.29-.29-.43-.43-.14-.14-.28-.29-.41-.44-.14-.15-.26-.3-.38-.45-.24-.29-.46-.59-.66-.89-.11-.16-.21-.32-.3-.49-.11-.18-.21-.36-.31-.55-.09-.18-.18-.37-.26-.56-.08-.18-.16-.37-.22-.56-.05-.12-.09-.24-.12-.36-.06-.19-.12-.39-.16-.58-.05-.21-.09-.42-.13-.62-.03-.24-.06-.49-.08-.73-.02-.24-.03-.47-.03-.71,0-.13,0-.27.01-.4.01-.15.02-.3.03-.45.01-.14.03-.28.05-.43.03-.21.06-.42.1-.62.08-.42.18-.84.31-1.26Zm-12.02,21.65c1.74.12,3.43.86,5.13,1.32,0,.44.02.88.03,1.32-1.79.61-3.58,1.22-6.82,2.34,3.02,3.66,5.66,6.84,8.56,10.35-1.55.42-3.64,1-5.79,1.59-1.51-4.52-2.93-8.71-4.31-12.93-.96-2.92.53-4.16,3.2-3.99Zm8.66,18.27c.65-.14,1.44.36,3.15.82-1.68,1.26-2.54,2.35-3.61,2.62-7.03,1.8-14.12,3.43-21.19,5.08-.8.19-1.97-.14-2.41.31-4.53,4.71-9.61,3.13-15.06,1.36.25-1.17.51-2.37.79-3.74-1.17.24-2.29.47-3.42.7-.21-.45-.43-.9-.65-1.34,1.78-1.01,3.57-2.9,5.32-2.86,12.47.23,24.86-.14,37.08-2.95Zm2.41,94.71c-1.19.1-2.3.26-3.19.09-.29-.06-.55-.14-.79-.28-.5-.29-.98-.52-1.45-.69-1.69-.62-3.13-.49-4.47.06-1.59.66-3.03,1.91-4.55,3.17-.04.03-.08.06-.12.07-.18.15-.38.25-.6.34-.66.27-1.46.37-2.25.49-.36.06-.72.12-1.06.2-.11-.56-.21-1.13-.32-1.7,5.65-7.07,16.05-8.43,20.28-1.83-.5,0-.99.03-1.48.08Zm1.74,9.03c.7,4.35-3.01,5.59-7.73,6.93.46-4.17.86-7.83,1.27-11.49.64-.2,1.29-.4,1.94-.6,1.58,1.71,4.21,3.25,4.52,5.16Zm-8.77-24.17c-.47,1.82-3.22,3.06-4.47,4.15-4.34-1.26-8.79-.16-8.59-5.59.12-3.11,1.15-5.49,4.96-5.36,4.45.16,8.96,3.49,8.1,6.8Zm-14.14-26.45c2.55,5.35,5.11,10.69,7.66,16.04h0c-.53.33-1.07.65-1.61.97h0c-2.43-5.49-4.85-10.97-7.28-16.45.41-.19.82-.37,1.23-.56Zm9.38,7.8c-.41.11-.8.22-1.21.33-.57-1.34-1.14-2.67-1.71-4.01-1.12-3.12-2.25-6.24-3.37-9.37-.99-2.74-1.97-5.48-2.95-8.23-.14-.38-.28-.76-.41-1.15-.91-2.55-1.81-5.1-2.7-7.66-1.03-2.94-2.04-5.89-3.03-8.84-.05-.14-.05-.29-.02-.46,0-.05.03-.1.05-.16.01-.05.03-.09.05-.14.01-.05.03-.09.06-.14.12-.25.29-.53.49-.81.1-.12.19-.25.29-.38.36-.47.77-.96,1.13-1.43.16-.21.32-.42.44-.62.01,0,.01-.01.02-.01,1.75-.71,3.5-1.42,5.37-2.18.97-.39,1.98-.79,3.02-1.22.28-.11.56-.23.85-.34.57-.24,1.16-.47,1.76-.72.6-.24,1.23-.49,1.87-.75v48.29Zm-30.54-14.47c.57-.19,1.15-.37,1.72-.55,1.79,5.31,3.58,10.61,5.37,15.91-.65.16-1.3.31-1.95.46-1.72-5.27-3.43-10.55-5.14-15.82Zm1.31,15.59c-2.65-.85-4.12-1.32-5.92-1.89.98-2.29,1.83-4.26,2.67-6.22.37-.08.74-.15,1.1-.23.64,2.48,1.28,4.96,2.15,8.34Zm-12.73,3.61c2-2.42,5.86-2.57,9.38-.83-3.21,2.2-6.81,4.66-10.52,7.2-1.34-1.6-1.26-3.46,1.14-6.37Zm9.98,14.27c.8,1.65,1.43,3.33,2.36,4.83,3.28,5.27,6.31,10.75,10.12,15.62,3.33,4.28,3.92,8.32.34,10.72-3.45,2.3-7.37,1.07-7.27-2.95.18-7.72-4.44-12.98-8.07-18.79-3.25-5.19-3.27-5.59,2.52-9.43Zm3.35-46.41c.54-.18,1.08-.36,1.61-.53,1.41,4.37,2.81,8.74,4.24,13.11,2.18,6.74,4.39,13.46,6.58,20.19.41-1.25.69-3.5,1.25-3.57,2.07-.27,5.42-.57,6.12.52,1.37,2.15,1.75,5.26,1.61,7.92-.07,1.3-2.08,2.91-3.57,3.51-.59.24-2.31-1.71-3.2-2.9-.87-1.17-1.33-2.64-1.97-3.97v5.37c-.24.06-.48.12-.72.19-3.99-13.28-7.97-26.56-11.95-39.84Zm14.66,44.97c5.57,2.36,5.41,3.2-1.79,11.17.67-4.19,1.22-7.59,1.79-11.17Zm7.53,21.89c2.94,1.11,5.67,2.14,8.4,3.17-.11.44-.22.87-.33,1.31-1.58-.26-3.15-.52-4.68-.77-2.2,3.44-4.37,6.84-6.55,10.24-.42-.26-.85-.52-1.27-.78,1.39-4.14,2.78-8.27,4.43-13.17Zm6.95,10.37c.62.24,1.24.47,1.87.7,0,2.48.8,5.42-.26,7.3-.87,1.57-3.95,1.9-6.06,2.77-.45-.54-.9-1.08-1.35-1.62,1.93-3.05,3.87-6.1,5.8-9.15Zm5.81,7.25c2-2.13,3.72-1.68,7.35,1.43-4.73,2.13-9.57,4.29-15.35,6.89,3.24-3.37,5.65-5.82,8-8.32Zm2.53-40.9c-2.91-2.82-6.29-5.75-5.67-10.88.95-7.88,1.58-15.82,1.9-23.76.18-4.72-.49-9.47-.69-12.81,2.42-1.41,4.37-2.55,7.39-4.31.63,13.18,1.24,25.98,1.88,39.18,7.4.07,10.62,3.41,9.67,10.79-1.86-.68-3.58-1.31-5.82-2.13-.19.12-.82.62-1.53.94-2.45,1.12-6.4,3.69-7.13,2.98Zm5.09,12.4c6.41-5.99,14.54-5.46,19.15.25.43.53.84,1.11,1.2,1.74.37.62.7,1.29.99,2.01.15.35.28.72.41,1.1-.81-.64-1.58-1.22-2.32-1.73-.22-.16-.44-.31-.66-.46-.73-.49-1.43-.92-2.1-1.28-.43-.24-.86-.44-1.27-.63-.42-.18-.83-.34-1.23-.47-.25-.08-.5-.15-.74-.21-.25-.06-.5-.11-.74-.15-.25-.04-.49-.07-.74-.09-1.53-.13-3.05.14-4.72.8-.17.07-.35.14-.53.22-.35.16-.72.33-1.09.52s-.75.4-1.14.62h-.01c-.29.17-.59.35-.89.53-.3.19-.62.38-.93.59h-.01s-1.32-1.69-1.32-1.69c-.44-.56-.88-1.12-1.31-1.67Zm15.68,4.45c.56-.26,1.13-.52,1.69-.78.98,2.21,2.82,4.45,2.75,6.63-.14,4.07-1.14,8.18-2.2,12.16-2.64,9.9-7.82,11.35-16.11,3.99,4.57-7.25,9.22-14.63,13.87-22Zm2.57,28.23c3.89-.05,7.77-.5,11.66-.57.93-.02,1.87.76,2.81,1.18-.17.69-.33,1.38-.5,2.07-4.19.28-8.38.85-12.57.79-6.53-.09-9.8,1.9-12.16,8.14-.82-7.6,2.87-11.5,10.76-11.61Zm5.64-55.12c5.91,1.97,7.62,5.06,6.38,9.43-.6.26-1.19.52-1.78.77-1.39-3.08-2.78-6.16-4.6-10.2Zm8.1-18.55c0,.41.01.81.02,1.21.01.73.03,1.46.06,2.19.02.75.06,1.5.1,2.26.03.61.06,1.22.11,1.84.09,1.39.2,2.77.35,4.16-.01-.07-.02-.15-.03-.22-.02-.06-.03-.11-.02-.17-.04-.29-.07-.58-.1-.88,0-.05-.02-.09,0-.14-.1-.91-.19-1.83-.27-2.74-.07-.83-.14-1.67-.2-2.51-.01-.01-.01-.02,0-.03t-.01-.02s-.01-.05,0-.08c-.02-.13-.03-.25-.03-.38-.01-.02-.01-.04,0-.06t0-.02c-.04-.37-.06-.75-.08-1.12-.03-.41-.05-.82-.07-1.23-.01-.01-.01-.03,0-.04-.05-.78-.09-1.56-.12-2.35-.01-.04-.01-.08-.01-.13-.03-.77-.06-1.54-.08-2.32,0-.08-.01-.17-.01-.26-.01-.48-.02-.95-.03-1.43-.01-.03-.01-.06,0-.09h0s-.01-.02,0-.03t0-.02s-.01,0,0-.02t0-.02c-.02-.57-.03-1.13-.03-1.7-.02-.91-.03-1.82-.02-2.73,0-.76.01-1.53.02-2.29-.01-.41,0-.82.02-1.23t0-.02h0v-.04s-.01-.02,0-.03c-.01-.01-.01-.03,0-.04t0-.02s-.01-.01,0-.02c-.01-.01-.01-.02,0-.03v-.32c.02-1.23.05-2.46.1-3.7.03-.99.07-1.98.12-2.97.06-1.48.14-2.95.23-4.43.09-1.47.19-2.94.3-4.42.03-.51.07-1.01.11-1.51.08-1.16.18-2.31.28-3.47.1-1.16.2-2.31.31-3.47.15-1.6.3-3.19.47-4.79.06-.64.12-1.28.19-1.92.17-1.62.34-3.24.52-4.86l-1.76,34.19c-.06.96-.12,1.92-.16,2.87l-.03.57c-.04.67-.07,1.33-.09,1.99-.04.85-.07,1.7-.09,2.55-.02.85-.04,1.7-.05,2.55-.01.76-.02,1.51-.02,2.27,0,.56,0,1.12.01,1.67Zm-5.34-60.45c-.74.15-1.57-.26-2.36-.3-1.13-.07-2.71-.51-3.31.05-.87.81-1.76,2.66-1.4,3.57,1.45,3.61-.03,8.2,4.26,11.04,1.22.81.87,4.38.82,6.67-.4,17.1-.96,34.19-1.33,51.29-.07,3.27.33,6.57.73,9.83.37,3.08-.59,5.8-3.62,5.98-1.78.1-4.35-1.75-5.43-3.44-2.75-4.32-2.75-9.1-2.16-14.31,2.08-18.61,3.65-37.28,5.03-55.95.26-3.5-.94-7.19-1.95-10.66-1.81-6.27-.41-8.26,6.2-8.1,2.32.06,4.68-.18,6.95.16,1.73.27,3.35,1.25,5.67,2.17-3.63.92-5.85,1.55-8.1,2Zm-8.76-77.74c.08-.13.16-.26.26-.38.1-.13.2-.25.31-.36.05-.05.1-.1.15-.14,0,0,0-.02.01-.02.02-.03.03-.04.05-.05.05-.04.09-.08.14-.11.05-.05.1-.09.16-.13.08-.07.17-.13.27-.18.04-.03.09-.06.13-.08.14-.09.28-.16.43-.23.17-.08.34-.15.53-.21.35-.11.72-.2,1.12-.26.1-.02.2-.03.31-.04.1-.02.21-.03.32-.03.1-.01.2-.02.31-.02.47-.03.97-.03,1.51,0q2,6.48-6.47,8.4c-.4-2.1-.41-3.86.03-5.22.12-.34.26-.66.43-.95Zm5.34-32.64c.12-.56.24-1.12.36-1.67.97-4.39,1.9-8.65,2.84-12.91.22.05.45.1.67.15.23.06.45.11.68.16h0c-.48,2.38-.96,4.76-1.45,7.19-.81,4.05-1.64,8.21-2.54,12.7-.2-.3-.39-.6-.58-.88-.74-1.15-1.4-2.15-1.96-3.01-.28-.44-.54-.84-.78-1.2-.12-.19-.23-.36-.34-.53h3.09Zm4.72,38.96c1.46.72,1.95,3.39,2.88,5.17-1.54.46-3.05,1.11-4.63,1.34-.24.04-.49.06-.73.09-.34.03-.67.05-1.01.07-1.14.06-2.3.05-3.45.11-.24.01-.49.03-.73.05-.97.08-1.94.21-3.07.37-.68.09-1.42.2-2.24.31,2.1-5.87,8.8-9.58,12.98-7.51Zm-6.43,30.06h0c.27.28.54.54.8.78.64.6,1.24,1.11,1.76,1.57.2.18.39.36.57.53.1.09.2.18.29.28.08.08.15.15.2.22.28.31.51.62.65.94.05.1.09.2.12.31.98,3.3,1.67,6.79,1.8,10.23.01.23.02.46.04.69.01.23.03.46.05.69.07.81.18,1.61.34,2.37.2.95.49,1.86.88,2.71.06.13.12.26.2.4.13.26.28.52.43.77.08.13.16.26.25.38.08.13.17.25.26.37.09.13.18.25.29.38.05.07.1.13.16.19.05.06.1.13.17.19.09.11.19.22.3.32.35.37.73.71,1.15,1.05.09.07.17.14.24.23.08.08.15.18.22.28.14.2.26.42.38.67.13.26.25.54.4.84.14.3.3.62.49.95h-.01c-.18.01-.35.02-.52.04-.18.02-.36.05-.53.08-.35.07-.69.16-1.03.25h-.01c-.14.04-.28.08-.42.12-.29.09-.56.17-.84.25-.25.07-.49.13-.73.19-.21.06-.43.1-.63.12-.39.05-.78.06-1.14,0-.1-.01-.2-.03-.3-.06-.13-.04-.26-.09-.39-.16-.06-.02-.13-.06-.19-.1-.19-.12-.38-.27-.55-.45-.09-.09-.18-.19-.26-.3-.09-.11-.17-.23-.25-.36-.09-.13-.16-.27-.24-.42-.08-.15-.15-.31-.23-.48-1.65.51-3.29,1.02-5.01,1.56-1.73.54-3.53,1.1-5.51,1.72h0s.01-.01.01-.01c.19-.38.38-.76.55-1.14.29-.62.55-1.23.79-1.85.1-.24.19-.48.28-.72.24-.64.45-1.28.64-1.92.06-.16.11-.33.15-.5.15-.5.28-1.01.41-1.52.06-.26.13-.53.18-.79.25-1.13.44-2.26.59-3.39.08-.58.14-1.16.19-1.74.01-.12.02-.24.03-.36.03-.35.06-.7.08-1.05.01-.11.01-.23.02-.34.02-.36.04-.73.05-1.1.03-.73.04-1.47.04-2.2,0-1.19-.04-2.37-.09-3.57-.03-.69-.06-1.39-.11-2.08-.03-.45-.06-.9-.09-1.35-.18-2.51-.42-5.02-.62-7.52-.03-.32-.07-.64-.12-.96-.04-.25-.09-.51-.15-.77-.35-1.61-.95-3.2-1.45-4.79-.07-.23-.14-.45-.21-.68-.03-.07-.05-.13-.06-.2-.02-.07-.04-.13-.06-.2-.34-1.2-.46-2.28-.38-3.22.02-.19.05-.38.08-.56.01-.09.03-.18.06-.26.02-.09.05-.17.07-.25-.01-.01,0-.02.01-.03.05-.15.1-.3.16-.44,0-.04.02-.07.05-.11.05-.1.1-.21.16-.3.05-.11.12-.21.2-.31.02-.05.06-.1.11-.15.08-.11.17-.21.28-.31.05-.06.1-.11.16-.16.05-.05.11-.1.18-.15.05-.04.11-.08.16-.12.09-.07.19-.13.3-.19.12-.08.26-.14.41-.21.09-.05.2-.09.31-.13.01,0,.02-.01.04-.01.08-.03.15-.05.24-.08.2-.06.43-.12.66-.15.12-.03.25-.05.38-.06.71-.09,1.5-.07,2.38.05,2.92.42,5.84.81,8.75,1.3.06.01.12.04.18.09.03.02.06.04.08.07.08.08.17.18.27.32.21.29.48.71.92,1.27.05.07.11.15.18.23h-.01c-5.03.35-9.25.63-14.01.96,1.11,5.07,2.19,9.99,2.92,13.33Zm-5.91-.04c1.08,8.04-.18,16.33-1.39,25.4v-31.79c.66,2.12,1.11,4.24,1.39,6.39Zm-.69,48.52c-.35,7.72-.7,15.44-1.05,23.16-.09,0-.17-.03-.25-.05v-23.15c.44,0,.86.03,1.3.04Zm19.43-33.49c-.53-6.82-1.06-13.65-1.59-20.48.34-.02.68-.04,1.02-.06.26,3.69.52,7.37.78,11.05.23,3.19.45,6.39.68,9.6-.13-.02-.27-.03-.4-.05-.16-.02-.32-.04-.49-.06Zm.38-105.64c-.74,2.2-1.54,4.39-2.25,6.6-.18.54-.35,1.08-.51,1.63-.11.37-.22.73-.33,1.11-.27.94-.52,1.89-.73,2.84-.71,3.18-.35,6.59-.41,9.9-.05,2.14-.01,4.29-.01,6.52-.31-.73-.58-1.46-.8-2.18-.04-.11-.07-.21-.1-.32-.19-.61-.34-1.22-.46-1.82-.05-.22-.09-.44-.13-.66-.04-.22-.08-.44-.11-.66-.12-.88-.2-1.75-.22-2.61t0-.02s0-.01,0-.02c0-.03,0-.05,0-.08-.01-.06-.01-.1,0-.16-.01-.25-.01-.49,0-.74,0-.14,0-.29,0-.43.01-.33.03-.66.05-.98.03-.33.06-.66.1-.98h0c.09-.7.19-1.39.32-2.07.04-.23.09-.46.14-.68.25-1.14.56-2.26.91-3.38.14-.45.29-.9.45-1.34.24-.66.48-1.33.74-1.99.43-1.11.89-2.21,1.36-3.3.24-.55.48-1.1.72-1.64.23-.55.48-1.1.72-1.64.19-.42.37-.84.55-1.26.18-.42.36-.84.54-1.26.01-.02.02-.03.02-.05.01-.01.02-.02.02-.03-.19.57-.38,1.14-.58,1.7Zm-14.84,28.5c-2.63.74-5.01,1.4-7.4,2.07.04-.27.09-.55.13-.83-1.94-.2-3.89-.39-5.83-.59-.25,3.14-1.82,7.15-.44,9.21,1.87,2.82,1.86,4.96,1.18,7.73-1.17,4.79-3.04,9.56.47,14.31.52.7-.06,2.54-.63,3.58-.27.49-2.17.8-2.57.41-2.91-2.81-6.26-1.99-9.63-1.58-.55.06-1.17-.43-2.6-1.01,6.83-5.95,7.67-14.2,9.96-21.78.98-3.25.72-6.84,1.3-10.23.25-1.47.83-3.28,1.89-4.14,2.08-1.67,12.31.72,14.17,2.85Zm-95.78,21.69c-.45.82-.9,1.64-1.34,2.45h0c-2.07-1.11-4.14-2.22-6.22-3.33.66-.82,1.68-2.44,1.91-2.33,1.97.89,3.78,2.1,5.65,3.21Zm-2.78,55.02c-.5.09-1,.19-1.5.28-1.43-8.74-2.86-17.48-4.29-26.22.41-.16.82-.33,1.23-.49.76,6.29,1.39,12.61,2.33,18.87.05.32.11.64.18.96.13.63.31,1.27.49,1.9.17.55.35,1.1.54,1.64.34,1.01.71,2.03,1.02,3.05h0Zm2.16-8.93c-1.75-6.47-3.12-12.86-5.3-18.97-1.03-2.91-3.34-5.53-5.54-7.83-2.56-2.67-2.98-5.65.19-7.35,3.23-1.75,6.9-2.8,10.5-3.66,1.26-.31,2.87.85,3.85,1.18-2.2,1-4.21,1.95-6.25,2.82-.86.37-1.83.5-2.7.86-1.4.57-2.76,1.24-4.14,1.87.66,1.2,1.21,2.48,2.01,3.56.87,1.18,1.99,2.17,3.25,3.52,1.57-.71,3.31-1.5,5.28-2.4,4.68,6.07,5.78,13.04,5.88,20.9-1.73,1.55-3.42,3.13-5.2,4.6-.6.49-1.42.71-1.83.9Zm3.6,11.82c-2.61-3.64-2.38-6.14,1.8-7.76,3.97-1.54,8.14-2.56,12.22-3.81l.42,1.47c-3.67,1.36-7.48,2.45-10.91,4.27-1.02.54-1.85,3.88-1.23,4.59,1.44,1.64,2.19,5.52,5.95,3.36,1.51-.87,3.11-1.58,5.13-2.59,1.97,5.86,4.48,11.04,5.29,16.47.62,4.14-.64,8.68-1.63,12.9-.36,1.51-2.38,2.62-3.1,3.36-2.12-6.85-3.68-13.49-6.25-19.71-1.85-4.49-4.83-8.57-7.69-12.55Zm-5.74,134.18c4.1,4.01,8.21,8.03,12.31,12.04-.02.06-.04.1-.07.16-1.05-.99-2.1-1.98-3.14-2.98-3.13-2.98-6.27-5.96-9.4-8.94.1-.09.2-.19.3-.28Zm159.44,14.92c1.66-1.06,3.12-2.44,4.83-3.79,4.32,3.18,4.48,5.71.82,9.31-12.96,12.74-28.31,21.36-45.43,26.8-17.02,5.41-34.51,6.96-52.23,4.16-14.05-2.21-27.58-6.39-39.65-13.93-8.38-5.22-15.93-11.75-23.82-17.75-.76-.57-1.77-1.46-1.8-2.23-.04-1.79.44-3.6.71-5.4,1.64.33,3.6.18,4.86,1.05,7.49,5.2,14.39,11.37,22.27,15.85,31.43,17.86,64.26,20.79,97.48,5.85,11.35-5.11,21.37-13.16,31.96-19.92Zm-8.02-104.8c-2.13-.42-4.28-.71-6.36-1.3-.94-.27-1.68-1.21-2.6-1.66-1.25-.62-2.73-1.66-3.84-1.4-1.06.24-2.57,1.99-2.5,2.98.23,3.33-3.27,7.69,3.06,9.87-2.08,6.77-3.94,13.44-6.18,19.99-2.84,8.31-6.05,16.5-8.95,24.79-.53,1.5-.37,3.27-.42,4.91-.05,1.82.63,3.95-.09,5.4-1.17,2.37-3.02,4.54-5.03,6.27-.66.58-3.71-.1-3.94-.79-.95-2.82-2.57-6.49-1.53-8.73,9.36-20.28,15.63-41.52,20.77-63.15,1.22-5.13,4.37-6.25,8.69-3.25,1.46,1.01,3.27,1.48,4.84,2.36,1.67.94,3.24,2.07,4.86,3.12-.26.2-.52.39-.78.59Zm-30.8,29.76c2.13-6.41,4.25-12.81,6.38-19.21.32.1.64.2.96.3-2.13,6.46-4.27,12.92-6.4,19.38-.31-.16-.63-.32-.94-.47Zm35.78-40.41c-.04.11-.1.22-.17.34-.04.06-.08.12-.12.19-.08.11-.17.23-.29.35-.05.06-.1.12-.16.18-.05.07-.12.13-.17.19-.12.12-.23.23-.35.36l-.18.18c-.06.07-.12.13-.18.19-.17.18-.34.36-.48.54-.3-.31-.63-.62-.97-.92-.23-.2-.45-.41-.66-.61-.32-.3-.63-.62-.87-.95-.21-.29-.38-.6-.49-.93-.04-.13-.04-.27-.01-.42.02-.08.04-.15.07-.23.03-.07.06-.15.1-.24.03-.08.08-.17.14-.26.09-.14.18-.3.29-.46.16-.25.34-.52.55-.8.13-.19.28-.39.42-.61.29-.43.6-.9.9-1.41.54.93,1.05,1.68,1.48,2.33.09.13.17.25.25.38.16.24.3.47.43.69.21.35.36.68.44,1.01.05.17.08.33.09.49.01.14-.01.27-.06.42Zm4.99-25.42c-.14-.27-2.98.19-3.32.91-.83,1.74-1.45,3.9-1.21,5.77.99,7.91-4.05,12.51-8.71,17.35-3.06-1.1-5.91-2.13-7.88-2.85,3.77-3.9,8.09-7.88,11.75-12.39,1.63-2,2.35-5.03,2.72-7.7.77-5.48,3.42-6.88,8.01-4.01,2.15,1.34,4.62,2.15,6.82,3.85-2.76.02-5.73,3.59-8.18-.93Zm15.75-20.39c-.6,1.44-.55,3.14-.9,4.7-.71,3.15-1.49,6.28-2.23,9.37-2.22-1.27-5.7-3.26-9.21-5.27,5.02-4.44,9.77-9.21,11.63-16.16,1.05-3.93,1.78-4.12,6.9-2.29-5.9,1.23-4.79,6.21-6.19,9.65Zm12.72-14.15c-3.24-.68-6.2-1.3-8.11-1.7,3.75-3.71,8.23-8.14,12.4-12.26,6.31,6.86-4.27,9.04-4.29,13.96Zm6.32-23.83c-.99.51-2.08.84-2.24.91-7.76-10.73-14.62-21.53-22.78-31.23-14.77-17.54-33.3-29.84-55.37-36.63-31.07-9.55-60.36-4.78-87.77,11.68-8.71,5.23-16.24,12.44-24.19,18.9-2.69,2.18-5,4.82-7.48,7.24-4.61-5.96-4.68-6.61,1.55-12.89C97.33,16.15,127.83,2.45,164.44,3.9c15.62.61,30.41,4.67,45,11.63-1.37,1.58-2.4,2.76-3.28,3.77.93.62,1.89,1.25,3.12,2.06.27-1.24.63-2.87,1.12-5.12,2.32,1.13,4.41,2,6.35,3.12,2.73,1.58,5.62,3.05,7.96,5.12,2.9,2.57,5.7,4.97,9.19,6.9,3.87,2.15,6.85,5.91,10.02,8.8-.63,2-1.19,3.84-1.5,4.84,2.92.44,6.06-.04,7.25,1.26,9.66,10.56,17.81,22.21,24.1,35.41-1.42.86-2.49,1.61-3.64,2.19Z"/>
      <path d="m92.72,118.35c.01.07.02.14.04.21.07.41.14.83.22,1.24h-.01c-1.54.19-3.08.38-4.64.58-1.57.2-3.16.4-4.79.6h0c.05-.22.1-.42.16-.61.08-.31.18-.59.28-.86.04-.11.08-.21.12-.31.16-.38.33-.71.52-1,.06-.1.13-.19.19-.28.1-.14.21-.27.33-.39.06-.06.12-.12.18-.18s.12-.11.19-.16c.07-.06.14-.11.22-.16.05-.03.1-.06.15-.09.08-.04.15-.08.23-.11.07-.04.14-.07.21-.09.14-.05.28-.09.43-.12.1-.02.21-.04.31-.05.13-.01.26-.02.39-.02.16,0,.31.01.46.03.13.01.26.03.39.05.27.05.53.11.8.19.17.05.35.11.53.17s.36.13.54.2c.08.03.17.07.25.1.08.03.17.07.25.11.22.1.45.2.68.3.34.16.69.32,1.03.48.12.06.23.12.34.17Z"/>
      <path d="m82.67,179.52c-1.17.55-2.05.96-2.26,1.06-3.66-3.78-6.66-6.87-9.65-9.96.41-.43.81-.87,1.21-1.3,1.91,1.16,3.82,2.32,5.82,3.53,1.79-2.84,3.61-5.72,5.45-8.62-3.28-.43-5.27-.69-7.9-1.03.75,1.24,1.55,2.07,1.72,3.01.2,1.07-.18,2.24-.31,3.37-.91-.43-1.93-.72-2.72-1.32-3.88-2.96-7.7-5.99-12-9.36-.13-.1-.26-.2-.4-.31-.02.08-.03.15-.05.22-.47,2.21-.7,3.29-.86,4.05-4.01-1.84-7.77-3.58-11.28-5.19-1.24,2.52-1.9,3.84-3.19,6.46-.92-3.12-1.37-4.66-1.76-6.02-1.37,2.05-2.57,3.85-3.77,5.64-1.22-1-2.45-2-3.75-3.06-2.48,2.27-4.84,2.82-5.84-2.23-5.61,1.38-10.9,2.74-16.23,3.96-3.43.79-7.05,2.66-9.75-1.77-.45-.74-2.59-.44-5.15-.79.83,4.04,1.47,7.13,2.14,10.33-.46,1.99-1.24,4.36-1.52,6.79-.39,3.44-.5,6.93-.58,10.39-.04,1.84.26,3.67.4,5.51,1.76-1.07,4.19-1.73,5.15-3.29,1.86-3.03,2.3-7.02,4.4-9.8,3.34-4.41,7.56-8.15,10.49-11.21,0-2.76-.38-4.59.19-6.05.22-.56,2.72-.73,3.92-.32,2.1.71,3.99,2,6.55,3.35.44.74,1.53,2.27,2.31,3.95.36.76.34,1.86.11,2.7-.55,2.03-1.87,3.99-1.92,6-.2,9.61-.09,19.23-.09,28.67-2.35.72-4.14,1.27-4.69,1.44,1.66,3.49,4.25,6.62,4.49,9.91.62,8.44.47,16.97.07,25.44-.22,4.5.12,10.2-7.32,9.86-.65-.03-1.38,1.75-2.08,2.68.83.59,1.61,1.57,2.5,1.68,2.09.24,4.24.08,7.03.08-.32,2.77-.94,4.63-.62,6.31.33,1.76,1.53,4.76,2.42,4.79,5.68.17,4.93,4.54,5.43,7.82.56,3.7,1.5,7.78.49,11.17-1.6,5.36.65,15.25,5.53,18.23.48.3,1.62-.1,2.26-.49,5.16-3.22,1.72-8.15,2.84-11.7-2.24-.76-3.87-1.31-5.64-1.91.53-4.86-2.08-9.96,2.15-15.57.49,4.78.85,8.25,1.21,11.73.46-.01.93-.01,1.39-.02-2.15-11,9.15-18.88,5.7-30.03,2.48-.26,4.25-.45,6.02-.64.27-.4.53-.79.8-1.19-1.17-1.05-2.4-3.06-3.51-3-5.5.33-6.42-2.82-6.38-7.22.06-7.98.09-15.97,0-23.96-.07-5.36-.65-10.82,7.57-13.24-3.66-.93-5.51-1.39-7.55-1.91,0-9.5,0-18.8.01-28.11,0-4.32-.21-8.67.13-12.97.13-1.55,1.6-3,2.46-4.5,1.12.94,2.19,1.95,3.37,2.81,3.77,2.75,7.59,5.44,11.48,8.22,3.81,6.91,7.2,14.81,14.14,20.42.51-.13,1.02-.25,1.54-.38-.69-4.29-1.38-8.57-2.11-13.11Zm-34.77-11.18c-.02.12-.06.24-.11.36-.05.13-.11.26-.19.38-.08.13-.16.25-.27.37-.1.13-.2.25-.33.37-.38.41-.85.78-1.27,1.03-.18.11-.37.21-.57.3-.39.19-.8.37-1.24.53-.22.08-.44.17-.69.25-.06.02-.12.04-.18.06-.13.05-.27.1-.41.14-.43.15-.89.3-1.39.48-.29.1-.6.2-.92.32-.16.06-.32.12-.49.18-.19-.31-.48-.75-.81-1.27-.25-.39-.52-.81-.8-1.25-.09-.14-.18-.29-.27-.43,1.15-.53,2.39-.92,3.41-1.64.07-.05.14-.11.2-.18.02-.02.04-.04.06-.07.04-.06.09-.12.13-.19.16-.26.29-.58.43-.87.05-.09.1-.19.16-.27h0c.06-.1.12-.18.18-.25.02-.03.05-.06.07-.07.03-.05.09-.08.13-.12.97-.67,2.4-1.6,3.22-1.29.94.35,1.97,1.92,1.96,2.95,0,.06,0,.12-.01.18Z"/>
      <path d="m298.58,271.65c0-2.65.64-5.24-.11-5.75-4.17-2.8-1.99-5.96-1.14-9.17.47-1.74.67-3.55,1.17-6.34-2.56,1.57-3.74,2.29-5.19,3.19-.85-2.29-1.53-4.12-2.27-6.14,1.58-.59,2.9-1.08,4.57-1.7-2.93-9.01-5.64-17.87-8.74-26.59-1.57-4.42-1.55-8.08,3.73-11.36-3.26-.38-5.45-.64-7.8-.92-4-12.2-7.88-24.36-12-36.44-1.61-4.72-3.26-9.13,3.72-11.74h-30.97c6.33,2.88,5.19,6.96,3.46,11.73-3.67,10.09-6.82,20.37-9.85,29.57,2.24,1.39,5.41,2.44,5.43,3.55.05,2.87-1.07,5.39-5.39,4.82-3.5-.47-6.43.96-5.58,5.87.36,2.09-.73,4.51-1.44,6.68-3.14,9.62-6.38,19.2-9.59,28.79.03-.03.06-.05.09-.08-2.01,2.24-6.53,2.86-4.92,7.19h22.27c.3-.34.6-.68.9-1.03-1.26-1.03-2.38-2.69-3.8-2.98-4.28-.91-5.6-3.04-4.16-7.14,1.26-3.6,2.36-7.26,3.53-10.9,1.65-5.12,3.3-10.25,4.56-14.17,5.25.53,9.51.96,13.76,1.38.1-.51.21-1.01.32-1.52-2.85-1.89-5.95-3.5-8.42-5.79-1.23-1.12-2.2-3.77-1.75-5.26,2.57-8.63,5.57-17.13,8.51-25.64.47-1.37,1.36-2.59,2.54-4.8,3.22,10.24,6.04,19.21,8.9,28.33-1.59.53-2.77.91-3.04,1.01,1.57,3.01,4.23,5.92,4.12,8.71-.07,1.68-4.48,3.19-7.53,5.15v2.85c4.96-1.43,9.51-2.75,15.5-4.49-4.18,6.96-.54,11.54,1.51,16.38,1.62,3.82,3.22,7.66,5.09,11.37,1.09,2.17,1.05,6.09,5.47,4.46.31-.12,1.51.98,1.58,1.59.48,4.31,4.76,4.76,6.54,6.67.56,2.77.98,4.93,1.43,7.09.43,2.09,1.96,5.31,1.16,6.06-3.06,2.86.46,3.74.56,5.7,6.08-3.25,6.42-4.91,3.27-8.19Zm-70.44-24.12c-.18,1.09-.67,2.26-1.38,3.1-1.37,1.64-2.98,3.06-4.49,4.58-.5-1.89-1-3.78-1.5-5.67,1.43-1.23,2.8-2.52,4.3-3.67.78-.6,1.78-.91,2.68-1.35.15,1.01.56,2.06.39,3.01Z"/>
      <path d="m277.56,183.83c-1.98-6.07-4.11-12.1-5.81-18.24-.28-1.02,1.06-2.82,2.1-3.77,1.12-1.02,2.78-1.46,4.66-2.38-3.18-4.14-6.85-3.73-10.67-3.35-2.24.22-4.54-.15-6.81-.36-.8-.07-1.93-.87-2.29-.57-5.6,4.52-11.89-1.57-17.93,1.94.62-1.67.96-2.57,1.3-3.47,5.35-4.08,10.44-8.07,12.19-15.36.84-3.52,3.39-7.55,6.38-9.44,6.04-3.81,9.29-9.11,12.77-15.8,1.01,4.27,2.03,8.54,3.05,12.81,1.04,15.54,2.2,31.07,3.05,46.62.2,3.7-.64,7.46-1.99,11.37Z"/>
      <path d="m263.19,216.02c-4.77,4.13-8.73,2.23-12.51.27-6.52-3.38-6.59-3.76-4.35-10.65,2.14-6.59,4.27-13.18,6.41-19.77.4.02.79.04,1.19.07,1.99,6.25,3.97,12.49,6.04,19-.84.59-1.58,1.16-2.36,1.66-2.84,1.83-3.87,3.27.31,4.94,1.9.77,3.3,2.75,5.27,4.48Z"/>
      <path d="m29.09,202.63c.12.91-.92,1.98-1.43,2.98-.6-.78-1.51-1.47-1.75-2.35-2.94-10.67-3.37-21.59-2.88-32.58.02-.55.5-1.09,1.22-2.57,1.74,12.18,3.38,23.34,4.84,34.52Z"/>
      <path d="m61.58,249.91c-2.79,1.85-5.55,1.29-6.54-1.74-.88-2.71-1.11-5.63-1.89-9.84,2.54,2.67,4.01,4.22,5.48,5.77.98,1.94,1.97,3.87,2.95,5.81Z"/>
      <path d="m162.6,18.38v.03c-.86,7.32-1.63,13.94-2.4,20.55-3.79,6.81-7.42,13.11-7.85,21.78-.42,8.38-3.51,17.08-10.14,24.23-3.71,4.01-4.1,11.1-5.99,16.81.15.23.3.46.44.69.11.18.21.36.31.53.06.11.12.21.17.31.02.02.03.04.03.05h.01s0,.02.01.02c0,.02.01.03.02.04,0,.01.01.02.01.02.01.01.02.02.02.03.58,1.08,1.06,2.18,1.43,3.3.07.22.13.43.2.65.06.21.11.43.17.65.06.22.11.43.15.65.04.2.07.4.1.6.04.27.08.53.12.8.01.16.03.31.04.46.1,1.13.09,2.3-.04,3.51-.05.54-.13,1.1-.24,1.66-.48,2.56-.73,5.16-.9,7.78-.09,1.3-.16,2.61-.24,3.92h0c-.07,1.26-.14,2.52-.25,3.78,0,.05-.01.1-.01.15-.78,2.15-1.82,4.24-2.3,6.46-1.29,5.99-2.67,12-3.33,18.08-.21,1.97,1.69,4.16,2.62,6.25v6.37c-6.69-.04-13.21,2.37-19.26-1.87.12-1.14-.03-2.39.4-3.39,1.78-4.13.22-7.05-3.06-9.49-8.07-6.01-10.21-14.9-12.14-24.08-1.55-7.38-2.23-14.86-8.84-20.72-3.7-3.27-5.91-9.53-6.52-14.71-1.15-9.9-4.63-18.55-9.68-26.92-4.22-7-3.89-7.81,1.92-13.69,15.68-15.84,33.45-28.32,55.41-33.77,5.13-1.27,10.47-1.64,15.71-2.42,4.32-.24,8.64-.46,13.89-.75,0,.56,0,1.11.01,1.65Z"/>
      <path d="m137.73,225.57c0,.52-1.3,1.03-1.99,1.55-1.12-3.12-2.25-6.24-3.37-9.37-.99-2.74-1.97-5.48-2.95-8.23-.14-.38-.28-.76-.41-1.15-.91-2.55-1.81-5.1-2.7-7.66-1.03-2.94-2.04-5.89-3.03-8.84-.05-.14-.05-.29-.02-.46,0-.05.03-.1.05-.16.01-.05.03-.09.05-.14.01-.05.03-.09.06-.14.12-.25.29-.53.49-.81.1-.12.19-.25.29-.38.36-.47.77-.96,1.13-1.43.15-.21.3-.42.43-.62h0s.01-.01.02-.01c3.61-.95,7.22-1.88,12.03-3.14,0,14.03.02,27.51-.09,40.99Z"/>
      <path class="cls-1" d="m154.4,140.5c-.04.13-.08.25-.13.38.04-.13.08-.25.12-.38h.01Z"/>
      <path class="cls-1" d="m167.77,146.89c.19-.38.38-.76.56-1.14-.17.38-.36.76-.55,1.14h-.01Z"/>
      <path class="cls-1" d="m168.82,106.15c.02.07.04.13.06.2-.03-.07-.05-.14-.07-.21-.34-1.2-.46-2.28-.37-3.21-.08.94.04,2.02.38,3.22Z"/>
      <path class="cls-1" d="m152.6,259.37c.43.55.87,1.11,1.31,1.67-.44-.56-.88-1.12-1.32-1.67h.01Z"/>
      <path class="cls-1" d="m185.38,231.37c-.07-.52-.14-1.03-.18-1.55,0,.07.02.15.03.22.04.44.09.88.15,1.33Z"/>
      <path class="cls-1" d="m131.16,185.54c.97-.39,1.97-.8,3.02-1.22-1.04.43-2.05.83-3.02,1.22Z"/>
      <path class="cls-1" d="m137.45,231.13h-.01c-.56-1.34-1.13-2.68-1.7-4.01.57,1.34,1.14,2.67,1.71,4.01Z"/>
      <path class="cls-1" d="m203.13,238.7c-.24-.54-.44-1.06-.58-1.59.15.53.34,1.05.58,1.59Z"/>
      <path class="cls-1" d="m170.06,81.14c-.44,1.36-.43,3.12-.03,5.22h-.01c-.4-2.1-.41-3.86.04-5.22Z"/>
      <path class="cls-1" d="m170.06,81.14c.11-.34.25-.66.43-.95-.17.29-.31.61-.43.95Z"/>
      <path class="cls-1" d="m88.45,227.71c1.06-15.55,2.12-31.1,3.18-46.64-1.06,15.55-2.12,31.09-3.17,46.64h0Z"/>
      <path class="cls-1" d="m92.67,181.13h0c-.34-.02-.69-.04-1.04-.06.35.02.69.04,1.04.06Z"/>
      <path class="cls-1" d="m175.83,47.55h0c.12-.56.25-1.12.37-1.67-.12.55-.24,1.11-.36,1.67Z"/>
      <path class="cls-1" d="m180.38,33.27h0c-.23-.04-.45-.09-.68-.15.23.05.45.1.68.15Z"/>
      <path class="cls-1" d="m151.4,129.96c-.13.42-.23.84-.31,1.26.07-.42.18-.84.31-1.26Z"/>
      <path class="cls-1" d="m153.59,125.38c-.11.19-.22.37-.33.55-.22.36-.41.71-.6,1.07-.11.2-.22.39-.32.59.35-.73.77-1.47,1.25-2.21Z"/>
      <path class="cls-1" d="m166.82,110.17v31.69s-.01.05-.01.07v-31.79s.01.02.01.03Z"/>
      <path class="cls-1" d="m181.27,46.27c.02.86.1,1.73.22,2.61-.13-.88-.21-1.75-.22-2.61Z"/>
      <path class="cls-1" d="m181.42,42.85c.08-.69.18-1.38.32-2.06-.13.68-.23,1.37-.32,2.06Z"/>
      <path class="cls-1" d="m181.88,40.11c.24-1.14.55-2.26.91-3.38-.35,1.12-.66,2.24-.91,3.38Z"/>
      <path class="cls-1" d="m72.43,131.41c-1.43-8.74-2.86-17.48-4.3-26.23.42-.16.83-.32,1.24-.48-.41.16-.82.33-1.23.49,1.43,8.74,2.86,17.48,4.29,26.22Z"/>
      <path class="cls-1" d="m136.97,103c.06.11.12.21.17.31-.11-.17-.22-.34-.33-.51-.21-.34-.41-.68-.59-1.02.15.23.3.46.44.69.11.18.21.36.31.53Z"/>
      <path class="cls-1" d="m137.76,131.38c.1-1.3.19-2.61.27-3.92-.07,1.25-.14,2.51-.25,3.77-.01.05-.01.1-.02.15Z"/>
      <path class="cls-1" d="m139.29,109.32c-.07-.42-.15-.84-.25-1.25.06.22.11.43.15.65.04.2.07.4.1.6Z"/>
      <path class="cls-1" d="m92.72,118.34h0c-.11-.04-.22-.1-.34-.16.11.05.23.11.34.16Z"/>
      <path class="cls-1" d="m225.26,166.78c.11.33.28.64.49.93-.22-.29-.4-.6-.5-.93-.04-.13-.04-.27,0-.42-.03.15-.03.29.01.42Z"/>
      <path class="cls-1" d="m129.28,222.99h0c-.41.2-.82.38-1.23.57.41-.19.82-.38,1.23-.57Z"/>
      <path class="cls-1" d="m162.57,74.91c-.58,3.49-1.15,6.97-1.73,10.46.57-3.48,1.15-6.97,1.72-10.46h.01Z"/>
      <rect class="cls-1" x="166.21" y="165.01" width=".01" height="23.14"/>
      <path class="cls-1" d="m86.19,280.4h0c-1.05-.99-2.09-1.98-3.14-2.98,1.04,1,2.09,1.99,3.14,2.98Z"/>
      <path class="cls-1" d="m186.38,111.02c-.34.02-.68.04-1.02.06.34-.02.68-.05,1.02-.07h0Z"/>
      <path class="cls-1" d="m186.95,131.56h-.01c-.52-6.83-1.05-13.65-1.58-20.48.53,6.83,1.06,13.66,1.59,20.48Z"/>
      <path class="cls-1" d="m158.53,115.42c-.16,0-.31,0-.47.01h0s.47-.01.47-.01Z"/>
      <path class="cls-1" d="m162.49,91.42h0c-.77.06-1.53.11-2.28.15.75-.05,1.5-.1,2.28-.15Z"/>
      <path class="cls-1" d="m37.96,170.16c.09.14.18.29.27.43-.09-.14-.19-.29-.28-.43h0Z"/>
      <path class="cls-1" d="m39.03,171.84c.33.52.62.96.81,1.27-.2-.31-.49-.76-.81-1.27Z"/>
      <path class="cls-1" d="m42.19,167.21c.1-.19.21-.38.34-.52-.13.15-.24.33-.34.52Z"/>
      <path class="cls-1" d="m220.77,249.52v.02s-.06.06-.09.08l.09-.1Z"/>
    </g>
  </g>
</svg>