<?xml version="1.0" encoding="UTF-8"?>
<svg id="Layer_2" data-name="Layer 2" xmlns="http://www.w3.org/2000/svg" viewBox="0 0 2507.32 729.09">
  <g id="Layer_1-2" data-name="Layer 1">
    <g>
      <path d="m1324.92,365.36c0-116.12,0-232.25,0-348.37q0-16.27,15.97-16.3c120.35,0,240.71-1.03,361.04.41,62.6.75,122.91,14.15,176.62,48.73,46.58,29.99,80.76,71.07,103.47,121.29,22.24,49.2,33.69,100.93,37.51,155.04,3.39,48,1.28,95.46-8.43,142.09-18.8,90.33-62.47,164.93-145.34,211.67-37.3,21.04-77.65,33.46-119.92,41.06-43.9,7.89-87.97,8.01-132.22,7.94-91.3-.15-182.6-.04-273.9-.05-14.75,0-14.81-.04-14.81-15.15-.02-116.12,0-232.25-.01-348.37Zm220.92-1.34c0,50.12,0,100.24,0,150.36,0,35.31-2.06,30.73,30.64,30.35,36.5-.42,73.15,3.1,109.37-5.78,42.39-10.39,73.87-34.3,91.86-73.76,22.32-48.94,26.35-100.13,15.49-152.95-15.73-76.47-72.88-119.59-145.34-124.93-28.22-2.08-56.64-1.62-84.97-2.06-16.11-.25-17.01.81-17.03,17.01-.03,53.92-.01,107.84-.02,161.76Z"/>
      <path d="m669.45,364.79c0-115.8,0-231.61,0-347.41,0-16.51.19-16.69,16.87-16.69,193.36,0,386.73,0,580.09,0q16.16,0,16.2,15.78c.02,51.85.03,103.71,0,155.56,0,12.83-.72,13.26-13.54,13.25-121.41-.07-242.83,0-364.24-.18-8.99-.01-13.21,2.37-12.98,12.31.54,23.49.36,47.01,0,70.51-.12,7.99,2.93,11.62,10.84,11.39,3.46-.1,6.92.03,10.38.03,117.96,0,235.91,0,353.87.01,15.64,0,15.67.05,15.68,15.51.05,48.4-.1,96.79.31,145.19.07,8.03-3.08,10.6-10.22,10.52-3.8-.04-7.61.05-11.41.05-116.23,0-232.45,0-348.68.01-4.15,0-8.74-.93-12.32.54-3.33,1.36-7.89,5.29-7.96,8.18-.59,25.57-.26,51.15-.28,76.73,0,6.17,3.17,8.73,9.01,8.73,3.46,0,6.92.07,10.38.07,118.65,0,237.3,0,355.94.01,14.93,0,15.22.28,15.23,14.96.03,51.85-.21,103.71.19,155.56.08,10.25-2.9,13.69-13.54,13.68-195.44-.29-390.88-.2-586.32-.22-12.97,0-13.46-.49-13.46-14.59-.03-116.5-.02-232.99-.03-349.49Z"/>
      <path d="m316.02.69c100.32,0,200.65,0,300.97,0,14.51,0,14.58.05,14.59,14.27.03,51.86.04,103.71,0,155.57-.01,14.38-.32,14.64-14.4,14.65-58.12.02-116.24,0-174.35.02-15.76,0-16.27.49-16.28,16.33-.02,168.71-.01,337.42-.01,506.13,0,3.46-.21,6.93.01,10.37.53,8.03-3.09,11.01-11.08,10.94-31.13-.25-62.27-.09-93.4-.09-33.9,0-67.8.01-101.71,0-15.68,0-16.04-.35-16.04-16.49-.02-92.31,0-184.61-.01-276.92,0-72.25,0-144.51,0-216.76,0-2.77-.11-5.54.03-8.3,1.33-26.24,2.98-25.3-24.62-25.25-55,.1-110.01.05-165.01.02-14.08,0-14.66-.57-14.67-14.59C-.01,119.43,0,68.26,0,17.1,0,.99.28.7,16.09.69c99.98-.01,199.95,0,299.93,0Z"/>
      <path d="m2507.32,446.26c-6.44.39-9.78.76-13.13.76-45.31.04-90.63-.2-135.94.22-8.43.08-13.29-2.96-17.39-9.85-18.18-30.56-36.62-60.97-55.1-91.35-2.06-3.39-4.98-6.25-9.1-11.33-7.77,12.57-14.75,23.45-21.32,34.57-13.16,22.28-26.29,44.59-39.02,67.12-4.35,7.7-9.52,11.01-18.86,10.9-44.27-.54-88.55-.24-132.83-.24-4.08,0-8.17,0-14.04,0,1.68-3.99,2.3-6.57,3.69-8.62,40.45-59.35,80.99-118.63,121.46-177.96,7.79-11.41,15.22-23.06,23.09-34.42,3.64-5.26,3.65-9.58-.12-15.02-32.37-46.86-64.48-93.91-96.68-140.88-13.85-20.21-27.78-40.36-41.59-60.6-1.3-1.9-2.02-4.2-3.76-7.9,4.56-.55,8.06-1.33,11.57-1.34,45.31-.08,90.63.12,135.94-.2,8.85-.06,13.78,3.47,17.9,11.02,15.87,29.09,32.23,57.9,48.5,86.77,4.75,8.42,9.2,8.39,14.04,0,16.38-28.4,32.97-56.69,48.88-85.36,4.92-8.87,10.69-12.68,21.23-12.54,43.92.59,87.86.25,131.79.25,3.74,0,7.48,0,13.59,0-2.43,4.94-3.61,8.31-5.55,11.16-42.66,62.43-85.3,124.88-128.2,187.14-13.98,20.28-13.95,19.79-.13,39.97,38.8,56.71,77.25,113.65,115.84,170.49,7.89,11.62,15.76,23.25,25.25,37.25Z"/>
    </g>
  </g>
</svg>